M48
; DRILL file {KiCad 8.0.5} date 2024-09-12T11:50:47+0100
; FORMAT={-:-/ absolute / metric / decimal}
; #@! TF.CreationDate,2024-09-12T11:50:47+01:00
; #@! TF.GenerationSoftware,Kicad,Pcbnew,8.0.5
; #@! TF.FileFunction,Plated,1,6,PTH
FMAT,2
METRIC
; #@! TA.AperFunction,Plated,PTH,ViaDrill
T1C0.200
; #@! TA.AperFunction,Plated,PTH,ComponentDrill
T2C0.500
; #@! TA.AperFunction,Plated,PTH,ComponentDrill
T3C0.550
; #@! TA.AperFunction,Plated,PTH,ComponentDrill
T4C1.000
; #@! TA.AperFunction,Plated,PTH,ComponentDrill
T5C3.200
%
G90
G05
T1
X79.8Y-329.1
X79.8Y-330.0
X80.8Y-329.1
X80.8Y-330.0
X81.8Y-329.1
X81.8Y-330.0
X81.8Y-331.2
X82.0Y-353.1
X82.0Y-362.2
X83.7Y-321.7
X83.7Y-322.7
X84.2Y-373.8
X84.7Y-321.7
X84.7Y-322.7
X85.7Y-321.7
X85.7Y-322.7
X86.9Y-396.9
X87.2Y-382.4
X87.2Y-384.0
X88.2Y-393.2
X88.3Y-344.8
X88.3Y-367.1
X89.4Y-393.2
X89.5Y-333.2
X89.7Y-319.4
X90.2Y-331.3
X90.6Y-319.4
X90.8Y-346.8
X90.8Y-347.9
X91.5Y-319.4
X91.5Y-397.0
X91.7Y-337.3
X92.3Y-368.2
X92.5Y-306.7
X92.7Y-326.9
X93.1Y-323.0
X93.5Y-306.7
X94.0Y-335.7
X94.0Y-337.6
X94.0Y-338.8
X94.4Y-361.5
X94.4Y-363.0
X94.4Y-364.0
X95.3Y-387.7
X96.1Y-349.1
X96.9Y-352.0
X96.9Y-354.0
X97.0Y-380.75
X97.0Y-391.75
X97.6Y-349.1
X97.6Y-374.3
X98.0Y-380.75
X98.0Y-391.75
X98.6Y-350.7
X98.8Y-335.7
X99.0Y-366.6
X99.3Y-375.0
X99.5Y-355.3
X99.7Y-340.9
X99.8Y-342.5
X99.9Y-391.5
X100.0Y-343.9
X100.0Y-344.7
X100.3Y-382.1
X100.4Y-355.3
X100.65Y-346.75
X100.65Y-347.8
X100.65Y-358.534
X100.9Y-402.3
X101.3Y-346.1
X101.3Y-359.1
X101.4Y-339.9
X101.5Y-332.0
X101.5Y-370.3
X101.9Y-312.8
X101.9Y-313.6
X102.0Y-347.6
X102.031Y-358.0
X102.1Y-346.1
X102.2Y-342.2
X102.475Y-314.252
X102.7Y-359.1
X102.75Y-344.25
X102.8Y-362.4
X102.9Y-341.267
X103.1Y-366.4
X103.2Y-367.2
X103.325Y-314.252
X103.45Y-363.15
X103.5Y-359.1
X103.5Y-364.3
X103.545Y-344.162
X103.95Y-357.0
X104.4Y-336.8
X104.6Y-344.8
X104.6Y-345.7
X104.7Y-367.7
X104.7Y-368.7
X105.25Y-346.6
X105.3Y-340.3
X105.4Y-332.1
X105.7Y-347.316
X106.5Y-347.3
X106.5Y-348.1
X106.6Y-313.3
X106.6Y-314.2
X106.622Y-341.575
X106.622Y-342.425
X106.8Y-391.2
X106.8Y-393.2
X107.0Y-316.6
X107.0Y-317.7
X107.25Y-396.75
X107.25Y-397.75
X107.4Y-313.3
X107.4Y-314.2
X107.7Y-353.7
X107.8Y-362.5
X107.9Y-359.6
X108.0Y-366.4
X108.1Y-368.5
X109.1Y-376.6
X109.1Y-377.7
X109.1Y-379.3
X109.6Y-349.7
X109.6Y-353.7
X109.9Y-395.3
X110.0Y-384.0
X110.5Y-359.7
X110.5Y-372.1
X110.7Y-349.7
X110.9Y-400.9
X111.1Y-395.3
X111.2Y-384.0
X112.0Y-331.2
X112.0Y-380.5
X112.6Y-361.3
X112.6Y-363.0
X112.6Y-364.2
X112.8Y-329.4
X113.4Y-342.9
X115.0Y-337.9
X115.0Y-339.7
X115.5Y-369.7
X116.1Y-339.7
X117.4Y-400.4
X117.4Y-401.4
X117.5Y-387.7
X117.6Y-324.8
X118.8Y-375.9
X119.0Y-386.2
X119.0Y-398.0
X119.85Y-313.235
X120.0Y-386.2
X120.0Y-398.0
X121.05Y-308.535
X121.1Y-377.4
X121.2Y-379.2
X122.4Y-379.2
X123.8Y-346.3
X123.9Y-355.4
X123.9Y-363.4
X123.9Y-371.5
X124.3Y-397.7
X124.4Y-395.9
T2
X78.3Y-316.75
X78.3Y-318.0
X78.3Y-319.25
X78.3Y-349.375
X78.3Y-350.625
X78.3Y-358.0
X78.3Y-359.25
X78.3Y-365.75
X78.3Y-367.0
X78.3Y-368.25
X78.3Y-373.75
X78.3Y-375.0
X78.3Y-376.25
X128.3Y-348.75
X128.3Y-350.0
X128.3Y-351.25
X128.3Y-357.375
X128.3Y-358.625
X128.3Y-359.875
X128.3Y-365.75
X128.3Y-367.0
X128.3Y-368.25
X128.3Y-373.75
X128.3Y-375.0
X128.3Y-376.25
T3
X78.275Y-388.125
X78.275Y-389.375
X78.275Y-390.625
X78.275Y-391.875
X128.525Y-388.125
X128.525Y-389.375
X128.525Y-390.625
X128.525Y-391.875
T4
X127.71Y-324.095
X127.71Y-326.635
X127.71Y-329.175
X127.71Y-331.715
X127.71Y-334.255
X127.71Y-336.795
X127.71Y-339.335
X127.71Y-341.875
X130.25Y-324.095
X130.25Y-326.635
X130.25Y-329.175
X130.25Y-331.715
X130.25Y-334.255
X130.25Y-336.795
X130.25Y-339.335
X130.25Y-341.875
T5
X78.4Y-309.1
X78.4Y-399.1
X128.4Y-309.1
X128.4Y-399.1
M30
