%TF.GenerationSoftware,KiCad,Pcbnew,8.0.3*%
%TF.CreationDate,2024-06-18T17:24:28+01:00*%
%TF.ProjectId,Basic_DSP_V0_1,42617369-635f-4445-9350-5f56305f312e,rev?*%
%TF.SameCoordinates,Original*%
%TF.FileFunction,Copper,L1,Top*%
%TF.FilePolarity,Positive*%
%FSLAX46Y46*%
G04 Gerber Fmt 4.6, Leading zero omitted, Abs format (unit mm)*
G04 Created by KiCad (PCBNEW 8.0.3) date 2024-06-18 17:24:28*
%MOMM*%
%LPD*%
G01*
G04 APERTURE LIST*
G04 Aperture macros list*
%AMRoundRect*
0 Rectangle with rounded corners*
0 $1 Rounding radius*
0 $2 $3 $4 $5 $6 $7 $8 $9 X,Y pos of 4 corners*
0 Add a 4 corners polygon primitive as box body*
4,1,4,$2,$3,$4,$5,$6,$7,$8,$9,$2,$3,0*
0 Add four circle primitives for the rounded corners*
1,1,$1+$1,$2,$3*
1,1,$1+$1,$4,$5*
1,1,$1+$1,$6,$7*
1,1,$1+$1,$8,$9*
0 Add four rect primitives between the rounded corners*
20,1,$1+$1,$2,$3,$4,$5,0*
20,1,$1+$1,$4,$5,$6,$7,0*
20,1,$1+$1,$6,$7,$8,$9,0*
20,1,$1+$1,$8,$9,$2,$3,0*%
G04 Aperture macros list end*
%TA.AperFunction,SMDPad,CuDef*%
%ADD10RoundRect,0.237500X0.300000X0.237500X-0.300000X0.237500X-0.300000X-0.237500X0.300000X-0.237500X0*%
%TD*%
%TA.AperFunction,SMDPad,CuDef*%
%ADD11RoundRect,0.237500X-0.237500X0.300000X-0.237500X-0.300000X0.237500X-0.300000X0.237500X0.300000X0*%
%TD*%
%TA.AperFunction,SMDPad,CuDef*%
%ADD12RoundRect,0.237500X-0.300000X-0.237500X0.300000X-0.237500X0.300000X0.237500X-0.300000X0.237500X0*%
%TD*%
%TA.AperFunction,SMDPad,CuDef*%
%ADD13RoundRect,0.237500X0.237500X-0.300000X0.237500X0.300000X-0.237500X0.300000X-0.237500X-0.300000X0*%
%TD*%
%TA.AperFunction,SMDPad,CuDef*%
%ADD14RoundRect,0.250000X-1.950000X-1.000000X1.950000X-1.000000X1.950000X1.000000X-1.950000X1.000000X0*%
%TD*%
%TA.AperFunction,SMDPad,CuDef*%
%ADD15RoundRect,0.062500X0.062500X-0.117500X0.062500X0.117500X-0.062500X0.117500X-0.062500X-0.117500X0*%
%TD*%
%TA.AperFunction,SMDPad,CuDef*%
%ADD16RoundRect,0.237500X-0.250000X-0.237500X0.250000X-0.237500X0.250000X0.237500X-0.250000X0.237500X0*%
%TD*%
%TA.AperFunction,SMDPad,CuDef*%
%ADD17RoundRect,0.237500X0.237500X-0.250000X0.237500X0.250000X-0.237500X0.250000X-0.237500X-0.250000X0*%
%TD*%
%TA.AperFunction,SMDPad,CuDef*%
%ADD18RoundRect,0.160000X0.565000X0.240000X-0.565000X0.240000X-0.565000X-0.240000X0.565000X-0.240000X0*%
%TD*%
%TA.AperFunction,SMDPad,CuDef*%
%ADD19RoundRect,0.120000X0.605000X0.180000X-0.605000X0.180000X-0.605000X-0.180000X0.605000X-0.180000X0*%
%TD*%
%TA.AperFunction,SMDPad,CuDef*%
%ADD20RoundRect,0.237500X0.250000X0.237500X-0.250000X0.237500X-0.250000X-0.237500X0.250000X-0.237500X0*%
%TD*%
%TA.AperFunction,SMDPad,CuDef*%
%ADD21RoundRect,0.062500X0.117500X0.062500X-0.117500X0.062500X-0.117500X-0.062500X0.117500X-0.062500X0*%
%TD*%
%TA.AperFunction,SMDPad,CuDef*%
%ADD22RoundRect,0.150000X-0.587500X-0.150000X0.587500X-0.150000X0.587500X0.150000X-0.587500X0.150000X0*%
%TD*%
%TA.AperFunction,SMDPad,CuDef*%
%ADD23RoundRect,0.062500X-0.062500X0.117500X-0.062500X-0.117500X0.062500X-0.117500X0.062500X0.117500X0*%
%TD*%
%TA.AperFunction,ComponentPad*%
%ADD24R,1.100000X1.100000*%
%TD*%
%TA.AperFunction,ComponentPad*%
%ADD25C,1.100000*%
%TD*%
%TA.AperFunction,SMDPad,CuDef*%
%ADD26RoundRect,0.150000X0.200000X-0.150000X0.200000X0.150000X-0.200000X0.150000X-0.200000X-0.150000X0*%
%TD*%
%TA.AperFunction,SMDPad,CuDef*%
%ADD27RoundRect,0.237500X-0.237500X0.250000X-0.237500X-0.250000X0.237500X-0.250000X0.237500X0.250000X0*%
%TD*%
%TA.AperFunction,SMDPad,CuDef*%
%ADD28R,1.200000X0.600000*%
%TD*%
%TA.AperFunction,SMDPad,CuDef*%
%ADD29RoundRect,0.150000X-0.150000X0.512500X-0.150000X-0.512500X0.150000X-0.512500X0.150000X0.512500X0*%
%TD*%
%TA.AperFunction,SMDPad,CuDef*%
%ADD30RoundRect,0.218750X-0.218750X-0.256250X0.218750X-0.256250X0.218750X0.256250X-0.218750X0.256250X0*%
%TD*%
%TA.AperFunction,SMDPad,CuDef*%
%ADD31RoundRect,0.100000X-0.637500X-0.100000X0.637500X-0.100000X0.637500X0.100000X-0.637500X0.100000X0*%
%TD*%
%TA.AperFunction,SMDPad,CuDef*%
%ADD32R,1.200000X1.400000*%
%TD*%
%TA.AperFunction,SMDPad,CuDef*%
%ADD33RoundRect,0.225000X0.225000X0.250000X-0.225000X0.250000X-0.225000X-0.250000X0.225000X-0.250000X0*%
%TD*%
%TA.AperFunction,SMDPad,CuDef*%
%ADD34RoundRect,0.075000X-0.700000X-0.075000X0.700000X-0.075000X0.700000X0.075000X-0.700000X0.075000X0*%
%TD*%
%TA.AperFunction,SMDPad,CuDef*%
%ADD35RoundRect,0.075000X-0.075000X-0.700000X0.075000X-0.700000X0.075000X0.700000X-0.075000X0.700000X0*%
%TD*%
%TA.AperFunction,ComponentPad*%
%ADD36C,0.900000*%
%TD*%
%TA.AperFunction,SMDPad,CuDef*%
%ADD37R,1.200000X1.200000*%
%TD*%
%TA.AperFunction,SMDPad,CuDef*%
%ADD38R,0.350000X0.800000*%
%TD*%
%TA.AperFunction,SMDPad,CuDef*%
%ADD39R,2.500000X1.750000*%
%TD*%
%TA.AperFunction,ConnectorPad*%
%ADD40C,0.787400*%
%TD*%
%TA.AperFunction,SMDPad,CuDef*%
%ADD41R,0.600000X1.200000*%
%TD*%
%TA.AperFunction,ComponentPad*%
%ADD42R,1.700000X1.700000*%
%TD*%
%TA.AperFunction,ComponentPad*%
%ADD43O,1.700000X1.700000*%
%TD*%
%TA.AperFunction,SMDPad,CuDef*%
%ADD44RoundRect,0.218750X-0.256250X0.218750X-0.256250X-0.218750X0.256250X-0.218750X0.256250X0.218750X0*%
%TD*%
%TA.AperFunction,SMDPad,CuDef*%
%ADD45R,0.300000X0.700000*%
%TD*%
%TA.AperFunction,SMDPad,CuDef*%
%ADD46R,1.000000X0.700000*%
%TD*%
%TA.AperFunction,ComponentPad*%
%ADD47O,1.100000X2.100000*%
%TD*%
%TA.AperFunction,ComponentPad*%
%ADD48O,1.100000X2.600000*%
%TD*%
%TA.AperFunction,Profile*%
%ADD49C,0.500000*%
%TD*%
G04 APERTURE END LIST*
D10*
%TO.P,C76,1*%
%TO.N,+3.3V*%
X99412500Y-334000000D03*
%TO.P,C76,2*%
%TO.N,GND*%
X97687500Y-334000000D03*
%TD*%
%TO.P,C75,1*%
%TO.N,+3.3V*%
X100362500Y-354000000D03*
%TO.P,C75,2*%
%TO.N,GND*%
X98637500Y-354000000D03*
%TD*%
%TO.P,C72,1*%
%TO.N,+5VA*%
X109262500Y-390150000D03*
%TO.P,C72,2*%
%TO.N,GND*%
X107537500Y-390150000D03*
%TD*%
D11*
%TO.P,C71,1*%
%TO.N,+5VA*%
X88250000Y-395087500D03*
%TO.P,C71,2*%
%TO.N,GND*%
X88250000Y-396812500D03*
%TD*%
%TO.P,C70,1*%
%TO.N,+5VA*%
X88750000Y-384087500D03*
%TO.P,C70,2*%
%TO.N,GND*%
X88750000Y-385812500D03*
%TD*%
D10*
%TO.P,C69,1*%
%TO.N,+5VA*%
X115312500Y-383000000D03*
%TO.P,C69,2*%
%TO.N,GND*%
X113587500Y-383000000D03*
%TD*%
%TO.P,C68,1*%
%TO.N,+5VA*%
X115262500Y-396000000D03*
%TO.P,C68,2*%
%TO.N,GND*%
X113537500Y-396000000D03*
%TD*%
D12*
%TO.P,C67,1*%
%TO.N,+3.3V*%
X107637500Y-354000000D03*
%TO.P,C67,2*%
%TO.N,GND*%
X109362500Y-354000000D03*
%TD*%
D13*
%TO.P,C66,1*%
%TO.N,+3.3V*%
X113500000Y-339862500D03*
%TO.P,C66,2*%
%TO.N,GND*%
X113500000Y-338137500D03*
%TD*%
D11*
%TO.P,C65,1*%
%TO.N,+3V3_FILT*%
X92850000Y-348137500D03*
%TO.P,C65,2*%
%TO.N,GND*%
X92850000Y-349862500D03*
%TD*%
D13*
%TO.P,C52,1*%
%TO.N,Net-(U1-VCAP_2)*%
X116500000Y-339862500D03*
%TO.P,C52,2*%
%TO.N,GND*%
X116500000Y-338137500D03*
%TD*%
D12*
%TO.P,C51,1*%
%TO.N,Net-(U1-VCAP_1)*%
X112637500Y-352000000D03*
%TO.P,C51,2*%
%TO.N,GND*%
X114362500Y-352000000D03*
%TD*%
D11*
%TO.P,C49,1*%
%TO.N,Net-(U9-IN+)*%
X104400000Y-399137500D03*
%TO.P,C49,2*%
%TO.N,GND*%
X104400000Y-400862500D03*
%TD*%
D14*
%TO.P,C16,1*%
%TO.N,Net-(D2-K)*%
X87100000Y-310000000D03*
%TO.P,C16,2*%
%TO.N,GND*%
X94500000Y-310000000D03*
%TD*%
D12*
%TO.P,C15,1*%
%TO.N,+5VA*%
X90187500Y-332837500D03*
%TO.P,C15,2*%
%TO.N,GND*%
X91912500Y-332837500D03*
%TD*%
D13*
%TO.P,C11,1*%
%TO.N,Net-(D1-K)*%
X92500000Y-317500000D03*
%TO.P,C11,2*%
%TO.N,GND*%
X92500000Y-315775000D03*
%TD*%
%TO.P,C10,1*%
%TO.N,Net-(D2-K)*%
X84500000Y-314862500D03*
%TO.P,C10,2*%
%TO.N,GND*%
X84500000Y-313137500D03*
%TD*%
D11*
%TO.P,C9,1*%
%TO.N,Net-(U2-FIL+)*%
X115500000Y-368637500D03*
%TO.P,C9,2*%
%TO.N,GND*%
X115500000Y-370362500D03*
%TD*%
D15*
%TO.P,D12,1,A1*%
%TO.N,GND*%
X126000000Y-365580000D03*
%TO.P,D12,2,A2*%
%TO.N,Net-(D12-A2)*%
X126000000Y-366420000D03*
%TD*%
D16*
%TO.P,R26,1*%
%TO.N,/Connections/ADC_IN2*%
X122175000Y-367000000D03*
%TO.P,R26,2*%
%TO.N,Net-(D12-A2)*%
X124000000Y-367000000D03*
%TD*%
D11*
%TO.P,C56,1*%
%TO.N,+3V3*%
X84850000Y-348137500D03*
%TO.P,C56,2*%
%TO.N,GND*%
X84850000Y-349862500D03*
%TD*%
D17*
%TO.P,R5,1*%
%TO.N,GND*%
X98000000Y-374412500D03*
%TO.P,R5,2*%
%TO.N,Net-(U2-AD1{slash}CDIN{slash}MDIV1)*%
X98000000Y-372587500D03*
%TD*%
D16*
%TO.P,R36,1*%
%TO.N,Net-(U9-IN+)*%
X107487500Y-400150000D03*
%TO.P,R36,2*%
%TO.N,GND*%
X109312500Y-400150000D03*
%TD*%
%TO.P,R23,1*%
%TO.N,/Connections/ADC_IN5*%
X122087500Y-359000000D03*
%TO.P,R23,2*%
%TO.N,Net-(D10-A2)*%
X123912500Y-359000000D03*
%TD*%
D18*
%TO.P,D23,1,BA*%
%TO.N,Net-(D23-BA)*%
X112000000Y-327100000D03*
D19*
%TO.P,D23,2,RA*%
%TO.N,Net-(D23-RA)*%
X112000000Y-326050000D03*
D18*
%TO.P,D23,3,GA*%
%TO.N,Net-(D23-GA)*%
X112000000Y-325000000D03*
%TO.P,D23,4,GK*%
%TO.N,Net-(D23-GK)*%
X108950000Y-325000000D03*
D19*
%TO.P,D23,5,RK*%
%TO.N,Net-(D23-RK)*%
X108950000Y-326050000D03*
D18*
%TO.P,D23,6,BK*%
%TO.N,Net-(D23-BK)*%
X108950000Y-327100000D03*
%TD*%
D17*
%TO.P,R34,1*%
%TO.N,Net-(C47-Pad2)*%
X95250000Y-394862500D03*
%TO.P,R34,2*%
%TO.N,Net-(U10-IN+)*%
X95250000Y-393037500D03*
%TD*%
D13*
%TO.P,C62,1*%
%TO.N,+3.3V*%
X111500000Y-339725000D03*
%TO.P,C62,2*%
%TO.N,GND*%
X111500000Y-338000000D03*
%TD*%
D10*
%TO.P,C38,1*%
%TO.N,Net-(C33-Pad1)*%
X123262500Y-383500000D03*
%TO.P,C38,2*%
%TO.N,GND*%
X121537500Y-383500000D03*
%TD*%
D20*
%TO.P,R47,1*%
%TO.N,Net-(Q1-G)*%
X101325000Y-329000000D03*
%TO.P,R47,2*%
%TO.N,/Processor/LED_BLUE*%
X99500000Y-329000000D03*
%TD*%
%TO.P,R9,1*%
%TO.N,Net-(U3-SNS)*%
X84087500Y-333200000D03*
%TO.P,R9,2*%
%TO.N,GND*%
X82262500Y-333200000D03*
%TD*%
D21*
%TO.P,D24,1,A1*%
%TO.N,GND*%
X100500000Y-316000000D03*
%TO.P,D24,2,A2*%
%TO.N,/Connections/USB_D-*%
X101340000Y-316000000D03*
%TD*%
D12*
%TO.P,C23,1*%
%TO.N,/Connections/ADC_IN0*%
X82437500Y-367750000D03*
%TO.P,C23,2*%
%TO.N,GND*%
X84162500Y-367750000D03*
%TD*%
D16*
%TO.P,R46,1*%
%TO.N,Net-(D23-BA)*%
X115562500Y-328050000D03*
%TO.P,R46,2*%
%TO.N,+5V*%
X117387500Y-328050000D03*
%TD*%
D20*
%TO.P,R13,1*%
%TO.N,/Connections/ADC_IN1*%
X84212500Y-374750000D03*
%TO.P,R13,2*%
%TO.N,Net-(D4-A2)*%
X82387500Y-374750000D03*
%TD*%
D10*
%TO.P,C12,1*%
%TO.N,+3.3V*%
X99362500Y-336000000D03*
%TO.P,C12,2*%
%TO.N,GND*%
X97637500Y-336000000D03*
%TD*%
D12*
%TO.P,C40,1*%
%TO.N,/Connections/ADC_IN3*%
X122225000Y-373000000D03*
%TO.P,C40,2*%
%TO.N,GND*%
X123950000Y-373000000D03*
%TD*%
D11*
%TO.P,C4,1*%
%TO.N,+3V3*%
X96000000Y-364637500D03*
%TO.P,C4,2*%
%TO.N,GND*%
X96000000Y-366362500D03*
%TD*%
D22*
%TO.P,Q1,1,G*%
%TO.N,Net-(Q1-G)*%
X104475000Y-329050000D03*
%TO.P,Q1,2,S*%
%TO.N,GND*%
X104475000Y-330950000D03*
%TO.P,Q1,3,D*%
%TO.N,Net-(D23-BK)*%
X106350000Y-330000000D03*
%TD*%
D16*
%TO.P,R21,1*%
%TO.N,/Connections/ADC_IN4*%
X122087500Y-351000000D03*
%TO.P,R21,2*%
%TO.N,Net-(D8-A2)*%
X123912500Y-351000000D03*
%TD*%
D23*
%TO.P,D22,1,A1*%
%TO.N,GND*%
X80375000Y-358840000D03*
%TO.P,D22,2,A2*%
%TO.N,/Connections/SWITCH_1*%
X80375000Y-358000000D03*
%TD*%
D10*
%TO.P,C13,1*%
%TO.N,+3V3*%
X80037500Y-328200000D03*
%TO.P,C13,2*%
%TO.N,GND*%
X78312500Y-328200000D03*
%TD*%
D24*
%TO.P,J2,1,1*%
%TO.N,+3V3*%
X78000000Y-365750000D03*
D25*
%TO.P,J2,2,2*%
%TO.N,Net-(D25-A2)*%
X78000000Y-367000000D03*
%TO.P,J2,3,3*%
%TO.N,GND*%
X78000000Y-368250000D03*
%TD*%
D12*
%TO.P,C37,1*%
%TO.N,/Connections/ADC_IN5*%
X122137500Y-357000000D03*
%TO.P,C37,2*%
%TO.N,GND*%
X123862500Y-357000000D03*
%TD*%
D17*
%TO.P,R41,1*%
%TO.N,+3.3V*%
X82000000Y-351912500D03*
%TO.P,R41,2*%
%TO.N,/Connections/SWITCH_0*%
X82000000Y-350087500D03*
%TD*%
D16*
%TO.P,R39,1*%
%TO.N,GND*%
X103587500Y-315000000D03*
%TO.P,R39,2*%
%TO.N,Net-(J13-CC2)*%
X105412500Y-315000000D03*
%TD*%
D26*
%TO.P,D3,1,K*%
%TO.N,VCC*%
X80000000Y-317300000D03*
%TO.P,D3,2,A*%
%TO.N,GND*%
X80000000Y-318700000D03*
%TD*%
D17*
%TO.P,R42,1*%
%TO.N,+3.3V*%
X82000000Y-359912500D03*
%TO.P,R42,2*%
%TO.N,/Connections/SWITCH_1*%
X82000000Y-358087500D03*
%TD*%
D27*
%TO.P,R50,1*%
%TO.N,GND*%
X94000000Y-368587500D03*
%TO.P,R50,2*%
%TO.N,/CODEC/I2S_ADC_OUT*%
X94000000Y-370412500D03*
%TD*%
D22*
%TO.P,Q3,1,G*%
%TO.N,Net-(Q3-G)*%
X104537500Y-321100000D03*
%TO.P,Q3,2,S*%
%TO.N,GND*%
X104537500Y-323000000D03*
%TO.P,Q3,3,D*%
%TO.N,Net-(D23-GK)*%
X106412500Y-322050000D03*
%TD*%
D24*
%TO.P,J8,1,1*%
%TO.N,+3V3*%
X128300000Y-359875000D03*
D25*
%TO.P,J8,2,2*%
%TO.N,Net-(D10-A2)*%
X128300000Y-358625000D03*
%TO.P,J8,3,3*%
%TO.N,GND*%
X128300000Y-357375000D03*
%TD*%
D23*
%TO.P,D14,1,A1*%
%TO.N,GND*%
X82000000Y-388840000D03*
%TO.P,D14,2,A2*%
%TO.N,/Analogue/AUDIO_OUT_L*%
X82000000Y-388000000D03*
%TD*%
D28*
%TO.P,U9,1,OUT*%
%TO.N,+VREF*%
X106200000Y-394125000D03*
%TO.P,U9,2,V-*%
%TO.N,GND*%
X106200000Y-395075000D03*
%TO.P,U9,3,IN+*%
%TO.N,Net-(U9-IN+)*%
X106200000Y-396025000D03*
%TO.P,U9,4,IN-*%
%TO.N,+VREF*%
X108700000Y-396025000D03*
%TO.P,U9,5,V+*%
%TO.N,+5VA*%
X108700000Y-394125000D03*
%TD*%
D17*
%TO.P,R31,1*%
%TO.N,GND*%
X84000000Y-388912500D03*
%TO.P,R31,2*%
%TO.N,/Analogue/AUDIO_OUT_L*%
X84000000Y-387087500D03*
%TD*%
D29*
%TO.P,U5,1,IN*%
%TO.N,Net-(D1-K)*%
X92000000Y-325200000D03*
%TO.P,U5,2,GND*%
%TO.N,GND*%
X91050000Y-325200000D03*
%TO.P,U5,3,EN*%
%TO.N,/Power/V_ENABLE*%
X90100000Y-325200000D03*
%TO.P,U5,4,NC*%
%TO.N,unconnected-(U5-NC-Pad4)*%
X90100000Y-327475000D03*
%TO.P,U5,5,OUT*%
%TO.N,+5V*%
X92000000Y-327475000D03*
%TD*%
D30*
%TO.P,FB2,1*%
%TO.N,VBUS*%
X107712500Y-316955000D03*
%TO.P,FB2,2*%
%TO.N,Net-(C55-Pad1)*%
X109287500Y-316955000D03*
%TD*%
D21*
%TO.P,D26,1,A1*%
%TO.N,GND*%
X100500000Y-317000000D03*
%TO.P,D26,2,A2*%
%TO.N,/Connections/USB_D+*%
X101340000Y-317000000D03*
%TD*%
D17*
%TO.P,R14,1*%
%TO.N,+VREF*%
X117400000Y-400050000D03*
%TO.P,R14,2*%
%TO.N,Net-(U6-IN+)*%
X117400000Y-398225000D03*
%TD*%
D11*
%TO.P,C46,1*%
%TO.N,+5VA*%
X90250000Y-395225000D03*
%TO.P,C46,2*%
%TO.N,GND*%
X90250000Y-396950000D03*
%TD*%
D20*
%TO.P,R12,1*%
%TO.N,/Connections/ADC_IN0*%
X84212500Y-365750000D03*
%TO.P,R12,2*%
%TO.N,Net-(D25-A2)*%
X82387500Y-365750000D03*
%TD*%
D30*
%TO.P,FB1,1*%
%TO.N,Net-(D2-K)*%
X89212500Y-318000000D03*
%TO.P,FB1,2*%
%TO.N,Net-(D1-K)*%
X90787500Y-318000000D03*
%TD*%
D12*
%TO.P,C35,1*%
%TO.N,/Connections/ADC_IN4*%
X122137500Y-349000000D03*
%TO.P,C35,2*%
%TO.N,GND*%
X123862500Y-349000000D03*
%TD*%
%TO.P,C61,1*%
%TO.N,+3.3V*%
X107775000Y-352000000D03*
%TO.P,C61,2*%
%TO.N,GND*%
X109500000Y-352000000D03*
%TD*%
D13*
%TO.P,C2,1*%
%TO.N,+5VA*%
X111500000Y-365362500D03*
%TO.P,C2,2*%
%TO.N,GND*%
X111500000Y-363637500D03*
%TD*%
D16*
%TO.P,R22,1*%
%TO.N,/Analogue/AUDIO_IN_R*%
X121487500Y-385500000D03*
%TO.P,R22,2*%
%TO.N,Net-(C33-Pad1)*%
X123312500Y-385500000D03*
%TD*%
D31*
%TO.P,U2,1,SDIN*%
%TO.N,/CODEC/I2S_DAC_IN*%
X100637500Y-363425000D03*
%TO.P,U2,2,LRCLK*%
%TO.N,/CODEC/I2S_WCLK*%
X100637500Y-364075000D03*
%TO.P,U2,3,MCLK*%
%TO.N,/CODEC/I2S_MCLK*%
X100637500Y-364725000D03*
%TO.P,U2,4,SCLK*%
%TO.N,/CODEC/I2S_BCLK*%
X100637500Y-365375000D03*
%TO.P,U2,5,VD*%
%TO.N,+3V3*%
X100637500Y-366025000D03*
%TO.P,U2,6,DGND*%
%TO.N,GND*%
X100637500Y-366675000D03*
%TO.P,U2,7,SDOUT*%
%TO.N,/CODEC/CODEC_OUT*%
X100637500Y-367325000D03*
%TO.P,U2,8,VLC*%
%TO.N,+3V3*%
X100637500Y-367975000D03*
%TO.P,U2,9,SDA/CDOUT/M1*%
%TO.N,/CODEC/I2C1_SDA*%
X100637500Y-368625000D03*
%TO.P,U2,10,SCL/CCLK/M0*%
%TO.N,/CODEC/I2C1_SCL*%
X100637500Y-369275000D03*
%TO.P,U2,11,AD0/~{CS}/I2S/~{LJ}*%
%TO.N,Net-(U2-AD0{slash}~{CS}{slash}I2S{slash}~{LJ})*%
X100637500Y-369925000D03*
%TO.P,U2,12,AD1/CDIN/MDIV1*%
%TO.N,Net-(U2-AD1{slash}CDIN{slash}MDIV1)*%
X100637500Y-370575000D03*
%TO.P,U2,13,AD2/MDIV2*%
%TO.N,Net-(U2-AD2{slash}MDIV2)*%
X106362500Y-370575000D03*
%TO.P,U2,14,~{RST}*%
%TO.N,/CODEC/CODEC_~{RST}*%
X106362500Y-369925000D03*
%TO.P,U2,15,AINA*%
%TO.N,/Analogue/CODEC_IN_L*%
X106362500Y-369275000D03*
%TO.P,U2,16,AINB*%
%TO.N,/Analogue/CODEC_IN_R*%
X106362500Y-368625000D03*
%TO.P,U2,17,VQ*%
%TO.N,Net-(U2-VQ)*%
X106362500Y-367975000D03*
%TO.P,U2,18,FIL+*%
%TO.N,Net-(U2-FIL+)*%
X106362500Y-367325000D03*
%TO.P,U2,19,VA*%
%TO.N,+5VA*%
X106362500Y-366675000D03*
%TO.P,U2,20,AGND*%
%TO.N,GND*%
X106362500Y-366025000D03*
%TO.P,U2,21,~{MUTEA}*%
%TO.N,unconnected-(U2-~{MUTEA}-Pad21)*%
X106362500Y-365375000D03*
%TO.P,U2,22,OUTA*%
%TO.N,/Analogue/CODEC_OUT_L*%
X106362500Y-364725000D03*
%TO.P,U2,23,OUTB*%
%TO.N,/Analogue/CODEC_OUT_R*%
X106362500Y-364075000D03*
%TO.P,U2,24,~{MUTEB}*%
%TO.N,unconnected-(U2-~{MUTEB}-Pad24)*%
X106362500Y-363425000D03*
%TD*%
D17*
%TO.P,R29,1*%
%TO.N,Net-(C42-Pad2)*%
X95750000Y-383862500D03*
%TO.P,R29,2*%
%TO.N,Net-(U8-IN+)*%
X95750000Y-382037500D03*
%TD*%
%TO.P,R16,1*%
%TO.N,Net-(U6-IN-)*%
X115400000Y-392912500D03*
%TO.P,R16,2*%
%TO.N,Net-(C27-Pad1)*%
X115400000Y-391087500D03*
%TD*%
D20*
%TO.P,R25,1*%
%TO.N,Net-(C33-Pad1)*%
X123312500Y-381000000D03*
%TO.P,R25,2*%
%TO.N,GND*%
X121487500Y-381000000D03*
%TD*%
D12*
%TO.P,C54,1*%
%TO.N,VBUS*%
X107637500Y-319000000D03*
%TO.P,C54,2*%
%TO.N,GND*%
X109362500Y-319000000D03*
%TD*%
D32*
%TO.P,Y1,1,1*%
%TO.N,/Processor/MCU_CLK_OUT*%
X91700000Y-343100000D03*
%TO.P,Y1,2,2*%
%TO.N,GND*%
X91700000Y-340900000D03*
%TO.P,Y1,3,3*%
%TO.N,/Processor/MCU_CKL_IN*%
X90000000Y-340900000D03*
%TO.P,Y1,4,4*%
%TO.N,GND*%
X90000000Y-343100000D03*
%TD*%
D13*
%TO.P,C28,1*%
%TO.N,GND*%
X115400000Y-400000000D03*
%TO.P,C28,2*%
%TO.N,Net-(C27-Pad1)*%
X115400000Y-398275000D03*
%TD*%
D16*
%TO.P,R7,1*%
%TO.N,+3V3*%
X82262500Y-331200000D03*
%TO.P,R7,2*%
%TO.N,Net-(U3-SNS)*%
X84087500Y-331200000D03*
%TD*%
D15*
%TO.P,D8,1,A1*%
%TO.N,GND*%
X126000000Y-349580000D03*
%TO.P,D8,2,A2*%
%TO.N,Net-(D8-A2)*%
X126000000Y-350420000D03*
%TD*%
D16*
%TO.P,R49,1*%
%TO.N,Net-(Q3-G)*%
X99625000Y-321100000D03*
%TO.P,R49,2*%
%TO.N,/Processor/LED_GREEN*%
X101450000Y-321100000D03*
%TD*%
D10*
%TO.P,C55,1*%
%TO.N,Net-(C55-Pad1)*%
X109362500Y-315000000D03*
%TO.P,C55,2*%
%TO.N,GND*%
X107637500Y-315000000D03*
%TD*%
D13*
%TO.P,C57,1*%
%TO.N,+3V3_FILT*%
X88880000Y-349862500D03*
%TO.P,C57,2*%
%TO.N,GND*%
X88880000Y-348137500D03*
%TD*%
D17*
%TO.P,R4,1*%
%TO.N,GND*%
X109500000Y-374412500D03*
%TO.P,R4,2*%
%TO.N,Net-(U2-AD2{slash}MDIV2)*%
X109500000Y-372587500D03*
%TD*%
D11*
%TO.P,C6,1*%
%TO.N,Net-(U2-VQ)*%
X111500000Y-368637500D03*
%TO.P,C6,2*%
%TO.N,GND*%
X111500000Y-370362500D03*
%TD*%
D15*
%TO.P,D9,1,A1*%
%TO.N,GND*%
X125100000Y-388110000D03*
%TO.P,D9,2,A2*%
%TO.N,/Analogue/AUDIO_IN_R*%
X125100000Y-388950000D03*
%TD*%
D33*
%TO.P,C73,1*%
%TO.N,Net-(D1-K)*%
X79950000Y-326200000D03*
%TO.P,C73,2*%
%TO.N,GND*%
X78400000Y-326200000D03*
%TD*%
D23*
%TO.P,D4,1,A1*%
%TO.N,GND*%
X80300000Y-375750000D03*
%TO.P,D4,2,A2*%
%TO.N,Net-(D4-A2)*%
X80300000Y-374910000D03*
%TD*%
D27*
%TO.P,R35,1*%
%TO.N,Net-(U10-IN-)*%
X93250000Y-395037500D03*
%TO.P,R35,2*%
%TO.N,Net-(C48-Pad1)*%
X93250000Y-396862500D03*
%TD*%
D33*
%TO.P,C74,1*%
%TO.N,Net-(D1-K)*%
X92325000Y-322337500D03*
%TO.P,C74,2*%
%TO.N,GND*%
X90775000Y-322337500D03*
%TD*%
D24*
%TO.P,J7,1,1*%
%TO.N,+3V3*%
X128300000Y-351250000D03*
D25*
%TO.P,J7,2,2*%
%TO.N,Net-(D8-A2)*%
X128300000Y-350000000D03*
%TO.P,J7,3,3*%
%TO.N,GND*%
X128300000Y-348750000D03*
%TD*%
D10*
%TO.P,C59,1*%
%TO.N,/Processor/MCU_CLK_OUT*%
X91712500Y-346000000D03*
%TO.P,C59,2*%
%TO.N,GND*%
X89987500Y-346000000D03*
%TD*%
D27*
%TO.P,R3,1*%
%TO.N,/CODEC/I2C1_SCL*%
X94000000Y-372587500D03*
%TO.P,R3,2*%
%TO.N,+3V3*%
X94000000Y-374412500D03*
%TD*%
%TO.P,R20,1*%
%TO.N,+VREF*%
X117400000Y-379087500D03*
%TO.P,R20,2*%
%TO.N,Net-(U7-IN+)*%
X117400000Y-380912500D03*
%TD*%
D34*
%TO.P,U1,1,VBAT*%
%TO.N,unconnected-(U1-VBAT-Pad1)*%
X97825000Y-340250000D03*
%TO.P,U1,2,PC13*%
%TO.N,unconnected-(U1-PC13-Pad2)*%
X97825000Y-340750000D03*
%TO.P,U1,3,PC14*%
%TO.N,unconnected-(U1-PC14-Pad3)*%
X97825000Y-341250000D03*
%TO.P,U1,4,PC15*%
%TO.N,unconnected-(U1-PC15-Pad4)*%
X97825000Y-341750000D03*
%TO.P,U1,5,PH0*%
%TO.N,/Processor/MCU_CKL_IN*%
X97825000Y-342250000D03*
%TO.P,U1,6,PH1*%
%TO.N,Net-(U1-PH1)*%
X97825000Y-342750000D03*
%TO.P,U1,7,NRST*%
%TO.N,/Processor/MCU_~{RST}*%
X97825000Y-343250000D03*
%TO.P,U1,8,PC0*%
%TO.N,unconnected-(U1-PC0-Pad8)*%
X97825000Y-343750000D03*
%TO.P,U1,9,PC1*%
%TO.N,unconnected-(U1-PC1-Pad9)*%
X97825000Y-344250000D03*
%TO.P,U1,10,PC2*%
%TO.N,/CODEC/I2S_ADC_OUT*%
X97825000Y-344750000D03*
%TO.P,U1,11,PC3*%
%TO.N,/CODEC/I2S_DAC_IN*%
X97825000Y-345250000D03*
%TO.P,U1,12,VSSA*%
%TO.N,GND*%
X97825000Y-345750000D03*
%TO.P,U1,13,VDDA*%
%TO.N,+3V3_FILT*%
X97825000Y-346250000D03*
%TO.P,U1,14,PA0*%
%TO.N,/Connections/ADC_IN0*%
X97825000Y-346750000D03*
%TO.P,U1,15,PA1*%
%TO.N,/Connections/ADC_IN1*%
X97825000Y-347250000D03*
%TO.P,U1,16,PA2*%
%TO.N,/Connections/ADC_IN2*%
X97825000Y-347750000D03*
D35*
%TO.P,U1,17,PA3*%
%TO.N,/Connections/ADC_IN3*%
X99750000Y-349675000D03*
%TO.P,U1,18,VSS*%
%TO.N,GND*%
X100250000Y-349675000D03*
%TO.P,U1,19,VDD*%
%TO.N,+3.3V*%
X100750000Y-349675000D03*
%TO.P,U1,20,PA4*%
%TO.N,/Connections/ADC_IN4*%
X101250000Y-349675000D03*
%TO.P,U1,21,PA5*%
%TO.N,/Connections/ADC_IN5*%
X101750000Y-349675000D03*
%TO.P,U1,22,PA6*%
%TO.N,unconnected-(U1-PA6-Pad22)*%
X102250000Y-349675000D03*
%TO.P,U1,23,PA7*%
%TO.N,unconnected-(U1-PA7-Pad23)*%
X102750000Y-349675000D03*
%TO.P,U1,24,PC4*%
%TO.N,/Connections/SWITCH_0*%
X103250000Y-349675000D03*
%TO.P,U1,25,PC5*%
%TO.N,/Connections/SWITCH_1*%
X103750000Y-349675000D03*
%TO.P,U1,26,PB0*%
%TO.N,/Connections/GPIO0*%
X104250000Y-349675000D03*
%TO.P,U1,27,PB1*%
%TO.N,/Connections/GPIO1*%
X104750000Y-349675000D03*
%TO.P,U1,28,PB2*%
%TO.N,/Connections/GPIO2*%
X105250000Y-349675000D03*
%TO.P,U1,29,PB10*%
%TO.N,/CODEC/I2S_BCLK*%
X105750000Y-349675000D03*
%TO.P,U1,30,PB11*%
%TO.N,/CODEC/CODEC_~{RST}*%
X106250000Y-349675000D03*
%TO.P,U1,31,VCAP_1*%
%TO.N,Net-(U1-VCAP_1)*%
X106750000Y-349675000D03*
%TO.P,U1,32,VDD*%
%TO.N,+3.3V*%
X107250000Y-349675000D03*
D34*
%TO.P,U1,33,PB12*%
%TO.N,/Connections/GPIO4*%
X109175000Y-347750000D03*
%TO.P,U1,34,PB13*%
%TO.N,/Connections/GPIO5*%
X109175000Y-347250000D03*
%TO.P,U1,35,PB14*%
%TO.N,/Connections/GPIO6*%
X109175000Y-346750000D03*
%TO.P,U1,36,PB15*%
%TO.N,/Connections/GPIO7*%
X109175000Y-346250000D03*
%TO.P,U1,37,PC6*%
%TO.N,/CODEC/I2S_MCLK*%
X109175000Y-345750000D03*
%TO.P,U1,38,PC7*%
%TO.N,/Connections/GPIO8*%
X109175000Y-345250000D03*
%TO.P,U1,39,PC8*%
%TO.N,/Connections/GPIO9*%
X109175000Y-344750000D03*
%TO.P,U1,40,PC9*%
%TO.N,/Connections/GPIO10*%
X109175000Y-344250000D03*
%TO.P,U1,41,PA8*%
%TO.N,/Connections/GPIO11*%
X109175000Y-343750000D03*
%TO.P,U1,42,PA9*%
%TO.N,unconnected-(U1-PA9-Pad42)*%
X109175000Y-343250000D03*
%TO.P,U1,43,PA10*%
%TO.N,unconnected-(U1-PA10-Pad43)*%
X109175000Y-342750000D03*
%TO.P,U1,44,PA11*%
%TO.N,/Connections/USB_D-*%
X109175000Y-342250000D03*
%TO.P,U1,45,PA12*%
%TO.N,/Connections/USB_D+*%
X109175000Y-341750000D03*
%TO.P,U1,46,PA13*%
%TO.N,/Processor/SWDIO*%
X109175000Y-341250000D03*
%TO.P,U1,47,VCAP_2*%
%TO.N,Net-(U1-VCAP_2)*%
X109175000Y-340750000D03*
%TO.P,U1,48,VDD*%
%TO.N,+3.3V*%
X109175000Y-340250000D03*
D35*
%TO.P,U1,49,PA14*%
%TO.N,/Processor/SWCLK*%
X107250000Y-338325000D03*
%TO.P,U1,50,PA15*%
%TO.N,unconnected-(U1-PA15-Pad50)*%
X106750000Y-338325000D03*
%TO.P,U1,51,PC10*%
%TO.N,/Processor/LED_BLUE*%
X106250000Y-338325000D03*
%TO.P,U1,52,PC11*%
%TO.N,/Processor/LED_RED*%
X105750000Y-338325000D03*
%TO.P,U1,53,PC12*%
%TO.N,/Processor/LED_GREEN*%
X105250000Y-338325000D03*
%TO.P,U1,54,PD2*%
%TO.N,unconnected-(U1-PD2-Pad54)*%
X104750000Y-338325000D03*
%TO.P,U1,55,PB3*%
%TO.N,/Processor/SWO*%
X104250000Y-338325000D03*
%TO.P,U1,56,PB4*%
%TO.N,/Connections/GPIO3*%
X103750000Y-338325000D03*
%TO.P,U1,57,PB5*%
%TO.N,unconnected-(U1-PB5-Pad57)*%
X103250000Y-338325000D03*
%TO.P,U1,58,PB6*%
%TO.N,/CODEC/I2C1_SCL*%
X102750000Y-338325000D03*
%TO.P,U1,59,PB7*%
%TO.N,/CODEC/I2C1_SDA*%
X102250000Y-338325000D03*
%TO.P,U1,60,BOOT0*%
%TO.N,Net-(U1-BOOT0)*%
X101750000Y-338325000D03*
%TO.P,U1,61,PB8*%
%TO.N,unconnected-(U1-PB8-Pad61)*%
X101250000Y-338325000D03*
%TO.P,U1,62,PB9*%
%TO.N,/CODEC/I2S_WCLK*%
X100750000Y-338325000D03*
%TO.P,U1,63,VSS*%
%TO.N,GND*%
X100250000Y-338325000D03*
%TO.P,U1,64,VDD*%
%TO.N,+3.3V*%
X99750000Y-338325000D03*
%TD*%
D11*
%TO.P,C8,1*%
%TO.N,Net-(U2-FIL+)*%
X113500000Y-368637500D03*
%TO.P,C8,2*%
%TO.N,GND*%
X113500000Y-370362500D03*
%TD*%
D10*
%TO.P,C32,1*%
%TO.N,+5VA*%
X115262500Y-385000000D03*
%TO.P,C32,2*%
%TO.N,GND*%
X113537500Y-385000000D03*
%TD*%
D36*
%TO.P,J11,1,1*%
%TO.N,/Analogue/AUDIO_OUT_L*%
X78275000Y-388125000D03*
%TO.P,J11,2,2*%
%TO.N,GND*%
X78275000Y-389375000D03*
%TO.P,J11,3,3*%
%TO.N,/Analogue/AUDIO_OUT_R*%
X78275000Y-390625000D03*
%TO.P,J11,4,4*%
%TO.N,GND*%
X78275000Y-391875000D03*
%TD*%
D23*
%TO.P,D16,1,A1*%
%TO.N,GND*%
X119900000Y-325120000D03*
%TO.P,D16,2,A2*%
%TO.N,+3V3*%
X119900000Y-324280000D03*
%TD*%
D24*
%TO.P,J15,1,1*%
%TO.N,/Connections/SWITCH_1*%
X78000000Y-358000000D03*
D25*
%TO.P,J15,2,2*%
%TO.N,GND*%
X78000000Y-359250000D03*
%TD*%
D37*
%TO.P,D1,1,K*%
%TO.N,Net-(D1-K)*%
X94600000Y-318000000D03*
%TO.P,D1,2,A*%
%TO.N,VBUS_FILT*%
X97400000Y-318000000D03*
%TD*%
D23*
%TO.P,D13,1,A1*%
%TO.N,GND*%
X80375000Y-351420000D03*
%TO.P,D13,2,A2*%
%TO.N,/Connections/SWITCH_0*%
X80375000Y-350580000D03*
%TD*%
D16*
%TO.P,R45,1*%
%TO.N,Net-(D23-RA)*%
X115562500Y-326050000D03*
%TO.P,R45,2*%
%TO.N,+5V*%
X117387500Y-326050000D03*
%TD*%
D11*
%TO.P,C34,1*%
%TO.N,Net-(C34-Pad1)*%
X113400000Y-386707500D03*
%TO.P,C34,2*%
%TO.N,/Analogue/CODEC_IN_R*%
X113400000Y-388432500D03*
%TD*%
D10*
%TO.P,C63,1*%
%TO.N,+3.3V*%
X100362500Y-352000000D03*
%TO.P,C63,2*%
%TO.N,GND*%
X98637500Y-352000000D03*
%TD*%
D12*
%TO.P,C39,1*%
%TO.N,/Connections/ADC_IN2*%
X122225000Y-365000000D03*
%TO.P,C39,2*%
%TO.N,GND*%
X123950000Y-365000000D03*
%TD*%
D16*
%TO.P,R38,1*%
%TO.N,/Processor/nRESET*%
X114212500Y-319700000D03*
%TO.P,R38,2*%
%TO.N,/Processor/MCU_~{RST}*%
X116037500Y-319700000D03*
%TD*%
D38*
%TO.P,U3,1,OUT*%
%TO.N,+3V3*%
X82025000Y-328700000D03*
%TO.P,U3,2,NC_1*%
%TO.N,unconnected-(U3-NC_1-Pad2)*%
X82675000Y-328700000D03*
%TO.P,U3,3,SNS*%
%TO.N,Net-(U3-SNS)*%
X83325000Y-328700000D03*
%TO.P,U3,4,GND_1*%
%TO.N,GND*%
X83975000Y-328700000D03*
%TO.P,U3,5,EN*%
%TO.N,/Power/V_ENABLE*%
X83975000Y-325700000D03*
%TO.P,U3,6,GND_2*%
%TO.N,GND*%
X83325000Y-325700000D03*
%TO.P,U3,7,NC_2*%
%TO.N,unconnected-(U3-NC_2-Pad7)*%
X82675000Y-325700000D03*
%TO.P,U3,8,IN*%
%TO.N,Net-(D1-K)*%
X82025000Y-325700000D03*
D39*
%TO.P,U3,9,EP*%
%TO.N,GND*%
X83000000Y-327200000D03*
%TD*%
D20*
%TO.P,R10,1*%
%TO.N,/Power/V_ENABLE*%
X84087500Y-321200000D03*
%TO.P,R10,2*%
%TO.N,GND*%
X82262500Y-321200000D03*
%TD*%
D40*
%TO.P,J12,1,VCC*%
%TO.N,+3V3*%
X120630000Y-319335000D03*
%TO.P,J12,2,SWDIO*%
%TO.N,/Processor/SWDIO*%
X120630000Y-318065000D03*
%TO.P,J12,3,~{RESET}*%
%TO.N,/Processor/nRESET*%
X121900000Y-319335000D03*
%TO.P,J12,4,SWCLK*%
%TO.N,/Processor/SWCLK*%
X121900000Y-318065000D03*
%TO.P,J12,5,GND*%
%TO.N,GND*%
X123170000Y-319335000D03*
%TO.P,J12,6,SWO*%
%TO.N,/Processor/SWO*%
X123170000Y-318065000D03*
%TD*%
D15*
%TO.P,D6,1,A1*%
%TO.N,GND*%
X125100000Y-391160000D03*
%TO.P,D6,2,A2*%
%TO.N,/Analogue/AUDIO_IN_L*%
X125100000Y-392000000D03*
%TD*%
D11*
%TO.P,C64,1*%
%TO.N,+3V3_FILT*%
X94850000Y-348000000D03*
%TO.P,C64,2*%
%TO.N,GND*%
X94850000Y-349725000D03*
%TD*%
%TO.P,C14,1*%
%TO.N,/Power/V_ENABLE*%
X86175000Y-326337500D03*
%TO.P,C14,2*%
%TO.N,GND*%
X86175000Y-328062500D03*
%TD*%
D41*
%TO.P,U6,1,OUT*%
%TO.N,Net-(U6-IN-)*%
X119350000Y-391250000D03*
%TO.P,U6,2,V-*%
%TO.N,GND*%
X118400000Y-391250000D03*
%TO.P,U6,3,IN+*%
%TO.N,Net-(U6-IN+)*%
X117450000Y-391250000D03*
%TO.P,U6,4,IN-*%
%TO.N,Net-(U6-IN-)*%
X117450000Y-393750000D03*
%TO.P,U6,5,V+*%
%TO.N,+5VA*%
X119350000Y-393750000D03*
%TD*%
D11*
%TO.P,C3,1*%
%TO.N,+3V3*%
X98000000Y-368637500D03*
%TO.P,C3,2*%
%TO.N,GND*%
X98000000Y-370362500D03*
%TD*%
D27*
%TO.P,R1,1*%
%TO.N,/CODEC/CODEC_OUT*%
X96000000Y-368587500D03*
%TO.P,R1,2*%
%TO.N,/CODEC/I2S_ADC_OUT*%
X96000000Y-370412500D03*
%TD*%
D15*
%TO.P,D11,1,A1*%
%TO.N,GND*%
X126000000Y-373580000D03*
%TO.P,D11,2,A2*%
%TO.N,Net-(D11-A2)*%
X126000000Y-374420000D03*
%TD*%
D24*
%TO.P,J1,1,1*%
%TO.N,VCC*%
X77700000Y-316750000D03*
D25*
%TO.P,J1,2,2*%
%TO.N,unconnected-(J1-Pad2)*%
X77700000Y-318000000D03*
%TO.P,J1,3,3*%
%TO.N,GND*%
X77700000Y-319250000D03*
%TD*%
D11*
%TO.P,C7,1*%
%TO.N,Net-(U2-VQ)*%
X109500000Y-368637500D03*
%TO.P,C7,2*%
%TO.N,GND*%
X109500000Y-370362500D03*
%TD*%
D10*
%TO.P,C24,1*%
%TO.N,/Connections/ADC_IN1*%
X84162500Y-376750000D03*
%TO.P,C24,2*%
%TO.N,GND*%
X82437500Y-376750000D03*
%TD*%
D20*
%TO.P,R11,1*%
%TO.N,+5V*%
X91962500Y-329837500D03*
%TO.P,R11,2*%
%TO.N,+5VA*%
X90137500Y-329837500D03*
%TD*%
D16*
%TO.P,R15,1*%
%TO.N,/Analogue/AUDIO_IN_L*%
X121487500Y-394500000D03*
%TO.P,R15,2*%
%TO.N,Net-(C26-Pad1)*%
X123312500Y-394500000D03*
%TD*%
D11*
%TO.P,C41,1*%
%TO.N,+5VA*%
X90750000Y-384087500D03*
%TO.P,C41,2*%
%TO.N,GND*%
X90750000Y-385812500D03*
%TD*%
D28*
%TO.P,U8,1,OUT*%
%TO.N,Net-(U8-IN-)*%
X93250000Y-381950000D03*
%TO.P,U8,2,V-*%
%TO.N,GND*%
X93250000Y-381000000D03*
%TO.P,U8,3,IN+*%
%TO.N,Net-(U8-IN+)*%
X93250000Y-380050000D03*
%TO.P,U8,4,IN-*%
%TO.N,Net-(U8-IN-)*%
X90750000Y-380050000D03*
%TO.P,U8,5,V+*%
%TO.N,+5VA*%
X90750000Y-381950000D03*
%TD*%
D11*
%TO.P,C27,1*%
%TO.N,Net-(C27-Pad1)*%
X113400000Y-391137500D03*
%TO.P,C27,2*%
%TO.N,/Analogue/CODEC_IN_L*%
X113400000Y-392862500D03*
%TD*%
%TO.P,C47,1*%
%TO.N,/Analogue/CODEC_OUT_R*%
X99250000Y-393087500D03*
%TO.P,C47,2*%
%TO.N,Net-(C47-Pad2)*%
X99250000Y-394812500D03*
%TD*%
D21*
%TO.P,D21,1,A1*%
%TO.N,GND*%
X100500000Y-315000000D03*
%TO.P,D21,2,A2*%
%TO.N,VBUS*%
X101340000Y-315000000D03*
%TD*%
D16*
%TO.P,R43,1*%
%TO.N,/Processor/MCU_CLK_OUT*%
X93937500Y-343150000D03*
%TO.P,R43,2*%
%TO.N,Net-(U1-PH1)*%
X95762500Y-343150000D03*
%TD*%
D37*
%TO.P,D2,1,K*%
%TO.N,Net-(D2-K)*%
X86400000Y-318000000D03*
%TO.P,D2,2,A*%
%TO.N,VCC*%
X83600000Y-318000000D03*
%TD*%
D15*
%TO.P,D19,1,A1*%
%TO.N,GND*%
X120900000Y-312280000D03*
%TO.P,D19,2,A2*%
%TO.N,/Processor/SWCLK*%
X120900000Y-313120000D03*
%TD*%
D12*
%TO.P,C60,1*%
%TO.N,/Processor/MCU_CKL_IN*%
X89987500Y-338000000D03*
%TO.P,C60,2*%
%TO.N,GND*%
X91712500Y-338000000D03*
%TD*%
D16*
%TO.P,R40,1*%
%TO.N,GND*%
X103587500Y-317000000D03*
%TO.P,R40,2*%
%TO.N,Net-(J13-CC1)*%
X105412500Y-317000000D03*
%TD*%
D11*
%TO.P,C36,1*%
%TO.N,GND*%
X115400000Y-379137500D03*
%TO.P,C36,2*%
%TO.N,Net-(C34-Pad1)*%
X115400000Y-380862500D03*
%TD*%
D20*
%TO.P,R51,1*%
%TO.N,GND*%
X103412500Y-334000000D03*
%TO.P,R51,2*%
%TO.N,Net-(U1-BOOT0)*%
X101587500Y-334000000D03*
%TD*%
D13*
%TO.P,C50,1*%
%TO.N,Net-(U10-IN+)*%
X95250000Y-390812500D03*
%TO.P,C50,2*%
%TO.N,GND*%
X95250000Y-389087500D03*
%TD*%
D24*
%TO.P,J3,1,1*%
%TO.N,+3V3*%
X78000000Y-373750000D03*
D25*
%TO.P,J3,2,2*%
%TO.N,Net-(D4-A2)*%
X78000000Y-375000000D03*
%TO.P,J3,3,3*%
%TO.N,GND*%
X78000000Y-376250000D03*
%TD*%
D11*
%TO.P,C42,1*%
%TO.N,/Analogue/CODEC_OUT_L*%
X99750000Y-382087500D03*
%TO.P,C42,2*%
%TO.N,Net-(C42-Pad2)*%
X99750000Y-383812500D03*
%TD*%
D16*
%TO.P,R8,1*%
%TO.N,Net-(D1-K)*%
X82262500Y-323200000D03*
%TO.P,R8,2*%
%TO.N,/Power/V_ENABLE*%
X84087500Y-323200000D03*
%TD*%
D10*
%TO.P,C53,1*%
%TO.N,/Processor/MCU_~{RST}*%
X115987500Y-317700000D03*
%TO.P,C53,2*%
%TO.N,GND*%
X114262500Y-317700000D03*
%TD*%
D27*
%TO.P,R30,1*%
%TO.N,Net-(U8-IN-)*%
X93750000Y-384037500D03*
%TO.P,R30,2*%
%TO.N,Net-(C43-Pad1)*%
X93750000Y-385862500D03*
%TD*%
D20*
%TO.P,R32,1*%
%TO.N,+5VA*%
X109312500Y-398150000D03*
%TO.P,R32,2*%
%TO.N,Net-(U9-IN+)*%
X107487500Y-398150000D03*
%TD*%
D22*
%TO.P,Q2,1,G*%
%TO.N,Net-(Q2-G)*%
X104537500Y-325100000D03*
%TO.P,Q2,2,S*%
%TO.N,GND*%
X104537500Y-327000000D03*
%TO.P,Q2,3,D*%
%TO.N,Net-(D23-RK)*%
X106412500Y-326050000D03*
%TD*%
D24*
%TO.P,J14,1,1*%
%TO.N,/Connections/SWITCH_0*%
X78000000Y-349375000D03*
D25*
%TO.P,J14,2,2*%
%TO.N,GND*%
X78000000Y-350625000D03*
%TD*%
D41*
%TO.P,U7,1,OUT*%
%TO.N,Net-(U7-IN-)*%
X117450000Y-388250000D03*
%TO.P,U7,2,V-*%
%TO.N,GND*%
X118400000Y-388250000D03*
%TO.P,U7,3,IN+*%
%TO.N,Net-(U7-IN+)*%
X119350000Y-388250000D03*
%TO.P,U7,4,IN-*%
%TO.N,Net-(U7-IN-)*%
X119350000Y-385750000D03*
%TO.P,U7,5,V+*%
%TO.N,+5VA*%
X117450000Y-385750000D03*
%TD*%
D13*
%TO.P,C48,1*%
%TO.N,Net-(C48-Pad1)*%
X86000000Y-392862500D03*
%TO.P,C48,2*%
%TO.N,/Analogue/AUDIO_OUT_R*%
X86000000Y-391137500D03*
%TD*%
D10*
%TO.P,C29,1*%
%TO.N,Net-(C26-Pad1)*%
X123262500Y-396500000D03*
%TO.P,C29,2*%
%TO.N,GND*%
X121537500Y-396500000D03*
%TD*%
D23*
%TO.P,D15,1,A1*%
%TO.N,GND*%
X82000000Y-392000000D03*
%TO.P,D15,2,A2*%
%TO.N,/Analogue/AUDIO_OUT_R*%
X82000000Y-391160000D03*
%TD*%
D36*
%TO.P,J6,1,1*%
%TO.N,/Analogue/AUDIO_IN_L*%
X128725000Y-391875000D03*
%TO.P,J6,2,2*%
%TO.N,GND*%
X128725000Y-390625000D03*
%TO.P,J6,3,3*%
%TO.N,/Analogue/AUDIO_IN_R*%
X128725000Y-389375000D03*
%TO.P,J6,4,4*%
%TO.N,GND*%
X128725000Y-388125000D03*
%TD*%
D17*
%TO.P,R24,1*%
%TO.N,Net-(U7-IN-)*%
X115400000Y-388482500D03*
%TO.P,R24,2*%
%TO.N,Net-(C34-Pad1)*%
X115400000Y-386657500D03*
%TD*%
D16*
%TO.P,R48,1*%
%TO.N,Net-(Q2-G)*%
X99625000Y-325000000D03*
%TO.P,R48,2*%
%TO.N,/Processor/LED_RED*%
X101450000Y-325000000D03*
%TD*%
D13*
%TO.P,C43,1*%
%TO.N,Net-(C43-Pad1)*%
X86000000Y-388862500D03*
%TO.P,C43,2*%
%TO.N,/Analogue/AUDIO_OUT_L*%
X86000000Y-387137500D03*
%TD*%
D42*
%TO.P,J16,1,Pin_1*%
%TO.N,+5V*%
X127710000Y-341875000D03*
D43*
%TO.P,J16,2,Pin_2*%
%TO.N,+3.3V*%
X130250000Y-341875000D03*
%TO.P,J16,3,Pin_3*%
%TO.N,/Connections/GPIO0*%
X127710000Y-339335000D03*
%TO.P,J16,4,Pin_4*%
%TO.N,/Connections/GPIO1*%
X130250000Y-339335000D03*
%TO.P,J16,5,Pin_5*%
%TO.N,/Connections/GPIO2*%
X127710000Y-336795000D03*
%TO.P,J16,6,Pin_6*%
%TO.N,/Connections/GPIO3*%
X130250000Y-336795000D03*
%TO.P,J16,7,Pin_7*%
%TO.N,/Connections/GPIO4*%
X127710000Y-334255000D03*
%TO.P,J16,8,Pin_8*%
%TO.N,/Connections/GPIO5*%
X130250000Y-334255000D03*
%TO.P,J16,9,Pin_9*%
%TO.N,/Connections/GPIO6*%
X127710000Y-331715000D03*
%TO.P,J16,10,Pin_10*%
%TO.N,/Connections/GPIO7*%
X130250000Y-331715000D03*
%TO.P,J16,11,Pin_11*%
%TO.N,/Connections/GPIO8*%
X127710000Y-329175000D03*
%TO.P,J16,12,Pin_12*%
%TO.N,/Connections/GPIO9*%
X130250000Y-329175000D03*
%TO.P,J16,13,Pin_13*%
%TO.N,/Connections/GPIO10*%
X127710000Y-326635000D03*
%TO.P,J16,14,Pin_14*%
%TO.N,/Connections/GPIO11*%
X130250000Y-326635000D03*
%TO.P,J16,15,Pin_15*%
%TO.N,GND*%
X127710000Y-324095000D03*
%TO.P,J16,16,Pin_16*%
X130250000Y-324095000D03*
%TD*%
D27*
%TO.P,R33,1*%
%TO.N,+VREF*%
X97250000Y-393037500D03*
%TO.P,R33,2*%
%TO.N,Net-(C47-Pad2)*%
X97250000Y-394862500D03*
%TD*%
D44*
%TO.P,FB3,1*%
%TO.N,+3V3*%
X86850000Y-348212500D03*
%TO.P,FB3,2*%
%TO.N,+3V3_FILT*%
X86850000Y-349787500D03*
%TD*%
D11*
%TO.P,C33,1*%
%TO.N,Net-(C33-Pad1)*%
X119400000Y-379137500D03*
%TO.P,C33,2*%
%TO.N,Net-(U7-IN+)*%
X119400000Y-380862500D03*
%TD*%
D24*
%TO.P,J10,1,1*%
%TO.N,+3V3*%
X128300000Y-376250000D03*
D25*
%TO.P,J10,2,2*%
%TO.N,Net-(D11-A2)*%
X128300000Y-375000000D03*
%TO.P,J10,3,3*%
%TO.N,GND*%
X128300000Y-373750000D03*
%TD*%
D15*
%TO.P,D10,1,A1*%
%TO.N,GND*%
X126000000Y-357580000D03*
%TO.P,D10,2,A2*%
%TO.N,Net-(D10-A2)*%
X126000000Y-358420000D03*
%TD*%
D13*
%TO.P,C26,1*%
%TO.N,Net-(C26-Pad1)*%
X119400000Y-400000000D03*
%TO.P,C26,2*%
%TO.N,Net-(U6-IN+)*%
X119400000Y-398275000D03*
%TD*%
D11*
%TO.P,C5,1*%
%TO.N,+3V3*%
X98000000Y-364637500D03*
%TO.P,C5,2*%
%TO.N,GND*%
X98000000Y-366362500D03*
%TD*%
D28*
%TO.P,U10,1,OUT*%
%TO.N,Net-(U10-IN-)*%
X93250000Y-392950000D03*
%TO.P,U10,2,V-*%
%TO.N,GND*%
X93250000Y-392000000D03*
%TO.P,U10,3,IN+*%
%TO.N,Net-(U10-IN+)*%
X93250000Y-391050000D03*
%TO.P,U10,4,IN-*%
%TO.N,Net-(U10-IN-)*%
X90750000Y-391050000D03*
%TO.P,U10,5,V+*%
%TO.N,+5VA*%
X90750000Y-392950000D03*
%TD*%
D17*
%TO.P,R37,1*%
%TO.N,GND*%
X84000000Y-392912500D03*
%TO.P,R37,2*%
%TO.N,/Analogue/AUDIO_OUT_R*%
X84000000Y-391087500D03*
%TD*%
D10*
%TO.P,C45,1*%
%TO.N,+5VA*%
X109262500Y-392150000D03*
%TO.P,C45,2*%
%TO.N,GND*%
X107537500Y-392150000D03*
%TD*%
D27*
%TO.P,R2,1*%
%TO.N,/CODEC/I2C1_SDA*%
X92000000Y-372587500D03*
%TO.P,R2,2*%
%TO.N,+3V3*%
X92000000Y-374412500D03*
%TD*%
D13*
%TO.P,C44,1*%
%TO.N,Net-(U8-IN+)*%
X95750000Y-379812500D03*
%TO.P,C44,2*%
%TO.N,GND*%
X95750000Y-378087500D03*
%TD*%
D15*
%TO.P,D18,1,A1*%
%TO.N,GND*%
X119900000Y-312280000D03*
%TO.P,D18,2,A2*%
%TO.N,/Processor/SWDIO*%
X119900000Y-313120000D03*
%TD*%
D13*
%TO.P,C58,1*%
%TO.N,+3V3_FILT*%
X90850000Y-349862500D03*
%TO.P,C58,2*%
%TO.N,GND*%
X90850000Y-348137500D03*
%TD*%
D24*
%TO.P,J9,1,1*%
%TO.N,+3V3*%
X128300000Y-368250000D03*
D25*
%TO.P,J9,2,2*%
%TO.N,Net-(D12-A2)*%
X128300000Y-367000000D03*
%TO.P,J9,3,3*%
%TO.N,GND*%
X128300000Y-365750000D03*
%TD*%
D23*
%TO.P,D20,1,A1*%
%TO.N,GND*%
X121900000Y-325120000D03*
%TO.P,D20,2,A2*%
%TO.N,/Processor/nRESET*%
X121900000Y-324280000D03*
%TD*%
D15*
%TO.P,D17,1,A1*%
%TO.N,GND*%
X122900000Y-312280000D03*
%TO.P,D17,2,A2*%
%TO.N,/Processor/SWO*%
X122900000Y-313120000D03*
%TD*%
D45*
%TO.P,J13,A1,GND*%
%TO.N,GND*%
X106500000Y-312215000D03*
%TO.P,J13,A2,TX1+*%
%TO.N,unconnected-(J13-TX1+-PadA2)*%
X106000000Y-312215000D03*
%TO.P,J13,A3,TX1-*%
%TO.N,unconnected-(J13-TX1--PadA3)*%
X105500000Y-312215000D03*
%TO.P,J13,A4,VBUS*%
%TO.N,VBUS*%
X105000000Y-312215000D03*
%TO.P,J13,A5,CC1*%
%TO.N,Net-(J13-CC1)*%
X104500000Y-312215000D03*
%TO.P,J13,A6,D+*%
%TO.N,/Connections/USB_D+*%
X104000000Y-312215000D03*
%TO.P,J13,A7,D-*%
%TO.N,/Connections/USB_D-*%
X103000000Y-312215000D03*
%TO.P,J13,A8,SBU1*%
%TO.N,unconnected-(J13-SBU1-PadA8)*%
X102500000Y-312215000D03*
%TO.P,J13,A9,VBUS*%
%TO.N,VBUS*%
X102000000Y-312215000D03*
%TO.P,J13,A10,RX2-*%
%TO.N,unconnected-(J13-RX2--PadA10)*%
X101500000Y-312215000D03*
%TO.P,J13,A11,RX2+*%
%TO.N,unconnected-(J13-RX2+-PadA11)*%
X101000000Y-312215000D03*
%TO.P,J13,A12,GND*%
%TO.N,GND*%
X100500000Y-312215000D03*
D46*
%TO.P,J13,B1,GND*%
X100400000Y-310915000D03*
D45*
%TO.P,J13,B2,TX2+*%
%TO.N,unconnected-(J13-TX2+-PadB2)*%
X101250000Y-310915000D03*
%TO.P,J13,B3,TX2-*%
%TO.N,unconnected-(J13-TX2--PadB3)*%
X101750000Y-310915000D03*
%TO.P,J13,B4,VBUS*%
%TO.N,VBUS*%
X102250000Y-310915000D03*
%TO.P,J13,B5,CC2*%
%TO.N,Net-(J13-CC2)*%
X102750000Y-310915000D03*
%TO.P,J13,B6,D+*%
%TO.N,/Connections/USB_D+*%
X103250000Y-310915000D03*
%TO.P,J13,B7,D-*%
%TO.N,/Connections/USB_D-*%
X103750000Y-310915000D03*
%TO.P,J13,B8,SBU2*%
%TO.N,unconnected-(J13-SBU2-PadB8)*%
X104250000Y-310915000D03*
%TO.P,J13,B9,VBUS*%
%TO.N,VBUS*%
X104750000Y-310915000D03*
%TO.P,J13,B10,RX1-*%
%TO.N,unconnected-(J13-RX1--PadB10)*%
X105250000Y-310915000D03*
%TO.P,J13,B11,RX1+*%
%TO.N,unconnected-(J13-RX1+-PadB11)*%
X105750000Y-310915000D03*
D46*
%TO.P,J13,B12,GND*%
%TO.N,GND*%
X106600000Y-310915000D03*
D47*
%TO.P,J13,S1,SHIELD*%
%TO.N,unconnected-(J13-SHIELD-PadS1)*%
X107820000Y-311805000D03*
D48*
X107820000Y-306445000D03*
D47*
X99180000Y-311805000D03*
D48*
X99180000Y-306445000D03*
%TD*%
D27*
%TO.P,R28,1*%
%TO.N,+VREF*%
X97750000Y-382037500D03*
%TO.P,R28,2*%
%TO.N,Net-(C42-Pad2)*%
X97750000Y-383862500D03*
%TD*%
D13*
%TO.P,C1,1*%
%TO.N,+5VA*%
X109500000Y-365362500D03*
%TO.P,C1,2*%
%TO.N,GND*%
X109500000Y-363637500D03*
%TD*%
D20*
%TO.P,R17,1*%
%TO.N,Net-(C26-Pad1)*%
X123312500Y-398500000D03*
%TO.P,R17,2*%
%TO.N,GND*%
X121487500Y-398500000D03*
%TD*%
D23*
%TO.P,D25,1,A1*%
%TO.N,GND*%
X80300000Y-367170000D03*
%TO.P,D25,2,A2*%
%TO.N,Net-(D25-A2)*%
X80300000Y-366330000D03*
%TD*%
D16*
%TO.P,R27,1*%
%TO.N,/Connections/ADC_IN3*%
X122175000Y-375000000D03*
%TO.P,R27,2*%
%TO.N,Net-(D11-A2)*%
X124000000Y-375000000D03*
%TD*%
D10*
%TO.P,C25,1*%
%TO.N,+5VA*%
X115262500Y-394000000D03*
%TO.P,C25,2*%
%TO.N,GND*%
X113537500Y-394000000D03*
%TD*%
D17*
%TO.P,R6,1*%
%TO.N,GND*%
X96000000Y-374412500D03*
%TO.P,R6,2*%
%TO.N,Net-(U2-AD0{slash}~{CS}{slash}I2S{slash}~{LJ})*%
X96000000Y-372587500D03*
%TD*%
D16*
%TO.P,R44,1*%
%TO.N,Net-(D23-GA)*%
X115562500Y-324050000D03*
%TO.P,R44,2*%
%TO.N,+5V*%
X117387500Y-324050000D03*
%TD*%
D49*
X73400000Y-304100000D02*
X133400000Y-304100000D01*
X133400000Y-404100000D01*
X73400000Y-404100000D01*
X73400000Y-304100000D01*
M02*
