%TF.GenerationSoftware,KiCad,Pcbnew,8.0.3*%
%TF.CreationDate,2024-06-18T17:24:28+01:00*%
%TF.ProjectId,Basic_DSP_V0_1,42617369-635f-4445-9350-5f56305f312e,rev?*%
%TF.SameCoordinates,Original*%
%TF.FileFunction,Soldermask,Bot*%
%TF.FilePolarity,Negative*%
%FSLAX46Y46*%
G04 Gerber Fmt 4.6, Leading zero omitted, Abs format (unit mm)*
G04 Created by KiCad (PCBNEW 8.0.3) date 2024-06-18 17:24:28*
%MOMM*%
%LPD*%
G01*
G04 APERTURE LIST*
%ADD10C,3.200000*%
%ADD11R,1.100000X1.100000*%
%ADD12C,1.100000*%
%ADD13C,0.900000*%
%ADD14C,2.374900*%
%ADD15C,0.990600*%
%ADD16R,1.700000X1.700000*%
%ADD17O,1.700000X1.700000*%
%ADD18O,1.100000X2.100000*%
%ADD19O,1.100000X2.600000*%
%TA.AperFunction,Profile*%
%ADD20C,0.500000*%
%TD*%
G04 APERTURE END LIST*
D10*
%TO.C,H3*%
X128400000Y-399100000D03*
%TD*%
%TO.C,H4*%
X78400000Y-399100000D03*
%TD*%
D11*
%TO.C,J2*%
X78000000Y-365750000D03*
D12*
X78000000Y-367000000D03*
X78000000Y-368250000D03*
%TD*%
D10*
%TO.C,H1*%
X78400000Y-309100000D03*
%TD*%
D11*
%TO.C,J8*%
X128300000Y-359875000D03*
D12*
X128300000Y-358625000D03*
X128300000Y-357375000D03*
%TD*%
D11*
%TO.C,J7*%
X128300000Y-351250000D03*
D12*
X128300000Y-350000000D03*
X128300000Y-348750000D03*
%TD*%
D13*
%TO.C,J11*%
X78275000Y-388125000D03*
X78275000Y-389375000D03*
X78275000Y-390625000D03*
X78275000Y-391875000D03*
%TD*%
D11*
%TO.C,J15*%
X78000000Y-358000000D03*
D12*
X78000000Y-359250000D03*
%TD*%
D14*
%TO.C,J12*%
X119360000Y-316160000D03*
D15*
X119360000Y-318700000D03*
D14*
X119360000Y-321240000D03*
X122535000Y-316160000D03*
X122535000Y-321240000D03*
D15*
X124440000Y-317684000D03*
X124440000Y-319716000D03*
%TD*%
D11*
%TO.C,J1*%
X77700000Y-316750000D03*
D12*
X77700000Y-318000000D03*
X77700000Y-319250000D03*
%TD*%
D11*
%TO.C,J3*%
X78000000Y-373750000D03*
D12*
X78000000Y-375000000D03*
X78000000Y-376250000D03*
%TD*%
D11*
%TO.C,J14*%
X78000000Y-349375000D03*
D12*
X78000000Y-350625000D03*
%TD*%
D13*
%TO.C,J6*%
X128725000Y-391875000D03*
X128725000Y-390625000D03*
X128725000Y-389375000D03*
X128725000Y-388125000D03*
%TD*%
D10*
%TO.C,H2*%
X128400000Y-309100000D03*
%TD*%
D16*
%TO.C,J16*%
X127710000Y-341875000D03*
D17*
X130250000Y-341875000D03*
X127710000Y-339335000D03*
X130250000Y-339335000D03*
X127710000Y-336795000D03*
X130250000Y-336795000D03*
X127710000Y-334255000D03*
X130250000Y-334255000D03*
X127710000Y-331715000D03*
X130250000Y-331715000D03*
X127710000Y-329175000D03*
X130250000Y-329175000D03*
X127710000Y-326635000D03*
X130250000Y-326635000D03*
X127710000Y-324095000D03*
X130250000Y-324095000D03*
%TD*%
D11*
%TO.C,J10*%
X128300000Y-376250000D03*
D12*
X128300000Y-375000000D03*
X128300000Y-373750000D03*
%TD*%
D11*
%TO.C,J9*%
X128300000Y-368250000D03*
D12*
X128300000Y-367000000D03*
X128300000Y-365750000D03*
%TD*%
D18*
%TO.C,J13*%
X107820000Y-311805000D03*
D19*
X107820000Y-306445000D03*
D18*
X99180000Y-311805000D03*
D19*
X99180000Y-306445000D03*
%TD*%
D20*
X73400000Y-304100000D02*
X133400000Y-304100000D01*
X133400000Y-404100000D01*
X73400000Y-404100000D01*
X73400000Y-304100000D01*
M02*
