%TF.GenerationSoftware,KiCad,Pcbnew,8.0.3*%
%TF.CreationDate,2024-06-18T17:24:28+01:00*%
%TF.ProjectId,Basic_DSP_V0_1,42617369-635f-4445-9350-5f56305f312e,rev?*%
%TF.SameCoordinates,Original*%
%TF.FileFunction,Copper,L4,Bot*%
%TF.FilePolarity,Positive*%
%FSLAX46Y46*%
G04 Gerber Fmt 4.6, Leading zero omitted, Abs format (unit mm)*
G04 Created by KiCad (PCBNEW 8.0.3) date 2024-06-18 17:24:28*
%MOMM*%
%LPD*%
G01*
G04 APERTURE LIST*
%TA.AperFunction,ComponentPad*%
%ADD10R,1.100000X1.100000*%
%TD*%
%TA.AperFunction,ComponentPad*%
%ADD11C,1.100000*%
%TD*%
%TA.AperFunction,ComponentPad*%
%ADD12C,0.900000*%
%TD*%
%TA.AperFunction,ComponentPad*%
%ADD13R,1.700000X1.700000*%
%TD*%
%TA.AperFunction,ComponentPad*%
%ADD14O,1.700000X1.700000*%
%TD*%
%TA.AperFunction,ComponentPad*%
%ADD15O,1.100000X2.100000*%
%TD*%
%TA.AperFunction,ComponentPad*%
%ADD16O,1.100000X2.600000*%
%TD*%
%TA.AperFunction,Profile*%
%ADD17C,0.500000*%
%TD*%
G04 APERTURE END LIST*
D10*
%TO.P,J2,1,1*%
%TO.N,+3V3*%
X78000000Y-365750000D03*
D11*
%TO.P,J2,2,2*%
%TO.N,Net-(D25-A2)*%
X78000000Y-367000000D03*
%TO.P,J2,3,3*%
%TO.N,GND*%
X78000000Y-368250000D03*
%TD*%
D10*
%TO.P,J8,1,1*%
%TO.N,+3V3*%
X128300000Y-359875000D03*
D11*
%TO.P,J8,2,2*%
%TO.N,Net-(D10-A2)*%
X128300000Y-358625000D03*
%TO.P,J8,3,3*%
%TO.N,GND*%
X128300000Y-357375000D03*
%TD*%
D10*
%TO.P,J7,1,1*%
%TO.N,+3V3*%
X128300000Y-351250000D03*
D11*
%TO.P,J7,2,2*%
%TO.N,Net-(D8-A2)*%
X128300000Y-350000000D03*
%TO.P,J7,3,3*%
%TO.N,GND*%
X128300000Y-348750000D03*
%TD*%
D12*
%TO.P,J11,1,1*%
%TO.N,/Analogue/AUDIO_OUT_L*%
X78275000Y-388125000D03*
%TO.P,J11,2,2*%
%TO.N,GND*%
X78275000Y-389375000D03*
%TO.P,J11,3,3*%
%TO.N,/Analogue/AUDIO_OUT_R*%
X78275000Y-390625000D03*
%TO.P,J11,4,4*%
%TO.N,GND*%
X78275000Y-391875000D03*
%TD*%
D10*
%TO.P,J15,1,1*%
%TO.N,/Connections/SWITCH_1*%
X78000000Y-358000000D03*
D11*
%TO.P,J15,2,2*%
%TO.N,GND*%
X78000000Y-359250000D03*
%TD*%
D10*
%TO.P,J1,1,1*%
%TO.N,VCC*%
X77700000Y-316750000D03*
D11*
%TO.P,J1,2,2*%
%TO.N,unconnected-(J1-Pad2)*%
X77700000Y-318000000D03*
%TO.P,J1,3,3*%
%TO.N,GND*%
X77700000Y-319250000D03*
%TD*%
D10*
%TO.P,J3,1,1*%
%TO.N,+3V3*%
X78000000Y-373750000D03*
D11*
%TO.P,J3,2,2*%
%TO.N,Net-(D4-A2)*%
X78000000Y-375000000D03*
%TO.P,J3,3,3*%
%TO.N,GND*%
X78000000Y-376250000D03*
%TD*%
D10*
%TO.P,J14,1,1*%
%TO.N,/Connections/SWITCH_0*%
X78000000Y-349375000D03*
D11*
%TO.P,J14,2,2*%
%TO.N,GND*%
X78000000Y-350625000D03*
%TD*%
D12*
%TO.P,J6,1,1*%
%TO.N,/Analogue/AUDIO_IN_L*%
X128725000Y-391875000D03*
%TO.P,J6,2,2*%
%TO.N,GND*%
X128725000Y-390625000D03*
%TO.P,J6,3,3*%
%TO.N,/Analogue/AUDIO_IN_R*%
X128725000Y-389375000D03*
%TO.P,J6,4,4*%
%TO.N,GND*%
X128725000Y-388125000D03*
%TD*%
D13*
%TO.P,J16,1,Pin_1*%
%TO.N,+5V*%
X127710000Y-341875000D03*
D14*
%TO.P,J16,2,Pin_2*%
%TO.N,+3.3V*%
X130250000Y-341875000D03*
%TO.P,J16,3,Pin_3*%
%TO.N,/Connections/GPIO0*%
X127710000Y-339335000D03*
%TO.P,J16,4,Pin_4*%
%TO.N,/Connections/GPIO1*%
X130250000Y-339335000D03*
%TO.P,J16,5,Pin_5*%
%TO.N,/Connections/GPIO2*%
X127710000Y-336795000D03*
%TO.P,J16,6,Pin_6*%
%TO.N,/Connections/GPIO3*%
X130250000Y-336795000D03*
%TO.P,J16,7,Pin_7*%
%TO.N,/Connections/GPIO4*%
X127710000Y-334255000D03*
%TO.P,J16,8,Pin_8*%
%TO.N,/Connections/GPIO5*%
X130250000Y-334255000D03*
%TO.P,J16,9,Pin_9*%
%TO.N,/Connections/GPIO6*%
X127710000Y-331715000D03*
%TO.P,J16,10,Pin_10*%
%TO.N,/Connections/GPIO7*%
X130250000Y-331715000D03*
%TO.P,J16,11,Pin_11*%
%TO.N,/Connections/GPIO8*%
X127710000Y-329175000D03*
%TO.P,J16,12,Pin_12*%
%TO.N,/Connections/GPIO9*%
X130250000Y-329175000D03*
%TO.P,J16,13,Pin_13*%
%TO.N,/Connections/GPIO10*%
X127710000Y-326635000D03*
%TO.P,J16,14,Pin_14*%
%TO.N,/Connections/GPIO11*%
X130250000Y-326635000D03*
%TO.P,J16,15,Pin_15*%
%TO.N,GND*%
X127710000Y-324095000D03*
%TO.P,J16,16,Pin_16*%
X130250000Y-324095000D03*
%TD*%
D10*
%TO.P,J10,1,1*%
%TO.N,+3V3*%
X128300000Y-376250000D03*
D11*
%TO.P,J10,2,2*%
%TO.N,Net-(D11-A2)*%
X128300000Y-375000000D03*
%TO.P,J10,3,3*%
%TO.N,GND*%
X128300000Y-373750000D03*
%TD*%
D10*
%TO.P,J9,1,1*%
%TO.N,+3V3*%
X128300000Y-368250000D03*
D11*
%TO.P,J9,2,2*%
%TO.N,Net-(D12-A2)*%
X128300000Y-367000000D03*
%TO.P,J9,3,3*%
%TO.N,GND*%
X128300000Y-365750000D03*
%TD*%
D15*
%TO.P,J13,S1,SHIELD*%
%TO.N,unconnected-(J13-SHIELD-PadS1)*%
X107820000Y-311805000D03*
D16*
X107820000Y-306445000D03*
D15*
X99180000Y-311805000D03*
D16*
X99180000Y-306445000D03*
%TD*%
D17*
X73400000Y-304100000D02*
X133400000Y-304100000D01*
X133400000Y-404100000D01*
X73400000Y-404100000D01*
X73400000Y-304100000D01*
M02*
