%TF.GenerationSoftware,KiCad,Pcbnew,8.0.5*%
%TF.CreationDate,2024-09-12T11:50:27+01:00*%
%TF.ProjectId,Basic_DSP_V0_1,42617369-635f-4445-9350-5f56305f312e,rev?*%
%TF.SameCoordinates,Original*%
%TF.FileFunction,Copper,L5,Inr*%
%TF.FilePolarity,Positive*%
%FSLAX46Y46*%
G04 Gerber Fmt 4.6, Leading zero omitted, Abs format (unit mm)*
G04 Created by KiCad (PCBNEW 8.0.5) date 2024-09-12 11:50:27*
%MOMM*%
%LPD*%
G01*
G04 APERTURE LIST*
%TA.AperFunction,ComponentPad*%
%ADD10C,5.700000*%
%TD*%
%TA.AperFunction,ComponentPad*%
%ADD11R,1.100000X1.000000*%
%TD*%
%TA.AperFunction,ComponentPad*%
%ADD12C,1.000000*%
%TD*%
%TA.AperFunction,ComponentPad*%
%ADD13R,1.000000X1.000000*%
%TD*%
%TA.AperFunction,ComponentPad*%
%ADD14R,1.700000X1.700000*%
%TD*%
%TA.AperFunction,ComponentPad*%
%ADD15O,1.700000X1.700000*%
%TD*%
%TA.AperFunction,ViaPad*%
%ADD16C,0.600000*%
%TD*%
%TA.AperFunction,Profile*%
%ADD17C,0.500000*%
%TD*%
G04 APERTURE END LIST*
D10*
%TO.N,N/C*%
%TO.C,H3*%
X128400000Y-399100000D03*
%TD*%
%TO.N,N/C*%
%TO.C,H4*%
X78400000Y-399100000D03*
%TD*%
D11*
%TO.N,+3V3*%
%TO.C,J2*%
X78300000Y-365750000D03*
D12*
%TO.N,Net-(D25-A2)*%
X78300000Y-367000000D03*
%TO.N,GND*%
X78300000Y-368250000D03*
%TD*%
D10*
%TO.N,N/C*%
%TO.C,H1*%
X78400000Y-309100000D03*
%TD*%
D11*
%TO.N,+3V3*%
%TO.C,J8*%
X128300000Y-359875000D03*
D12*
%TO.N,Net-(D10-A2)*%
X128300000Y-358625000D03*
%TO.N,GND*%
X128300000Y-357375000D03*
%TD*%
D11*
%TO.N,+3V3*%
%TO.C,J7*%
X128300000Y-351250000D03*
D12*
%TO.N,Net-(D8-A2)*%
X128300000Y-350000000D03*
%TO.N,GND*%
X128300000Y-348750000D03*
%TD*%
%TO.N,/Analogue/AUDIO_OUT_R*%
%TO.C,J11*%
X78275000Y-388125000D03*
%TO.N,GND*%
X78275000Y-389375000D03*
%TO.N,/Analogue/AUDIO_OUT_L*%
X78275000Y-390625000D03*
%TO.N,GND*%
X78275000Y-391875000D03*
%TD*%
D13*
%TO.N,/Connections/SWITCH_1*%
%TO.C,J15*%
X78300000Y-358000000D03*
D12*
%TO.N,GND*%
X78300000Y-359250000D03*
%TD*%
D11*
%TO.N,VCC*%
%TO.C,J1*%
X78300000Y-316750000D03*
D12*
%TO.N,unconnected-(J1-Pad2)*%
X78300000Y-318000000D03*
%TO.N,GND*%
X78300000Y-319250000D03*
%TD*%
D11*
%TO.N,+3V3*%
%TO.C,J3*%
X78300000Y-373750000D03*
D12*
%TO.N,Net-(D4-A2)*%
X78300000Y-375000000D03*
%TO.N,GND*%
X78300000Y-376250000D03*
%TD*%
D13*
%TO.N,/Connections/SWITCH_0*%
%TO.C,J14*%
X78300000Y-349375000D03*
D12*
%TO.N,GND*%
X78300000Y-350625000D03*
%TD*%
%TO.N,/Analogue/AUDIO_IN_L*%
%TO.C,J6*%
X128525000Y-391875000D03*
%TO.N,GND*%
X128525000Y-390625000D03*
%TO.N,/Analogue/AUDIO_IN_R*%
X128525000Y-389375000D03*
%TO.N,GND*%
X128525000Y-388125000D03*
%TD*%
D10*
%TO.N,N/C*%
%TO.C,H2*%
X128400000Y-309100000D03*
%TD*%
D14*
%TO.N,+5V*%
%TO.C,J16*%
X127710000Y-341875000D03*
D15*
%TO.N,+3V3*%
X130250000Y-341875000D03*
%TO.N,/Connections/GPIO0*%
X127710000Y-339335000D03*
%TO.N,/Connections/GPIO1*%
X130250000Y-339335000D03*
%TO.N,/Connections/GPIO2*%
X127710000Y-336795000D03*
%TO.N,/Connections/GPIO3*%
X130250000Y-336795000D03*
%TO.N,/Connections/GPIO4*%
X127710000Y-334255000D03*
%TO.N,/Connections/GPIO5*%
X130250000Y-334255000D03*
%TO.N,/Connections/GPIO6*%
X127710000Y-331715000D03*
%TO.N,/Connections/GPIO7*%
X130250000Y-331715000D03*
%TO.N,/Connections/GPIO8*%
X127710000Y-329175000D03*
%TO.N,/Connections/GPIO9*%
X130250000Y-329175000D03*
%TO.N,/Connections/GPIO10*%
X127710000Y-326635000D03*
%TO.N,/Connections/GPIO11*%
X130250000Y-326635000D03*
%TO.N,GND*%
X127710000Y-324095000D03*
X130250000Y-324095000D03*
%TD*%
D11*
%TO.N,+3V3*%
%TO.C,J10*%
X128300000Y-376250000D03*
D12*
%TO.N,Net-(D11-A2)*%
X128300000Y-375000000D03*
%TO.N,GND*%
X128300000Y-373750000D03*
%TD*%
D11*
%TO.N,+3V3*%
%TO.C,J9*%
X128300000Y-368250000D03*
D12*
%TO.N,Net-(D12-A2)*%
X128300000Y-367000000D03*
%TO.N,GND*%
X128300000Y-365750000D03*
%TD*%
D16*
%TO.N,+5VA*%
X87200000Y-382400000D03*
X110000000Y-384000000D03*
X121200000Y-379200000D03*
X89400000Y-393200000D03*
X106800000Y-391200000D03*
X112600000Y-363000000D03*
X106800000Y-393200000D03*
X109900000Y-395300000D03*
X111100000Y-395300000D03*
X111200000Y-384000000D03*
X112600000Y-364200000D03*
X88200000Y-393200000D03*
X122400000Y-379200000D03*
X87200000Y-384000000D03*
%TO.N,GND*%
X91500000Y-397000000D03*
X103500000Y-364300000D03*
X124400000Y-395900000D03*
X109100000Y-379300000D03*
X93500000Y-306700000D03*
X104600000Y-344800000D03*
X81800000Y-331200000D03*
X96900000Y-354000000D03*
X93100000Y-323000000D03*
X88300000Y-344800000D03*
X106500000Y-347300000D03*
X102100000Y-346100000D03*
X101500000Y-332000000D03*
X94400000Y-361500000D03*
X117600000Y-324800000D03*
X121100000Y-377400000D03*
X103545110Y-344161654D03*
X123800000Y-346300000D03*
X117400000Y-401400000D03*
X104700000Y-368700000D03*
X115000000Y-337900000D03*
X92500000Y-306700000D03*
X103500000Y-359100000D03*
X100900000Y-402300000D03*
X99700000Y-340900000D03*
X123900000Y-371500000D03*
X95300000Y-387700000D03*
X105400000Y-332100000D03*
X100650000Y-358534313D03*
X112600000Y-361300000D03*
X89500000Y-333200000D03*
X107700000Y-353700000D03*
X100000000Y-343900000D03*
X94000000Y-335700000D03*
X124300000Y-397700000D03*
X96900000Y-352000000D03*
X86900000Y-396900000D03*
X98800000Y-335700000D03*
X101500000Y-370300000D03*
X113400000Y-342900000D03*
X101400000Y-339900000D03*
X91700000Y-337300000D03*
X110900000Y-400900000D03*
X109600000Y-353700000D03*
X123900000Y-363400000D03*
X115500000Y-369700000D03*
X110500000Y-359700000D03*
X123900000Y-355400000D03*
%TO.N,+3V3*%
X99000000Y-366600000D03*
X82000000Y-353100000D03*
X81800000Y-330000000D03*
X82000000Y-362200000D03*
X115000000Y-339700000D03*
X110700000Y-349700000D03*
X90800000Y-346800000D03*
X110500000Y-372100000D03*
X109600000Y-349700000D03*
X100400000Y-355300000D03*
X116100000Y-339700000D03*
X119850000Y-313235000D03*
X90800000Y-347900000D03*
X94400000Y-363000000D03*
X80800000Y-329100000D03*
X94000000Y-337600000D03*
X94000000Y-338800000D03*
X99500000Y-355300000D03*
X94400000Y-364000000D03*
X81800000Y-329100000D03*
X79800000Y-329100000D03*
X79800000Y-330000000D03*
X90200000Y-331300000D03*
X80800000Y-330000000D03*
%TO.N,Net-(D1-K)*%
X83700000Y-322700000D03*
X109100000Y-377700000D03*
X83700000Y-321700000D03*
X85700000Y-321700000D03*
X84700000Y-322700000D03*
X84700000Y-321700000D03*
X109100000Y-376600000D03*
X85700000Y-322700000D03*
%TO.N,/Power/V_ENABLE*%
X112000000Y-380500000D03*
X112000000Y-331200000D03*
X92700000Y-326900000D03*
%TO.N,/Connections/ADC_IN0*%
X88300000Y-367100000D03*
X100650000Y-346750000D03*
%TO.N,/Connections/ADC_IN1*%
X96100000Y-349100000D03*
X84200000Y-373800000D03*
%TO.N,/Analogue/CODEC_IN_L*%
X108100000Y-368500000D03*
X117400000Y-400400000D03*
%TO.N,/Connections/ADC_IN2*%
X97600000Y-374300000D03*
X97600000Y-349100000D03*
%TO.N,/Connections/ADC_IN3*%
X99300000Y-375000000D03*
X98600000Y-350700000D03*
%TO.N,/Analogue/CODEC_IN_R*%
X117500000Y-387700000D03*
X108000000Y-366400000D03*
%TO.N,/Connections/ADC_IN4*%
X102030761Y-358000000D03*
X100650000Y-347800000D03*
%TO.N,/Connections/ADC_IN5*%
X103950000Y-357000000D03*
X102000000Y-347600000D03*
%TO.N,/Analogue/CODEC_OUT_L*%
X107800000Y-362500000D03*
X99900000Y-391500000D03*
%TO.N,/Analogue/CODEC_OUT_R*%
X100300000Y-382100000D03*
X107900000Y-359600000D03*
%TO.N,/Processor/MCU_~{RST}*%
X121050000Y-308535000D03*
X99800000Y-342500000D03*
%TO.N,VBUS*%
X91500000Y-319400000D03*
X106600000Y-313300000D03*
X106600000Y-314200000D03*
X101900000Y-312800000D03*
X107400000Y-314200000D03*
X107400000Y-313300000D03*
X89700000Y-319400000D03*
X90600000Y-319400000D03*
X101900000Y-313600000D03*
%TO.N,/Processor/SWO*%
X104400000Y-336800000D03*
X112800000Y-329400000D03*
%TO.N,/Connections/USB_D+*%
X102475000Y-314252248D03*
X106621851Y-341575000D03*
%TO.N,/Connections/USB_D-*%
X106621851Y-342425000D03*
X103325000Y-314252248D03*
%TO.N,+5V*%
X118800000Y-375900000D03*
X107000000Y-317700000D03*
X107000000Y-316600000D03*
%TO.N,/Connections/GPIO2*%
X105250000Y-346600000D03*
%TO.N,/Connections/GPIO3*%
X105300000Y-340300000D03*
%TO.N,/CODEC/I2S_ADC_OUT*%
X100000000Y-344700000D03*
X92300000Y-368200000D03*
%TO.N,/CODEC/I2C1_SDA*%
X102200000Y-342200000D03*
X103100000Y-366400000D03*
%TO.N,/CODEC/I2C1_SCL*%
X102900000Y-341266728D03*
X103200000Y-367200000D03*
%TO.N,+VREF*%
X119000000Y-398000000D03*
X107250000Y-397750000D03*
X98000000Y-391750000D03*
X97000000Y-380750000D03*
X120000000Y-398000000D03*
X98000000Y-380750000D03*
X97000000Y-391750000D03*
X107250000Y-396750000D03*
X120000000Y-386200000D03*
X119000000Y-386200000D03*
%TO.N,/CODEC/I2S_BCLK*%
X103450000Y-363150000D03*
X105700000Y-347315544D03*
%TO.N,/CODEC/I2S_WCLK*%
X102750000Y-344250000D03*
X102700000Y-359100000D03*
%TO.N,/CODEC/I2S_MCLK*%
X104600000Y-345700000D03*
X102800000Y-362400000D03*
%TO.N,/CODEC/I2S_DAC_IN*%
X101300000Y-346100000D03*
X101300000Y-359100000D03*
%TO.N,/CODEC/CODEC_~{RST}*%
X104700000Y-367700000D03*
X106500000Y-348100000D03*
%TD*%
%TA.AperFunction,Conductor*%
%TO.N,GND*%
G36*
X129784075Y-323902007D02*
G01*
X129750000Y-324029174D01*
X129750000Y-324160826D01*
X129784075Y-324287993D01*
X129816988Y-324345000D01*
X128143012Y-324345000D01*
X128175925Y-324287993D01*
X128210000Y-324160826D01*
X128210000Y-324029174D01*
X128175925Y-323902007D01*
X128143012Y-323845000D01*
X129816988Y-323845000D01*
X129784075Y-323902007D01*
G37*
%TD.AperFunction*%
%TA.AperFunction,Conductor*%
G36*
X132842539Y-304620185D02*
G01*
X132888294Y-304672989D01*
X132899500Y-304724500D01*
X132899500Y-403475500D01*
X132879815Y-403542539D01*
X132827011Y-403588294D01*
X132775500Y-403599500D01*
X74024500Y-403599500D01*
X73957461Y-403579815D01*
X73911706Y-403527011D01*
X73900500Y-403475500D01*
X73900500Y-399100000D01*
X75344693Y-399100000D01*
X75363903Y-399442081D01*
X75363904Y-399442086D01*
X75421296Y-399779870D01*
X75516147Y-400109104D01*
X75523406Y-400126628D01*
X75647263Y-400425646D01*
X75812998Y-400725521D01*
X76011269Y-401004959D01*
X76239570Y-401260426D01*
X76239573Y-401260429D01*
X76495040Y-401488730D01*
X76495046Y-401488734D01*
X76495047Y-401488735D01*
X76774479Y-401687002D01*
X77074352Y-401852736D01*
X77390896Y-401983853D01*
X77720130Y-402078704D01*
X78057914Y-402136096D01*
X78400000Y-402155307D01*
X78742086Y-402136096D01*
X79079870Y-402078704D01*
X79409104Y-401983853D01*
X79725648Y-401852736D01*
X80025521Y-401687002D01*
X80304953Y-401488735D01*
X80560428Y-401260428D01*
X80788735Y-401004953D01*
X80987002Y-400725521D01*
X81152736Y-400425648D01*
X81163360Y-400400000D01*
X116894353Y-400400000D01*
X116914834Y-400542456D01*
X116974622Y-400673371D01*
X116974623Y-400673373D01*
X117068872Y-400782143D01*
X117189947Y-400859953D01*
X117189950Y-400859954D01*
X117189949Y-400859954D01*
X117328036Y-400900499D01*
X117328038Y-400900500D01*
X117328039Y-400900500D01*
X117471962Y-400900500D01*
X117471962Y-400900499D01*
X117610053Y-400859953D01*
X117731128Y-400782143D01*
X117825377Y-400673373D01*
X117885165Y-400542457D01*
X117905647Y-400400000D01*
X117885165Y-400257543D01*
X117825377Y-400126627D01*
X117731128Y-400017857D01*
X117610053Y-399940047D01*
X117610051Y-399940046D01*
X117610049Y-399940045D01*
X117610050Y-399940045D01*
X117471963Y-399899500D01*
X117471961Y-399899500D01*
X117328039Y-399899500D01*
X117328036Y-399899500D01*
X117189949Y-399940045D01*
X117068873Y-400017856D01*
X116974623Y-400126626D01*
X116974622Y-400126628D01*
X116914834Y-400257543D01*
X116894353Y-400400000D01*
X81163360Y-400400000D01*
X81283853Y-400109104D01*
X81378704Y-399779870D01*
X81436096Y-399442086D01*
X81455307Y-399100000D01*
X125344693Y-399100000D01*
X125363903Y-399442081D01*
X125363904Y-399442086D01*
X125421296Y-399779870D01*
X125516147Y-400109104D01*
X125523406Y-400126628D01*
X125647263Y-400425646D01*
X125812998Y-400725521D01*
X126011269Y-401004959D01*
X126239570Y-401260426D01*
X126239573Y-401260429D01*
X126495040Y-401488730D01*
X126495046Y-401488734D01*
X126495047Y-401488735D01*
X126774479Y-401687002D01*
X127074352Y-401852736D01*
X127390896Y-401983853D01*
X127720130Y-402078704D01*
X128057914Y-402136096D01*
X128400000Y-402155307D01*
X128742086Y-402136096D01*
X129079870Y-402078704D01*
X129409104Y-401983853D01*
X129725648Y-401852736D01*
X130025521Y-401687002D01*
X130304953Y-401488735D01*
X130560428Y-401260428D01*
X130788735Y-401004953D01*
X130987002Y-400725521D01*
X131152736Y-400425648D01*
X131283853Y-400109104D01*
X131378704Y-399779870D01*
X131436096Y-399442086D01*
X131455307Y-399100000D01*
X131436096Y-398757914D01*
X131378704Y-398420130D01*
X131283853Y-398090896D01*
X131152736Y-397774352D01*
X130987002Y-397474479D01*
X130788735Y-397195047D01*
X130788734Y-397195046D01*
X130788730Y-397195040D01*
X130560429Y-396939573D01*
X130560426Y-396939570D01*
X130304959Y-396711269D01*
X130025521Y-396512998D01*
X129725646Y-396347263D01*
X129587509Y-396290045D01*
X129409104Y-396216147D01*
X129324479Y-396191766D01*
X129079875Y-396121297D01*
X129079866Y-396121295D01*
X128742093Y-396063905D01*
X128742081Y-396063903D01*
X128400000Y-396044693D01*
X128057918Y-396063903D01*
X128057906Y-396063905D01*
X127720133Y-396121295D01*
X127720124Y-396121297D01*
X127390899Y-396216146D01*
X127390896Y-396216147D01*
X127310375Y-396249500D01*
X127074353Y-396347263D01*
X126774478Y-396512998D01*
X126495040Y-396711269D01*
X126239573Y-396939570D01*
X126239570Y-396939573D01*
X126011269Y-397195040D01*
X125812998Y-397474478D01*
X125647263Y-397774353D01*
X125516146Y-398090899D01*
X125421297Y-398420124D01*
X125421295Y-398420133D01*
X125363905Y-398757906D01*
X125363903Y-398757918D01*
X125344693Y-399100000D01*
X81455307Y-399100000D01*
X81436096Y-398757914D01*
X81378704Y-398420130D01*
X81283853Y-398090896D01*
X81152736Y-397774352D01*
X80987002Y-397474479D01*
X80788735Y-397195047D01*
X80788734Y-397195046D01*
X80788730Y-397195040D01*
X80560429Y-396939573D01*
X80560426Y-396939570D01*
X80348299Y-396750000D01*
X106744353Y-396750000D01*
X106764834Y-396892456D01*
X106786351Y-396939570D01*
X106824623Y-397023373D01*
X106918872Y-397132143D01*
X106926324Y-397136932D01*
X106939943Y-397145685D01*
X106985698Y-397198489D01*
X106995641Y-397267648D01*
X106966615Y-397331203D01*
X106939943Y-397354315D01*
X106918874Y-397367855D01*
X106824623Y-397476626D01*
X106824622Y-397476628D01*
X106764834Y-397607543D01*
X106744353Y-397750000D01*
X106764834Y-397892456D01*
X106796011Y-397960723D01*
X106824623Y-398023373D01*
X106918872Y-398132143D01*
X107039947Y-398209953D01*
X107039950Y-398209954D01*
X107039949Y-398209954D01*
X107178036Y-398250499D01*
X107178038Y-398250500D01*
X107178039Y-398250500D01*
X107321962Y-398250500D01*
X107321962Y-398250499D01*
X107460053Y-398209953D01*
X107581128Y-398132143D01*
X107675377Y-398023373D01*
X107686051Y-398000000D01*
X118494353Y-398000000D01*
X118514834Y-398142456D01*
X118545660Y-398209954D01*
X118574623Y-398273373D01*
X118668872Y-398382143D01*
X118789947Y-398459953D01*
X118789950Y-398459954D01*
X118789949Y-398459954D01*
X118928036Y-398500499D01*
X118928038Y-398500500D01*
X118928039Y-398500500D01*
X119071962Y-398500500D01*
X119071962Y-398500499D01*
X119210053Y-398459953D01*
X119331128Y-398382143D01*
X119406287Y-398295403D01*
X119465064Y-398257629D01*
X119534934Y-398257629D01*
X119593711Y-398295402D01*
X119668872Y-398382143D01*
X119789947Y-398459953D01*
X119789950Y-398459954D01*
X119789949Y-398459954D01*
X119928036Y-398500499D01*
X119928038Y-398500500D01*
X119928039Y-398500500D01*
X120071962Y-398500500D01*
X120071962Y-398500499D01*
X120210053Y-398459953D01*
X120331128Y-398382143D01*
X120425377Y-398273373D01*
X120485165Y-398142457D01*
X120505647Y-398000000D01*
X120485165Y-397857543D01*
X120425377Y-397726627D01*
X120331128Y-397617857D01*
X120210053Y-397540047D01*
X120210051Y-397540046D01*
X120210049Y-397540045D01*
X120210050Y-397540045D01*
X120071963Y-397499500D01*
X120071961Y-397499500D01*
X119928039Y-397499500D01*
X119928036Y-397499500D01*
X119789949Y-397540045D01*
X119668873Y-397617856D01*
X119593713Y-397704596D01*
X119534935Y-397742370D01*
X119465065Y-397742370D01*
X119406287Y-397704596D01*
X119331128Y-397617857D01*
X119210053Y-397540047D01*
X119210051Y-397540046D01*
X119210049Y-397540045D01*
X119210050Y-397540045D01*
X119071963Y-397499500D01*
X119071961Y-397499500D01*
X118928039Y-397499500D01*
X118928036Y-397499500D01*
X118789949Y-397540045D01*
X118668873Y-397617856D01*
X118574623Y-397726626D01*
X118574622Y-397726628D01*
X118514834Y-397857543D01*
X118494353Y-398000000D01*
X107686051Y-398000000D01*
X107735165Y-397892457D01*
X107755647Y-397750000D01*
X107735165Y-397607543D01*
X107675377Y-397476627D01*
X107581128Y-397367857D01*
X107581125Y-397367855D01*
X107581125Y-397367854D01*
X107560058Y-397354316D01*
X107514302Y-397301513D01*
X107504358Y-397232354D01*
X107533382Y-397168798D01*
X107560058Y-397145684D01*
X107581125Y-397132145D01*
X107581125Y-397132144D01*
X107581128Y-397132143D01*
X107675377Y-397023373D01*
X107735165Y-396892457D01*
X107755647Y-396750000D01*
X107735165Y-396607543D01*
X107675377Y-396476627D01*
X107581128Y-396367857D01*
X107460053Y-396290047D01*
X107460051Y-396290046D01*
X107460049Y-396290045D01*
X107460050Y-396290045D01*
X107321963Y-396249500D01*
X107321961Y-396249500D01*
X107178039Y-396249500D01*
X107178036Y-396249500D01*
X107039949Y-396290045D01*
X106918873Y-396367856D01*
X106824623Y-396476626D01*
X106824622Y-396476628D01*
X106764834Y-396607543D01*
X106744353Y-396750000D01*
X80348299Y-396750000D01*
X80304959Y-396711269D01*
X80025521Y-396512998D01*
X79725646Y-396347263D01*
X79587509Y-396290045D01*
X79409104Y-396216147D01*
X79324479Y-396191766D01*
X79079875Y-396121297D01*
X79079866Y-396121295D01*
X78742093Y-396063905D01*
X78742081Y-396063903D01*
X78400000Y-396044693D01*
X78057918Y-396063903D01*
X78057906Y-396063905D01*
X77720133Y-396121295D01*
X77720124Y-396121297D01*
X77390899Y-396216146D01*
X77390896Y-396216147D01*
X77310375Y-396249500D01*
X77074353Y-396347263D01*
X76774478Y-396512998D01*
X76495040Y-396711269D01*
X76239573Y-396939570D01*
X76239570Y-396939573D01*
X76011269Y-397195040D01*
X75812998Y-397474478D01*
X75647263Y-397774353D01*
X75516146Y-398090899D01*
X75421297Y-398420124D01*
X75421295Y-398420133D01*
X75363905Y-398757906D01*
X75363903Y-398757918D01*
X75344693Y-399100000D01*
X73900500Y-399100000D01*
X73900500Y-395300000D01*
X109394353Y-395300000D01*
X109414834Y-395442456D01*
X109474622Y-395573371D01*
X109474623Y-395573373D01*
X109568872Y-395682143D01*
X109689947Y-395759953D01*
X109689950Y-395759954D01*
X109689949Y-395759954D01*
X109828036Y-395800499D01*
X109828038Y-395800500D01*
X109828039Y-395800500D01*
X109971962Y-395800500D01*
X109971962Y-395800499D01*
X110110053Y-395759953D01*
X110231128Y-395682143D01*
X110325377Y-395573373D01*
X110385165Y-395442457D01*
X110385165Y-395442455D01*
X110387206Y-395437987D01*
X110432961Y-395385183D01*
X110500000Y-395365499D01*
X110567040Y-395385184D01*
X110612794Y-395437987D01*
X110614834Y-395442455D01*
X110614835Y-395442457D01*
X110674623Y-395573373D01*
X110768872Y-395682143D01*
X110889947Y-395759953D01*
X110889950Y-395759954D01*
X110889949Y-395759954D01*
X111028036Y-395800499D01*
X111028038Y-395800500D01*
X111028039Y-395800500D01*
X111171962Y-395800500D01*
X111171962Y-395800499D01*
X111310053Y-395759953D01*
X111431128Y-395682143D01*
X111525377Y-395573373D01*
X111585165Y-395442457D01*
X111605647Y-395300000D01*
X111585165Y-395157543D01*
X111525377Y-395026627D01*
X111431128Y-394917857D01*
X111310053Y-394840047D01*
X111310051Y-394840046D01*
X111310049Y-394840045D01*
X111310050Y-394840045D01*
X111171963Y-394799500D01*
X111171961Y-394799500D01*
X111028039Y-394799500D01*
X111028036Y-394799500D01*
X110889949Y-394840045D01*
X110768873Y-394917856D01*
X110674623Y-395026626D01*
X110674622Y-395026628D01*
X110612794Y-395162012D01*
X110567039Y-395214816D01*
X110500000Y-395234500D01*
X110432960Y-395214815D01*
X110387206Y-395162012D01*
X110325377Y-395026628D01*
X110325376Y-395026626D01*
X110231128Y-394917857D01*
X110110053Y-394840047D01*
X110110051Y-394840046D01*
X110110049Y-394840045D01*
X110110050Y-394840045D01*
X109971963Y-394799500D01*
X109971961Y-394799500D01*
X109828039Y-394799500D01*
X109828036Y-394799500D01*
X109689949Y-394840045D01*
X109568873Y-394917856D01*
X109474623Y-395026626D01*
X109474622Y-395026628D01*
X109414834Y-395157543D01*
X109394353Y-395300000D01*
X73900500Y-395300000D01*
X73900500Y-393200000D01*
X87694353Y-393200000D01*
X87714834Y-393342456D01*
X87774622Y-393473371D01*
X87774623Y-393473373D01*
X87868872Y-393582143D01*
X87989947Y-393659953D01*
X87989950Y-393659954D01*
X87989949Y-393659954D01*
X88128036Y-393700499D01*
X88128038Y-393700500D01*
X88128039Y-393700500D01*
X88271962Y-393700500D01*
X88271962Y-393700499D01*
X88410053Y-393659953D01*
X88531128Y-393582143D01*
X88625377Y-393473373D01*
X88685165Y-393342457D01*
X88685165Y-393342455D01*
X88687206Y-393337987D01*
X88732961Y-393285183D01*
X88800000Y-393265499D01*
X88867040Y-393285184D01*
X88912794Y-393337987D01*
X88914834Y-393342455D01*
X88914835Y-393342457D01*
X88974623Y-393473373D01*
X89068872Y-393582143D01*
X89189947Y-393659953D01*
X89189950Y-393659954D01*
X89189949Y-393659954D01*
X89328036Y-393700499D01*
X89328038Y-393700500D01*
X89328039Y-393700500D01*
X89471962Y-393700500D01*
X89471962Y-393700499D01*
X89610053Y-393659953D01*
X89731128Y-393582143D01*
X89825377Y-393473373D01*
X89885165Y-393342457D01*
X89905647Y-393200000D01*
X106294353Y-393200000D01*
X106314834Y-393342456D01*
X106374622Y-393473371D01*
X106374623Y-393473373D01*
X106468872Y-393582143D01*
X106589947Y-393659953D01*
X106589950Y-393659954D01*
X106589949Y-393659954D01*
X106728036Y-393700499D01*
X106728038Y-393700500D01*
X106728039Y-393700500D01*
X106871962Y-393700500D01*
X106871962Y-393700499D01*
X107010053Y-393659953D01*
X107131128Y-393582143D01*
X107225377Y-393473373D01*
X107285165Y-393342457D01*
X107305647Y-393200000D01*
X107285165Y-393057543D01*
X107225377Y-392926627D01*
X107131128Y-392817857D01*
X107010053Y-392740047D01*
X107010051Y-392740046D01*
X107010049Y-392740045D01*
X107010050Y-392740045D01*
X106871963Y-392699500D01*
X106871961Y-392699500D01*
X106728039Y-392699500D01*
X106728036Y-392699500D01*
X106589949Y-392740045D01*
X106468873Y-392817856D01*
X106374623Y-392926626D01*
X106374622Y-392926628D01*
X106314834Y-393057543D01*
X106294353Y-393200000D01*
X89905647Y-393200000D01*
X89885165Y-393057543D01*
X89825377Y-392926627D01*
X89731128Y-392817857D01*
X89610053Y-392740047D01*
X89610051Y-392740046D01*
X89610049Y-392740045D01*
X89610050Y-392740045D01*
X89471963Y-392699500D01*
X89471961Y-392699500D01*
X89328039Y-392699500D01*
X89328036Y-392699500D01*
X89189949Y-392740045D01*
X89068873Y-392817856D01*
X88974623Y-392926626D01*
X88974622Y-392926628D01*
X88912794Y-393062012D01*
X88867039Y-393114816D01*
X88800000Y-393134500D01*
X88732960Y-393114815D01*
X88687206Y-393062012D01*
X88625377Y-392926628D01*
X88625376Y-392926626D01*
X88584834Y-392879838D01*
X88531128Y-392817857D01*
X88410053Y-392740047D01*
X88410051Y-392740046D01*
X88410049Y-392740045D01*
X88410050Y-392740045D01*
X88271963Y-392699500D01*
X88271961Y-392699500D01*
X88128039Y-392699500D01*
X88128036Y-392699500D01*
X87989949Y-392740045D01*
X87868873Y-392817856D01*
X87774623Y-392926626D01*
X87774622Y-392926628D01*
X87714834Y-393057543D01*
X87694353Y-393200000D01*
X73900500Y-393200000D01*
X73900500Y-392737075D01*
X77766476Y-392737075D01*
X77890462Y-392803348D01*
X78078969Y-392860531D01*
X78078965Y-392860531D01*
X78275000Y-392879838D01*
X78471032Y-392860531D01*
X78659537Y-392803348D01*
X78783523Y-392737076D01*
X78783523Y-392737075D01*
X78275001Y-392228553D01*
X78275000Y-392228553D01*
X77766476Y-392737075D01*
X73900500Y-392737075D01*
X73900500Y-391875000D01*
X77270161Y-391875000D01*
X77289468Y-392071032D01*
X77346651Y-392259537D01*
X77412923Y-392383522D01*
X77921447Y-391875000D01*
X77866746Y-391820299D01*
X78000000Y-391820299D01*
X78000000Y-391929701D01*
X78041866Y-392030775D01*
X78119225Y-392108134D01*
X78220299Y-392150000D01*
X78329701Y-392150000D01*
X78430775Y-392108134D01*
X78508134Y-392030775D01*
X78550000Y-391929701D01*
X78550000Y-391874999D01*
X78628553Y-391874999D01*
X78628553Y-391875000D01*
X79137076Y-392383523D01*
X79203348Y-392259537D01*
X79260531Y-392071032D01*
X79279838Y-391875000D01*
X79267527Y-391750000D01*
X96494353Y-391750000D01*
X96514834Y-391892456D01*
X96545660Y-391959954D01*
X96574623Y-392023373D01*
X96668872Y-392132143D01*
X96789947Y-392209953D01*
X96789950Y-392209954D01*
X96789949Y-392209954D01*
X96928036Y-392250499D01*
X96928038Y-392250500D01*
X96928039Y-392250500D01*
X97071962Y-392250500D01*
X97071962Y-392250499D01*
X97210053Y-392209953D01*
X97331128Y-392132143D01*
X97406287Y-392045403D01*
X97465064Y-392007629D01*
X97534934Y-392007629D01*
X97593711Y-392045402D01*
X97668872Y-392132143D01*
X97789947Y-392209953D01*
X97789950Y-392209954D01*
X97789949Y-392209954D01*
X97928036Y-392250499D01*
X97928038Y-392250500D01*
X97928039Y-392250500D01*
X98071962Y-392250500D01*
X98071962Y-392250499D01*
X98210053Y-392209953D01*
X98331128Y-392132143D01*
X98425377Y-392023373D01*
X98485165Y-391892457D01*
X98505647Y-391750000D01*
X98485165Y-391607543D01*
X98436051Y-391500000D01*
X99394353Y-391500000D01*
X99414834Y-391642456D01*
X99446011Y-391710723D01*
X99474623Y-391773373D01*
X99568872Y-391882143D01*
X99689947Y-391959953D01*
X99689950Y-391959954D01*
X99689949Y-391959954D01*
X99828036Y-392000499D01*
X99828038Y-392000500D01*
X99828039Y-392000500D01*
X99971962Y-392000500D01*
X99971962Y-392000499D01*
X100110053Y-391959953D01*
X100231128Y-391882143D01*
X100237317Y-391875000D01*
X127819355Y-391875000D01*
X127839859Y-392043869D01*
X127839860Y-392043874D01*
X127900182Y-392202931D01*
X127933017Y-392250500D01*
X127996817Y-392342929D01*
X128102505Y-392436560D01*
X128124150Y-392455736D01*
X128274773Y-392534789D01*
X128274775Y-392534790D01*
X128439944Y-392575500D01*
X128610056Y-392575500D01*
X128775225Y-392534790D01*
X128854692Y-392493081D01*
X128925849Y-392455736D01*
X128925850Y-392455734D01*
X128925852Y-392455734D01*
X129053183Y-392342929D01*
X129149818Y-392202930D01*
X129210140Y-392043872D01*
X129230645Y-391875000D01*
X129210140Y-391706128D01*
X129149818Y-391547070D01*
X129053183Y-391407071D01*
X128925852Y-391294266D01*
X128925849Y-391294263D01*
X128768585Y-391211724D01*
X128769218Y-391210517D01*
X128734544Y-391188097D01*
X128525001Y-390978553D01*
X128315452Y-391188100D01*
X128280782Y-391210519D01*
X128281415Y-391211725D01*
X128124150Y-391294264D01*
X127996816Y-391407072D01*
X127900182Y-391547068D01*
X127839860Y-391706125D01*
X127839859Y-391706130D01*
X127819355Y-391875000D01*
X100237317Y-391875000D01*
X100325377Y-391773373D01*
X100385165Y-391642457D01*
X100405647Y-391500000D01*
X100385165Y-391357543D01*
X100325377Y-391226627D01*
X100302305Y-391200000D01*
X106294353Y-391200000D01*
X106314834Y-391342456D01*
X106344344Y-391407072D01*
X106374623Y-391473373D01*
X106468872Y-391582143D01*
X106589947Y-391659953D01*
X106589950Y-391659954D01*
X106589949Y-391659954D01*
X106728036Y-391700499D01*
X106728038Y-391700500D01*
X106728039Y-391700500D01*
X106871962Y-391700500D01*
X106871962Y-391700499D01*
X107010053Y-391659953D01*
X107131128Y-391582143D01*
X107225377Y-391473373D01*
X107285165Y-391342457D01*
X107305647Y-391200000D01*
X107285165Y-391057543D01*
X107225377Y-390926627D01*
X107131128Y-390817857D01*
X107010053Y-390740047D01*
X107010051Y-390740046D01*
X107010049Y-390740045D01*
X107010050Y-390740045D01*
X106871963Y-390699500D01*
X106871961Y-390699500D01*
X106728039Y-390699500D01*
X106728036Y-390699500D01*
X106589949Y-390740045D01*
X106468873Y-390817856D01*
X106374623Y-390926626D01*
X106374622Y-390926628D01*
X106314834Y-391057543D01*
X106294353Y-391200000D01*
X100302305Y-391200000D01*
X100231128Y-391117857D01*
X100110053Y-391040047D01*
X100110051Y-391040046D01*
X100110049Y-391040045D01*
X100110050Y-391040045D01*
X99971963Y-390999500D01*
X99971961Y-390999500D01*
X99828039Y-390999500D01*
X99828036Y-390999500D01*
X99689949Y-391040045D01*
X99568873Y-391117856D01*
X99474623Y-391226626D01*
X99474622Y-391226628D01*
X99414834Y-391357543D01*
X99394353Y-391500000D01*
X98436051Y-391500000D01*
X98425377Y-391476627D01*
X98331128Y-391367857D01*
X98210053Y-391290047D01*
X98210051Y-391290046D01*
X98210049Y-391290045D01*
X98210050Y-391290045D01*
X98071963Y-391249500D01*
X98071961Y-391249500D01*
X97928039Y-391249500D01*
X97928036Y-391249500D01*
X97789949Y-391290045D01*
X97668873Y-391367856D01*
X97593713Y-391454596D01*
X97534935Y-391492370D01*
X97465065Y-391492370D01*
X97406287Y-391454596D01*
X97331128Y-391367857D01*
X97210053Y-391290047D01*
X97210051Y-391290046D01*
X97210049Y-391290045D01*
X97210050Y-391290045D01*
X97071963Y-391249500D01*
X97071961Y-391249500D01*
X96928039Y-391249500D01*
X96928036Y-391249500D01*
X96789949Y-391290045D01*
X96668873Y-391367856D01*
X96574623Y-391476626D01*
X96574622Y-391476628D01*
X96514834Y-391607543D01*
X96494353Y-391750000D01*
X79267527Y-391750000D01*
X79260531Y-391678967D01*
X79203348Y-391490462D01*
X79137075Y-391366476D01*
X78628553Y-391874999D01*
X78550000Y-391874999D01*
X78550000Y-391820299D01*
X78508134Y-391719225D01*
X78430775Y-391641866D01*
X78329701Y-391600000D01*
X78220299Y-391600000D01*
X78119225Y-391641866D01*
X78041866Y-391719225D01*
X78000000Y-391820299D01*
X77866746Y-391820299D01*
X77412923Y-391366476D01*
X77346649Y-391490466D01*
X77289468Y-391678967D01*
X77270161Y-391875000D01*
X73900500Y-391875000D01*
X73900500Y-390625000D01*
X77569355Y-390625000D01*
X77589859Y-390793869D01*
X77589860Y-390793874D01*
X77650182Y-390952931D01*
X77667868Y-390978553D01*
X77746817Y-391092929D01*
X77874148Y-391205734D01*
X77874150Y-391205735D01*
X78031417Y-391288276D01*
X78030782Y-391289484D01*
X78065454Y-391311901D01*
X78274999Y-391521446D01*
X78484543Y-391311901D01*
X78519218Y-391289486D01*
X78518583Y-391288276D01*
X78525225Y-391284790D01*
X78675852Y-391205734D01*
X78803183Y-391092929D01*
X78899818Y-390952930D01*
X78960140Y-390793872D01*
X78980645Y-390625000D01*
X127520161Y-390625000D01*
X127539468Y-390821032D01*
X127596651Y-391009537D01*
X127662923Y-391133522D01*
X128171447Y-390625000D01*
X128116746Y-390570299D01*
X128250000Y-390570299D01*
X128250000Y-390679701D01*
X128291866Y-390780775D01*
X128369225Y-390858134D01*
X128470299Y-390900000D01*
X128579701Y-390900000D01*
X128680775Y-390858134D01*
X128758134Y-390780775D01*
X128800000Y-390679701D01*
X128800000Y-390624999D01*
X128878553Y-390624999D01*
X128878553Y-390625000D01*
X129387076Y-391133523D01*
X129453348Y-391009537D01*
X129510531Y-390821032D01*
X129529838Y-390625000D01*
X129510531Y-390428967D01*
X129453348Y-390240462D01*
X129387075Y-390116476D01*
X128878553Y-390624999D01*
X128800000Y-390624999D01*
X128800000Y-390570299D01*
X128758134Y-390469225D01*
X128680775Y-390391866D01*
X128579701Y-390350000D01*
X128470299Y-390350000D01*
X128369225Y-390391866D01*
X128291866Y-390469225D01*
X128250000Y-390570299D01*
X128116746Y-390570299D01*
X127662923Y-390116476D01*
X127596649Y-390240466D01*
X127539468Y-390428967D01*
X127520161Y-390625000D01*
X78980645Y-390625000D01*
X78960140Y-390456128D01*
X78899818Y-390297070D01*
X78803183Y-390157071D01*
X78675852Y-390044266D01*
X78675849Y-390044263D01*
X78518585Y-389961724D01*
X78519218Y-389960517D01*
X78484544Y-389938097D01*
X78275001Y-389728553D01*
X78065452Y-389938100D01*
X78030782Y-389960519D01*
X78031415Y-389961725D01*
X77874150Y-390044264D01*
X77746816Y-390157072D01*
X77650182Y-390297068D01*
X77589860Y-390456125D01*
X77589859Y-390456130D01*
X77569355Y-390625000D01*
X73900500Y-390625000D01*
X73900500Y-389375000D01*
X77270161Y-389375000D01*
X77289468Y-389571032D01*
X77346651Y-389759537D01*
X77412923Y-389883522D01*
X77921447Y-389375000D01*
X77866746Y-389320299D01*
X78000000Y-389320299D01*
X78000000Y-389429701D01*
X78041866Y-389530775D01*
X78119225Y-389608134D01*
X78220299Y-389650000D01*
X78329701Y-389650000D01*
X78430775Y-389608134D01*
X78508134Y-389530775D01*
X78550000Y-389429701D01*
X78550000Y-389374999D01*
X78628553Y-389374999D01*
X78628553Y-389375000D01*
X79137076Y-389883523D01*
X79203348Y-389759537D01*
X79260531Y-389571032D01*
X79279838Y-389375000D01*
X127819355Y-389375000D01*
X127839859Y-389543869D01*
X127839860Y-389543874D01*
X127900182Y-389702931D01*
X127917868Y-389728553D01*
X127996817Y-389842929D01*
X128124148Y-389955734D01*
X128124150Y-389955735D01*
X128281417Y-390038276D01*
X128280782Y-390039484D01*
X128315454Y-390061901D01*
X128524999Y-390271446D01*
X128734543Y-390061901D01*
X128769218Y-390039486D01*
X128768583Y-390038276D01*
X128775225Y-390034790D01*
X128925852Y-389955734D01*
X129053183Y-389842929D01*
X129149818Y-389702930D01*
X129210140Y-389543872D01*
X129230645Y-389375000D01*
X129210140Y-389206128D01*
X129149818Y-389047070D01*
X129053183Y-388907071D01*
X128925852Y-388794266D01*
X128925849Y-388794263D01*
X128768585Y-388711724D01*
X128769218Y-388710517D01*
X128734544Y-388688097D01*
X128525001Y-388478553D01*
X128315452Y-388688100D01*
X128280782Y-388710519D01*
X128281415Y-388711725D01*
X128124150Y-388794264D01*
X127996816Y-388907072D01*
X127900182Y-389047068D01*
X127839860Y-389206125D01*
X127839859Y-389206130D01*
X127819355Y-389375000D01*
X79279838Y-389375000D01*
X79260531Y-389178967D01*
X79203348Y-388990462D01*
X79137075Y-388866476D01*
X78628553Y-389374999D01*
X78550000Y-389374999D01*
X78550000Y-389320299D01*
X78508134Y-389219225D01*
X78430775Y-389141866D01*
X78329701Y-389100000D01*
X78220299Y-389100000D01*
X78119225Y-389141866D01*
X78041866Y-389219225D01*
X78000000Y-389320299D01*
X77866746Y-389320299D01*
X77412923Y-388866476D01*
X77346649Y-388990466D01*
X77289468Y-389178967D01*
X77270161Y-389375000D01*
X73900500Y-389375000D01*
X73900500Y-388125000D01*
X77569355Y-388125000D01*
X77589859Y-388293869D01*
X77589860Y-388293874D01*
X77650182Y-388452931D01*
X77667868Y-388478553D01*
X77746817Y-388592929D01*
X77874148Y-388705734D01*
X77874150Y-388705735D01*
X78031417Y-388788276D01*
X78030782Y-388789484D01*
X78065454Y-388811901D01*
X78274999Y-389021446D01*
X78484543Y-388811901D01*
X78519218Y-388789486D01*
X78518583Y-388788276D01*
X78525225Y-388784790D01*
X78675852Y-388705734D01*
X78803183Y-388592929D01*
X78899818Y-388452930D01*
X78960140Y-388293872D01*
X78980645Y-388125000D01*
X78960140Y-387956128D01*
X78899818Y-387797070D01*
X78832815Y-387700000D01*
X116994353Y-387700000D01*
X117014834Y-387842456D01*
X117054343Y-387928967D01*
X117074623Y-387973373D01*
X117168872Y-388082143D01*
X117289947Y-388159953D01*
X117289950Y-388159954D01*
X117289949Y-388159954D01*
X117428036Y-388200499D01*
X117428038Y-388200500D01*
X117428039Y-388200500D01*
X117571962Y-388200500D01*
X117571962Y-388200499D01*
X117710053Y-388159953D01*
X117764441Y-388125000D01*
X127520161Y-388125000D01*
X127539468Y-388321032D01*
X127596651Y-388509537D01*
X127662923Y-388633522D01*
X128171447Y-388125000D01*
X128116746Y-388070299D01*
X128250000Y-388070299D01*
X128250000Y-388179701D01*
X128291866Y-388280775D01*
X128369225Y-388358134D01*
X128470299Y-388400000D01*
X128579701Y-388400000D01*
X128680775Y-388358134D01*
X128758134Y-388280775D01*
X128800000Y-388179701D01*
X128800000Y-388124999D01*
X128878553Y-388124999D01*
X128878553Y-388125000D01*
X129387076Y-388633523D01*
X129453348Y-388509537D01*
X129510531Y-388321032D01*
X129529838Y-388125000D01*
X129510531Y-387928967D01*
X129453348Y-387740462D01*
X129387075Y-387616476D01*
X128878553Y-388124999D01*
X128800000Y-388124999D01*
X128800000Y-388070299D01*
X128758134Y-387969225D01*
X128680775Y-387891866D01*
X128579701Y-387850000D01*
X128470299Y-387850000D01*
X128369225Y-387891866D01*
X128291866Y-387969225D01*
X128250000Y-388070299D01*
X128116746Y-388070299D01*
X127662923Y-387616476D01*
X127596649Y-387740466D01*
X127539468Y-387928967D01*
X127520161Y-388125000D01*
X117764441Y-388125000D01*
X117831128Y-388082143D01*
X117925377Y-387973373D01*
X117985165Y-387842457D01*
X118005647Y-387700000D01*
X117985165Y-387557543D01*
X117925377Y-387426627D01*
X117831128Y-387317857D01*
X117745649Y-387262923D01*
X128016476Y-387262923D01*
X128525000Y-387771447D01*
X128525001Y-387771447D01*
X129033522Y-387262923D01*
X128909537Y-387196651D01*
X128721030Y-387139468D01*
X128721034Y-387139468D01*
X128525000Y-387120161D01*
X128328967Y-387139468D01*
X128140466Y-387196649D01*
X128016476Y-387262923D01*
X117745649Y-387262923D01*
X117710053Y-387240047D01*
X117710051Y-387240046D01*
X117710049Y-387240045D01*
X117710050Y-387240045D01*
X117571963Y-387199500D01*
X117571961Y-387199500D01*
X117428039Y-387199500D01*
X117428036Y-387199500D01*
X117289949Y-387240045D01*
X117168873Y-387317856D01*
X117074623Y-387426626D01*
X117074622Y-387426628D01*
X117014834Y-387557543D01*
X116994353Y-387700000D01*
X78832815Y-387700000D01*
X78803183Y-387657071D01*
X78675852Y-387544266D01*
X78675849Y-387544263D01*
X78525226Y-387465210D01*
X78360056Y-387424500D01*
X78189944Y-387424500D01*
X78024773Y-387465210D01*
X77874150Y-387544263D01*
X77746816Y-387657072D01*
X77650182Y-387797068D01*
X77589860Y-387956125D01*
X77589859Y-387956130D01*
X77569355Y-388125000D01*
X73900500Y-388125000D01*
X73900500Y-386200000D01*
X118494353Y-386200000D01*
X118514834Y-386342456D01*
X118567433Y-386457629D01*
X118574623Y-386473373D01*
X118668872Y-386582143D01*
X118789947Y-386659953D01*
X118789950Y-386659954D01*
X118789949Y-386659954D01*
X118928036Y-386700499D01*
X118928038Y-386700500D01*
X118928039Y-386700500D01*
X119071962Y-386700500D01*
X119071962Y-386700499D01*
X119210053Y-386659953D01*
X119331128Y-386582143D01*
X119406287Y-386495403D01*
X119465064Y-386457629D01*
X119534934Y-386457629D01*
X119593711Y-386495402D01*
X119668872Y-386582143D01*
X119789947Y-386659953D01*
X119789950Y-386659954D01*
X119789949Y-386659954D01*
X119928036Y-386700499D01*
X119928038Y-386700500D01*
X119928039Y-386700500D01*
X120071962Y-386700500D01*
X120071962Y-386700499D01*
X120210053Y-386659953D01*
X120331128Y-386582143D01*
X120425377Y-386473373D01*
X120485165Y-386342457D01*
X120505647Y-386200000D01*
X120485165Y-386057543D01*
X120425377Y-385926627D01*
X120331128Y-385817857D01*
X120210053Y-385740047D01*
X120210051Y-385740046D01*
X120210049Y-385740045D01*
X120210050Y-385740045D01*
X120071963Y-385699500D01*
X120071961Y-385699500D01*
X119928039Y-385699500D01*
X119928036Y-385699500D01*
X119789949Y-385740045D01*
X119668873Y-385817856D01*
X119593713Y-385904596D01*
X119534935Y-385942370D01*
X119465065Y-385942370D01*
X119406287Y-385904596D01*
X119331128Y-385817857D01*
X119210053Y-385740047D01*
X119210051Y-385740046D01*
X119210049Y-385740045D01*
X119210050Y-385740045D01*
X119071963Y-385699500D01*
X119071961Y-385699500D01*
X118928039Y-385699500D01*
X118928036Y-385699500D01*
X118789949Y-385740045D01*
X118668873Y-385817856D01*
X118574623Y-385926626D01*
X118574622Y-385926628D01*
X118514834Y-386057543D01*
X118494353Y-386200000D01*
X73900500Y-386200000D01*
X73900500Y-384000000D01*
X86694353Y-384000000D01*
X86714834Y-384142456D01*
X86774622Y-384273371D01*
X86774623Y-384273373D01*
X86868872Y-384382143D01*
X86989947Y-384459953D01*
X86989950Y-384459954D01*
X86989949Y-384459954D01*
X87128036Y-384500499D01*
X87128038Y-384500500D01*
X87128039Y-384500500D01*
X87271962Y-384500500D01*
X87271962Y-384500499D01*
X87410053Y-384459953D01*
X87531128Y-384382143D01*
X87625377Y-384273373D01*
X87685165Y-384142457D01*
X87705647Y-384000000D01*
X109494353Y-384000000D01*
X109514834Y-384142456D01*
X109574622Y-384273371D01*
X109574623Y-384273373D01*
X109668872Y-384382143D01*
X109789947Y-384459953D01*
X109789950Y-384459954D01*
X109789949Y-384459954D01*
X109928036Y-384500499D01*
X109928038Y-384500500D01*
X109928039Y-384500500D01*
X110071962Y-384500500D01*
X110071962Y-384500499D01*
X110210053Y-384459953D01*
X110331128Y-384382143D01*
X110425377Y-384273373D01*
X110485165Y-384142457D01*
X110485165Y-384142455D01*
X110487206Y-384137987D01*
X110532961Y-384085183D01*
X110600000Y-384065499D01*
X110667040Y-384085184D01*
X110712794Y-384137987D01*
X110714834Y-384142455D01*
X110714835Y-384142457D01*
X110774623Y-384273373D01*
X110868872Y-384382143D01*
X110989947Y-384459953D01*
X110989950Y-384459954D01*
X110989949Y-384459954D01*
X111128036Y-384500499D01*
X111128038Y-384500500D01*
X111128039Y-384500500D01*
X111271962Y-384500500D01*
X111271962Y-384500499D01*
X111410053Y-384459953D01*
X111531128Y-384382143D01*
X111625377Y-384273373D01*
X111685165Y-384142457D01*
X111705647Y-384000000D01*
X111685165Y-383857543D01*
X111625377Y-383726627D01*
X111531128Y-383617857D01*
X111410053Y-383540047D01*
X111410051Y-383540046D01*
X111410049Y-383540045D01*
X111410050Y-383540045D01*
X111271963Y-383499500D01*
X111271961Y-383499500D01*
X111128039Y-383499500D01*
X111128036Y-383499500D01*
X110989949Y-383540045D01*
X110868873Y-383617856D01*
X110774623Y-383726626D01*
X110774622Y-383726628D01*
X110712794Y-383862012D01*
X110667039Y-383914816D01*
X110600000Y-383934500D01*
X110532960Y-383914815D01*
X110487206Y-383862012D01*
X110425377Y-383726628D01*
X110425376Y-383726626D01*
X110331128Y-383617857D01*
X110210053Y-383540047D01*
X110210051Y-383540046D01*
X110210049Y-383540045D01*
X110210050Y-383540045D01*
X110071963Y-383499500D01*
X110071961Y-383499500D01*
X109928039Y-383499500D01*
X109928036Y-383499500D01*
X109789949Y-383540045D01*
X109668873Y-383617856D01*
X109574623Y-383726626D01*
X109574622Y-383726628D01*
X109514834Y-383857543D01*
X109494353Y-384000000D01*
X87705647Y-384000000D01*
X87685165Y-383857543D01*
X87625377Y-383726627D01*
X87531128Y-383617857D01*
X87410053Y-383540047D01*
X87410051Y-383540046D01*
X87410049Y-383540045D01*
X87410050Y-383540045D01*
X87271963Y-383499500D01*
X87271961Y-383499500D01*
X87128039Y-383499500D01*
X87128036Y-383499500D01*
X86989949Y-383540045D01*
X86868873Y-383617856D01*
X86774623Y-383726626D01*
X86774622Y-383726628D01*
X86714834Y-383857543D01*
X86694353Y-384000000D01*
X73900500Y-384000000D01*
X73900500Y-382400000D01*
X86694353Y-382400000D01*
X86714834Y-382542456D01*
X86774622Y-382673371D01*
X86774623Y-382673373D01*
X86868872Y-382782143D01*
X86989947Y-382859953D01*
X86989950Y-382859954D01*
X86989949Y-382859954D01*
X87128036Y-382900499D01*
X87128038Y-382900500D01*
X87128039Y-382900500D01*
X87271962Y-382900500D01*
X87271962Y-382900499D01*
X87410053Y-382859953D01*
X87531128Y-382782143D01*
X87625377Y-382673373D01*
X87685165Y-382542457D01*
X87705647Y-382400000D01*
X87685165Y-382257543D01*
X87625377Y-382126627D01*
X87602305Y-382100000D01*
X99794353Y-382100000D01*
X99814834Y-382242456D01*
X99874622Y-382373371D01*
X99874623Y-382373373D01*
X99968872Y-382482143D01*
X100089947Y-382559953D01*
X100089950Y-382559954D01*
X100089949Y-382559954D01*
X100228036Y-382600499D01*
X100228038Y-382600500D01*
X100228039Y-382600500D01*
X100371962Y-382600500D01*
X100371962Y-382600499D01*
X100510053Y-382559953D01*
X100631128Y-382482143D01*
X100725377Y-382373373D01*
X100785165Y-382242457D01*
X100805647Y-382100000D01*
X100785165Y-381957543D01*
X100725377Y-381826627D01*
X100631128Y-381717857D01*
X100510053Y-381640047D01*
X100510051Y-381640046D01*
X100510049Y-381640045D01*
X100510050Y-381640045D01*
X100371963Y-381599500D01*
X100371961Y-381599500D01*
X100228039Y-381599500D01*
X100228036Y-381599500D01*
X100089949Y-381640045D01*
X99968873Y-381717856D01*
X99874623Y-381826626D01*
X99874622Y-381826628D01*
X99814834Y-381957543D01*
X99794353Y-382100000D01*
X87602305Y-382100000D01*
X87531128Y-382017857D01*
X87410053Y-381940047D01*
X87410051Y-381940046D01*
X87410049Y-381940045D01*
X87410050Y-381940045D01*
X87271963Y-381899500D01*
X87271961Y-381899500D01*
X87128039Y-381899500D01*
X87128036Y-381899500D01*
X86989949Y-381940045D01*
X86868873Y-382017856D01*
X86774623Y-382126626D01*
X86774622Y-382126628D01*
X86714834Y-382257543D01*
X86694353Y-382400000D01*
X73900500Y-382400000D01*
X73900500Y-380750000D01*
X96494353Y-380750000D01*
X96514834Y-380892456D01*
X96545660Y-380959954D01*
X96574623Y-381023373D01*
X96668872Y-381132143D01*
X96789947Y-381209953D01*
X96789950Y-381209954D01*
X96789949Y-381209954D01*
X96928036Y-381250499D01*
X96928038Y-381250500D01*
X96928039Y-381250500D01*
X97071962Y-381250500D01*
X97071962Y-381250499D01*
X97210053Y-381209953D01*
X97331128Y-381132143D01*
X97406287Y-381045403D01*
X97465064Y-381007629D01*
X97534934Y-381007629D01*
X97593711Y-381045402D01*
X97668872Y-381132143D01*
X97789947Y-381209953D01*
X97789950Y-381209954D01*
X97789949Y-381209954D01*
X97928036Y-381250499D01*
X97928038Y-381250500D01*
X97928039Y-381250500D01*
X98071962Y-381250500D01*
X98071962Y-381250499D01*
X98210053Y-381209953D01*
X98331128Y-381132143D01*
X98425377Y-381023373D01*
X98485165Y-380892457D01*
X98505647Y-380750000D01*
X98485165Y-380607543D01*
X98436051Y-380500000D01*
X111494353Y-380500000D01*
X111514834Y-380642456D01*
X111546011Y-380710723D01*
X111574623Y-380773373D01*
X111668872Y-380882143D01*
X111789947Y-380959953D01*
X111789950Y-380959954D01*
X111789949Y-380959954D01*
X111928036Y-381000499D01*
X111928038Y-381000500D01*
X111928039Y-381000500D01*
X112071962Y-381000500D01*
X112071962Y-381000499D01*
X112210053Y-380959953D01*
X112331128Y-380882143D01*
X112425377Y-380773373D01*
X112485165Y-380642457D01*
X112505647Y-380500000D01*
X112485165Y-380357543D01*
X112425377Y-380226627D01*
X112331128Y-380117857D01*
X112210053Y-380040047D01*
X112210051Y-380040046D01*
X112210049Y-380040045D01*
X112210050Y-380040045D01*
X112071963Y-379999500D01*
X112071961Y-379999500D01*
X111928039Y-379999500D01*
X111928036Y-379999500D01*
X111789949Y-380040045D01*
X111668873Y-380117856D01*
X111574623Y-380226626D01*
X111574622Y-380226628D01*
X111514834Y-380357543D01*
X111494353Y-380500000D01*
X98436051Y-380500000D01*
X98425377Y-380476627D01*
X98331128Y-380367857D01*
X98210053Y-380290047D01*
X98210051Y-380290046D01*
X98210049Y-380290045D01*
X98210050Y-380290045D01*
X98071963Y-380249500D01*
X98071961Y-380249500D01*
X97928039Y-380249500D01*
X97928036Y-380249500D01*
X97789949Y-380290045D01*
X97668873Y-380367856D01*
X97593713Y-380454596D01*
X97534935Y-380492370D01*
X97465065Y-380492370D01*
X97406287Y-380454596D01*
X97331128Y-380367857D01*
X97210053Y-380290047D01*
X97210051Y-380290046D01*
X97210049Y-380290045D01*
X97210050Y-380290045D01*
X97071963Y-380249500D01*
X97071961Y-380249500D01*
X96928039Y-380249500D01*
X96928036Y-380249500D01*
X96789949Y-380290045D01*
X96668873Y-380367856D01*
X96574623Y-380476626D01*
X96574622Y-380476628D01*
X96514834Y-380607543D01*
X96494353Y-380750000D01*
X73900500Y-380750000D01*
X73900500Y-379200000D01*
X120694353Y-379200000D01*
X120714834Y-379342456D01*
X120774622Y-379473371D01*
X120774623Y-379473373D01*
X120868872Y-379582143D01*
X120989947Y-379659953D01*
X120989950Y-379659954D01*
X120989949Y-379659954D01*
X121128036Y-379700499D01*
X121128038Y-379700500D01*
X121128039Y-379700500D01*
X121271962Y-379700500D01*
X121271962Y-379700499D01*
X121410053Y-379659953D01*
X121531128Y-379582143D01*
X121625377Y-379473373D01*
X121685165Y-379342457D01*
X121685165Y-379342455D01*
X121687206Y-379337987D01*
X121732961Y-379285183D01*
X121800000Y-379265499D01*
X121867040Y-379285184D01*
X121912794Y-379337987D01*
X121914834Y-379342455D01*
X121914835Y-379342457D01*
X121974623Y-379473373D01*
X122068872Y-379582143D01*
X122189947Y-379659953D01*
X122189950Y-379659954D01*
X122189949Y-379659954D01*
X122328036Y-379700499D01*
X122328038Y-379700500D01*
X122328039Y-379700500D01*
X122471962Y-379700500D01*
X122471962Y-379700499D01*
X122610053Y-379659953D01*
X122731128Y-379582143D01*
X122825377Y-379473373D01*
X122885165Y-379342457D01*
X122905647Y-379200000D01*
X122885165Y-379057543D01*
X122825377Y-378926627D01*
X122731128Y-378817857D01*
X122610053Y-378740047D01*
X122610051Y-378740046D01*
X122610049Y-378740045D01*
X122610050Y-378740045D01*
X122471963Y-378699500D01*
X122471961Y-378699500D01*
X122328039Y-378699500D01*
X122328036Y-378699500D01*
X122189949Y-378740045D01*
X122068873Y-378817856D01*
X121974623Y-378926626D01*
X121974622Y-378926628D01*
X121912794Y-379062012D01*
X121867039Y-379114816D01*
X121800000Y-379134500D01*
X121732960Y-379114815D01*
X121687206Y-379062012D01*
X121625377Y-378926628D01*
X121625376Y-378926626D01*
X121531128Y-378817857D01*
X121410053Y-378740047D01*
X121410051Y-378740046D01*
X121410049Y-378740045D01*
X121410050Y-378740045D01*
X121271963Y-378699500D01*
X121271961Y-378699500D01*
X121128039Y-378699500D01*
X121128036Y-378699500D01*
X120989949Y-378740045D01*
X120868873Y-378817856D01*
X120774623Y-378926626D01*
X120774622Y-378926628D01*
X120714834Y-379057543D01*
X120694353Y-379200000D01*
X73900500Y-379200000D01*
X73900500Y-377112075D01*
X77791476Y-377112075D01*
X77915462Y-377178348D01*
X78103969Y-377235531D01*
X78103965Y-377235531D01*
X78300000Y-377254838D01*
X78496032Y-377235531D01*
X78684537Y-377178348D01*
X78808523Y-377112076D01*
X78808523Y-377112075D01*
X78300001Y-376603553D01*
X78300000Y-376603553D01*
X77791476Y-377112075D01*
X73900500Y-377112075D01*
X73900500Y-376250000D01*
X77295161Y-376250000D01*
X77314468Y-376446032D01*
X77371651Y-376634537D01*
X77437923Y-376758522D01*
X77946447Y-376250000D01*
X77896719Y-376200272D01*
X78050000Y-376200272D01*
X78050000Y-376299728D01*
X78088060Y-376391614D01*
X78158386Y-376461940D01*
X78250272Y-376500000D01*
X78349728Y-376500000D01*
X78441614Y-376461940D01*
X78511940Y-376391614D01*
X78550000Y-376299728D01*
X78550000Y-376249999D01*
X78653553Y-376249999D01*
X78653553Y-376250000D01*
X79162076Y-376758523D01*
X79228348Y-376634537D01*
X79238825Y-376600000D01*
X108594353Y-376600000D01*
X108614834Y-376742456D01*
X108654007Y-376828231D01*
X108674623Y-376873373D01*
X108768872Y-376982143D01*
X108768874Y-376982144D01*
X108768876Y-376982146D01*
X108867744Y-377045685D01*
X108913499Y-377098488D01*
X108923443Y-377167647D01*
X108894418Y-377231203D01*
X108867744Y-377254315D01*
X108768876Y-377317853D01*
X108768874Y-377317855D01*
X108674623Y-377426626D01*
X108674622Y-377426628D01*
X108614834Y-377557543D01*
X108594353Y-377700000D01*
X108614834Y-377842456D01*
X108674622Y-377973371D01*
X108674623Y-377973373D01*
X108768872Y-378082143D01*
X108889947Y-378159953D01*
X108889950Y-378159954D01*
X108889949Y-378159954D01*
X109028036Y-378200499D01*
X109028038Y-378200500D01*
X109028039Y-378200500D01*
X109171962Y-378200500D01*
X109171962Y-378200499D01*
X109310053Y-378159953D01*
X109431128Y-378082143D01*
X109525377Y-377973373D01*
X109585165Y-377842457D01*
X109605647Y-377700000D01*
X109585165Y-377557543D01*
X109525377Y-377426627D01*
X109431128Y-377317857D01*
X109332253Y-377254314D01*
X109286500Y-377201512D01*
X109276556Y-377132354D01*
X109305581Y-377068798D01*
X109332254Y-377045685D01*
X109431128Y-376982143D01*
X109525377Y-376873373D01*
X109585165Y-376742457D01*
X109605647Y-376600000D01*
X109585165Y-376457543D01*
X109525377Y-376326627D01*
X109431128Y-376217857D01*
X109310053Y-376140047D01*
X109310051Y-376140046D01*
X109310049Y-376140045D01*
X109310050Y-376140045D01*
X109171963Y-376099500D01*
X109171961Y-376099500D01*
X109028039Y-376099500D01*
X109028036Y-376099500D01*
X108889949Y-376140045D01*
X108768873Y-376217856D01*
X108674623Y-376326626D01*
X108674622Y-376326628D01*
X108614834Y-376457543D01*
X108594353Y-376600000D01*
X79238825Y-376600000D01*
X79285531Y-376446032D01*
X79304838Y-376250000D01*
X79285531Y-376053967D01*
X79238825Y-375900000D01*
X118294353Y-375900000D01*
X118314834Y-376042456D01*
X118320091Y-376053967D01*
X118374623Y-376173373D01*
X118468872Y-376282143D01*
X118589947Y-376359953D01*
X118589950Y-376359954D01*
X118589949Y-376359954D01*
X118728036Y-376400499D01*
X118728038Y-376400500D01*
X118728039Y-376400500D01*
X118871962Y-376400500D01*
X118871962Y-376400499D01*
X119010053Y-376359953D01*
X119131128Y-376282143D01*
X119225377Y-376173373D01*
X119285165Y-376042457D01*
X119305647Y-375900000D01*
X119285165Y-375757543D01*
X119272699Y-375730247D01*
X127549500Y-375730247D01*
X127549500Y-376769752D01*
X127561131Y-376828229D01*
X127561132Y-376828230D01*
X127605447Y-376894552D01*
X127671769Y-376938867D01*
X127671770Y-376938868D01*
X127730247Y-376950499D01*
X127730250Y-376950500D01*
X127730252Y-376950500D01*
X128869750Y-376950500D01*
X128869751Y-376950499D01*
X128884568Y-376947552D01*
X128928229Y-376938868D01*
X128928229Y-376938867D01*
X128928231Y-376938867D01*
X128994552Y-376894552D01*
X129038867Y-376828231D01*
X129038867Y-376828229D01*
X129038868Y-376828229D01*
X129050499Y-376769752D01*
X129050500Y-376769750D01*
X129050500Y-375730249D01*
X129050499Y-375730247D01*
X129038868Y-375671770D01*
X129038867Y-375671769D01*
X128994552Y-375605448D01*
X128920404Y-375555903D01*
X128875600Y-375502290D01*
X128866893Y-375432965D01*
X128887247Y-375382360D01*
X128887397Y-375382143D01*
X128924818Y-375327930D01*
X128985140Y-375168872D01*
X129005645Y-375000000D01*
X128985140Y-374831128D01*
X128973524Y-374800500D01*
X128924817Y-374672068D01*
X128887397Y-374617857D01*
X128828183Y-374532071D01*
X128700852Y-374419266D01*
X128700849Y-374419263D01*
X128543585Y-374336724D01*
X128544218Y-374335517D01*
X128509544Y-374313097D01*
X128300001Y-374103553D01*
X128090452Y-374313100D01*
X128055782Y-374335519D01*
X128056415Y-374336725D01*
X127899150Y-374419264D01*
X127771816Y-374532072D01*
X127675182Y-374672068D01*
X127614860Y-374831125D01*
X127614859Y-374831130D01*
X127594355Y-375000000D01*
X127614859Y-375168869D01*
X127614860Y-375168874D01*
X127675182Y-375327931D01*
X127712753Y-375382361D01*
X127734636Y-375448715D01*
X127717171Y-375516367D01*
X127679595Y-375555902D01*
X127605448Y-375605446D01*
X127561132Y-375671769D01*
X127561131Y-375671770D01*
X127549500Y-375730247D01*
X119272699Y-375730247D01*
X119225377Y-375626627D01*
X119131128Y-375517857D01*
X119010053Y-375440047D01*
X119010051Y-375440046D01*
X119010049Y-375440045D01*
X119010050Y-375440045D01*
X118871963Y-375399500D01*
X118871961Y-375399500D01*
X118728039Y-375399500D01*
X118728036Y-375399500D01*
X118589949Y-375440045D01*
X118468873Y-375517856D01*
X118374623Y-375626626D01*
X118374622Y-375626628D01*
X118314834Y-375757543D01*
X118294353Y-375900000D01*
X79238825Y-375900000D01*
X79228348Y-375865462D01*
X79162075Y-375741476D01*
X78653553Y-376249999D01*
X78550000Y-376249999D01*
X78550000Y-376200272D01*
X78511940Y-376108386D01*
X78441614Y-376038060D01*
X78349728Y-376000000D01*
X78250272Y-376000000D01*
X78158386Y-376038060D01*
X78088060Y-376108386D01*
X78050000Y-376200272D01*
X77896719Y-376200272D01*
X77437923Y-375741476D01*
X77371649Y-375865466D01*
X77314468Y-376053967D01*
X77295161Y-376250000D01*
X73900500Y-376250000D01*
X73900500Y-373230247D01*
X77549500Y-373230247D01*
X77549500Y-374269752D01*
X77561131Y-374328229D01*
X77561132Y-374328230D01*
X77605447Y-374394552D01*
X77679594Y-374444096D01*
X77724399Y-374497709D01*
X77733106Y-374567034D01*
X77712753Y-374617637D01*
X77675185Y-374672063D01*
X77675182Y-374672068D01*
X77614860Y-374831125D01*
X77614859Y-374831130D01*
X77594355Y-375000000D01*
X77614859Y-375168869D01*
X77614860Y-375168874D01*
X77675182Y-375327931D01*
X77737475Y-375418177D01*
X77771817Y-375467929D01*
X77899148Y-375580734D01*
X77899150Y-375580735D01*
X78056417Y-375663276D01*
X78055782Y-375664484D01*
X78090454Y-375686901D01*
X78299999Y-375896446D01*
X78509543Y-375686901D01*
X78544218Y-375664486D01*
X78543583Y-375663276D01*
X78613413Y-375626626D01*
X78700852Y-375580734D01*
X78828183Y-375467929D01*
X78924818Y-375327930D01*
X78985140Y-375168872D01*
X79005645Y-375000000D01*
X98794353Y-375000000D01*
X98814834Y-375142456D01*
X98826897Y-375168869D01*
X98874623Y-375273373D01*
X98968872Y-375382143D01*
X99089947Y-375459953D01*
X99089950Y-375459954D01*
X99089949Y-375459954D01*
X99228036Y-375500499D01*
X99228038Y-375500500D01*
X99228039Y-375500500D01*
X99371962Y-375500500D01*
X99371962Y-375500499D01*
X99510053Y-375459953D01*
X99631128Y-375382143D01*
X99725377Y-375273373D01*
X99785165Y-375142457D01*
X99805647Y-375000000D01*
X99785165Y-374857543D01*
X99725377Y-374726627D01*
X99631128Y-374617857D01*
X99510053Y-374540047D01*
X99510051Y-374540046D01*
X99510049Y-374540045D01*
X99510050Y-374540045D01*
X99371963Y-374499500D01*
X99371961Y-374499500D01*
X99228039Y-374499500D01*
X99228036Y-374499500D01*
X99089949Y-374540045D01*
X98968873Y-374617856D01*
X98874623Y-374726626D01*
X98874622Y-374726628D01*
X98814834Y-374857543D01*
X98794353Y-375000000D01*
X79005645Y-375000000D01*
X78985140Y-374831128D01*
X78973524Y-374800500D01*
X78924817Y-374672068D01*
X78887397Y-374617857D01*
X78887245Y-374617637D01*
X78865363Y-374551284D01*
X78882828Y-374483632D01*
X78920405Y-374444096D01*
X78994552Y-374394552D01*
X79038867Y-374328231D01*
X79038867Y-374328229D01*
X79038868Y-374328229D01*
X79050499Y-374269752D01*
X79050500Y-374269750D01*
X79050500Y-373800000D01*
X83694353Y-373800000D01*
X83714834Y-373942456D01*
X83753275Y-374026628D01*
X83774623Y-374073373D01*
X83868872Y-374182143D01*
X83989947Y-374259953D01*
X83989950Y-374259954D01*
X83989949Y-374259954D01*
X84097107Y-374291417D01*
X84126336Y-374300000D01*
X84128036Y-374300499D01*
X84128038Y-374300500D01*
X84128039Y-374300500D01*
X84271962Y-374300500D01*
X84271962Y-374300499D01*
X84273661Y-374300000D01*
X97094353Y-374300000D01*
X97114834Y-374442456D01*
X97118508Y-374450500D01*
X97174623Y-374573373D01*
X97268872Y-374682143D01*
X97389947Y-374759953D01*
X97389950Y-374759954D01*
X97389949Y-374759954D01*
X97528036Y-374800499D01*
X97528038Y-374800500D01*
X97528039Y-374800500D01*
X97671962Y-374800500D01*
X97671962Y-374800499D01*
X97810053Y-374759953D01*
X97931128Y-374682143D01*
X98025377Y-374573373D01*
X98085165Y-374442457D01*
X98105647Y-374300000D01*
X98085165Y-374157543D01*
X98025377Y-374026627D01*
X97931128Y-373917857D01*
X97810053Y-373840047D01*
X97810051Y-373840046D01*
X97810049Y-373840045D01*
X97810050Y-373840045D01*
X97671963Y-373799500D01*
X97671961Y-373799500D01*
X97528039Y-373799500D01*
X97528036Y-373799500D01*
X97389949Y-373840045D01*
X97268873Y-373917856D01*
X97174623Y-374026626D01*
X97174622Y-374026628D01*
X97114834Y-374157543D01*
X97094353Y-374300000D01*
X84273661Y-374300000D01*
X84410053Y-374259953D01*
X84531128Y-374182143D01*
X84625377Y-374073373D01*
X84685165Y-373942457D01*
X84705647Y-373800000D01*
X84698458Y-373750000D01*
X127295161Y-373750000D01*
X127314468Y-373946032D01*
X127371651Y-374134537D01*
X127437923Y-374258522D01*
X127946447Y-373750000D01*
X127896719Y-373700272D01*
X128050000Y-373700272D01*
X128050000Y-373799728D01*
X128088060Y-373891614D01*
X128158386Y-373961940D01*
X128250272Y-374000000D01*
X128349728Y-374000000D01*
X128441614Y-373961940D01*
X128511940Y-373891614D01*
X128550000Y-373799728D01*
X128550000Y-373749999D01*
X128653553Y-373749999D01*
X128653553Y-373750000D01*
X129162076Y-374258523D01*
X129228348Y-374134537D01*
X129285531Y-373946032D01*
X129304838Y-373750000D01*
X129285531Y-373553967D01*
X129228348Y-373365462D01*
X129162075Y-373241476D01*
X128653553Y-373749999D01*
X128550000Y-373749999D01*
X128550000Y-373700272D01*
X128511940Y-373608386D01*
X128441614Y-373538060D01*
X128349728Y-373500000D01*
X128250272Y-373500000D01*
X128158386Y-373538060D01*
X128088060Y-373608386D01*
X128050000Y-373700272D01*
X127896719Y-373700272D01*
X127437923Y-373241476D01*
X127371649Y-373365466D01*
X127314468Y-373553967D01*
X127295161Y-373750000D01*
X84698458Y-373750000D01*
X84685165Y-373657543D01*
X84625377Y-373526627D01*
X84531128Y-373417857D01*
X84410053Y-373340047D01*
X84410051Y-373340046D01*
X84410049Y-373340045D01*
X84410050Y-373340045D01*
X84271963Y-373299500D01*
X84271961Y-373299500D01*
X84128039Y-373299500D01*
X84128036Y-373299500D01*
X83989949Y-373340045D01*
X83868873Y-373417856D01*
X83774623Y-373526626D01*
X83774622Y-373526628D01*
X83714834Y-373657543D01*
X83694353Y-373800000D01*
X79050500Y-373800000D01*
X79050500Y-373230249D01*
X79050499Y-373230247D01*
X79038868Y-373171770D01*
X79038867Y-373171769D01*
X78994552Y-373105447D01*
X78928230Y-373061132D01*
X78928229Y-373061131D01*
X78869752Y-373049500D01*
X78869748Y-373049500D01*
X77730252Y-373049500D01*
X77730247Y-373049500D01*
X77671770Y-373061131D01*
X77671769Y-373061132D01*
X77605447Y-373105447D01*
X77561132Y-373171769D01*
X77561131Y-373171770D01*
X77549500Y-373230247D01*
X73900500Y-373230247D01*
X73900500Y-372887923D01*
X127791476Y-372887923D01*
X128300000Y-373396447D01*
X128300001Y-373396447D01*
X128808522Y-372887923D01*
X128684537Y-372821651D01*
X128496030Y-372764468D01*
X128496034Y-372764468D01*
X128300000Y-372745161D01*
X128103967Y-372764468D01*
X127915466Y-372821649D01*
X127791476Y-372887923D01*
X73900500Y-372887923D01*
X73900500Y-372100000D01*
X109994353Y-372100000D01*
X110014834Y-372242456D01*
X110074622Y-372373371D01*
X110074623Y-372373373D01*
X110168872Y-372482143D01*
X110289947Y-372559953D01*
X110289950Y-372559954D01*
X110289949Y-372559954D01*
X110428036Y-372600499D01*
X110428038Y-372600500D01*
X110428039Y-372600500D01*
X110571962Y-372600500D01*
X110571962Y-372600499D01*
X110710053Y-372559953D01*
X110831128Y-372482143D01*
X110925377Y-372373373D01*
X110985165Y-372242457D01*
X111005647Y-372100000D01*
X110985165Y-371957543D01*
X110925377Y-371826627D01*
X110831128Y-371717857D01*
X110710053Y-371640047D01*
X110710051Y-371640046D01*
X110710049Y-371640045D01*
X110710050Y-371640045D01*
X110571963Y-371599500D01*
X110571961Y-371599500D01*
X110428039Y-371599500D01*
X110428036Y-371599500D01*
X110289949Y-371640045D01*
X110168873Y-371717856D01*
X110074623Y-371826626D01*
X110074622Y-371826628D01*
X110014834Y-371957543D01*
X109994353Y-372100000D01*
X73900500Y-372100000D01*
X73900500Y-369112075D01*
X77791476Y-369112075D01*
X77915462Y-369178348D01*
X78103969Y-369235531D01*
X78103965Y-369235531D01*
X78300000Y-369254838D01*
X78496032Y-369235531D01*
X78684537Y-369178348D01*
X78808523Y-369112076D01*
X78808523Y-369112075D01*
X78300001Y-368603553D01*
X78300000Y-368603553D01*
X77791476Y-369112075D01*
X73900500Y-369112075D01*
X73900500Y-368250000D01*
X77295161Y-368250000D01*
X77314468Y-368446032D01*
X77371651Y-368634537D01*
X77437923Y-368758522D01*
X77946447Y-368250000D01*
X77896719Y-368200272D01*
X78050000Y-368200272D01*
X78050000Y-368299728D01*
X78088060Y-368391614D01*
X78158386Y-368461940D01*
X78250272Y-368500000D01*
X78349728Y-368500000D01*
X78441614Y-368461940D01*
X78511940Y-368391614D01*
X78550000Y-368299728D01*
X78550000Y-368249999D01*
X78653553Y-368249999D01*
X78653553Y-368250000D01*
X79162076Y-368758523D01*
X79228348Y-368634537D01*
X79285531Y-368446032D01*
X79304838Y-368250000D01*
X79299914Y-368200000D01*
X91794353Y-368200000D01*
X91814834Y-368342456D01*
X91869402Y-368461940D01*
X91874623Y-368473373D01*
X91968872Y-368582143D01*
X92089947Y-368659953D01*
X92089950Y-368659954D01*
X92089949Y-368659954D01*
X92228036Y-368700499D01*
X92228038Y-368700500D01*
X92228039Y-368700500D01*
X92371962Y-368700500D01*
X92371962Y-368700499D01*
X92510053Y-368659953D01*
X92631128Y-368582143D01*
X92702305Y-368500000D01*
X107594353Y-368500000D01*
X107614834Y-368642456D01*
X107667841Y-368758522D01*
X107674623Y-368773373D01*
X107768872Y-368882143D01*
X107889947Y-368959953D01*
X107889950Y-368959954D01*
X107889949Y-368959954D01*
X108028036Y-369000499D01*
X108028038Y-369000500D01*
X108028039Y-369000500D01*
X108171962Y-369000500D01*
X108171962Y-369000499D01*
X108310053Y-368959953D01*
X108431128Y-368882143D01*
X108525377Y-368773373D01*
X108585165Y-368642457D01*
X108605647Y-368500000D01*
X108585165Y-368357543D01*
X108525377Y-368226627D01*
X108431128Y-368117857D01*
X108310053Y-368040047D01*
X108310051Y-368040046D01*
X108310049Y-368040045D01*
X108310050Y-368040045D01*
X108171963Y-367999500D01*
X108171961Y-367999500D01*
X108028039Y-367999500D01*
X108028036Y-367999500D01*
X107889949Y-368040045D01*
X107768873Y-368117856D01*
X107674623Y-368226626D01*
X107674622Y-368226628D01*
X107614834Y-368357543D01*
X107594353Y-368500000D01*
X92702305Y-368500000D01*
X92725377Y-368473373D01*
X92785165Y-368342457D01*
X92805647Y-368200000D01*
X92785165Y-368057543D01*
X92725377Y-367926627D01*
X92631128Y-367817857D01*
X92510053Y-367740047D01*
X92510051Y-367740046D01*
X92510049Y-367740045D01*
X92510050Y-367740045D01*
X92371963Y-367699500D01*
X92371961Y-367699500D01*
X92228039Y-367699500D01*
X92228036Y-367699500D01*
X92089949Y-367740045D01*
X91968873Y-367817856D01*
X91874623Y-367926626D01*
X91874622Y-367926628D01*
X91814834Y-368057543D01*
X91794353Y-368200000D01*
X79299914Y-368200000D01*
X79285531Y-368053967D01*
X79228348Y-367865462D01*
X79162075Y-367741476D01*
X78653553Y-368249999D01*
X78550000Y-368249999D01*
X78550000Y-368200272D01*
X78511940Y-368108386D01*
X78441614Y-368038060D01*
X78349728Y-368000000D01*
X78250272Y-368000000D01*
X78158386Y-368038060D01*
X78088060Y-368108386D01*
X78050000Y-368200272D01*
X77896719Y-368200272D01*
X77437923Y-367741476D01*
X77371649Y-367865466D01*
X77314468Y-368053967D01*
X77295161Y-368250000D01*
X73900500Y-368250000D01*
X73900500Y-365230247D01*
X77549500Y-365230247D01*
X77549500Y-366269752D01*
X77561131Y-366328229D01*
X77561132Y-366328230D01*
X77605447Y-366394552D01*
X77679594Y-366444096D01*
X77724399Y-366497709D01*
X77733106Y-366567034D01*
X77712753Y-366617637D01*
X77675185Y-366672063D01*
X77675182Y-366672068D01*
X77614860Y-366831125D01*
X77614859Y-366831130D01*
X77594355Y-367000000D01*
X77614859Y-367168869D01*
X77614860Y-367168874D01*
X77675182Y-367327931D01*
X77712753Y-367382361D01*
X77771817Y-367467929D01*
X77899148Y-367580734D01*
X77899150Y-367580735D01*
X78056417Y-367663276D01*
X78055782Y-367664484D01*
X78090454Y-367686901D01*
X78299999Y-367896446D01*
X78509543Y-367686901D01*
X78544218Y-367664486D01*
X78543583Y-367663276D01*
X78550225Y-367659790D01*
X78700852Y-367580734D01*
X78828183Y-367467929D01*
X78924818Y-367327930D01*
X78985140Y-367168872D01*
X78993503Y-367100000D01*
X87794353Y-367100000D01*
X87814834Y-367242456D01*
X87860504Y-367342457D01*
X87874623Y-367373373D01*
X87968872Y-367482143D01*
X88089947Y-367559953D01*
X88089950Y-367559954D01*
X88089949Y-367559954D01*
X88228036Y-367600499D01*
X88228038Y-367600500D01*
X88228039Y-367600500D01*
X88371962Y-367600500D01*
X88371962Y-367600499D01*
X88479121Y-367569035D01*
X88510050Y-367559954D01*
X88510050Y-367559953D01*
X88510053Y-367559953D01*
X88631128Y-367482143D01*
X88725377Y-367373373D01*
X88785165Y-367242457D01*
X88805647Y-367100000D01*
X88785165Y-366957543D01*
X88725377Y-366826627D01*
X88631128Y-366717857D01*
X88510053Y-366640047D01*
X88510051Y-366640046D01*
X88510049Y-366640045D01*
X88510050Y-366640045D01*
X88373666Y-366600000D01*
X98494353Y-366600000D01*
X98514834Y-366742456D01*
X98559785Y-366840883D01*
X98574623Y-366873373D01*
X98668872Y-366982143D01*
X98789947Y-367059953D01*
X98789950Y-367059954D01*
X98789949Y-367059954D01*
X98897107Y-367091417D01*
X98926336Y-367100000D01*
X98928036Y-367100499D01*
X98928038Y-367100500D01*
X98928039Y-367100500D01*
X99071962Y-367100500D01*
X99071962Y-367100499D01*
X99210053Y-367059953D01*
X99331128Y-366982143D01*
X99425377Y-366873373D01*
X99485165Y-366742457D01*
X99505647Y-366600000D01*
X99485165Y-366457543D01*
X99458886Y-366400000D01*
X102594353Y-366400000D01*
X102614834Y-366542456D01*
X102618866Y-366551284D01*
X102674623Y-366673373D01*
X102764701Y-366777329D01*
X102793725Y-366840883D01*
X102783781Y-366910041D01*
X102775303Y-366925568D01*
X102774624Y-366926624D01*
X102714834Y-367057543D01*
X102694353Y-367200000D01*
X102714834Y-367342456D01*
X102753275Y-367426628D01*
X102774623Y-367473373D01*
X102868872Y-367582143D01*
X102989947Y-367659953D01*
X102989950Y-367659954D01*
X102989949Y-367659954D01*
X103097107Y-367691417D01*
X103126336Y-367700000D01*
X103128036Y-367700499D01*
X103128038Y-367700500D01*
X103128039Y-367700500D01*
X103271962Y-367700500D01*
X103271962Y-367700499D01*
X103273661Y-367700000D01*
X104194353Y-367700000D01*
X104214834Y-367842456D01*
X104253275Y-367926628D01*
X104274623Y-367973373D01*
X104368872Y-368082143D01*
X104489947Y-368159953D01*
X104489950Y-368159954D01*
X104489949Y-368159954D01*
X104597107Y-368191417D01*
X104627262Y-368200272D01*
X104628036Y-368200499D01*
X104628038Y-368200500D01*
X104628039Y-368200500D01*
X104771962Y-368200500D01*
X104771962Y-368200499D01*
X104910053Y-368159953D01*
X105031128Y-368082143D01*
X105125377Y-367973373D01*
X105185165Y-367842457D01*
X105201298Y-367730247D01*
X127549500Y-367730247D01*
X127549500Y-368769752D01*
X127561131Y-368828229D01*
X127561132Y-368828230D01*
X127605447Y-368894552D01*
X127671769Y-368938867D01*
X127671770Y-368938868D01*
X127730247Y-368950499D01*
X127730250Y-368950500D01*
X127730252Y-368950500D01*
X128869750Y-368950500D01*
X128869751Y-368950499D01*
X128884568Y-368947552D01*
X128928229Y-368938868D01*
X128928229Y-368938867D01*
X128928231Y-368938867D01*
X128994552Y-368894552D01*
X129038867Y-368828231D01*
X129038867Y-368828229D01*
X129038868Y-368828229D01*
X129050499Y-368769752D01*
X129050500Y-368769750D01*
X129050500Y-367730249D01*
X129050499Y-367730247D01*
X129038868Y-367671770D01*
X129038867Y-367671769D01*
X128994552Y-367605448D01*
X128920404Y-367555903D01*
X128875600Y-367502290D01*
X128866893Y-367432965D01*
X128887247Y-367382360D01*
X128924818Y-367327930D01*
X128985140Y-367168872D01*
X129005645Y-367000000D01*
X128985140Y-366831128D01*
X128983433Y-366826628D01*
X128951512Y-366742457D01*
X128924818Y-366672070D01*
X128924813Y-366672063D01*
X128852316Y-366567034D01*
X128828183Y-366532071D01*
X128700852Y-366419266D01*
X128700849Y-366419263D01*
X128543585Y-366336724D01*
X128544218Y-366335517D01*
X128509544Y-366313097D01*
X128300001Y-366103553D01*
X128090452Y-366313100D01*
X128055782Y-366335519D01*
X128056415Y-366336725D01*
X127899150Y-366419264D01*
X127771816Y-366532072D01*
X127675182Y-366672068D01*
X127614860Y-366831125D01*
X127614859Y-366831130D01*
X127594355Y-367000000D01*
X127614859Y-367168869D01*
X127614860Y-367168874D01*
X127675182Y-367327931D01*
X127712753Y-367382361D01*
X127734636Y-367448715D01*
X127717171Y-367516367D01*
X127679595Y-367555902D01*
X127605448Y-367605446D01*
X127561132Y-367671769D01*
X127561131Y-367671770D01*
X127549500Y-367730247D01*
X105201298Y-367730247D01*
X105205647Y-367700000D01*
X105185165Y-367557543D01*
X105125377Y-367426627D01*
X105031128Y-367317857D01*
X104910053Y-367240047D01*
X104910051Y-367240046D01*
X104910049Y-367240045D01*
X104910050Y-367240045D01*
X104771963Y-367199500D01*
X104771961Y-367199500D01*
X104628039Y-367199500D01*
X104628036Y-367199500D01*
X104489949Y-367240045D01*
X104368873Y-367317856D01*
X104274623Y-367426626D01*
X104274622Y-367426628D01*
X104214834Y-367557543D01*
X104194353Y-367700000D01*
X103273661Y-367700000D01*
X103410053Y-367659953D01*
X103531128Y-367582143D01*
X103625377Y-367473373D01*
X103685165Y-367342457D01*
X103705647Y-367200000D01*
X103685165Y-367057543D01*
X103625377Y-366926627D01*
X103625375Y-366926625D01*
X103625374Y-366926622D01*
X103535300Y-366822671D01*
X103506275Y-366759116D01*
X103516219Y-366689957D01*
X103524700Y-366674426D01*
X103525372Y-366673378D01*
X103525377Y-366673373D01*
X103585165Y-366542457D01*
X103605647Y-366400000D01*
X107494353Y-366400000D01*
X107514834Y-366542456D01*
X107518866Y-366551284D01*
X107574623Y-366673373D01*
X107668872Y-366782143D01*
X107789947Y-366859953D01*
X107789950Y-366859954D01*
X107789949Y-366859954D01*
X107928036Y-366900499D01*
X107928038Y-366900500D01*
X107928039Y-366900500D01*
X108071962Y-366900500D01*
X108071962Y-366900499D01*
X108210053Y-366859953D01*
X108331128Y-366782143D01*
X108425377Y-366673373D01*
X108485165Y-366542457D01*
X108505647Y-366400000D01*
X108485165Y-366257543D01*
X108425377Y-366126627D01*
X108331128Y-366017857D01*
X108210053Y-365940047D01*
X108210051Y-365940046D01*
X108210049Y-365940045D01*
X108210050Y-365940045D01*
X108071963Y-365899500D01*
X108071961Y-365899500D01*
X107928039Y-365899500D01*
X107928036Y-365899500D01*
X107789949Y-365940045D01*
X107668873Y-366017856D01*
X107574623Y-366126626D01*
X107574622Y-366126628D01*
X107514834Y-366257543D01*
X107494353Y-366400000D01*
X103605647Y-366400000D01*
X103585165Y-366257543D01*
X103525377Y-366126627D01*
X103431128Y-366017857D01*
X103310053Y-365940047D01*
X103310051Y-365940046D01*
X103310049Y-365940045D01*
X103310050Y-365940045D01*
X103171963Y-365899500D01*
X103171961Y-365899500D01*
X103028039Y-365899500D01*
X103028036Y-365899500D01*
X102889949Y-365940045D01*
X102768873Y-366017856D01*
X102674623Y-366126626D01*
X102674622Y-366126628D01*
X102614834Y-366257543D01*
X102594353Y-366400000D01*
X99458886Y-366400000D01*
X99425377Y-366326627D01*
X99331128Y-366217857D01*
X99210053Y-366140047D01*
X99210051Y-366140046D01*
X99210049Y-366140045D01*
X99210050Y-366140045D01*
X99071963Y-366099500D01*
X99071961Y-366099500D01*
X98928039Y-366099500D01*
X98928036Y-366099500D01*
X98789949Y-366140045D01*
X98668873Y-366217856D01*
X98574623Y-366326626D01*
X98574622Y-366326628D01*
X98514834Y-366457543D01*
X98494353Y-366600000D01*
X88373666Y-366600000D01*
X88371963Y-366599500D01*
X88371961Y-366599500D01*
X88228039Y-366599500D01*
X88228036Y-366599500D01*
X88089949Y-366640045D01*
X87968873Y-366717856D01*
X87874623Y-366826626D01*
X87874622Y-366826628D01*
X87814834Y-366957543D01*
X87794353Y-367100000D01*
X78993503Y-367100000D01*
X79005645Y-367000000D01*
X78985140Y-366831128D01*
X78983433Y-366826628D01*
X78951512Y-366742457D01*
X78924818Y-366672070D01*
X78924813Y-366672063D01*
X78887246Y-366617638D01*
X78865363Y-366551284D01*
X78882828Y-366483632D01*
X78920405Y-366444096D01*
X78994552Y-366394552D01*
X79038867Y-366328231D01*
X79038867Y-366328229D01*
X79038868Y-366328229D01*
X79050499Y-366269752D01*
X79050500Y-366269750D01*
X79050500Y-365750000D01*
X127295161Y-365750000D01*
X127314468Y-365946032D01*
X127371651Y-366134537D01*
X127437923Y-366258522D01*
X127946447Y-365750000D01*
X127896719Y-365700272D01*
X128050000Y-365700272D01*
X128050000Y-365799728D01*
X128088060Y-365891614D01*
X128158386Y-365961940D01*
X128250272Y-366000000D01*
X128349728Y-366000000D01*
X128441614Y-365961940D01*
X128511940Y-365891614D01*
X128550000Y-365799728D01*
X128550000Y-365749999D01*
X128653553Y-365749999D01*
X128653553Y-365750000D01*
X129162076Y-366258523D01*
X129228348Y-366134537D01*
X129285531Y-365946032D01*
X129304838Y-365750000D01*
X129285531Y-365553967D01*
X129228348Y-365365462D01*
X129162075Y-365241476D01*
X128653553Y-365749999D01*
X128550000Y-365749999D01*
X128550000Y-365700272D01*
X128511940Y-365608386D01*
X128441614Y-365538060D01*
X128349728Y-365500000D01*
X128250272Y-365500000D01*
X128158386Y-365538060D01*
X128088060Y-365608386D01*
X128050000Y-365700272D01*
X127896719Y-365700272D01*
X127437923Y-365241476D01*
X127371649Y-365365466D01*
X127314468Y-365553967D01*
X127295161Y-365750000D01*
X79050500Y-365750000D01*
X79050500Y-365230249D01*
X79050499Y-365230247D01*
X79038868Y-365171770D01*
X79038867Y-365171769D01*
X78994552Y-365105447D01*
X78928230Y-365061132D01*
X78928229Y-365061131D01*
X78869752Y-365049500D01*
X78869748Y-365049500D01*
X77730252Y-365049500D01*
X77730247Y-365049500D01*
X77671770Y-365061131D01*
X77671769Y-365061132D01*
X77605447Y-365105447D01*
X77561132Y-365171769D01*
X77561131Y-365171770D01*
X77549500Y-365230247D01*
X73900500Y-365230247D01*
X73900500Y-364887923D01*
X127791476Y-364887923D01*
X128300000Y-365396447D01*
X128300001Y-365396447D01*
X128808522Y-364887923D01*
X128684537Y-364821651D01*
X128496030Y-364764468D01*
X128496034Y-364764468D01*
X128300000Y-364745161D01*
X128103967Y-364764468D01*
X127915466Y-364821649D01*
X127791476Y-364887923D01*
X73900500Y-364887923D01*
X73900500Y-363000000D01*
X93894353Y-363000000D01*
X93914834Y-363142456D01*
X93974622Y-363273371D01*
X93974623Y-363273373D01*
X94068872Y-363382143D01*
X94076324Y-363386932D01*
X94089943Y-363395685D01*
X94135698Y-363448489D01*
X94145641Y-363517648D01*
X94116615Y-363581203D01*
X94089943Y-363604315D01*
X94068874Y-363617855D01*
X93974623Y-363726626D01*
X93974622Y-363726628D01*
X93914834Y-363857543D01*
X93894353Y-364000000D01*
X93914834Y-364142456D01*
X93941114Y-364200000D01*
X93974623Y-364273373D01*
X94068872Y-364382143D01*
X94189947Y-364459953D01*
X94189950Y-364459954D01*
X94189949Y-364459954D01*
X94328036Y-364500499D01*
X94328038Y-364500500D01*
X94328039Y-364500500D01*
X94471962Y-364500500D01*
X94471962Y-364500499D01*
X94610053Y-364459953D01*
X94731128Y-364382143D01*
X94825377Y-364273373D01*
X94885165Y-364142457D01*
X94905647Y-364000000D01*
X94885165Y-363857543D01*
X94825377Y-363726627D01*
X94731128Y-363617857D01*
X94731125Y-363617855D01*
X94731125Y-363617854D01*
X94710058Y-363604316D01*
X94664302Y-363551513D01*
X94654358Y-363482354D01*
X94683382Y-363418798D01*
X94710058Y-363395684D01*
X94731125Y-363382145D01*
X94731125Y-363382144D01*
X94731128Y-363382143D01*
X94825377Y-363273373D01*
X94885165Y-363142457D01*
X94905647Y-363000000D01*
X94885165Y-362857543D01*
X94825377Y-362726627D01*
X94731128Y-362617857D01*
X94610053Y-362540047D01*
X94610051Y-362540046D01*
X94610049Y-362540045D01*
X94610050Y-362540045D01*
X94471963Y-362499500D01*
X94471961Y-362499500D01*
X94328039Y-362499500D01*
X94328036Y-362499500D01*
X94189949Y-362540045D01*
X94068873Y-362617856D01*
X93974623Y-362726626D01*
X93974622Y-362726628D01*
X93914834Y-362857543D01*
X93894353Y-363000000D01*
X73900500Y-363000000D01*
X73900500Y-362200000D01*
X81494353Y-362200000D01*
X81514834Y-362342456D01*
X81541114Y-362399999D01*
X81574623Y-362473373D01*
X81668872Y-362582143D01*
X81789947Y-362659953D01*
X81789950Y-362659954D01*
X81789949Y-362659954D01*
X81928036Y-362700499D01*
X81928038Y-362700500D01*
X81928039Y-362700500D01*
X82071962Y-362700500D01*
X82071962Y-362700499D01*
X82210053Y-362659953D01*
X82331128Y-362582143D01*
X82425377Y-362473373D01*
X82458886Y-362400000D01*
X102294353Y-362400000D01*
X102314834Y-362542456D01*
X102360504Y-362642457D01*
X102374623Y-362673373D01*
X102468872Y-362782143D01*
X102589947Y-362859953D01*
X102589950Y-362859954D01*
X102589949Y-362859954D01*
X102728036Y-362900499D01*
X102728038Y-362900500D01*
X102837122Y-362900500D01*
X102904161Y-362920185D01*
X102949916Y-362972989D01*
X102959860Y-363042147D01*
X102944353Y-363150000D01*
X102964834Y-363292456D01*
X103011978Y-363395684D01*
X103024623Y-363423373D01*
X103118872Y-363532143D01*
X103239947Y-363609953D01*
X103239950Y-363609954D01*
X103239949Y-363609954D01*
X103378036Y-363650499D01*
X103378038Y-363650500D01*
X103378039Y-363650500D01*
X103521962Y-363650500D01*
X103521962Y-363650499D01*
X103660053Y-363609953D01*
X103781128Y-363532143D01*
X103875377Y-363423373D01*
X103935165Y-363292457D01*
X103955647Y-363150000D01*
X103935165Y-363007543D01*
X103875377Y-362876627D01*
X103781128Y-362767857D01*
X103660053Y-362690047D01*
X103660051Y-362690046D01*
X103660049Y-362690045D01*
X103660050Y-362690045D01*
X103521963Y-362649500D01*
X103521961Y-362649500D01*
X103412878Y-362649500D01*
X103345839Y-362629815D01*
X103300084Y-362577011D01*
X103290140Y-362507853D01*
X103291269Y-362500000D01*
X107294353Y-362500000D01*
X107314834Y-362642456D01*
X107353275Y-362726628D01*
X107374623Y-362773373D01*
X107468872Y-362882143D01*
X107589947Y-362959953D01*
X107589950Y-362959954D01*
X107589949Y-362959954D01*
X107697107Y-362991417D01*
X107726336Y-363000000D01*
X107728036Y-363000499D01*
X107728038Y-363000500D01*
X107728039Y-363000500D01*
X107871962Y-363000500D01*
X107871962Y-363000499D01*
X107873661Y-363000000D01*
X112094353Y-363000000D01*
X112114834Y-363142456D01*
X112174622Y-363273371D01*
X112174623Y-363273373D01*
X112268872Y-363382143D01*
X112333024Y-363423371D01*
X112389948Y-363459954D01*
X112461704Y-363481023D01*
X112520482Y-363518797D01*
X112549507Y-363582353D01*
X112539563Y-363651511D01*
X112493809Y-363704315D01*
X112461704Y-363718977D01*
X112389948Y-363740045D01*
X112268873Y-363817856D01*
X112174623Y-363926626D01*
X112174622Y-363926628D01*
X112114834Y-364057543D01*
X112094353Y-364200000D01*
X112114834Y-364342456D01*
X112132959Y-364382143D01*
X112174623Y-364473373D01*
X112268872Y-364582143D01*
X112389947Y-364659953D01*
X112389950Y-364659954D01*
X112389949Y-364659954D01*
X112528036Y-364700499D01*
X112528038Y-364700500D01*
X112528039Y-364700500D01*
X112671962Y-364700500D01*
X112671962Y-364700499D01*
X112810053Y-364659953D01*
X112931128Y-364582143D01*
X113025377Y-364473373D01*
X113085165Y-364342457D01*
X113105647Y-364200000D01*
X113085165Y-364057543D01*
X113025377Y-363926627D01*
X112931128Y-363817857D01*
X112810053Y-363740047D01*
X112810051Y-363740046D01*
X112810049Y-363740045D01*
X112810050Y-363740045D01*
X112738296Y-363718977D01*
X112679518Y-363681203D01*
X112650492Y-363617648D01*
X112660435Y-363548489D01*
X112706190Y-363495685D01*
X112738296Y-363481023D01*
X112810050Y-363459954D01*
X112810050Y-363459953D01*
X112810053Y-363459953D01*
X112931128Y-363382143D01*
X113025377Y-363273373D01*
X113085165Y-363142457D01*
X113105647Y-363000000D01*
X113085165Y-362857543D01*
X113025377Y-362726627D01*
X112931128Y-362617857D01*
X112810053Y-362540047D01*
X112810051Y-362540046D01*
X112810049Y-362540045D01*
X112810050Y-362540045D01*
X112671963Y-362499500D01*
X112671961Y-362499500D01*
X112528039Y-362499500D01*
X112528036Y-362499500D01*
X112389949Y-362540045D01*
X112268873Y-362617856D01*
X112174623Y-362726626D01*
X112174622Y-362726628D01*
X112114834Y-362857543D01*
X112094353Y-363000000D01*
X107873661Y-363000000D01*
X108010053Y-362959953D01*
X108131128Y-362882143D01*
X108225377Y-362773373D01*
X108285165Y-362642457D01*
X108305647Y-362500000D01*
X108285165Y-362357543D01*
X108225377Y-362226627D01*
X108131128Y-362117857D01*
X108010053Y-362040047D01*
X108010051Y-362040046D01*
X108010049Y-362040045D01*
X108010050Y-362040045D01*
X107871963Y-361999500D01*
X107871961Y-361999500D01*
X107728039Y-361999500D01*
X107728036Y-361999500D01*
X107589949Y-362040045D01*
X107468873Y-362117856D01*
X107374623Y-362226626D01*
X107374622Y-362226628D01*
X107314834Y-362357543D01*
X107294353Y-362500000D01*
X103291269Y-362500000D01*
X103291341Y-362499500D01*
X103305647Y-362400000D01*
X103285165Y-362257543D01*
X103225377Y-362126627D01*
X103131128Y-362017857D01*
X103010053Y-361940047D01*
X103010051Y-361940046D01*
X103010049Y-361940045D01*
X103010050Y-361940045D01*
X102871963Y-361899500D01*
X102871961Y-361899500D01*
X102728039Y-361899500D01*
X102728036Y-361899500D01*
X102589949Y-361940045D01*
X102468873Y-362017856D01*
X102374623Y-362126626D01*
X102374622Y-362126628D01*
X102314834Y-362257543D01*
X102294353Y-362400000D01*
X82458886Y-362400000D01*
X82485165Y-362342457D01*
X82505647Y-362200000D01*
X82485165Y-362057543D01*
X82425377Y-361926627D01*
X82331128Y-361817857D01*
X82210053Y-361740047D01*
X82210051Y-361740046D01*
X82210049Y-361740045D01*
X82210050Y-361740045D01*
X82071963Y-361699500D01*
X82071961Y-361699500D01*
X81928039Y-361699500D01*
X81928036Y-361699500D01*
X81789949Y-361740045D01*
X81668873Y-361817856D01*
X81574623Y-361926626D01*
X81574622Y-361926628D01*
X81514834Y-362057543D01*
X81494353Y-362200000D01*
X73900500Y-362200000D01*
X73900500Y-360112075D01*
X77791476Y-360112075D01*
X77915462Y-360178348D01*
X78103969Y-360235531D01*
X78103965Y-360235531D01*
X78300000Y-360254838D01*
X78496032Y-360235531D01*
X78684537Y-360178348D01*
X78808523Y-360112076D01*
X78808523Y-360112075D01*
X78300001Y-359603553D01*
X78300000Y-359603553D01*
X77791476Y-360112075D01*
X73900500Y-360112075D01*
X73900500Y-359250000D01*
X77295161Y-359250000D01*
X77314468Y-359446032D01*
X77371651Y-359634537D01*
X77437923Y-359758522D01*
X77946447Y-359250000D01*
X77896719Y-359200272D01*
X78050000Y-359200272D01*
X78050000Y-359299728D01*
X78088060Y-359391614D01*
X78158386Y-359461940D01*
X78250272Y-359500000D01*
X78349728Y-359500000D01*
X78441614Y-359461940D01*
X78511940Y-359391614D01*
X78550000Y-359299728D01*
X78550000Y-359200272D01*
X78511940Y-359108386D01*
X78441614Y-359038060D01*
X78349728Y-359000000D01*
X78250272Y-359000000D01*
X78158386Y-359038060D01*
X78088060Y-359108386D01*
X78050000Y-359200272D01*
X77896719Y-359200272D01*
X77588207Y-358891760D01*
X77554722Y-358830437D01*
X77559706Y-358760745D01*
X77601578Y-358704812D01*
X77667042Y-358680395D01*
X77709628Y-358687296D01*
X77709790Y-358686485D01*
X77780247Y-358700499D01*
X77780250Y-358700500D01*
X78052691Y-358700500D01*
X78119730Y-358720185D01*
X78140372Y-358736819D01*
X78300000Y-358896447D01*
X78459628Y-358736819D01*
X78520951Y-358703334D01*
X78547309Y-358700500D01*
X78819750Y-358700500D01*
X78819751Y-358700499D01*
X78834485Y-358697568D01*
X78890210Y-358686485D01*
X78890517Y-358688029D01*
X78946122Y-358682049D01*
X79008603Y-358713322D01*
X79044257Y-358773410D01*
X79041766Y-358843235D01*
X79011791Y-358891761D01*
X78653553Y-359249999D01*
X78653553Y-359250000D01*
X79162076Y-359758523D01*
X79228348Y-359634537D01*
X79285531Y-359446032D01*
X79304838Y-359250000D01*
X79290065Y-359100000D01*
X100794353Y-359100000D01*
X100814834Y-359242456D01*
X100853275Y-359326628D01*
X100874623Y-359373373D01*
X100968872Y-359482143D01*
X101089947Y-359559953D01*
X101089950Y-359559954D01*
X101089949Y-359559954D01*
X101197107Y-359591417D01*
X101226336Y-359600000D01*
X101228036Y-359600499D01*
X101228038Y-359600500D01*
X101228039Y-359600500D01*
X101371962Y-359600500D01*
X101371962Y-359600499D01*
X101510053Y-359559953D01*
X101631128Y-359482143D01*
X101725377Y-359373373D01*
X101785165Y-359242457D01*
X101805647Y-359100000D01*
X102194353Y-359100000D01*
X102214834Y-359242456D01*
X102253275Y-359326628D01*
X102274623Y-359373373D01*
X102368872Y-359482143D01*
X102489947Y-359559953D01*
X102489950Y-359559954D01*
X102489949Y-359559954D01*
X102597107Y-359591417D01*
X102626336Y-359600000D01*
X102628036Y-359600499D01*
X102628038Y-359600500D01*
X102628039Y-359600500D01*
X102771962Y-359600500D01*
X102771962Y-359600499D01*
X102773661Y-359600000D01*
X107394353Y-359600000D01*
X107414834Y-359742456D01*
X107422172Y-359758523D01*
X107474623Y-359873373D01*
X107568872Y-359982143D01*
X107689947Y-360059953D01*
X107689950Y-360059954D01*
X107689949Y-360059954D01*
X107828036Y-360100499D01*
X107828038Y-360100500D01*
X107828039Y-360100500D01*
X107971962Y-360100500D01*
X107971962Y-360100499D01*
X108110053Y-360059953D01*
X108231128Y-359982143D01*
X108325377Y-359873373D01*
X108385165Y-359742457D01*
X108405647Y-359600000D01*
X108385165Y-359457543D01*
X108338447Y-359355247D01*
X127549500Y-359355247D01*
X127549500Y-360394752D01*
X127561131Y-360453229D01*
X127561132Y-360453230D01*
X127605447Y-360519552D01*
X127671769Y-360563867D01*
X127671770Y-360563868D01*
X127730247Y-360575499D01*
X127730250Y-360575500D01*
X127730252Y-360575500D01*
X128869750Y-360575500D01*
X128869751Y-360575499D01*
X128884568Y-360572552D01*
X128928229Y-360563868D01*
X128928229Y-360563867D01*
X128928231Y-360563867D01*
X128994552Y-360519552D01*
X129038867Y-360453231D01*
X129038867Y-360453229D01*
X129038868Y-360453229D01*
X129050499Y-360394752D01*
X129050500Y-360394750D01*
X129050500Y-359355249D01*
X129050499Y-359355247D01*
X129038868Y-359296770D01*
X129038867Y-359296769D01*
X128994552Y-359230448D01*
X128920404Y-359180903D01*
X128875600Y-359127290D01*
X128866893Y-359057965D01*
X128887247Y-359007360D01*
X128924818Y-358952930D01*
X128985140Y-358793872D01*
X129005645Y-358625000D01*
X128985140Y-358456128D01*
X128924818Y-358297070D01*
X128828183Y-358157071D01*
X128700852Y-358044266D01*
X128700849Y-358044263D01*
X128543585Y-357961724D01*
X128544218Y-357960517D01*
X128509544Y-357938097D01*
X128300001Y-357728553D01*
X128090452Y-357938100D01*
X128055782Y-357960519D01*
X128056415Y-357961725D01*
X127899150Y-358044264D01*
X127771816Y-358157072D01*
X127675182Y-358297068D01*
X127614860Y-358456125D01*
X127614859Y-358456130D01*
X127594355Y-358625000D01*
X127614859Y-358793869D01*
X127614860Y-358793874D01*
X127675182Y-358952931D01*
X127712753Y-359007361D01*
X127734636Y-359073715D01*
X127717171Y-359141367D01*
X127679595Y-359180902D01*
X127605448Y-359230446D01*
X127561132Y-359296769D01*
X127561131Y-359296770D01*
X127549500Y-359355247D01*
X108338447Y-359355247D01*
X108325377Y-359326627D01*
X108231128Y-359217857D01*
X108110053Y-359140047D01*
X108110051Y-359140046D01*
X108110049Y-359140045D01*
X108110050Y-359140045D01*
X107971963Y-359099500D01*
X107971961Y-359099500D01*
X107828039Y-359099500D01*
X107828036Y-359099500D01*
X107689949Y-359140045D01*
X107568873Y-359217856D01*
X107474623Y-359326626D01*
X107474622Y-359326628D01*
X107414834Y-359457543D01*
X107394353Y-359600000D01*
X102773661Y-359600000D01*
X102910053Y-359559953D01*
X103031128Y-359482143D01*
X103125377Y-359373373D01*
X103185165Y-359242457D01*
X103205647Y-359100000D01*
X103185165Y-358957543D01*
X103125377Y-358826627D01*
X103031128Y-358717857D01*
X102910053Y-358640047D01*
X102910051Y-358640046D01*
X102910049Y-358640045D01*
X102910050Y-358640045D01*
X102771963Y-358599500D01*
X102771961Y-358599500D01*
X102628039Y-358599500D01*
X102628036Y-358599500D01*
X102489949Y-358640045D01*
X102368873Y-358717856D01*
X102274623Y-358826626D01*
X102274622Y-358826628D01*
X102214834Y-358957543D01*
X102194353Y-359100000D01*
X101805647Y-359100000D01*
X101785165Y-358957543D01*
X101725377Y-358826627D01*
X101631128Y-358717857D01*
X101510053Y-358640047D01*
X101510051Y-358640046D01*
X101510049Y-358640045D01*
X101510050Y-358640045D01*
X101371963Y-358599500D01*
X101371961Y-358599500D01*
X101228039Y-358599500D01*
X101228036Y-358599500D01*
X101089949Y-358640045D01*
X100968873Y-358717856D01*
X100874623Y-358826626D01*
X100874622Y-358826628D01*
X100814834Y-358957543D01*
X100794353Y-359100000D01*
X79290065Y-359100000D01*
X79285531Y-359053967D01*
X79228348Y-358865462D01*
X79162075Y-358741475D01*
X79142666Y-358738596D01*
X79130434Y-358745276D01*
X79060742Y-358740289D01*
X79004810Y-358698416D01*
X78980396Y-358632951D01*
X78987297Y-358590371D01*
X78986485Y-358590210D01*
X79000499Y-358519752D01*
X79000500Y-358519750D01*
X79000500Y-358000000D01*
X101525114Y-358000000D01*
X101545595Y-358142456D01*
X101605383Y-358273371D01*
X101605384Y-358273373D01*
X101699633Y-358382143D01*
X101820708Y-358459953D01*
X101820711Y-358459954D01*
X101820710Y-358459954D01*
X101958797Y-358500499D01*
X101958799Y-358500500D01*
X101958800Y-358500500D01*
X102102723Y-358500500D01*
X102102723Y-358500499D01*
X102240814Y-358459953D01*
X102361889Y-358382143D01*
X102456138Y-358273373D01*
X102515926Y-358142457D01*
X102536408Y-358000000D01*
X102515926Y-357857543D01*
X102456138Y-357726627D01*
X102361889Y-357617857D01*
X102240814Y-357540047D01*
X102240812Y-357540046D01*
X102240810Y-357540045D01*
X102240811Y-357540045D01*
X102102724Y-357499500D01*
X102102722Y-357499500D01*
X101958800Y-357499500D01*
X101958797Y-357499500D01*
X101820710Y-357540045D01*
X101699634Y-357617856D01*
X101605384Y-357726626D01*
X101605383Y-357726628D01*
X101545595Y-357857543D01*
X101525114Y-358000000D01*
X79000500Y-358000000D01*
X79000500Y-357480249D01*
X79000499Y-357480247D01*
X78988868Y-357421770D01*
X78988867Y-357421769D01*
X78944552Y-357355447D01*
X78878230Y-357311132D01*
X78878229Y-357311131D01*
X78819752Y-357299500D01*
X78819748Y-357299500D01*
X77780252Y-357299500D01*
X77780247Y-357299500D01*
X77721770Y-357311131D01*
X77721769Y-357311132D01*
X77655447Y-357355447D01*
X77611132Y-357421769D01*
X77611131Y-357421770D01*
X77599500Y-357480247D01*
X77599500Y-358519752D01*
X77613515Y-358590210D01*
X77611971Y-358590517D01*
X77617950Y-358646128D01*
X77586675Y-358708607D01*
X77526586Y-358744259D01*
X77456761Y-358741765D01*
X77452736Y-358739279D01*
X77437923Y-358741476D01*
X77371649Y-358865466D01*
X77314468Y-359053967D01*
X77295161Y-359250000D01*
X73900500Y-359250000D01*
X73900500Y-357000000D01*
X103444353Y-357000000D01*
X103464834Y-357142456D01*
X103506361Y-357233386D01*
X103524623Y-357273373D01*
X103618872Y-357382143D01*
X103739947Y-357459953D01*
X103739950Y-357459954D01*
X103739949Y-357459954D01*
X103847107Y-357491417D01*
X103874633Y-357499500D01*
X103878036Y-357500499D01*
X103878038Y-357500500D01*
X103878039Y-357500500D01*
X104021962Y-357500500D01*
X104021962Y-357500499D01*
X104160053Y-357459953D01*
X104281128Y-357382143D01*
X104287317Y-357375000D01*
X127295161Y-357375000D01*
X127314468Y-357571032D01*
X127371651Y-357759537D01*
X127437923Y-357883522D01*
X127946447Y-357375000D01*
X127896719Y-357325272D01*
X128050000Y-357325272D01*
X128050000Y-357424728D01*
X128088060Y-357516614D01*
X128158386Y-357586940D01*
X128250272Y-357625000D01*
X128349728Y-357625000D01*
X128441614Y-357586940D01*
X128511940Y-357516614D01*
X128550000Y-357424728D01*
X128550000Y-357374999D01*
X128653553Y-357374999D01*
X128653553Y-357375000D01*
X129162076Y-357883523D01*
X129228348Y-357759537D01*
X129285531Y-357571032D01*
X129304838Y-357375000D01*
X129285531Y-357178967D01*
X129228348Y-356990462D01*
X129162075Y-356866476D01*
X128653553Y-357374999D01*
X128550000Y-357374999D01*
X128550000Y-357325272D01*
X128511940Y-357233386D01*
X128441614Y-357163060D01*
X128349728Y-357125000D01*
X128250272Y-357125000D01*
X128158386Y-357163060D01*
X128088060Y-357233386D01*
X128050000Y-357325272D01*
X127896719Y-357325272D01*
X127437923Y-356866476D01*
X127371649Y-356990466D01*
X127314468Y-357178967D01*
X127295161Y-357375000D01*
X104287317Y-357375000D01*
X104375377Y-357273373D01*
X104435165Y-357142457D01*
X104455647Y-357000000D01*
X104435165Y-356857543D01*
X104375377Y-356726627D01*
X104281128Y-356617857D01*
X104160053Y-356540047D01*
X104160051Y-356540046D01*
X104160049Y-356540045D01*
X104160050Y-356540045D01*
X104067679Y-356512923D01*
X127791476Y-356512923D01*
X128300000Y-357021447D01*
X128300001Y-357021447D01*
X128808522Y-356512923D01*
X128684537Y-356446651D01*
X128496030Y-356389468D01*
X128496034Y-356389468D01*
X128300000Y-356370161D01*
X128103967Y-356389468D01*
X127915466Y-356446649D01*
X127791476Y-356512923D01*
X104067679Y-356512923D01*
X104021963Y-356499500D01*
X104021961Y-356499500D01*
X103878039Y-356499500D01*
X103878036Y-356499500D01*
X103739949Y-356540045D01*
X103618873Y-356617856D01*
X103524623Y-356726626D01*
X103524622Y-356726628D01*
X103464834Y-356857543D01*
X103444353Y-357000000D01*
X73900500Y-357000000D01*
X73900500Y-355300000D01*
X98994353Y-355300000D01*
X99014834Y-355442456D01*
X99074622Y-355573371D01*
X99074623Y-355573373D01*
X99168872Y-355682143D01*
X99289947Y-355759953D01*
X99289950Y-355759954D01*
X99289949Y-355759954D01*
X99428036Y-355800499D01*
X99428038Y-355800500D01*
X99428039Y-355800500D01*
X99571962Y-355800500D01*
X99571962Y-355800499D01*
X99710053Y-355759953D01*
X99831128Y-355682143D01*
X99856288Y-355653106D01*
X99915065Y-355615333D01*
X99984935Y-355615333D01*
X100043711Y-355653106D01*
X100068872Y-355682143D01*
X100189947Y-355759953D01*
X100189950Y-355759954D01*
X100189949Y-355759954D01*
X100328036Y-355800499D01*
X100328038Y-355800500D01*
X100328039Y-355800500D01*
X100471962Y-355800500D01*
X100471962Y-355800499D01*
X100610053Y-355759953D01*
X100731128Y-355682143D01*
X100825377Y-355573373D01*
X100885165Y-355442457D01*
X100905647Y-355300000D01*
X100885165Y-355157543D01*
X100825377Y-355026627D01*
X100731128Y-354917857D01*
X100610053Y-354840047D01*
X100610051Y-354840046D01*
X100610049Y-354840045D01*
X100610050Y-354840045D01*
X100471963Y-354799500D01*
X100471961Y-354799500D01*
X100328039Y-354799500D01*
X100328036Y-354799500D01*
X100189949Y-354840045D01*
X100068872Y-354917856D01*
X100043712Y-354946893D01*
X99984933Y-354984667D01*
X99915064Y-354984666D01*
X99856288Y-354946893D01*
X99831127Y-354917856D01*
X99784502Y-354887892D01*
X99710053Y-354840047D01*
X99710051Y-354840046D01*
X99710049Y-354840045D01*
X99710050Y-354840045D01*
X99571963Y-354799500D01*
X99571961Y-354799500D01*
X99428039Y-354799500D01*
X99428036Y-354799500D01*
X99289949Y-354840045D01*
X99168873Y-354917856D01*
X99074623Y-355026626D01*
X99074622Y-355026628D01*
X99014834Y-355157543D01*
X98994353Y-355300000D01*
X73900500Y-355300000D01*
X73900500Y-353100000D01*
X81494353Y-353100000D01*
X81514834Y-353242456D01*
X81574622Y-353373371D01*
X81574623Y-353373373D01*
X81668872Y-353482143D01*
X81789947Y-353559953D01*
X81789950Y-353559954D01*
X81789949Y-353559954D01*
X81928036Y-353600499D01*
X81928038Y-353600500D01*
X81928039Y-353600500D01*
X82071962Y-353600500D01*
X82071962Y-353600499D01*
X82210053Y-353559953D01*
X82331128Y-353482143D01*
X82425377Y-353373373D01*
X82485165Y-353242457D01*
X82505647Y-353100000D01*
X82485165Y-352957543D01*
X82425377Y-352826627D01*
X82331128Y-352717857D01*
X82210053Y-352640047D01*
X82210051Y-352640046D01*
X82210049Y-352640045D01*
X82210050Y-352640045D01*
X82071963Y-352599500D01*
X82071961Y-352599500D01*
X81928039Y-352599500D01*
X81928036Y-352599500D01*
X81789949Y-352640045D01*
X81668873Y-352717856D01*
X81574623Y-352826626D01*
X81574622Y-352826628D01*
X81514834Y-352957543D01*
X81494353Y-353100000D01*
X73900500Y-353100000D01*
X73900500Y-351487075D01*
X77791476Y-351487075D01*
X77915462Y-351553348D01*
X78103969Y-351610531D01*
X78103965Y-351610531D01*
X78300000Y-351629838D01*
X78496032Y-351610531D01*
X78684537Y-351553348D01*
X78808523Y-351487076D01*
X78808523Y-351487075D01*
X78300001Y-350978553D01*
X78300000Y-350978553D01*
X77791476Y-351487075D01*
X73900500Y-351487075D01*
X73900500Y-350625000D01*
X77295161Y-350625000D01*
X77314468Y-350821032D01*
X77371651Y-351009537D01*
X77437923Y-351133522D01*
X77946447Y-350625000D01*
X77896719Y-350575272D01*
X78050000Y-350575272D01*
X78050000Y-350674728D01*
X78088060Y-350766614D01*
X78158386Y-350836940D01*
X78250272Y-350875000D01*
X78349728Y-350875000D01*
X78441614Y-350836940D01*
X78511940Y-350766614D01*
X78550000Y-350674728D01*
X78550000Y-350575272D01*
X78511940Y-350483386D01*
X78441614Y-350413060D01*
X78349728Y-350375000D01*
X78250272Y-350375000D01*
X78158386Y-350413060D01*
X78088060Y-350483386D01*
X78050000Y-350575272D01*
X77896719Y-350575272D01*
X77588207Y-350266760D01*
X77554722Y-350205437D01*
X77559706Y-350135745D01*
X77601578Y-350079812D01*
X77667042Y-350055395D01*
X77709628Y-350062296D01*
X77709790Y-350061485D01*
X77780247Y-350075499D01*
X77780250Y-350075500D01*
X78052691Y-350075500D01*
X78119730Y-350095185D01*
X78140372Y-350111819D01*
X78300000Y-350271447D01*
X78459628Y-350111819D01*
X78520951Y-350078334D01*
X78547309Y-350075500D01*
X78819750Y-350075500D01*
X78819751Y-350075499D01*
X78834485Y-350072568D01*
X78890210Y-350061485D01*
X78890517Y-350063029D01*
X78946122Y-350057049D01*
X79008603Y-350088322D01*
X79044257Y-350148410D01*
X79041766Y-350218235D01*
X79011791Y-350266761D01*
X78653553Y-350624999D01*
X78653553Y-350625000D01*
X79162076Y-351133523D01*
X79228348Y-351009537D01*
X79285531Y-350821032D01*
X79297451Y-350700000D01*
X98094353Y-350700000D01*
X98114834Y-350842456D01*
X98129697Y-350875000D01*
X98174623Y-350973373D01*
X98268872Y-351082143D01*
X98389947Y-351159953D01*
X98389950Y-351159954D01*
X98389949Y-351159954D01*
X98528036Y-351200499D01*
X98528038Y-351200500D01*
X98528039Y-351200500D01*
X98671962Y-351200500D01*
X98671962Y-351200499D01*
X98810053Y-351159953D01*
X98931128Y-351082143D01*
X99025377Y-350973373D01*
X99085165Y-350842457D01*
X99101298Y-350730247D01*
X127549500Y-350730247D01*
X127549500Y-351769752D01*
X127561131Y-351828229D01*
X127561132Y-351828230D01*
X127605447Y-351894552D01*
X127671769Y-351938867D01*
X127671770Y-351938868D01*
X127730247Y-351950499D01*
X127730250Y-351950500D01*
X127730252Y-351950500D01*
X128869750Y-351950500D01*
X128869751Y-351950499D01*
X128884568Y-351947552D01*
X128928229Y-351938868D01*
X128928229Y-351938867D01*
X128928231Y-351938867D01*
X128994552Y-351894552D01*
X129038867Y-351828231D01*
X129038867Y-351828229D01*
X129038868Y-351828229D01*
X129050499Y-351769752D01*
X129050500Y-351769750D01*
X129050500Y-350730249D01*
X129050499Y-350730247D01*
X129038868Y-350671770D01*
X129038867Y-350671769D01*
X128994552Y-350605448D01*
X128920404Y-350555903D01*
X128875600Y-350502290D01*
X128866893Y-350432965D01*
X128887247Y-350382360D01*
X128924818Y-350327930D01*
X128985140Y-350168872D01*
X129005645Y-350000000D01*
X128985140Y-349831128D01*
X128924818Y-349672070D01*
X128828183Y-349532071D01*
X128700852Y-349419266D01*
X128700849Y-349419263D01*
X128543585Y-349336724D01*
X128544218Y-349335517D01*
X128509544Y-349313097D01*
X128300001Y-349103553D01*
X128090452Y-349313100D01*
X128055782Y-349335519D01*
X128056415Y-349336725D01*
X127899150Y-349419264D01*
X127899148Y-349419266D01*
X127779781Y-349525016D01*
X127771816Y-349532072D01*
X127675182Y-349672068D01*
X127614860Y-349831125D01*
X127614859Y-349831130D01*
X127594355Y-350000000D01*
X127614859Y-350168869D01*
X127614860Y-350168874D01*
X127675182Y-350327931D01*
X127712753Y-350382361D01*
X127734636Y-350448715D01*
X127717171Y-350516367D01*
X127679595Y-350555902D01*
X127605448Y-350605446D01*
X127561132Y-350671769D01*
X127561131Y-350671770D01*
X127549500Y-350730247D01*
X99101298Y-350730247D01*
X99105647Y-350700000D01*
X99085165Y-350557543D01*
X99025377Y-350426627D01*
X98931128Y-350317857D01*
X98810053Y-350240047D01*
X98810051Y-350240046D01*
X98810049Y-350240045D01*
X98810050Y-350240045D01*
X98671963Y-350199500D01*
X98671961Y-350199500D01*
X98528039Y-350199500D01*
X98528036Y-350199500D01*
X98389949Y-350240045D01*
X98268873Y-350317856D01*
X98174623Y-350426626D01*
X98174622Y-350426628D01*
X98114834Y-350557543D01*
X98094353Y-350700000D01*
X79297451Y-350700000D01*
X79304838Y-350625000D01*
X79285531Y-350428967D01*
X79228348Y-350240462D01*
X79162075Y-350116475D01*
X79142666Y-350113596D01*
X79130434Y-350120276D01*
X79060742Y-350115289D01*
X79004810Y-350073416D01*
X78980396Y-350007951D01*
X78987297Y-349965371D01*
X78986485Y-349965210D01*
X79000499Y-349894752D01*
X79000500Y-349894750D01*
X79000500Y-349700000D01*
X109094353Y-349700000D01*
X109114834Y-349842456D01*
X109171035Y-349965517D01*
X109174623Y-349973373D01*
X109268872Y-350082143D01*
X109389947Y-350159953D01*
X109389950Y-350159954D01*
X109389949Y-350159954D01*
X109497107Y-350191417D01*
X109524633Y-350199500D01*
X109528036Y-350200499D01*
X109528038Y-350200500D01*
X109528039Y-350200500D01*
X109671962Y-350200500D01*
X109671962Y-350200499D01*
X109810053Y-350159953D01*
X109931128Y-350082143D01*
X110025377Y-349973373D01*
X110037206Y-349947470D01*
X110082960Y-349894668D01*
X110150000Y-349874983D01*
X110217039Y-349894667D01*
X110262793Y-349947470D01*
X110274623Y-349973373D01*
X110368872Y-350082143D01*
X110489947Y-350159953D01*
X110489950Y-350159954D01*
X110489949Y-350159954D01*
X110597107Y-350191417D01*
X110624633Y-350199500D01*
X110628036Y-350200499D01*
X110628038Y-350200500D01*
X110628039Y-350200500D01*
X110771962Y-350200500D01*
X110771962Y-350200499D01*
X110910053Y-350159953D01*
X111031128Y-350082143D01*
X111125377Y-349973373D01*
X111185165Y-349842457D01*
X111205647Y-349700000D01*
X111185165Y-349557543D01*
X111125377Y-349426627D01*
X111031128Y-349317857D01*
X110910053Y-349240047D01*
X110910051Y-349240046D01*
X110910049Y-349240045D01*
X110910050Y-349240045D01*
X110771963Y-349199500D01*
X110771961Y-349199500D01*
X110628039Y-349199500D01*
X110628036Y-349199500D01*
X110489949Y-349240045D01*
X110368873Y-349317856D01*
X110274623Y-349426626D01*
X110274622Y-349426628D01*
X110262794Y-349452528D01*
X110217039Y-349505332D01*
X110149999Y-349525016D01*
X110082960Y-349505331D01*
X110037206Y-349452528D01*
X110025377Y-349426628D01*
X110025376Y-349426626D01*
X110018996Y-349419263D01*
X109931128Y-349317857D01*
X109810053Y-349240047D01*
X109810051Y-349240046D01*
X109810049Y-349240045D01*
X109810050Y-349240045D01*
X109671963Y-349199500D01*
X109671961Y-349199500D01*
X109528039Y-349199500D01*
X109528036Y-349199500D01*
X109389949Y-349240045D01*
X109268873Y-349317856D01*
X109174623Y-349426626D01*
X109174622Y-349426628D01*
X109114834Y-349557543D01*
X109094353Y-349700000D01*
X79000500Y-349700000D01*
X79000500Y-349100000D01*
X95594353Y-349100000D01*
X95614834Y-349242456D01*
X95657335Y-349335519D01*
X95674623Y-349373373D01*
X95768872Y-349482143D01*
X95889947Y-349559953D01*
X95889950Y-349559954D01*
X95889949Y-349559954D01*
X96028036Y-349600499D01*
X96028038Y-349600500D01*
X96028039Y-349600500D01*
X96171962Y-349600500D01*
X96171962Y-349600499D01*
X96310053Y-349559953D01*
X96431128Y-349482143D01*
X96525377Y-349373373D01*
X96585165Y-349242457D01*
X96605647Y-349100000D01*
X97094353Y-349100000D01*
X97114834Y-349242456D01*
X97157335Y-349335519D01*
X97174623Y-349373373D01*
X97268872Y-349482143D01*
X97389947Y-349559953D01*
X97389950Y-349559954D01*
X97389949Y-349559954D01*
X97528036Y-349600499D01*
X97528038Y-349600500D01*
X97528039Y-349600500D01*
X97671962Y-349600500D01*
X97671962Y-349600499D01*
X97810053Y-349559953D01*
X97931128Y-349482143D01*
X98025377Y-349373373D01*
X98085165Y-349242457D01*
X98105647Y-349100000D01*
X98085165Y-348957543D01*
X98025377Y-348826627D01*
X97958980Y-348750000D01*
X127295161Y-348750000D01*
X127314468Y-348946032D01*
X127371651Y-349134537D01*
X127437923Y-349258522D01*
X127946447Y-348750000D01*
X127896719Y-348700272D01*
X128050000Y-348700272D01*
X128050000Y-348799728D01*
X128088060Y-348891614D01*
X128158386Y-348961940D01*
X128250272Y-349000000D01*
X128349728Y-349000000D01*
X128441614Y-348961940D01*
X128511940Y-348891614D01*
X128550000Y-348799728D01*
X128550000Y-348749999D01*
X128653553Y-348749999D01*
X128653553Y-348750000D01*
X129162076Y-349258523D01*
X129228348Y-349134537D01*
X129285531Y-348946032D01*
X129304838Y-348750000D01*
X129285531Y-348553967D01*
X129228348Y-348365462D01*
X129162075Y-348241476D01*
X128653553Y-348749999D01*
X128550000Y-348749999D01*
X128550000Y-348700272D01*
X128511940Y-348608386D01*
X128441614Y-348538060D01*
X128349728Y-348500000D01*
X128250272Y-348500000D01*
X128158386Y-348538060D01*
X128088060Y-348608386D01*
X128050000Y-348700272D01*
X127896719Y-348700272D01*
X127437923Y-348241476D01*
X127371649Y-348365466D01*
X127314468Y-348553967D01*
X127295161Y-348750000D01*
X97958980Y-348750000D01*
X97931128Y-348717857D01*
X97810053Y-348640047D01*
X97810051Y-348640046D01*
X97810049Y-348640045D01*
X97810050Y-348640045D01*
X97671963Y-348599500D01*
X97671961Y-348599500D01*
X97528039Y-348599500D01*
X97528036Y-348599500D01*
X97389949Y-348640045D01*
X97268873Y-348717856D01*
X97174623Y-348826626D01*
X97174622Y-348826628D01*
X97114834Y-348957543D01*
X97094353Y-349100000D01*
X96605647Y-349100000D01*
X96585165Y-348957543D01*
X96525377Y-348826627D01*
X96431128Y-348717857D01*
X96310053Y-348640047D01*
X96310051Y-348640046D01*
X96310049Y-348640045D01*
X96310050Y-348640045D01*
X96171963Y-348599500D01*
X96171961Y-348599500D01*
X96028039Y-348599500D01*
X96028036Y-348599500D01*
X95889949Y-348640045D01*
X95768873Y-348717856D01*
X95674623Y-348826626D01*
X95674622Y-348826628D01*
X95614834Y-348957543D01*
X95594353Y-349100000D01*
X79000500Y-349100000D01*
X79000500Y-348855249D01*
X79000499Y-348855247D01*
X78988868Y-348796770D01*
X78988867Y-348796769D01*
X78944552Y-348730447D01*
X78878230Y-348686132D01*
X78878229Y-348686131D01*
X78819752Y-348674500D01*
X78819748Y-348674500D01*
X77780252Y-348674500D01*
X77780247Y-348674500D01*
X77721770Y-348686131D01*
X77721769Y-348686132D01*
X77655447Y-348730447D01*
X77611132Y-348796769D01*
X77611131Y-348796770D01*
X77599500Y-348855247D01*
X77599500Y-349894752D01*
X77613515Y-349965210D01*
X77611971Y-349965517D01*
X77617950Y-350021128D01*
X77586675Y-350083607D01*
X77526586Y-350119259D01*
X77456761Y-350116765D01*
X77452736Y-350114279D01*
X77437923Y-350116476D01*
X77371649Y-350240466D01*
X77314468Y-350428967D01*
X77295161Y-350625000D01*
X73900500Y-350625000D01*
X73900500Y-346800000D01*
X90294353Y-346800000D01*
X90314834Y-346942456D01*
X90360373Y-347042170D01*
X90374623Y-347073373D01*
X90468872Y-347182143D01*
X90468874Y-347182144D01*
X90468876Y-347182146D01*
X90567744Y-347245685D01*
X90613499Y-347298488D01*
X90623443Y-347367647D01*
X90594418Y-347431203D01*
X90567744Y-347454315D01*
X90468876Y-347517853D01*
X90468874Y-347517855D01*
X90468872Y-347517856D01*
X90468872Y-347517857D01*
X90461274Y-347526626D01*
X90374623Y-347626626D01*
X90374622Y-347626628D01*
X90314834Y-347757543D01*
X90294353Y-347900000D01*
X90314834Y-348042456D01*
X90374622Y-348173371D01*
X90374623Y-348173373D01*
X90468872Y-348282143D01*
X90589947Y-348359953D01*
X90589950Y-348359954D01*
X90589949Y-348359954D01*
X90728036Y-348400499D01*
X90728038Y-348400500D01*
X90728039Y-348400500D01*
X90871962Y-348400500D01*
X90871962Y-348400499D01*
X91010053Y-348359953D01*
X91131128Y-348282143D01*
X91225377Y-348173373D01*
X91285165Y-348042457D01*
X91305647Y-347900000D01*
X91285165Y-347757543D01*
X91225377Y-347626627D01*
X91131128Y-347517857D01*
X91032253Y-347454314D01*
X90986500Y-347401512D01*
X90976556Y-347332354D01*
X91005581Y-347268798D01*
X91032254Y-347245685D01*
X91131128Y-347182143D01*
X91225377Y-347073373D01*
X91285165Y-346942457D01*
X91305647Y-346800000D01*
X91298458Y-346750000D01*
X100144353Y-346750000D01*
X100164834Y-346892456D01*
X100224622Y-347023371D01*
X100224623Y-347023373D01*
X100318872Y-347132143D01*
X100318874Y-347132144D01*
X100318873Y-347132144D01*
X100378844Y-347170685D01*
X100424598Y-347223489D01*
X100434542Y-347292647D01*
X100405517Y-347356203D01*
X100378844Y-347379315D01*
X100318874Y-347417855D01*
X100224623Y-347526626D01*
X100224622Y-347526628D01*
X100164834Y-347657543D01*
X100144353Y-347800000D01*
X100164834Y-347942456D01*
X100210504Y-348042457D01*
X100224623Y-348073373D01*
X100318872Y-348182143D01*
X100439947Y-348259953D01*
X100439950Y-348259954D01*
X100439949Y-348259954D01*
X100578036Y-348300499D01*
X100578038Y-348300500D01*
X100578039Y-348300500D01*
X100721962Y-348300500D01*
X100721962Y-348300499D01*
X100860053Y-348259953D01*
X100981128Y-348182143D01*
X101075377Y-348073373D01*
X101135165Y-347942457D01*
X101155647Y-347800000D01*
X101135165Y-347657543D01*
X101108886Y-347600000D01*
X101494353Y-347600000D01*
X101514834Y-347742456D01*
X101553275Y-347826628D01*
X101574623Y-347873373D01*
X101668872Y-347982143D01*
X101789947Y-348059953D01*
X101789950Y-348059954D01*
X101789949Y-348059954D01*
X101897107Y-348091417D01*
X101926336Y-348100000D01*
X101928036Y-348100499D01*
X101928038Y-348100500D01*
X101928039Y-348100500D01*
X102071962Y-348100500D01*
X102071962Y-348100499D01*
X102210053Y-348059953D01*
X102331128Y-347982143D01*
X102425377Y-347873373D01*
X102485165Y-347742457D01*
X102505647Y-347600000D01*
X102485165Y-347457543D01*
X102425377Y-347326627D01*
X102331128Y-347217857D01*
X102210053Y-347140047D01*
X102210051Y-347140046D01*
X102210049Y-347140045D01*
X102210050Y-347140045D01*
X102071963Y-347099500D01*
X102071961Y-347099500D01*
X101928039Y-347099500D01*
X101928036Y-347099500D01*
X101789949Y-347140045D01*
X101668873Y-347217856D01*
X101574623Y-347326626D01*
X101574622Y-347326628D01*
X101514834Y-347457543D01*
X101494353Y-347600000D01*
X101108886Y-347600000D01*
X101075377Y-347526627D01*
X100981128Y-347417857D01*
X100921154Y-347379314D01*
X100875401Y-347326512D01*
X100865457Y-347257354D01*
X100894482Y-347193798D01*
X100921155Y-347170685D01*
X100981128Y-347132143D01*
X101075377Y-347023373D01*
X101135165Y-346892457D01*
X101155647Y-346750000D01*
X101154562Y-346742457D01*
X101154518Y-346742146D01*
X101164462Y-346672987D01*
X101210218Y-346620184D01*
X101277256Y-346600500D01*
X101371962Y-346600500D01*
X101371962Y-346600499D01*
X101510053Y-346559953D01*
X101631128Y-346482143D01*
X101725377Y-346373373D01*
X101785165Y-346242457D01*
X101805647Y-346100000D01*
X101785165Y-345957543D01*
X101725377Y-345826627D01*
X101631128Y-345717857D01*
X101603342Y-345700000D01*
X104094353Y-345700000D01*
X104114834Y-345842456D01*
X104174622Y-345973371D01*
X104174623Y-345973373D01*
X104268872Y-346082143D01*
X104389947Y-346159953D01*
X104389950Y-346159954D01*
X104389949Y-346159954D01*
X104528036Y-346200499D01*
X104528038Y-346200500D01*
X104528039Y-346200500D01*
X104671957Y-346200500D01*
X104671961Y-346200500D01*
X104671964Y-346200498D01*
X104672214Y-346200463D01*
X104672471Y-346200500D01*
X104680830Y-346200500D01*
X104680830Y-346201701D01*
X104741373Y-346210403D01*
X104794180Y-346256155D01*
X104813868Y-346323193D01*
X104802663Y-346374711D01*
X104764834Y-346457544D01*
X104744353Y-346600000D01*
X104764834Y-346742456D01*
X104816501Y-346855589D01*
X104824623Y-346873373D01*
X104918872Y-346982143D01*
X105039947Y-347059953D01*
X105039950Y-347059954D01*
X105039949Y-347059954D01*
X105120262Y-347083536D01*
X105179041Y-347121310D01*
X105208066Y-347184865D01*
X105208066Y-347220159D01*
X105196516Y-347300500D01*
X105194353Y-347315544D01*
X105195947Y-347326628D01*
X105214834Y-347458000D01*
X105246176Y-347526628D01*
X105274623Y-347588917D01*
X105368872Y-347697687D01*
X105489947Y-347775497D01*
X105489950Y-347775498D01*
X105489949Y-347775498D01*
X105628036Y-347816043D01*
X105628038Y-347816044D01*
X105628039Y-347816044D01*
X105771961Y-347816044D01*
X105866552Y-347788270D01*
X105936419Y-347788270D01*
X105995198Y-347826044D01*
X106024223Y-347889600D01*
X106015746Y-347948570D01*
X106017333Y-347949036D01*
X106014834Y-347957542D01*
X105994353Y-348100000D01*
X106014834Y-348242456D01*
X106068494Y-348359953D01*
X106074623Y-348373373D01*
X106168872Y-348482143D01*
X106289947Y-348559953D01*
X106289950Y-348559954D01*
X106289949Y-348559954D01*
X106397107Y-348591417D01*
X106424633Y-348599500D01*
X106428036Y-348600499D01*
X106428038Y-348600500D01*
X106428039Y-348600500D01*
X106571962Y-348600500D01*
X106571962Y-348600499D01*
X106710053Y-348559953D01*
X106831128Y-348482143D01*
X106925377Y-348373373D01*
X106985165Y-348242457D01*
X107005647Y-348100000D01*
X106985165Y-347957543D01*
X106953370Y-347887923D01*
X127791476Y-347887923D01*
X128300000Y-348396447D01*
X128300001Y-348396447D01*
X128808522Y-347887923D01*
X128684537Y-347821651D01*
X128496030Y-347764468D01*
X128496034Y-347764468D01*
X128300000Y-347745161D01*
X128103967Y-347764468D01*
X127915466Y-347821649D01*
X127791476Y-347887923D01*
X106953370Y-347887923D01*
X106925377Y-347826627D01*
X106831128Y-347717857D01*
X106710053Y-347640047D01*
X106710051Y-347640046D01*
X106710049Y-347640045D01*
X106710050Y-347640045D01*
X106571963Y-347599500D01*
X106571961Y-347599500D01*
X106428039Y-347599500D01*
X106428035Y-347599500D01*
X106333448Y-347627273D01*
X106263578Y-347627273D01*
X106204800Y-347589498D01*
X106175776Y-347525942D01*
X106184254Y-347466974D01*
X106182667Y-347466508D01*
X106185165Y-347458001D01*
X106189018Y-347431203D01*
X106205647Y-347315544D01*
X106185165Y-347173087D01*
X106125377Y-347042171D01*
X106031128Y-346933401D01*
X105910053Y-346855591D01*
X105910050Y-346855589D01*
X105829736Y-346832007D01*
X105770958Y-346794232D01*
X105741933Y-346730677D01*
X105741933Y-346695383D01*
X105745153Y-346672987D01*
X105755647Y-346600000D01*
X105735165Y-346457543D01*
X105675377Y-346326627D01*
X105581128Y-346217857D01*
X105460053Y-346140047D01*
X105460051Y-346140046D01*
X105460049Y-346140045D01*
X105460050Y-346140045D01*
X105321963Y-346099500D01*
X105321961Y-346099500D01*
X105178039Y-346099500D01*
X105178034Y-346099500D01*
X105177770Y-346099538D01*
X105177506Y-346099500D01*
X105169170Y-346099500D01*
X105169170Y-346098300D01*
X105108612Y-346089590D01*
X105055811Y-346043832D01*
X105036131Y-345976791D01*
X105047337Y-345925287D01*
X105085165Y-345842456D01*
X105087441Y-345826626D01*
X105105647Y-345700000D01*
X105085165Y-345557543D01*
X105025377Y-345426627D01*
X104931128Y-345317857D01*
X104810053Y-345240047D01*
X104810051Y-345240046D01*
X104810049Y-345240045D01*
X104810050Y-345240045D01*
X104671963Y-345199500D01*
X104671961Y-345199500D01*
X104528039Y-345199500D01*
X104528036Y-345199500D01*
X104389949Y-345240045D01*
X104268873Y-345317856D01*
X104174623Y-345426626D01*
X104174622Y-345426628D01*
X104114834Y-345557543D01*
X104094353Y-345700000D01*
X101603342Y-345700000D01*
X101510053Y-345640047D01*
X101510051Y-345640046D01*
X101510049Y-345640045D01*
X101510050Y-345640045D01*
X101371963Y-345599500D01*
X101371961Y-345599500D01*
X101228039Y-345599500D01*
X101228036Y-345599500D01*
X101089949Y-345640045D01*
X100968873Y-345717856D01*
X100874623Y-345826626D01*
X100874622Y-345826628D01*
X100814834Y-345957543D01*
X100794353Y-346100000D01*
X100794353Y-346100001D01*
X100795482Y-346107854D01*
X100785538Y-346177013D01*
X100739782Y-346229816D01*
X100672744Y-346249500D01*
X100578036Y-346249500D01*
X100439949Y-346290045D01*
X100318873Y-346367856D01*
X100224623Y-346476626D01*
X100224622Y-346476628D01*
X100164834Y-346607543D01*
X100144353Y-346750000D01*
X91298458Y-346750000D01*
X91285165Y-346657543D01*
X91225377Y-346526627D01*
X91131128Y-346417857D01*
X91010053Y-346340047D01*
X91010051Y-346340046D01*
X91010049Y-346340045D01*
X91010050Y-346340045D01*
X90871963Y-346299500D01*
X90871961Y-346299500D01*
X90728039Y-346299500D01*
X90728036Y-346299500D01*
X90589949Y-346340045D01*
X90468873Y-346417856D01*
X90374623Y-346526626D01*
X90374622Y-346526628D01*
X90314834Y-346657543D01*
X90294353Y-346800000D01*
X73900500Y-346800000D01*
X73900500Y-344700000D01*
X99494353Y-344700000D01*
X99514834Y-344842456D01*
X99574622Y-344973371D01*
X99574623Y-344973373D01*
X99668872Y-345082143D01*
X99789947Y-345159953D01*
X99789950Y-345159954D01*
X99789949Y-345159954D01*
X99897107Y-345191417D01*
X99924633Y-345199500D01*
X99928036Y-345200499D01*
X99928038Y-345200500D01*
X99928039Y-345200500D01*
X100071962Y-345200500D01*
X100071962Y-345200499D01*
X100210053Y-345159953D01*
X100331128Y-345082143D01*
X100425377Y-344973373D01*
X100485165Y-344842457D01*
X100505647Y-344700000D01*
X100485165Y-344557543D01*
X100425377Y-344426627D01*
X100331128Y-344317857D01*
X100225540Y-344250000D01*
X102244353Y-344250000D01*
X102264834Y-344392456D01*
X102324622Y-344523371D01*
X102324623Y-344523373D01*
X102418872Y-344632143D01*
X102539947Y-344709953D01*
X102539950Y-344709954D01*
X102539949Y-344709954D01*
X102678036Y-344750499D01*
X102678038Y-344750500D01*
X102678039Y-344750500D01*
X102821962Y-344750500D01*
X102821962Y-344750499D01*
X102960053Y-344709953D01*
X103081128Y-344632143D01*
X103175377Y-344523373D01*
X103235165Y-344392457D01*
X103255647Y-344250000D01*
X103235165Y-344107543D01*
X103175377Y-343976627D01*
X103081128Y-343867857D01*
X102960053Y-343790047D01*
X102960051Y-343790046D01*
X102960049Y-343790045D01*
X102960050Y-343790045D01*
X102821963Y-343749500D01*
X102821961Y-343749500D01*
X102678039Y-343749500D01*
X102678036Y-343749500D01*
X102539949Y-343790045D01*
X102418873Y-343867856D01*
X102324623Y-343976626D01*
X102324622Y-343976628D01*
X102264834Y-344107543D01*
X102244353Y-344250000D01*
X100225540Y-344250000D01*
X100210053Y-344240047D01*
X100210051Y-344240046D01*
X100210049Y-344240045D01*
X100210050Y-344240045D01*
X100071963Y-344199500D01*
X100071961Y-344199500D01*
X99928039Y-344199500D01*
X99928036Y-344199500D01*
X99789949Y-344240045D01*
X99668873Y-344317856D01*
X99574623Y-344426626D01*
X99574622Y-344426628D01*
X99514834Y-344557543D01*
X99494353Y-344700000D01*
X73900500Y-344700000D01*
X73900500Y-342500000D01*
X99294353Y-342500000D01*
X99314834Y-342642456D01*
X99365175Y-342752685D01*
X99374623Y-342773373D01*
X99468872Y-342882143D01*
X99589947Y-342959953D01*
X99589950Y-342959954D01*
X99589949Y-342959954D01*
X99728036Y-343000499D01*
X99728038Y-343000500D01*
X99728039Y-343000500D01*
X99871962Y-343000500D01*
X99871962Y-343000499D01*
X100010053Y-342959953D01*
X100131128Y-342882143D01*
X100225377Y-342773373D01*
X100285165Y-342642457D01*
X100305647Y-342500000D01*
X100285165Y-342357543D01*
X100225377Y-342226627D01*
X100202305Y-342200000D01*
X101694353Y-342200000D01*
X101714834Y-342342456D01*
X101769178Y-342461450D01*
X101774623Y-342473373D01*
X101868872Y-342582143D01*
X101989947Y-342659953D01*
X101989950Y-342659954D01*
X101989949Y-342659954D01*
X102097107Y-342691417D01*
X102120788Y-342698371D01*
X102128036Y-342700499D01*
X102128038Y-342700500D01*
X102128039Y-342700500D01*
X102271962Y-342700500D01*
X102271962Y-342700499D01*
X102410053Y-342659953D01*
X102531128Y-342582143D01*
X102625377Y-342473373D01*
X102685165Y-342342457D01*
X102705647Y-342200000D01*
X102685165Y-342057543D01*
X102625377Y-341926627D01*
X102625376Y-341926626D01*
X102622719Y-341920807D01*
X102612775Y-341851648D01*
X102641800Y-341788093D01*
X102700578Y-341750318D01*
X102770448Y-341750318D01*
X102828038Y-341767228D01*
X102828039Y-341767228D01*
X102971962Y-341767228D01*
X102971962Y-341767227D01*
X103110053Y-341726681D01*
X103231128Y-341648871D01*
X103295137Y-341575000D01*
X106116204Y-341575000D01*
X106136685Y-341717456D01*
X106196473Y-341848371D01*
X106196474Y-341848373D01*
X106249548Y-341909624D01*
X106257497Y-341918798D01*
X106286521Y-341982354D01*
X106276577Y-342051512D01*
X106257497Y-342081202D01*
X106196474Y-342151627D01*
X106196473Y-342151628D01*
X106136685Y-342282543D01*
X106116204Y-342425000D01*
X106136685Y-342567456D01*
X106178928Y-342659953D01*
X106196474Y-342698373D01*
X106290723Y-342807143D01*
X106411798Y-342884953D01*
X106411801Y-342884954D01*
X106411800Y-342884954D01*
X106549887Y-342925499D01*
X106549889Y-342925500D01*
X106549890Y-342925500D01*
X106693813Y-342925500D01*
X106693813Y-342925499D01*
X106831904Y-342884953D01*
X106952979Y-342807143D01*
X107047228Y-342698373D01*
X107107016Y-342567457D01*
X107127498Y-342425000D01*
X107107016Y-342282543D01*
X107047228Y-342151627D01*
X106986204Y-342081201D01*
X106957180Y-342017647D01*
X106967124Y-341948489D01*
X106986202Y-341918800D01*
X107047228Y-341848373D01*
X107107016Y-341717457D01*
X107127498Y-341575000D01*
X107107016Y-341432543D01*
X107047228Y-341301627D01*
X106952979Y-341192857D01*
X106831904Y-341115047D01*
X106831902Y-341115046D01*
X106831900Y-341115045D01*
X106831901Y-341115045D01*
X106693814Y-341074500D01*
X106693812Y-341074500D01*
X106549890Y-341074500D01*
X106549887Y-341074500D01*
X106411800Y-341115045D01*
X106290724Y-341192856D01*
X106196474Y-341301626D01*
X106196473Y-341301628D01*
X106136685Y-341432543D01*
X106116204Y-341575000D01*
X103295137Y-341575000D01*
X103325377Y-341540101D01*
X103385165Y-341409185D01*
X103405647Y-341266728D01*
X103385165Y-341124271D01*
X103330808Y-341005247D01*
X126659500Y-341005247D01*
X126659500Y-342744752D01*
X126671131Y-342803229D01*
X126671132Y-342803230D01*
X126715447Y-342869552D01*
X126781769Y-342913867D01*
X126781770Y-342913868D01*
X126840247Y-342925499D01*
X126840250Y-342925500D01*
X126840252Y-342925500D01*
X128579750Y-342925500D01*
X128579751Y-342925499D01*
X128594568Y-342922552D01*
X128638229Y-342913868D01*
X128638229Y-342913867D01*
X128638231Y-342913867D01*
X128704552Y-342869552D01*
X128748867Y-342803231D01*
X128748867Y-342803229D01*
X128748868Y-342803229D01*
X128760499Y-342744752D01*
X128760500Y-342744750D01*
X128760500Y-341875000D01*
X129194417Y-341875000D01*
X129214699Y-342080932D01*
X129244734Y-342179944D01*
X129274768Y-342278954D01*
X129372315Y-342461450D01*
X129382100Y-342473373D01*
X129503589Y-342621410D01*
X129550555Y-342659953D01*
X129663550Y-342752685D01*
X129846046Y-342850232D01*
X130044066Y-342910300D01*
X130044065Y-342910300D01*
X130062529Y-342912118D01*
X130250000Y-342930583D01*
X130455934Y-342910300D01*
X130653954Y-342850232D01*
X130836450Y-342752685D01*
X130996410Y-342621410D01*
X131127685Y-342461450D01*
X131225232Y-342278954D01*
X131285300Y-342080934D01*
X131305583Y-341875000D01*
X131285300Y-341669066D01*
X131225232Y-341471046D01*
X131127685Y-341288550D01*
X131075702Y-341225209D01*
X130996410Y-341128589D01*
X130846121Y-341005252D01*
X130836450Y-340997315D01*
X130653954Y-340899768D01*
X130455934Y-340839700D01*
X130455932Y-340839699D01*
X130455934Y-340839699D01*
X130250000Y-340819417D01*
X130044067Y-340839699D01*
X129846043Y-340899769D01*
X129758114Y-340946769D01*
X129663550Y-340997315D01*
X129663548Y-340997316D01*
X129663547Y-340997317D01*
X129503589Y-341128589D01*
X129372317Y-341288547D01*
X129274769Y-341471043D01*
X129214699Y-341669067D01*
X129194417Y-341875000D01*
X128760500Y-341875000D01*
X128760500Y-341005249D01*
X128760499Y-341005247D01*
X128748868Y-340946770D01*
X128748867Y-340946769D01*
X128704552Y-340880447D01*
X128638230Y-340836132D01*
X128638229Y-340836131D01*
X128579752Y-340824500D01*
X128579748Y-340824500D01*
X126840252Y-340824500D01*
X126840247Y-340824500D01*
X126781770Y-340836131D01*
X126781769Y-340836132D01*
X126715447Y-340880447D01*
X126671132Y-340946769D01*
X126671131Y-340946770D01*
X126659500Y-341005247D01*
X103330808Y-341005247D01*
X103325377Y-340993355D01*
X103231128Y-340884585D01*
X103110053Y-340806775D01*
X103110051Y-340806774D01*
X103110049Y-340806773D01*
X103110050Y-340806773D01*
X102971963Y-340766228D01*
X102971961Y-340766228D01*
X102828039Y-340766228D01*
X102828036Y-340766228D01*
X102689949Y-340806773D01*
X102568873Y-340884584D01*
X102474623Y-340993354D01*
X102474622Y-340993356D01*
X102414834Y-341124271D01*
X102394353Y-341266728D01*
X102414834Y-341409184D01*
X102477280Y-341545920D01*
X102487224Y-341615079D01*
X102458199Y-341678635D01*
X102399421Y-341716409D01*
X102329552Y-341716409D01*
X102271964Y-341699500D01*
X102271961Y-341699500D01*
X102128039Y-341699500D01*
X102128036Y-341699500D01*
X101989949Y-341740045D01*
X101868873Y-341817856D01*
X101774623Y-341926626D01*
X101774622Y-341926628D01*
X101714834Y-342057543D01*
X101694353Y-342200000D01*
X100202305Y-342200000D01*
X100131128Y-342117857D01*
X100010053Y-342040047D01*
X100010051Y-342040046D01*
X100010049Y-342040045D01*
X100010050Y-342040045D01*
X99871963Y-341999500D01*
X99871961Y-341999500D01*
X99728039Y-341999500D01*
X99728036Y-341999500D01*
X99589949Y-342040045D01*
X99468873Y-342117856D01*
X99374623Y-342226626D01*
X99374622Y-342226628D01*
X99314834Y-342357543D01*
X99294353Y-342500000D01*
X73900500Y-342500000D01*
X73900500Y-340300000D01*
X104794353Y-340300000D01*
X104814834Y-340442456D01*
X104874622Y-340573371D01*
X104874623Y-340573373D01*
X104968872Y-340682143D01*
X105089947Y-340759953D01*
X105089950Y-340759954D01*
X105089949Y-340759954D01*
X105228036Y-340800499D01*
X105228038Y-340800500D01*
X105228039Y-340800500D01*
X105371962Y-340800500D01*
X105371962Y-340800499D01*
X105510053Y-340759953D01*
X105631128Y-340682143D01*
X105725377Y-340573373D01*
X105785165Y-340442457D01*
X105805647Y-340300000D01*
X105785165Y-340157543D01*
X105725377Y-340026627D01*
X105631128Y-339917857D01*
X105510053Y-339840047D01*
X105510051Y-339840046D01*
X105510049Y-339840045D01*
X105510050Y-339840045D01*
X105371963Y-339799500D01*
X105371961Y-339799500D01*
X105228039Y-339799500D01*
X105228036Y-339799500D01*
X105089949Y-339840045D01*
X104968873Y-339917856D01*
X104874623Y-340026626D01*
X104874622Y-340026628D01*
X104814834Y-340157543D01*
X104794353Y-340300000D01*
X73900500Y-340300000D01*
X73900500Y-339700000D01*
X114494353Y-339700000D01*
X114514834Y-339842456D01*
X114538679Y-339894668D01*
X114574623Y-339973373D01*
X114668872Y-340082143D01*
X114789947Y-340159953D01*
X114789950Y-340159954D01*
X114789949Y-340159954D01*
X114928036Y-340200499D01*
X114928038Y-340200500D01*
X114928039Y-340200500D01*
X115071962Y-340200500D01*
X115071962Y-340200499D01*
X115210053Y-340159953D01*
X115331128Y-340082143D01*
X115425377Y-339973373D01*
X115437206Y-339947470D01*
X115482960Y-339894668D01*
X115550000Y-339874983D01*
X115617039Y-339894667D01*
X115662793Y-339947470D01*
X115674623Y-339973373D01*
X115768872Y-340082143D01*
X115889947Y-340159953D01*
X115889950Y-340159954D01*
X115889949Y-340159954D01*
X116028036Y-340200499D01*
X116028038Y-340200500D01*
X116028039Y-340200500D01*
X116171962Y-340200500D01*
X116171962Y-340200499D01*
X116310053Y-340159953D01*
X116431128Y-340082143D01*
X116525377Y-339973373D01*
X116585165Y-339842457D01*
X116605647Y-339700000D01*
X116585165Y-339557543D01*
X116525377Y-339426627D01*
X116445982Y-339335000D01*
X126654417Y-339335000D01*
X126674699Y-339540932D01*
X126674700Y-339540934D01*
X126734768Y-339738954D01*
X126832315Y-339921450D01*
X126832317Y-339921452D01*
X126963589Y-340081410D01*
X127056359Y-340157543D01*
X127123550Y-340212685D01*
X127306046Y-340310232D01*
X127504066Y-340370300D01*
X127504065Y-340370300D01*
X127522529Y-340372118D01*
X127710000Y-340390583D01*
X127915934Y-340370300D01*
X128113954Y-340310232D01*
X128296450Y-340212685D01*
X128456410Y-340081410D01*
X128587685Y-339921450D01*
X128685232Y-339738954D01*
X128745300Y-339540934D01*
X128765583Y-339335000D01*
X129194417Y-339335000D01*
X129214699Y-339540932D01*
X129214700Y-339540934D01*
X129274768Y-339738954D01*
X129372315Y-339921450D01*
X129372317Y-339921452D01*
X129503589Y-340081410D01*
X129596359Y-340157543D01*
X129663550Y-340212685D01*
X129846046Y-340310232D01*
X130044066Y-340370300D01*
X130044065Y-340370300D01*
X130062529Y-340372118D01*
X130250000Y-340390583D01*
X130455934Y-340370300D01*
X130653954Y-340310232D01*
X130836450Y-340212685D01*
X130996410Y-340081410D01*
X131127685Y-339921450D01*
X131225232Y-339738954D01*
X131285300Y-339540934D01*
X131305583Y-339335000D01*
X131285300Y-339129066D01*
X131225232Y-338931046D01*
X131127685Y-338748550D01*
X131052998Y-338657543D01*
X130996410Y-338588589D01*
X130836452Y-338457317D01*
X130836453Y-338457317D01*
X130836450Y-338457315D01*
X130653954Y-338359768D01*
X130455934Y-338299700D01*
X130455932Y-338299699D01*
X130455934Y-338299699D01*
X130250000Y-338279417D01*
X130044067Y-338299699D01*
X129846043Y-338359769D01*
X129737372Y-338417856D01*
X129663550Y-338457315D01*
X129663548Y-338457316D01*
X129663547Y-338457317D01*
X129503589Y-338588589D01*
X129372317Y-338748547D01*
X129274769Y-338931043D01*
X129214699Y-339129067D01*
X129194417Y-339335000D01*
X128765583Y-339335000D01*
X128745300Y-339129066D01*
X128685232Y-338931046D01*
X128587685Y-338748550D01*
X128512998Y-338657543D01*
X128456410Y-338588589D01*
X128296452Y-338457317D01*
X128296453Y-338457317D01*
X128296450Y-338457315D01*
X128113954Y-338359768D01*
X127915934Y-338299700D01*
X127915932Y-338299699D01*
X127915934Y-338299699D01*
X127710000Y-338279417D01*
X127504067Y-338299699D01*
X127306043Y-338359769D01*
X127197372Y-338417856D01*
X127123550Y-338457315D01*
X127123548Y-338457316D01*
X127123547Y-338457317D01*
X126963589Y-338588589D01*
X126832317Y-338748547D01*
X126734769Y-338931043D01*
X126674699Y-339129067D01*
X126654417Y-339335000D01*
X116445982Y-339335000D01*
X116431128Y-339317857D01*
X116310053Y-339240047D01*
X116310051Y-339240046D01*
X116310049Y-339240045D01*
X116310050Y-339240045D01*
X116171963Y-339199500D01*
X116171961Y-339199500D01*
X116028039Y-339199500D01*
X116028036Y-339199500D01*
X115889949Y-339240045D01*
X115768873Y-339317856D01*
X115674623Y-339426626D01*
X115674622Y-339426628D01*
X115662794Y-339452528D01*
X115617039Y-339505332D01*
X115549999Y-339525016D01*
X115482960Y-339505331D01*
X115437206Y-339452528D01*
X115425377Y-339426628D01*
X115425376Y-339426626D01*
X115331128Y-339317857D01*
X115210053Y-339240047D01*
X115210051Y-339240046D01*
X115210049Y-339240045D01*
X115210050Y-339240045D01*
X115071963Y-339199500D01*
X115071961Y-339199500D01*
X114928039Y-339199500D01*
X114928036Y-339199500D01*
X114789949Y-339240045D01*
X114668873Y-339317856D01*
X114574623Y-339426626D01*
X114574622Y-339426628D01*
X114514834Y-339557543D01*
X114494353Y-339700000D01*
X73900500Y-339700000D01*
X73900500Y-337600000D01*
X93494353Y-337600000D01*
X93514834Y-337742456D01*
X93564215Y-337850583D01*
X93574623Y-337873373D01*
X93668872Y-337982143D01*
X93746683Y-338032148D01*
X93789948Y-338059954D01*
X93861704Y-338081023D01*
X93920482Y-338118797D01*
X93949507Y-338182353D01*
X93939563Y-338251511D01*
X93893809Y-338304315D01*
X93861704Y-338318977D01*
X93789948Y-338340045D01*
X93668873Y-338417856D01*
X93574623Y-338526626D01*
X93574622Y-338526628D01*
X93514834Y-338657543D01*
X93494353Y-338800000D01*
X93514834Y-338942456D01*
X93574622Y-339073371D01*
X93574623Y-339073373D01*
X93668872Y-339182143D01*
X93789947Y-339259953D01*
X93789950Y-339259954D01*
X93789949Y-339259954D01*
X93928036Y-339300499D01*
X93928038Y-339300500D01*
X93928039Y-339300500D01*
X94071962Y-339300500D01*
X94071962Y-339300499D01*
X94210053Y-339259953D01*
X94331128Y-339182143D01*
X94425377Y-339073373D01*
X94485165Y-338942457D01*
X94505647Y-338800000D01*
X94485165Y-338657543D01*
X94425377Y-338526627D01*
X94331128Y-338417857D01*
X94210053Y-338340047D01*
X94210051Y-338340046D01*
X94210049Y-338340045D01*
X94210050Y-338340045D01*
X94138296Y-338318977D01*
X94079518Y-338281203D01*
X94050492Y-338217648D01*
X94060435Y-338148489D01*
X94106190Y-338095685D01*
X94138296Y-338081023D01*
X94210050Y-338059954D01*
X94210050Y-338059953D01*
X94210053Y-338059953D01*
X94331128Y-337982143D01*
X94425377Y-337873373D01*
X94485165Y-337742457D01*
X94505647Y-337600000D01*
X94485165Y-337457543D01*
X94425377Y-337326627D01*
X94331128Y-337217857D01*
X94210053Y-337140047D01*
X94210051Y-337140046D01*
X94210049Y-337140045D01*
X94210050Y-337140045D01*
X94071963Y-337099500D01*
X94071961Y-337099500D01*
X93928039Y-337099500D01*
X93928036Y-337099500D01*
X93789949Y-337140045D01*
X93668873Y-337217856D01*
X93574623Y-337326626D01*
X93574622Y-337326628D01*
X93514834Y-337457543D01*
X93494353Y-337600000D01*
X73900500Y-337600000D01*
X73900500Y-336800000D01*
X103894353Y-336800000D01*
X103914834Y-336942456D01*
X103941540Y-337000932D01*
X103974623Y-337073373D01*
X104068872Y-337182143D01*
X104189947Y-337259953D01*
X104189950Y-337259954D01*
X104189949Y-337259954D01*
X104328036Y-337300499D01*
X104328038Y-337300500D01*
X104328039Y-337300500D01*
X104471962Y-337300500D01*
X104471962Y-337300499D01*
X104610053Y-337259953D01*
X104731128Y-337182143D01*
X104825377Y-337073373D01*
X104885165Y-336942457D01*
X104905647Y-336800000D01*
X104904928Y-336795000D01*
X126654417Y-336795000D01*
X126674699Y-337000932D01*
X126674700Y-337000934D01*
X126734768Y-337198954D01*
X126832315Y-337381450D01*
X126832317Y-337381452D01*
X126963589Y-337541410D01*
X127060209Y-337620702D01*
X127123550Y-337672685D01*
X127306046Y-337770232D01*
X127504066Y-337830300D01*
X127504065Y-337830300D01*
X127522529Y-337832118D01*
X127710000Y-337850583D01*
X127915934Y-337830300D01*
X128113954Y-337770232D01*
X128296450Y-337672685D01*
X128456410Y-337541410D01*
X128587685Y-337381450D01*
X128685232Y-337198954D01*
X128745300Y-337000934D01*
X128765583Y-336795000D01*
X129194417Y-336795000D01*
X129214699Y-337000932D01*
X129214700Y-337000934D01*
X129274768Y-337198954D01*
X129372315Y-337381450D01*
X129372317Y-337381452D01*
X129503589Y-337541410D01*
X129600209Y-337620702D01*
X129663550Y-337672685D01*
X129846046Y-337770232D01*
X130044066Y-337830300D01*
X130044065Y-337830300D01*
X130062529Y-337832118D01*
X130250000Y-337850583D01*
X130455934Y-337830300D01*
X130653954Y-337770232D01*
X130836450Y-337672685D01*
X130996410Y-337541410D01*
X131127685Y-337381450D01*
X131225232Y-337198954D01*
X131285300Y-337000934D01*
X131305583Y-336795000D01*
X131285300Y-336589066D01*
X131225232Y-336391046D01*
X131127685Y-336208550D01*
X131075702Y-336145209D01*
X130996410Y-336048589D01*
X130836452Y-335917317D01*
X130836453Y-335917317D01*
X130836450Y-335917315D01*
X130653954Y-335819768D01*
X130455934Y-335759700D01*
X130455932Y-335759699D01*
X130455934Y-335759699D01*
X130250000Y-335739417D01*
X130044067Y-335759699D01*
X129846043Y-335819769D01*
X129735898Y-335878643D01*
X129663550Y-335917315D01*
X129663548Y-335917316D01*
X129663547Y-335917317D01*
X129503589Y-336048589D01*
X129372317Y-336208547D01*
X129274769Y-336391043D01*
X129214699Y-336589067D01*
X129194417Y-336795000D01*
X128765583Y-336795000D01*
X128745300Y-336589066D01*
X128685232Y-336391046D01*
X128587685Y-336208550D01*
X128535702Y-336145209D01*
X128456410Y-336048589D01*
X128296452Y-335917317D01*
X128296453Y-335917317D01*
X128296450Y-335917315D01*
X128113954Y-335819768D01*
X127915934Y-335759700D01*
X127915932Y-335759699D01*
X127915934Y-335759699D01*
X127710000Y-335739417D01*
X127504067Y-335759699D01*
X127306043Y-335819769D01*
X127195898Y-335878643D01*
X127123550Y-335917315D01*
X127123548Y-335917316D01*
X127123547Y-335917317D01*
X126963589Y-336048589D01*
X126832317Y-336208547D01*
X126734769Y-336391043D01*
X126674699Y-336589067D01*
X126654417Y-336795000D01*
X104904928Y-336795000D01*
X104885165Y-336657543D01*
X104825377Y-336526627D01*
X104731128Y-336417857D01*
X104610053Y-336340047D01*
X104610051Y-336340046D01*
X104610049Y-336340045D01*
X104610050Y-336340045D01*
X104471963Y-336299500D01*
X104471961Y-336299500D01*
X104328039Y-336299500D01*
X104328036Y-336299500D01*
X104189949Y-336340045D01*
X104068873Y-336417856D01*
X103974623Y-336526626D01*
X103974622Y-336526628D01*
X103914834Y-336657543D01*
X103894353Y-336800000D01*
X73900500Y-336800000D01*
X73900500Y-334255000D01*
X126654417Y-334255000D01*
X126674699Y-334460932D01*
X126674700Y-334460934D01*
X126734768Y-334658954D01*
X126832315Y-334841450D01*
X126832317Y-334841452D01*
X126963589Y-335001410D01*
X127060209Y-335080702D01*
X127123550Y-335132685D01*
X127306046Y-335230232D01*
X127504066Y-335290300D01*
X127504065Y-335290300D01*
X127522529Y-335292118D01*
X127710000Y-335310583D01*
X127915934Y-335290300D01*
X128113954Y-335230232D01*
X128296450Y-335132685D01*
X128456410Y-335001410D01*
X128587685Y-334841450D01*
X128685232Y-334658954D01*
X128745300Y-334460934D01*
X128765583Y-334255000D01*
X129194417Y-334255000D01*
X129214699Y-334460932D01*
X129214700Y-334460934D01*
X129274768Y-334658954D01*
X129372315Y-334841450D01*
X129372317Y-334841452D01*
X129503589Y-335001410D01*
X129600209Y-335080702D01*
X129663550Y-335132685D01*
X129846046Y-335230232D01*
X130044066Y-335290300D01*
X130044065Y-335290300D01*
X130062529Y-335292118D01*
X130250000Y-335310583D01*
X130455934Y-335290300D01*
X130653954Y-335230232D01*
X130836450Y-335132685D01*
X130996410Y-335001410D01*
X131127685Y-334841450D01*
X131225232Y-334658954D01*
X131285300Y-334460934D01*
X131305583Y-334255000D01*
X131285300Y-334049066D01*
X131225232Y-333851046D01*
X131127685Y-333668550D01*
X131075702Y-333605209D01*
X130996410Y-333508589D01*
X130836452Y-333377317D01*
X130836453Y-333377317D01*
X130836450Y-333377315D01*
X130653954Y-333279768D01*
X130455934Y-333219700D01*
X130455932Y-333219699D01*
X130455934Y-333219699D01*
X130250000Y-333199417D01*
X130044067Y-333219699D01*
X129846043Y-333279769D01*
X129735898Y-333338643D01*
X129663550Y-333377315D01*
X129663548Y-333377316D01*
X129663547Y-333377317D01*
X129503589Y-333508589D01*
X129372317Y-333668547D01*
X129274769Y-333851043D01*
X129214699Y-334049067D01*
X129194417Y-334255000D01*
X128765583Y-334255000D01*
X128745300Y-334049066D01*
X128685232Y-333851046D01*
X128587685Y-333668550D01*
X128535702Y-333605209D01*
X128456410Y-333508589D01*
X128296452Y-333377317D01*
X128296453Y-333377317D01*
X128296450Y-333377315D01*
X128113954Y-333279768D01*
X127915934Y-333219700D01*
X127915932Y-333219699D01*
X127915934Y-333219699D01*
X127710000Y-333199417D01*
X127504067Y-333219699D01*
X127306043Y-333279769D01*
X127195898Y-333338643D01*
X127123550Y-333377315D01*
X127123548Y-333377316D01*
X127123547Y-333377317D01*
X126963589Y-333508589D01*
X126832317Y-333668547D01*
X126734769Y-333851043D01*
X126674699Y-334049067D01*
X126654417Y-334255000D01*
X73900500Y-334255000D01*
X73900500Y-331300000D01*
X89694353Y-331300000D01*
X89714834Y-331442456D01*
X89745255Y-331509067D01*
X89774623Y-331573373D01*
X89868872Y-331682143D01*
X89989947Y-331759953D01*
X89989950Y-331759954D01*
X89989949Y-331759954D01*
X90128036Y-331800499D01*
X90128038Y-331800500D01*
X90128039Y-331800500D01*
X90271962Y-331800500D01*
X90271962Y-331800499D01*
X90410053Y-331759953D01*
X90480001Y-331715000D01*
X126654417Y-331715000D01*
X126674699Y-331920932D01*
X126674700Y-331920934D01*
X126734768Y-332118954D01*
X126832315Y-332301450D01*
X126832317Y-332301452D01*
X126963589Y-332461410D01*
X127060209Y-332540702D01*
X127123550Y-332592685D01*
X127306046Y-332690232D01*
X127504066Y-332750300D01*
X127504065Y-332750300D01*
X127522529Y-332752118D01*
X127710000Y-332770583D01*
X127915934Y-332750300D01*
X128113954Y-332690232D01*
X128296450Y-332592685D01*
X128456410Y-332461410D01*
X128587685Y-332301450D01*
X128685232Y-332118954D01*
X128745300Y-331920934D01*
X128765583Y-331715000D01*
X129194417Y-331715000D01*
X129214699Y-331920932D01*
X129214700Y-331920934D01*
X129274768Y-332118954D01*
X129372315Y-332301450D01*
X129372317Y-332301452D01*
X129503589Y-332461410D01*
X129600209Y-332540702D01*
X129663550Y-332592685D01*
X129846046Y-332690232D01*
X130044066Y-332750300D01*
X130044065Y-332750300D01*
X130062529Y-332752118D01*
X130250000Y-332770583D01*
X130455934Y-332750300D01*
X130653954Y-332690232D01*
X130836450Y-332592685D01*
X130996410Y-332461410D01*
X131127685Y-332301450D01*
X131225232Y-332118954D01*
X131285300Y-331920934D01*
X131305583Y-331715000D01*
X131285300Y-331509066D01*
X131225232Y-331311046D01*
X131127685Y-331128550D01*
X131069411Y-331057543D01*
X130996410Y-330968589D01*
X130839779Y-330840047D01*
X130836450Y-330837315D01*
X130653954Y-330739768D01*
X130455934Y-330679700D01*
X130455932Y-330679699D01*
X130455934Y-330679699D01*
X130250000Y-330659417D01*
X130044067Y-330679699D01*
X129846043Y-330739769D01*
X129735898Y-330798643D01*
X129663550Y-330837315D01*
X129663548Y-330837316D01*
X129663547Y-330837317D01*
X129503589Y-330968589D01*
X129372317Y-331128547D01*
X129274769Y-331311043D01*
X129214699Y-331509067D01*
X129194417Y-331715000D01*
X128765583Y-331715000D01*
X128745300Y-331509066D01*
X128685232Y-331311046D01*
X128587685Y-331128550D01*
X128529411Y-331057543D01*
X128456410Y-330968589D01*
X128299779Y-330840047D01*
X128296450Y-330837315D01*
X128113954Y-330739768D01*
X127915934Y-330679700D01*
X127915932Y-330679699D01*
X127915934Y-330679699D01*
X127710000Y-330659417D01*
X127504067Y-330679699D01*
X127306043Y-330739769D01*
X127195898Y-330798643D01*
X127123550Y-330837315D01*
X127123548Y-330837316D01*
X127123547Y-330837317D01*
X126963589Y-330968589D01*
X126832317Y-331128547D01*
X126734769Y-331311043D01*
X126674699Y-331509067D01*
X126654417Y-331715000D01*
X90480001Y-331715000D01*
X90531128Y-331682143D01*
X90625377Y-331573373D01*
X90685165Y-331442457D01*
X90705647Y-331300000D01*
X90691269Y-331200000D01*
X111494353Y-331200000D01*
X111514834Y-331342456D01*
X111560504Y-331442457D01*
X111574623Y-331473373D01*
X111668872Y-331582143D01*
X111789947Y-331659953D01*
X111789950Y-331659954D01*
X111789949Y-331659954D01*
X111928036Y-331700499D01*
X111928038Y-331700500D01*
X111928039Y-331700500D01*
X112071962Y-331700500D01*
X112071962Y-331700499D01*
X112210053Y-331659953D01*
X112331128Y-331582143D01*
X112425377Y-331473373D01*
X112485165Y-331342457D01*
X112505647Y-331200000D01*
X112485165Y-331057543D01*
X112425377Y-330926627D01*
X112331128Y-330817857D01*
X112210053Y-330740047D01*
X112210051Y-330740046D01*
X112210049Y-330740045D01*
X112210050Y-330740045D01*
X112071963Y-330699500D01*
X112071961Y-330699500D01*
X111928039Y-330699500D01*
X111928036Y-330699500D01*
X111789949Y-330740045D01*
X111668873Y-330817856D01*
X111574623Y-330926626D01*
X111574622Y-330926628D01*
X111514834Y-331057543D01*
X111494353Y-331200000D01*
X90691269Y-331200000D01*
X90685165Y-331157543D01*
X90625377Y-331026627D01*
X90531128Y-330917857D01*
X90410053Y-330840047D01*
X90410051Y-330840046D01*
X90410049Y-330840045D01*
X90410050Y-330840045D01*
X90271963Y-330799500D01*
X90271961Y-330799500D01*
X90128039Y-330799500D01*
X90128036Y-330799500D01*
X89989949Y-330840045D01*
X89868873Y-330917856D01*
X89774623Y-331026626D01*
X89774622Y-331026628D01*
X89714834Y-331157543D01*
X89694353Y-331300000D01*
X73900500Y-331300000D01*
X73900500Y-329100000D01*
X79294353Y-329100000D01*
X79314834Y-329242456D01*
X79374622Y-329373371D01*
X79374623Y-329373373D01*
X79424063Y-329430430D01*
X79457308Y-329468798D01*
X79486332Y-329532354D01*
X79476388Y-329601512D01*
X79457308Y-329631202D01*
X79374623Y-329726627D01*
X79374622Y-329726628D01*
X79314834Y-329857543D01*
X79294353Y-330000000D01*
X79314834Y-330142456D01*
X79345818Y-330210300D01*
X79374623Y-330273373D01*
X79468872Y-330382143D01*
X79589947Y-330459953D01*
X79589950Y-330459954D01*
X79589949Y-330459954D01*
X79728036Y-330500499D01*
X79728038Y-330500500D01*
X79728039Y-330500500D01*
X79871962Y-330500500D01*
X79871962Y-330500499D01*
X80010053Y-330459953D01*
X80131128Y-330382143D01*
X80206287Y-330295403D01*
X80265064Y-330257629D01*
X80334934Y-330257629D01*
X80393711Y-330295402D01*
X80468872Y-330382143D01*
X80589947Y-330459953D01*
X80589950Y-330459954D01*
X80589949Y-330459954D01*
X80728036Y-330500499D01*
X80728038Y-330500500D01*
X80728039Y-330500500D01*
X80871962Y-330500500D01*
X80871962Y-330500499D01*
X81010053Y-330459953D01*
X81131128Y-330382143D01*
X81206287Y-330295403D01*
X81265064Y-330257629D01*
X81334934Y-330257629D01*
X81393711Y-330295402D01*
X81468872Y-330382143D01*
X81589947Y-330459953D01*
X81589950Y-330459954D01*
X81589949Y-330459954D01*
X81728036Y-330500499D01*
X81728038Y-330500500D01*
X81728039Y-330500500D01*
X81871962Y-330500500D01*
X81871962Y-330500499D01*
X82010053Y-330459953D01*
X82131128Y-330382143D01*
X82225377Y-330273373D01*
X82285165Y-330142457D01*
X82305647Y-330000000D01*
X82285165Y-329857543D01*
X82225377Y-329726627D01*
X82142689Y-329631199D01*
X82113666Y-329567647D01*
X82123610Y-329498489D01*
X82142687Y-329468802D01*
X82202304Y-329400000D01*
X112294353Y-329400000D01*
X112314834Y-329542456D01*
X112349269Y-329617857D01*
X112374623Y-329673373D01*
X112468872Y-329782143D01*
X112589947Y-329859953D01*
X112589950Y-329859954D01*
X112589949Y-329859954D01*
X112728036Y-329900499D01*
X112728038Y-329900500D01*
X112728039Y-329900500D01*
X112871962Y-329900500D01*
X112871962Y-329900499D01*
X113010053Y-329859953D01*
X113131128Y-329782143D01*
X113225377Y-329673373D01*
X113285165Y-329542457D01*
X113305647Y-329400000D01*
X113285165Y-329257543D01*
X113247468Y-329175000D01*
X126654417Y-329175000D01*
X126674699Y-329380932D01*
X126701353Y-329468797D01*
X126734768Y-329578954D01*
X126832315Y-329761450D01*
X126832317Y-329761452D01*
X126963589Y-329921410D01*
X127011493Y-329960723D01*
X127123550Y-330052685D01*
X127306046Y-330150232D01*
X127504066Y-330210300D01*
X127504065Y-330210300D01*
X127522529Y-330212118D01*
X127710000Y-330230583D01*
X127915934Y-330210300D01*
X128113954Y-330150232D01*
X128296450Y-330052685D01*
X128456410Y-329921410D01*
X128587685Y-329761450D01*
X128685232Y-329578954D01*
X128745300Y-329380934D01*
X128765583Y-329175000D01*
X129194417Y-329175000D01*
X129214699Y-329380932D01*
X129241353Y-329468797D01*
X129274768Y-329578954D01*
X129372315Y-329761450D01*
X129372317Y-329761452D01*
X129503589Y-329921410D01*
X129551493Y-329960723D01*
X129663550Y-330052685D01*
X129846046Y-330150232D01*
X130044066Y-330210300D01*
X130044065Y-330210300D01*
X130062529Y-330212118D01*
X130250000Y-330230583D01*
X130455934Y-330210300D01*
X130653954Y-330150232D01*
X130836450Y-330052685D01*
X130996410Y-329921410D01*
X131127685Y-329761450D01*
X131225232Y-329578954D01*
X131285300Y-329380934D01*
X131305583Y-329175000D01*
X131285300Y-328969066D01*
X131225232Y-328771046D01*
X131127685Y-328588550D01*
X131075702Y-328525209D01*
X130996410Y-328428589D01*
X130836452Y-328297317D01*
X130836453Y-328297317D01*
X130836450Y-328297315D01*
X130653954Y-328199768D01*
X130455934Y-328139700D01*
X130455932Y-328139699D01*
X130455934Y-328139699D01*
X130250000Y-328119417D01*
X130044067Y-328139699D01*
X129846043Y-328199769D01*
X129735898Y-328258643D01*
X129663550Y-328297315D01*
X129663548Y-328297316D01*
X129663547Y-328297317D01*
X129503589Y-328428589D01*
X129372317Y-328588547D01*
X129274769Y-328771043D01*
X129214699Y-328969067D01*
X129194417Y-329175000D01*
X128765583Y-329175000D01*
X128745300Y-328969066D01*
X128685232Y-328771046D01*
X128587685Y-328588550D01*
X128535702Y-328525209D01*
X128456410Y-328428589D01*
X128296452Y-328297317D01*
X128296453Y-328297317D01*
X128296450Y-328297315D01*
X128113954Y-328199768D01*
X127915934Y-328139700D01*
X127915932Y-328139699D01*
X127915934Y-328139699D01*
X127710000Y-328119417D01*
X127504067Y-328139699D01*
X127306043Y-328199769D01*
X127195898Y-328258643D01*
X127123550Y-328297315D01*
X127123548Y-328297316D01*
X127123547Y-328297317D01*
X126963589Y-328428589D01*
X126832317Y-328588547D01*
X126734769Y-328771043D01*
X126674699Y-328969067D01*
X126654417Y-329175000D01*
X113247468Y-329175000D01*
X113225377Y-329126627D01*
X113131128Y-329017857D01*
X113010053Y-328940047D01*
X113010051Y-328940046D01*
X113010049Y-328940045D01*
X113010050Y-328940045D01*
X112871963Y-328899500D01*
X112871961Y-328899500D01*
X112728039Y-328899500D01*
X112728036Y-328899500D01*
X112589949Y-328940045D01*
X112468873Y-329017856D01*
X112374623Y-329126626D01*
X112374622Y-329126628D01*
X112314834Y-329257543D01*
X112294353Y-329400000D01*
X82202304Y-329400000D01*
X82225377Y-329373373D01*
X82285165Y-329242457D01*
X82305647Y-329100000D01*
X82285165Y-328957543D01*
X82225377Y-328826627D01*
X82131128Y-328717857D01*
X82010053Y-328640047D01*
X82010051Y-328640046D01*
X82010049Y-328640045D01*
X82010050Y-328640045D01*
X81871963Y-328599500D01*
X81871961Y-328599500D01*
X81728039Y-328599500D01*
X81728036Y-328599500D01*
X81589949Y-328640045D01*
X81468873Y-328717856D01*
X81468872Y-328717856D01*
X81468872Y-328717857D01*
X81422787Y-328771043D01*
X81393713Y-328804596D01*
X81334935Y-328842370D01*
X81265065Y-328842370D01*
X81206287Y-328804596D01*
X81177216Y-328771046D01*
X81131128Y-328717857D01*
X81010053Y-328640047D01*
X81010051Y-328640046D01*
X81010049Y-328640045D01*
X81010050Y-328640045D01*
X80871963Y-328599500D01*
X80871961Y-328599500D01*
X80728039Y-328599500D01*
X80728036Y-328599500D01*
X80589949Y-328640045D01*
X80468873Y-328717856D01*
X80468872Y-328717856D01*
X80468872Y-328717857D01*
X80422787Y-328771043D01*
X80393713Y-328804596D01*
X80334935Y-328842370D01*
X80265065Y-328842370D01*
X80206287Y-328804596D01*
X80177216Y-328771046D01*
X80131128Y-328717857D01*
X80010053Y-328640047D01*
X80010051Y-328640046D01*
X80010049Y-328640045D01*
X80010050Y-328640045D01*
X79871963Y-328599500D01*
X79871961Y-328599500D01*
X79728039Y-328599500D01*
X79728036Y-328599500D01*
X79589949Y-328640045D01*
X79468873Y-328717856D01*
X79374623Y-328826626D01*
X79374622Y-328826628D01*
X79314834Y-328957543D01*
X79294353Y-329100000D01*
X73900500Y-329100000D01*
X73900500Y-326900000D01*
X92194353Y-326900000D01*
X92214834Y-327042456D01*
X92274622Y-327173371D01*
X92274623Y-327173373D01*
X92368872Y-327282143D01*
X92489947Y-327359953D01*
X92489950Y-327359954D01*
X92489949Y-327359954D01*
X92628036Y-327400499D01*
X92628038Y-327400500D01*
X92628039Y-327400500D01*
X92771962Y-327400500D01*
X92771962Y-327400499D01*
X92910053Y-327359953D01*
X93031128Y-327282143D01*
X93125377Y-327173373D01*
X93185165Y-327042457D01*
X93205647Y-326900000D01*
X93185165Y-326757543D01*
X93125377Y-326626627D01*
X93031128Y-326517857D01*
X92910053Y-326440047D01*
X92910051Y-326440046D01*
X92910049Y-326440045D01*
X92910050Y-326440045D01*
X92771963Y-326399500D01*
X92771961Y-326399500D01*
X92628039Y-326399500D01*
X92628036Y-326399500D01*
X92489949Y-326440045D01*
X92368873Y-326517856D01*
X92274623Y-326626626D01*
X92274622Y-326626628D01*
X92214834Y-326757543D01*
X92194353Y-326900000D01*
X73900500Y-326900000D01*
X73900500Y-323844999D01*
X126379364Y-323844999D01*
X126379364Y-323845000D01*
X127276988Y-323845000D01*
X127244075Y-323902007D01*
X127210000Y-324029174D01*
X127210000Y-324160826D01*
X127244075Y-324287993D01*
X127276988Y-324345000D01*
X126379364Y-324345000D01*
X126436567Y-324558486D01*
X126436570Y-324558492D01*
X126536399Y-324772578D01*
X126671894Y-324966082D01*
X126838917Y-325133105D01*
X127032421Y-325268600D01*
X127246507Y-325368429D01*
X127246516Y-325368433D01*
X127368649Y-325401158D01*
X127428310Y-325437523D01*
X127458839Y-325500369D01*
X127450545Y-325569745D01*
X127406059Y-325623623D01*
X127372552Y-325639593D01*
X127306046Y-325659767D01*
X127175358Y-325729622D01*
X127123550Y-325757315D01*
X127123548Y-325757316D01*
X127123547Y-325757317D01*
X126963589Y-325888589D01*
X126832317Y-326048547D01*
X126734769Y-326231043D01*
X126674699Y-326429067D01*
X126654417Y-326635000D01*
X126674699Y-326840932D01*
X126674700Y-326840934D01*
X126734768Y-327038954D01*
X126832315Y-327221450D01*
X126832317Y-327221452D01*
X126963589Y-327381410D01*
X126986851Y-327400500D01*
X127123550Y-327512685D01*
X127306046Y-327610232D01*
X127504066Y-327670300D01*
X127504065Y-327670300D01*
X127522529Y-327672118D01*
X127710000Y-327690583D01*
X127915934Y-327670300D01*
X128113954Y-327610232D01*
X128296450Y-327512685D01*
X128456410Y-327381410D01*
X128587685Y-327221450D01*
X128685232Y-327038954D01*
X128745300Y-326840934D01*
X128765583Y-326635000D01*
X128745300Y-326429066D01*
X128685232Y-326231046D01*
X128587685Y-326048550D01*
X128535702Y-325985209D01*
X128456410Y-325888589D01*
X128296452Y-325757317D01*
X128296453Y-325757317D01*
X128296450Y-325757315D01*
X128113954Y-325659768D01*
X128047447Y-325639593D01*
X127989009Y-325601296D01*
X127960553Y-325537484D01*
X127971113Y-325468417D01*
X128017337Y-325416023D01*
X128051350Y-325401158D01*
X128173483Y-325368433D01*
X128173492Y-325368429D01*
X128387578Y-325268600D01*
X128581082Y-325133105D01*
X128748105Y-324966082D01*
X128878425Y-324779968D01*
X128933002Y-324736344D01*
X129002501Y-324729151D01*
X129064855Y-324760673D01*
X129081575Y-324779968D01*
X129211894Y-324966082D01*
X129378917Y-325133105D01*
X129572421Y-325268600D01*
X129786507Y-325368429D01*
X129786516Y-325368433D01*
X129908649Y-325401158D01*
X129968310Y-325437523D01*
X129998839Y-325500369D01*
X129990545Y-325569745D01*
X129946059Y-325623623D01*
X129912552Y-325639593D01*
X129846046Y-325659767D01*
X129715358Y-325729622D01*
X129663550Y-325757315D01*
X129663548Y-325757316D01*
X129663547Y-325757317D01*
X129503589Y-325888589D01*
X129372317Y-326048547D01*
X129274769Y-326231043D01*
X129214699Y-326429067D01*
X129194417Y-326635000D01*
X129214699Y-326840932D01*
X129214700Y-326840934D01*
X129274768Y-327038954D01*
X129372315Y-327221450D01*
X129372317Y-327221452D01*
X129503589Y-327381410D01*
X129526851Y-327400500D01*
X129663550Y-327512685D01*
X129846046Y-327610232D01*
X130044066Y-327670300D01*
X130044065Y-327670300D01*
X130062529Y-327672118D01*
X130250000Y-327690583D01*
X130455934Y-327670300D01*
X130653954Y-327610232D01*
X130836450Y-327512685D01*
X130996410Y-327381410D01*
X131127685Y-327221450D01*
X131225232Y-327038954D01*
X131285300Y-326840934D01*
X131305583Y-326635000D01*
X131285300Y-326429066D01*
X131225232Y-326231046D01*
X131127685Y-326048550D01*
X131075702Y-325985209D01*
X130996410Y-325888589D01*
X130836452Y-325757317D01*
X130836453Y-325757317D01*
X130836450Y-325757315D01*
X130653954Y-325659768D01*
X130587447Y-325639593D01*
X130529009Y-325601296D01*
X130500553Y-325537484D01*
X130511113Y-325468417D01*
X130557337Y-325416023D01*
X130591350Y-325401158D01*
X130713483Y-325368433D01*
X130713492Y-325368429D01*
X130927578Y-325268600D01*
X131121082Y-325133105D01*
X131288105Y-324966082D01*
X131423600Y-324772578D01*
X131523429Y-324558492D01*
X131523432Y-324558486D01*
X131580636Y-324345000D01*
X130683012Y-324345000D01*
X130715925Y-324287993D01*
X130750000Y-324160826D01*
X130750000Y-324029174D01*
X130715925Y-323902007D01*
X130683012Y-323845000D01*
X131580636Y-323845000D01*
X131580635Y-323844999D01*
X131523432Y-323631513D01*
X131523429Y-323631507D01*
X131423600Y-323417422D01*
X131423599Y-323417420D01*
X131288113Y-323223926D01*
X131288108Y-323223920D01*
X131121082Y-323056894D01*
X130927578Y-322921399D01*
X130713492Y-322821570D01*
X130713486Y-322821567D01*
X130500000Y-322764364D01*
X130500000Y-323661988D01*
X130442993Y-323629075D01*
X130315826Y-323595000D01*
X130184174Y-323595000D01*
X130057007Y-323629075D01*
X130000000Y-323661988D01*
X130000000Y-322764364D01*
X129999999Y-322764364D01*
X129786513Y-322821567D01*
X129786507Y-322821570D01*
X129572422Y-322921399D01*
X129572420Y-322921400D01*
X129378926Y-323056886D01*
X129378920Y-323056891D01*
X129211891Y-323223920D01*
X129211890Y-323223922D01*
X129081575Y-323410031D01*
X129026998Y-323453655D01*
X128957499Y-323460848D01*
X128895145Y-323429326D01*
X128878425Y-323410031D01*
X128748109Y-323223922D01*
X128748108Y-323223920D01*
X128581082Y-323056894D01*
X128387578Y-322921399D01*
X128173492Y-322821570D01*
X128173486Y-322821567D01*
X127960000Y-322764364D01*
X127960000Y-323661988D01*
X127902993Y-323629075D01*
X127775826Y-323595000D01*
X127644174Y-323595000D01*
X127517007Y-323629075D01*
X127460000Y-323661988D01*
X127460000Y-322764364D01*
X127459999Y-322764364D01*
X127246513Y-322821567D01*
X127246507Y-322821570D01*
X127032422Y-322921399D01*
X127032420Y-322921400D01*
X126838926Y-323056886D01*
X126838920Y-323056891D01*
X126671891Y-323223920D01*
X126671886Y-323223926D01*
X126536400Y-323417420D01*
X126536399Y-323417422D01*
X126436570Y-323631507D01*
X126436567Y-323631513D01*
X126379364Y-323844999D01*
X73900500Y-323844999D01*
X73900500Y-321700000D01*
X83194353Y-321700000D01*
X83214834Y-321842456D01*
X83274622Y-321973371D01*
X83274623Y-321973373D01*
X83368872Y-322082143D01*
X83376324Y-322086932D01*
X83389943Y-322095685D01*
X83435698Y-322148489D01*
X83445641Y-322217648D01*
X83416615Y-322281203D01*
X83389943Y-322304315D01*
X83368874Y-322317855D01*
X83274623Y-322426626D01*
X83274622Y-322426628D01*
X83214834Y-322557543D01*
X83194353Y-322700000D01*
X83214834Y-322842456D01*
X83250887Y-322921399D01*
X83274623Y-322973373D01*
X83368872Y-323082143D01*
X83489947Y-323159953D01*
X83489950Y-323159954D01*
X83489949Y-323159954D01*
X83628036Y-323200499D01*
X83628038Y-323200500D01*
X83628039Y-323200500D01*
X83771962Y-323200500D01*
X83771962Y-323200499D01*
X83910053Y-323159953D01*
X84031128Y-323082143D01*
X84106287Y-322995403D01*
X84165064Y-322957629D01*
X84234934Y-322957629D01*
X84293711Y-322995402D01*
X84368872Y-323082143D01*
X84489947Y-323159953D01*
X84489950Y-323159954D01*
X84489949Y-323159954D01*
X84628036Y-323200499D01*
X84628038Y-323200500D01*
X84628039Y-323200500D01*
X84771962Y-323200500D01*
X84771962Y-323200499D01*
X84910053Y-323159953D01*
X85031128Y-323082143D01*
X85106287Y-322995403D01*
X85165064Y-322957629D01*
X85234934Y-322957629D01*
X85293711Y-322995402D01*
X85368872Y-323082143D01*
X85489947Y-323159953D01*
X85489950Y-323159954D01*
X85489949Y-323159954D01*
X85628036Y-323200499D01*
X85628038Y-323200500D01*
X85628039Y-323200500D01*
X85771962Y-323200500D01*
X85771962Y-323200499D01*
X85910053Y-323159953D01*
X86031128Y-323082143D01*
X86125377Y-322973373D01*
X86185165Y-322842457D01*
X86205647Y-322700000D01*
X86185165Y-322557543D01*
X86125377Y-322426627D01*
X86031128Y-322317857D01*
X86031125Y-322317855D01*
X86031125Y-322317854D01*
X86010058Y-322304316D01*
X85964302Y-322251513D01*
X85954358Y-322182354D01*
X85983382Y-322118798D01*
X86010058Y-322095684D01*
X86031125Y-322082145D01*
X86031125Y-322082144D01*
X86031128Y-322082143D01*
X86125377Y-321973373D01*
X86185165Y-321842457D01*
X86205647Y-321700000D01*
X86185165Y-321557543D01*
X86125377Y-321426627D01*
X86031128Y-321317857D01*
X85910053Y-321240047D01*
X85910051Y-321240046D01*
X85910049Y-321240045D01*
X85910050Y-321240045D01*
X85771963Y-321199500D01*
X85771961Y-321199500D01*
X85628039Y-321199500D01*
X85628036Y-321199500D01*
X85489949Y-321240045D01*
X85368873Y-321317856D01*
X85293713Y-321404596D01*
X85234935Y-321442370D01*
X85165065Y-321442370D01*
X85106287Y-321404596D01*
X85031128Y-321317857D01*
X84910053Y-321240047D01*
X84910051Y-321240046D01*
X84910049Y-321240045D01*
X84910050Y-321240045D01*
X84771963Y-321199500D01*
X84771961Y-321199500D01*
X84628039Y-321199500D01*
X84628036Y-321199500D01*
X84489949Y-321240045D01*
X84368873Y-321317856D01*
X84293713Y-321404596D01*
X84234935Y-321442370D01*
X84165065Y-321442370D01*
X84106287Y-321404596D01*
X84031128Y-321317857D01*
X83910053Y-321240047D01*
X83910051Y-321240046D01*
X83910049Y-321240045D01*
X83910050Y-321240045D01*
X83771963Y-321199500D01*
X83771961Y-321199500D01*
X83628039Y-321199500D01*
X83628036Y-321199500D01*
X83489949Y-321240045D01*
X83368873Y-321317856D01*
X83274623Y-321426626D01*
X83274622Y-321426628D01*
X83214834Y-321557543D01*
X83194353Y-321700000D01*
X73900500Y-321700000D01*
X73900500Y-320112075D01*
X77791476Y-320112075D01*
X77915462Y-320178348D01*
X78103969Y-320235531D01*
X78103965Y-320235531D01*
X78300000Y-320254838D01*
X78496032Y-320235531D01*
X78684537Y-320178348D01*
X78808523Y-320112076D01*
X78808523Y-320112075D01*
X78300001Y-319603553D01*
X78300000Y-319603553D01*
X77791476Y-320112075D01*
X73900500Y-320112075D01*
X73900500Y-319250000D01*
X77295161Y-319250000D01*
X77314468Y-319446032D01*
X77371651Y-319634537D01*
X77437923Y-319758522D01*
X77946447Y-319250000D01*
X77896719Y-319200272D01*
X78050000Y-319200272D01*
X78050000Y-319299728D01*
X78088060Y-319391614D01*
X78158386Y-319461940D01*
X78250272Y-319500000D01*
X78349728Y-319500000D01*
X78441614Y-319461940D01*
X78511940Y-319391614D01*
X78550000Y-319299728D01*
X78550000Y-319249999D01*
X78653553Y-319249999D01*
X78653553Y-319250000D01*
X79162076Y-319758523D01*
X79228348Y-319634537D01*
X79285531Y-319446032D01*
X79290065Y-319400000D01*
X89194353Y-319400000D01*
X89214834Y-319542456D01*
X89254255Y-319628774D01*
X89274623Y-319673373D01*
X89368872Y-319782143D01*
X89489947Y-319859953D01*
X89489950Y-319859954D01*
X89489949Y-319859954D01*
X89628036Y-319900499D01*
X89628038Y-319900500D01*
X89628039Y-319900500D01*
X89771962Y-319900500D01*
X89771962Y-319900499D01*
X89910053Y-319859953D01*
X90031128Y-319782143D01*
X90056288Y-319753106D01*
X90115065Y-319715333D01*
X90184935Y-319715333D01*
X90243711Y-319753106D01*
X90268872Y-319782143D01*
X90389947Y-319859953D01*
X90389950Y-319859954D01*
X90389949Y-319859954D01*
X90528036Y-319900499D01*
X90528038Y-319900500D01*
X90528039Y-319900500D01*
X90671962Y-319900500D01*
X90671962Y-319900499D01*
X90810053Y-319859953D01*
X90931128Y-319782143D01*
X90956288Y-319753106D01*
X91015065Y-319715333D01*
X91084935Y-319715333D01*
X91143711Y-319753106D01*
X91168872Y-319782143D01*
X91289947Y-319859953D01*
X91289950Y-319859954D01*
X91289949Y-319859954D01*
X91428036Y-319900499D01*
X91428038Y-319900500D01*
X91428039Y-319900500D01*
X91571962Y-319900500D01*
X91571962Y-319900499D01*
X91710053Y-319859953D01*
X91831128Y-319782143D01*
X91925377Y-319673373D01*
X91985165Y-319542457D01*
X92005647Y-319400000D01*
X91985165Y-319257543D01*
X91925377Y-319126627D01*
X91831128Y-319017857D01*
X91710053Y-318940047D01*
X91710051Y-318940046D01*
X91710049Y-318940045D01*
X91710050Y-318940045D01*
X91571963Y-318899500D01*
X91571961Y-318899500D01*
X91428039Y-318899500D01*
X91428036Y-318899500D01*
X91289949Y-318940045D01*
X91168872Y-319017856D01*
X91143712Y-319046893D01*
X91084933Y-319084667D01*
X91015064Y-319084666D01*
X90956288Y-319046893D01*
X90931127Y-319017856D01*
X90884502Y-318987892D01*
X90810053Y-318940047D01*
X90810051Y-318940046D01*
X90810049Y-318940045D01*
X90810050Y-318940045D01*
X90671963Y-318899500D01*
X90671961Y-318899500D01*
X90528039Y-318899500D01*
X90528036Y-318899500D01*
X90389949Y-318940045D01*
X90268872Y-319017856D01*
X90243712Y-319046893D01*
X90184933Y-319084667D01*
X90115064Y-319084666D01*
X90056288Y-319046893D01*
X90031127Y-319017856D01*
X89984502Y-318987892D01*
X89910053Y-318940047D01*
X89910051Y-318940046D01*
X89910049Y-318940045D01*
X89910050Y-318940045D01*
X89771963Y-318899500D01*
X89771961Y-318899500D01*
X89628039Y-318899500D01*
X89628036Y-318899500D01*
X89489949Y-318940045D01*
X89368873Y-319017856D01*
X89274623Y-319126626D01*
X89274622Y-319126628D01*
X89214834Y-319257543D01*
X89194353Y-319400000D01*
X79290065Y-319400000D01*
X79304838Y-319250000D01*
X79285531Y-319053967D01*
X79228348Y-318865462D01*
X79162075Y-318741476D01*
X78653553Y-319249999D01*
X78550000Y-319249999D01*
X78550000Y-319200272D01*
X78511940Y-319108386D01*
X78441614Y-319038060D01*
X78349728Y-319000000D01*
X78250272Y-319000000D01*
X78158386Y-319038060D01*
X78088060Y-319108386D01*
X78050000Y-319200272D01*
X77896719Y-319200272D01*
X77437923Y-318741476D01*
X77371649Y-318865466D01*
X77314468Y-319053967D01*
X77295161Y-319250000D01*
X73900500Y-319250000D01*
X73900500Y-316230247D01*
X77549500Y-316230247D01*
X77549500Y-317269752D01*
X77561131Y-317328229D01*
X77561132Y-317328230D01*
X77605447Y-317394552D01*
X77679594Y-317444096D01*
X77724399Y-317497709D01*
X77733106Y-317567034D01*
X77712753Y-317617637D01*
X77675185Y-317672063D01*
X77675182Y-317672068D01*
X77614860Y-317831125D01*
X77614859Y-317831130D01*
X77594355Y-318000000D01*
X77614859Y-318168869D01*
X77614860Y-318168874D01*
X77675182Y-318327931D01*
X77714045Y-318384233D01*
X77771817Y-318467929D01*
X77899148Y-318580734D01*
X77899150Y-318580735D01*
X78056417Y-318663276D01*
X78055782Y-318664484D01*
X78090454Y-318686901D01*
X78299999Y-318896446D01*
X78509543Y-318686901D01*
X78544218Y-318664486D01*
X78543583Y-318663276D01*
X78550225Y-318659790D01*
X78700852Y-318580734D01*
X78828183Y-318467929D01*
X78924818Y-318327930D01*
X78985140Y-318168872D01*
X79005645Y-318000000D01*
X78985140Y-317831128D01*
X78924818Y-317672070D01*
X78924813Y-317672063D01*
X78887246Y-317617638D01*
X78865363Y-317551284D01*
X78882828Y-317483632D01*
X78920405Y-317444096D01*
X78946548Y-317426628D01*
X78994552Y-317394552D01*
X79038867Y-317328231D01*
X79038867Y-317328229D01*
X79038868Y-317328229D01*
X79050499Y-317269752D01*
X79050500Y-317269750D01*
X79050500Y-316600000D01*
X106494353Y-316600000D01*
X106514834Y-316742456D01*
X106550033Y-316819530D01*
X106574623Y-316873373D01*
X106668872Y-316982143D01*
X106668874Y-316982144D01*
X106668876Y-316982146D01*
X106767744Y-317045685D01*
X106813499Y-317098488D01*
X106823443Y-317167647D01*
X106794418Y-317231203D01*
X106767744Y-317254315D01*
X106668876Y-317317853D01*
X106668874Y-317317855D01*
X106574623Y-317426626D01*
X106574622Y-317426628D01*
X106514834Y-317557543D01*
X106494353Y-317700000D01*
X106514834Y-317842456D01*
X106563942Y-317949986D01*
X106574623Y-317973373D01*
X106668872Y-318082143D01*
X106789947Y-318159953D01*
X106789950Y-318159954D01*
X106789949Y-318159954D01*
X106928036Y-318200499D01*
X106928038Y-318200500D01*
X106928039Y-318200500D01*
X107071962Y-318200500D01*
X107071962Y-318200499D01*
X107190255Y-318165766D01*
X112777050Y-318165766D01*
X112777050Y-318384233D01*
X112811226Y-318600013D01*
X112878734Y-318807785D01*
X112977921Y-319002447D01*
X113106325Y-319179182D01*
X113106329Y-319179187D01*
X113260812Y-319333670D01*
X113260817Y-319333674D01*
X113352108Y-319400000D01*
X113437556Y-319462081D01*
X113632212Y-319561264D01*
X113632214Y-319561265D01*
X113736100Y-319595019D01*
X113839988Y-319628774D01*
X114055766Y-319662950D01*
X114055767Y-319662950D01*
X114274233Y-319662950D01*
X114274234Y-319662950D01*
X114490012Y-319628774D01*
X114697788Y-319561264D01*
X114892444Y-319462081D01*
X115069189Y-319333669D01*
X115223669Y-319179189D01*
X115352081Y-319002444D01*
X115451264Y-318807788D01*
X115518774Y-318600012D01*
X115552950Y-318384234D01*
X115552950Y-318165766D01*
X115952050Y-318165766D01*
X115952050Y-318384233D01*
X115986226Y-318600013D01*
X116053734Y-318807785D01*
X116152921Y-319002447D01*
X116281325Y-319179182D01*
X116281329Y-319179187D01*
X116435812Y-319333670D01*
X116435817Y-319333674D01*
X116527108Y-319400000D01*
X116612556Y-319462081D01*
X116807212Y-319561264D01*
X116807214Y-319561265D01*
X116911100Y-319595019D01*
X117014988Y-319628774D01*
X117230766Y-319662950D01*
X117230767Y-319662950D01*
X117449233Y-319662950D01*
X117449234Y-319662950D01*
X117665012Y-319628774D01*
X117872788Y-319561264D01*
X118067444Y-319462081D01*
X118244189Y-319333669D01*
X118398669Y-319179189D01*
X118527081Y-319002444D01*
X118626264Y-318807788D01*
X118693774Y-318600012D01*
X118727950Y-318384234D01*
X118727950Y-318165766D01*
X118693774Y-317949988D01*
X118626264Y-317742212D01*
X118527081Y-317547556D01*
X118453878Y-317446800D01*
X118398674Y-317370817D01*
X118398670Y-317370812D01*
X118244187Y-317216329D01*
X118244182Y-317216325D01*
X118067447Y-317087921D01*
X118067446Y-317087920D01*
X118067444Y-317087919D01*
X117970116Y-317038327D01*
X117872785Y-316988734D01*
X117665013Y-316921226D01*
X117557123Y-316904138D01*
X117449234Y-316887050D01*
X117230766Y-316887050D01*
X117158840Y-316898442D01*
X117014986Y-316921226D01*
X116807214Y-316988734D01*
X116612552Y-317087921D01*
X116435817Y-317216325D01*
X116435812Y-317216329D01*
X116281329Y-317370812D01*
X116281325Y-317370817D01*
X116152921Y-317547552D01*
X116053734Y-317742214D01*
X115986226Y-317949986D01*
X115952050Y-318165766D01*
X115552950Y-318165766D01*
X115518774Y-317949988D01*
X115451264Y-317742212D01*
X115352081Y-317547556D01*
X115278878Y-317446800D01*
X115223674Y-317370817D01*
X115223670Y-317370812D01*
X115069187Y-317216329D01*
X115069182Y-317216325D01*
X114892447Y-317087921D01*
X114892446Y-317087920D01*
X114892444Y-317087919D01*
X114795116Y-317038327D01*
X114697785Y-316988734D01*
X114490013Y-316921226D01*
X114382123Y-316904138D01*
X114274234Y-316887050D01*
X114055766Y-316887050D01*
X113983840Y-316898442D01*
X113839986Y-316921226D01*
X113632214Y-316988734D01*
X113437552Y-317087921D01*
X113260817Y-317216325D01*
X113260812Y-317216329D01*
X113106329Y-317370812D01*
X113106325Y-317370817D01*
X112977921Y-317547552D01*
X112878734Y-317742214D01*
X112811226Y-317949986D01*
X112777050Y-318165766D01*
X107190255Y-318165766D01*
X107210053Y-318159953D01*
X107331128Y-318082143D01*
X107425377Y-317973373D01*
X107485165Y-317842457D01*
X107505647Y-317700000D01*
X107485165Y-317557543D01*
X107425377Y-317426627D01*
X107331128Y-317317857D01*
X107232253Y-317254314D01*
X107186500Y-317201512D01*
X107176556Y-317132354D01*
X107205581Y-317068798D01*
X107232254Y-317045685D01*
X107331128Y-316982143D01*
X107425377Y-316873373D01*
X107485165Y-316742457D01*
X107493790Y-316682465D01*
X111564200Y-316682465D01*
X111564200Y-316819534D01*
X111590937Y-316953949D01*
X111590940Y-316953961D01*
X111643386Y-317080578D01*
X111643393Y-317080591D01*
X111719536Y-317194546D01*
X111719539Y-317194550D01*
X111816449Y-317291460D01*
X111816453Y-317291463D01*
X111930408Y-317367606D01*
X111930421Y-317367613D01*
X112057038Y-317420059D01*
X112057043Y-317420061D01*
X112151588Y-317438867D01*
X112191465Y-317446799D01*
X112191469Y-317446800D01*
X112191470Y-317446800D01*
X112328531Y-317446800D01*
X112328532Y-317446799D01*
X112462957Y-317420061D01*
X112589585Y-317367610D01*
X112703547Y-317291463D01*
X112800463Y-317194547D01*
X112876610Y-317080585D01*
X112929061Y-316953957D01*
X112955800Y-316819530D01*
X112955800Y-316682470D01*
X112929061Y-316548043D01*
X112891575Y-316457543D01*
X112876613Y-316421421D01*
X112876606Y-316421408D01*
X112800463Y-316307453D01*
X112800460Y-316307449D01*
X112703550Y-316210539D01*
X112703546Y-316210536D01*
X112589591Y-316134393D01*
X112589578Y-316134386D01*
X112462961Y-316081940D01*
X112462949Y-316081937D01*
X112328534Y-316055200D01*
X112328530Y-316055200D01*
X112191470Y-316055200D01*
X112191465Y-316055200D01*
X112057050Y-316081937D01*
X112057038Y-316081940D01*
X111930421Y-316134386D01*
X111930408Y-316134393D01*
X111816453Y-316210536D01*
X111816449Y-316210539D01*
X111719539Y-316307449D01*
X111719536Y-316307453D01*
X111643393Y-316421408D01*
X111643386Y-316421421D01*
X111590940Y-316548038D01*
X111590937Y-316548050D01*
X111564200Y-316682465D01*
X107493790Y-316682465D01*
X107505647Y-316600000D01*
X107485165Y-316457543D01*
X107425377Y-316326627D01*
X107331128Y-316217857D01*
X107210053Y-316140047D01*
X107210051Y-316140046D01*
X107210049Y-316140045D01*
X107210050Y-316140045D01*
X107071963Y-316099500D01*
X107071961Y-316099500D01*
X106928039Y-316099500D01*
X106928036Y-316099500D01*
X106789949Y-316140045D01*
X106668873Y-316217856D01*
X106574623Y-316326626D01*
X106574622Y-316326628D01*
X106514834Y-316457543D01*
X106494353Y-316600000D01*
X79050500Y-316600000D01*
X79050500Y-316230249D01*
X79050499Y-316230247D01*
X79038868Y-316171770D01*
X79038867Y-316171769D01*
X78994552Y-316105447D01*
X78928230Y-316061132D01*
X78928229Y-316061131D01*
X78869752Y-316049500D01*
X78869748Y-316049500D01*
X77730252Y-316049500D01*
X77730247Y-316049500D01*
X77671770Y-316061131D01*
X77671769Y-316061132D01*
X77605447Y-316105447D01*
X77561132Y-316171769D01*
X77561131Y-316171770D01*
X77549500Y-316230247D01*
X73900500Y-316230247D01*
X73900500Y-315666465D01*
X116644200Y-315666465D01*
X116644200Y-315803534D01*
X116670937Y-315937949D01*
X116670940Y-315937961D01*
X116723386Y-316064578D01*
X116723393Y-316064591D01*
X116799536Y-316178546D01*
X116799539Y-316178550D01*
X116896449Y-316275460D01*
X116896453Y-316275463D01*
X117010408Y-316351606D01*
X117010421Y-316351613D01*
X117137038Y-316404059D01*
X117137043Y-316404061D01*
X117271465Y-316430799D01*
X117271469Y-316430800D01*
X117271470Y-316430800D01*
X117408531Y-316430800D01*
X117408532Y-316430799D01*
X117542957Y-316404061D01*
X117669585Y-316351610D01*
X117783547Y-316275463D01*
X117880463Y-316178547D01*
X117956610Y-316064585D01*
X118009061Y-315937957D01*
X118035800Y-315803530D01*
X118035800Y-315666470D01*
X118009061Y-315532043D01*
X118009059Y-315532038D01*
X117956613Y-315405421D01*
X117956606Y-315405408D01*
X117880463Y-315291453D01*
X117880460Y-315291449D01*
X117783550Y-315194539D01*
X117783546Y-315194536D01*
X117669591Y-315118393D01*
X117669578Y-315118386D01*
X117542961Y-315065940D01*
X117542949Y-315065937D01*
X117408534Y-315039200D01*
X117408530Y-315039200D01*
X117271470Y-315039200D01*
X117271465Y-315039200D01*
X117137050Y-315065937D01*
X117137038Y-315065940D01*
X117010421Y-315118386D01*
X117010408Y-315118393D01*
X116896453Y-315194536D01*
X116896449Y-315194539D01*
X116799539Y-315291449D01*
X116799536Y-315291453D01*
X116723393Y-315405408D01*
X116723386Y-315405421D01*
X116670940Y-315532038D01*
X116670937Y-315532050D01*
X116644200Y-315666465D01*
X73900500Y-315666465D01*
X73900500Y-312800000D01*
X101394353Y-312800000D01*
X101414834Y-312942456D01*
X101474622Y-313073371D01*
X101474625Y-313073377D01*
X101513983Y-313118798D01*
X101543008Y-313182353D01*
X101533064Y-313251512D01*
X101513983Y-313281202D01*
X101474625Y-313326622D01*
X101474622Y-313326628D01*
X101414834Y-313457543D01*
X101394353Y-313600000D01*
X101414834Y-313742456D01*
X101473215Y-313870291D01*
X101474623Y-313873373D01*
X101568872Y-313982143D01*
X101689947Y-314059953D01*
X101689950Y-314059954D01*
X101689949Y-314059954D01*
X101797107Y-314091417D01*
X101823567Y-314099187D01*
X101828036Y-314100499D01*
X101828038Y-314100500D01*
X101848067Y-314100500D01*
X101915106Y-314120185D01*
X101960861Y-314172989D01*
X101970805Y-314242145D01*
X101969353Y-314252245D01*
X101969353Y-314252248D01*
X101969558Y-314253674D01*
X101989834Y-314394704D01*
X102045249Y-314516043D01*
X102049623Y-314525621D01*
X102143872Y-314634391D01*
X102264947Y-314712201D01*
X102264950Y-314712202D01*
X102264949Y-314712202D01*
X102403036Y-314752747D01*
X102403038Y-314752748D01*
X102403039Y-314752748D01*
X102546962Y-314752748D01*
X102546962Y-314752747D01*
X102685053Y-314712201D01*
X102806128Y-314634391D01*
X102806285Y-314634209D01*
X102806486Y-314634080D01*
X102812828Y-314628585D01*
X102813617Y-314629496D01*
X102865059Y-314596434D01*
X102934929Y-314596430D01*
X102986384Y-314629494D01*
X102987172Y-314628585D01*
X102993492Y-314634061D01*
X102993705Y-314634198D01*
X102993872Y-314634391D01*
X102993873Y-314634392D01*
X103018884Y-314650465D01*
X103114947Y-314712201D01*
X103114950Y-314712202D01*
X103114949Y-314712202D01*
X103253036Y-314752747D01*
X103253038Y-314752748D01*
X103253039Y-314752748D01*
X103396962Y-314752748D01*
X103396962Y-314752747D01*
X103535053Y-314712201D01*
X103656128Y-314634391D01*
X103750377Y-314525621D01*
X103810165Y-314394705D01*
X103830647Y-314252248D01*
X103810165Y-314109791D01*
X103750377Y-313978875D01*
X103656128Y-313870105D01*
X103535053Y-313792295D01*
X103535051Y-313792294D01*
X103535049Y-313792293D01*
X103535050Y-313792293D01*
X103396963Y-313751748D01*
X103396961Y-313751748D01*
X103253039Y-313751748D01*
X103253036Y-313751748D01*
X103114949Y-313792293D01*
X102993872Y-313870105D01*
X102993711Y-313870291D01*
X102993504Y-313870423D01*
X102987172Y-313875911D01*
X102986382Y-313875000D01*
X102934932Y-313908064D01*
X102865063Y-313908062D01*
X102813617Y-313875000D01*
X102812828Y-313875911D01*
X102806495Y-313870423D01*
X102806289Y-313870291D01*
X102806128Y-313870105D01*
X102685053Y-313792295D01*
X102685051Y-313792294D01*
X102685049Y-313792293D01*
X102685050Y-313792293D01*
X102546963Y-313751748D01*
X102546961Y-313751748D01*
X102526933Y-313751748D01*
X102459894Y-313732063D01*
X102414139Y-313679259D01*
X102404195Y-313610103D01*
X102405647Y-313600002D01*
X102405647Y-313600000D01*
X102385165Y-313457543D01*
X102378275Y-313442456D01*
X102325377Y-313326627D01*
X102325375Y-313326625D01*
X102325374Y-313326622D01*
X102302305Y-313300000D01*
X106094353Y-313300000D01*
X106114834Y-313442456D01*
X106150254Y-313520013D01*
X106174623Y-313573373D01*
X106212550Y-313617143D01*
X106257308Y-313668798D01*
X106286332Y-313732354D01*
X106276388Y-313801512D01*
X106257308Y-313831202D01*
X106174623Y-313926627D01*
X106174622Y-313926628D01*
X106114834Y-314057543D01*
X106094353Y-314200000D01*
X106114834Y-314342456D01*
X106138696Y-314394705D01*
X106174623Y-314473373D01*
X106268872Y-314582143D01*
X106389947Y-314659953D01*
X106389950Y-314659954D01*
X106389949Y-314659954D01*
X106528036Y-314700499D01*
X106528038Y-314700500D01*
X106528039Y-314700500D01*
X106671962Y-314700500D01*
X106671962Y-314700499D01*
X106810050Y-314659954D01*
X106810051Y-314659954D01*
X106810053Y-314659953D01*
X106931128Y-314582143D01*
X106931129Y-314582141D01*
X106932960Y-314580965D01*
X107000000Y-314561280D01*
X107067039Y-314580964D01*
X107067040Y-314580965D01*
X107068870Y-314582141D01*
X107068872Y-314582143D01*
X107141137Y-314628585D01*
X107189948Y-314659954D01*
X107328036Y-314700499D01*
X107328038Y-314700500D01*
X107328039Y-314700500D01*
X107471962Y-314700500D01*
X107471962Y-314700499D01*
X107610053Y-314659953D01*
X107624817Y-314650465D01*
X111564200Y-314650465D01*
X111564200Y-314787534D01*
X111590937Y-314921949D01*
X111590940Y-314921961D01*
X111643386Y-315048578D01*
X111643393Y-315048591D01*
X111719536Y-315162546D01*
X111719539Y-315162550D01*
X111816449Y-315259460D01*
X111816453Y-315259463D01*
X111930408Y-315335606D01*
X111930421Y-315335613D01*
X112057038Y-315388059D01*
X112057043Y-315388061D01*
X112191465Y-315414799D01*
X112191469Y-315414800D01*
X112191470Y-315414800D01*
X112328531Y-315414800D01*
X112328532Y-315414799D01*
X112462957Y-315388061D01*
X112589585Y-315335610D01*
X112703547Y-315259463D01*
X112800463Y-315162547D01*
X112876610Y-315048585D01*
X112929061Y-314921957D01*
X112955800Y-314787530D01*
X112955800Y-314650470D01*
X112929061Y-314516043D01*
X112923517Y-314502659D01*
X112876613Y-314389421D01*
X112876606Y-314389408D01*
X112800463Y-314275453D01*
X112800460Y-314275449D01*
X112703550Y-314178539D01*
X112703546Y-314178536D01*
X112589591Y-314102393D01*
X112589578Y-314102386D01*
X112462961Y-314049940D01*
X112462949Y-314049937D01*
X112328534Y-314023200D01*
X112328530Y-314023200D01*
X112191470Y-314023200D01*
X112191465Y-314023200D01*
X112057050Y-314049937D01*
X112057038Y-314049940D01*
X111930421Y-314102386D01*
X111930408Y-314102393D01*
X111816453Y-314178536D01*
X111816449Y-314178539D01*
X111719539Y-314275449D01*
X111719536Y-314275453D01*
X111643393Y-314389408D01*
X111643386Y-314389421D01*
X111590940Y-314516038D01*
X111590937Y-314516050D01*
X111564200Y-314650465D01*
X107624817Y-314650465D01*
X107731128Y-314582143D01*
X107825377Y-314473373D01*
X107885165Y-314342457D01*
X107905647Y-314200000D01*
X107885165Y-314057543D01*
X107825377Y-313926627D01*
X107742689Y-313831199D01*
X107713666Y-313767647D01*
X107723610Y-313698489D01*
X107742687Y-313668802D01*
X107825377Y-313573373D01*
X107885165Y-313442457D01*
X107905647Y-313300000D01*
X107885165Y-313157543D01*
X107852385Y-313085766D01*
X112777050Y-313085766D01*
X112777050Y-313304233D01*
X112811226Y-313520013D01*
X112878734Y-313727785D01*
X112924629Y-313817857D01*
X112931428Y-313831202D01*
X112977921Y-313922447D01*
X113106325Y-314099182D01*
X113106329Y-314099187D01*
X113260812Y-314253670D01*
X113260817Y-314253674D01*
X113383018Y-314342457D01*
X113437556Y-314382081D01*
X113616721Y-314473371D01*
X113632214Y-314481265D01*
X113736100Y-314515019D01*
X113839988Y-314548774D01*
X114055766Y-314582950D01*
X114055767Y-314582950D01*
X114274233Y-314582950D01*
X114274234Y-314582950D01*
X114490012Y-314548774D01*
X114697788Y-314481264D01*
X114892444Y-314382081D01*
X115069189Y-314253669D01*
X115223669Y-314099189D01*
X115352081Y-313922444D01*
X115451264Y-313727788D01*
X115518774Y-313520012D01*
X115552950Y-313304234D01*
X115552950Y-313085766D01*
X115952050Y-313085766D01*
X115952050Y-313304233D01*
X115986226Y-313520013D01*
X116053734Y-313727785D01*
X116099629Y-313817857D01*
X116106428Y-313831202D01*
X116152921Y-313922447D01*
X116281325Y-314099182D01*
X116281329Y-314099187D01*
X116435812Y-314253670D01*
X116435817Y-314253674D01*
X116558018Y-314342457D01*
X116612556Y-314382081D01*
X116791721Y-314473371D01*
X116807214Y-314481265D01*
X116911100Y-314515019D01*
X117014988Y-314548774D01*
X117230766Y-314582950D01*
X117230767Y-314582950D01*
X117449233Y-314582950D01*
X117449234Y-314582950D01*
X117665012Y-314548774D01*
X117872788Y-314481264D01*
X118067444Y-314382081D01*
X118244189Y-314253669D01*
X118398669Y-314099189D01*
X118527081Y-313922444D01*
X118626264Y-313727788D01*
X118693774Y-313520012D01*
X118727950Y-313304234D01*
X118727950Y-313235000D01*
X119344353Y-313235000D01*
X119364834Y-313377456D01*
X119394519Y-313442456D01*
X119424623Y-313508373D01*
X119518872Y-313617143D01*
X119639947Y-313694953D01*
X119639950Y-313694954D01*
X119639949Y-313694954D01*
X119778036Y-313735499D01*
X119778038Y-313735500D01*
X119778039Y-313735500D01*
X119921962Y-313735500D01*
X119921962Y-313735499D01*
X120029121Y-313704035D01*
X120060050Y-313694954D01*
X120060050Y-313694953D01*
X120060053Y-313694953D01*
X120181128Y-313617143D01*
X120275377Y-313508373D01*
X120335165Y-313377457D01*
X120355647Y-313235000D01*
X120335165Y-313092543D01*
X120275377Y-312961627D01*
X120181128Y-312852857D01*
X120060053Y-312775047D01*
X120060051Y-312775046D01*
X120060049Y-312775045D01*
X120060050Y-312775045D01*
X119921963Y-312734500D01*
X119921961Y-312734500D01*
X119778039Y-312734500D01*
X119778036Y-312734500D01*
X119639949Y-312775045D01*
X119518873Y-312852856D01*
X119424623Y-312961626D01*
X119424622Y-312961628D01*
X119364834Y-313092543D01*
X119344353Y-313235000D01*
X118727950Y-313235000D01*
X118727950Y-313085766D01*
X118693774Y-312869988D01*
X118626264Y-312662212D01*
X118527081Y-312467556D01*
X118434441Y-312340047D01*
X118398674Y-312290817D01*
X118398670Y-312290812D01*
X118244187Y-312136329D01*
X118244182Y-312136325D01*
X118067447Y-312007921D01*
X118067446Y-312007920D01*
X118067444Y-312007919D01*
X117970116Y-311958327D01*
X117872785Y-311908734D01*
X117665013Y-311841226D01*
X117557123Y-311824138D01*
X117449234Y-311807050D01*
X117230766Y-311807050D01*
X117158840Y-311818442D01*
X117014986Y-311841226D01*
X116807214Y-311908734D01*
X116612552Y-312007921D01*
X116435817Y-312136325D01*
X116435812Y-312136329D01*
X116281329Y-312290812D01*
X116281325Y-312290817D01*
X116152921Y-312467552D01*
X116053734Y-312662214D01*
X115986226Y-312869986D01*
X115952050Y-313085766D01*
X115552950Y-313085766D01*
X115518774Y-312869988D01*
X115451264Y-312662212D01*
X115352081Y-312467556D01*
X115259441Y-312340047D01*
X115223674Y-312290817D01*
X115223670Y-312290812D01*
X115069187Y-312136329D01*
X115069182Y-312136325D01*
X114892447Y-312007921D01*
X114892446Y-312007920D01*
X114892444Y-312007919D01*
X114795116Y-311958327D01*
X114697785Y-311908734D01*
X114490013Y-311841226D01*
X114382123Y-311824138D01*
X114274234Y-311807050D01*
X114055766Y-311807050D01*
X113983840Y-311818442D01*
X113839986Y-311841226D01*
X113632214Y-311908734D01*
X113437552Y-312007921D01*
X113260817Y-312136325D01*
X113260812Y-312136329D01*
X113106329Y-312290812D01*
X113106325Y-312290817D01*
X112977921Y-312467552D01*
X112878734Y-312662214D01*
X112811226Y-312869986D01*
X112777050Y-313085766D01*
X107852385Y-313085766D01*
X107825377Y-313026627D01*
X107731128Y-312917857D01*
X107610053Y-312840047D01*
X107610051Y-312840046D01*
X107610049Y-312840045D01*
X107610050Y-312840045D01*
X107471963Y-312799500D01*
X107471961Y-312799500D01*
X107328039Y-312799500D01*
X107328036Y-312799500D01*
X107189949Y-312840045D01*
X107067039Y-312919035D01*
X107000000Y-312938719D01*
X106932961Y-312919035D01*
X106856639Y-312869986D01*
X106810053Y-312840047D01*
X106810051Y-312840046D01*
X106810049Y-312840045D01*
X106810050Y-312840045D01*
X106671963Y-312799500D01*
X106671961Y-312799500D01*
X106528039Y-312799500D01*
X106528036Y-312799500D01*
X106389949Y-312840045D01*
X106268873Y-312917856D01*
X106174623Y-313026626D01*
X106174622Y-313026628D01*
X106114834Y-313157543D01*
X106094353Y-313300000D01*
X102302305Y-313300000D01*
X102286017Y-313281203D01*
X102256991Y-313217648D01*
X102266934Y-313148489D01*
X102286017Y-313118797D01*
X102325374Y-313073377D01*
X102325374Y-313073375D01*
X102325377Y-313073373D01*
X102385165Y-312942457D01*
X102405647Y-312800000D01*
X102385165Y-312657543D01*
X102325377Y-312526627D01*
X102231128Y-312417857D01*
X102110053Y-312340047D01*
X102110051Y-312340046D01*
X102110049Y-312340045D01*
X102110050Y-312340045D01*
X101971963Y-312299500D01*
X101971961Y-312299500D01*
X101828039Y-312299500D01*
X101828036Y-312299500D01*
X101689949Y-312340045D01*
X101568873Y-312417856D01*
X101474623Y-312526626D01*
X101474622Y-312526628D01*
X101414834Y-312657543D01*
X101394353Y-312800000D01*
X73900500Y-312800000D01*
X73900500Y-309100000D01*
X75344693Y-309100000D01*
X75363903Y-309442081D01*
X75363904Y-309442086D01*
X75421296Y-309779870D01*
X75516147Y-310109104D01*
X75546482Y-310182338D01*
X75647263Y-310425646D01*
X75812998Y-310725521D01*
X76011269Y-311004959D01*
X76239570Y-311260426D01*
X76239573Y-311260429D01*
X76495040Y-311488730D01*
X76495046Y-311488734D01*
X76495047Y-311488735D01*
X76774479Y-311687002D01*
X77074352Y-311852736D01*
X77390896Y-311983853D01*
X77720130Y-312078704D01*
X78057914Y-312136096D01*
X78400000Y-312155307D01*
X78742086Y-312136096D01*
X79079870Y-312078704D01*
X79409104Y-311983853D01*
X79725648Y-311852736D01*
X80025521Y-311687002D01*
X80304953Y-311488735D01*
X80560428Y-311260428D01*
X80788735Y-311004953D01*
X80987002Y-310725521D01*
X81147116Y-310435817D01*
X99984500Y-310435817D01*
X99984500Y-310574182D01*
X100020312Y-310707835D01*
X100020313Y-310707838D01*
X100089492Y-310827661D01*
X100089494Y-310827664D01*
X100089495Y-310827665D01*
X100187335Y-310925505D01*
X100307164Y-310994688D01*
X100440817Y-311030500D01*
X100440819Y-311030500D01*
X100579181Y-311030500D01*
X100579183Y-311030500D01*
X100712836Y-310994688D01*
X100832665Y-310925505D01*
X100930505Y-310827665D01*
X100999688Y-310707836D01*
X101035500Y-310574183D01*
X101035500Y-310435817D01*
X105764500Y-310435817D01*
X105764500Y-310574182D01*
X105800312Y-310707835D01*
X105800313Y-310707838D01*
X105869492Y-310827661D01*
X105869494Y-310827664D01*
X105869495Y-310827665D01*
X105967335Y-310925505D01*
X106087164Y-310994688D01*
X106220817Y-311030500D01*
X106220819Y-311030500D01*
X106359181Y-311030500D01*
X106359183Y-311030500D01*
X106492836Y-310994688D01*
X106612665Y-310925505D01*
X106710505Y-310827665D01*
X106779688Y-310707836D01*
X106815500Y-310574183D01*
X106815500Y-310435817D01*
X106779688Y-310302164D01*
X106710505Y-310182335D01*
X106612665Y-310084495D01*
X106612664Y-310084494D01*
X106612661Y-310084492D01*
X106492838Y-310015313D01*
X106492837Y-310015312D01*
X106492836Y-310015312D01*
X106359183Y-309979500D01*
X106220817Y-309979500D01*
X106087164Y-310015312D01*
X106087161Y-310015313D01*
X105967338Y-310084492D01*
X105967333Y-310084496D01*
X105869496Y-310182333D01*
X105869492Y-310182338D01*
X105800313Y-310302161D01*
X105800312Y-310302164D01*
X105764500Y-310435817D01*
X101035500Y-310435817D01*
X100999688Y-310302164D01*
X100930505Y-310182335D01*
X100832665Y-310084495D01*
X100832664Y-310084494D01*
X100832661Y-310084492D01*
X100712838Y-310015313D01*
X100712837Y-310015312D01*
X100712836Y-310015312D01*
X100579183Y-309979500D01*
X100440817Y-309979500D01*
X100307164Y-310015312D01*
X100307161Y-310015313D01*
X100187338Y-310084492D01*
X100187333Y-310084496D01*
X100089496Y-310182333D01*
X100089492Y-310182338D01*
X100020313Y-310302161D01*
X100020312Y-310302164D01*
X99984500Y-310435817D01*
X81147116Y-310435817D01*
X81152736Y-310425648D01*
X81283853Y-310109104D01*
X81378704Y-309779870D01*
X81436096Y-309442086D01*
X81455307Y-309100000D01*
X125344693Y-309100000D01*
X125363903Y-309442081D01*
X125363904Y-309442086D01*
X125421296Y-309779870D01*
X125516147Y-310109104D01*
X125546482Y-310182338D01*
X125647263Y-310425646D01*
X125812998Y-310725521D01*
X126011269Y-311004959D01*
X126239570Y-311260426D01*
X126239573Y-311260429D01*
X126495040Y-311488730D01*
X126495046Y-311488734D01*
X126495047Y-311488735D01*
X126774479Y-311687002D01*
X127074352Y-311852736D01*
X127390896Y-311983853D01*
X127720130Y-312078704D01*
X128057914Y-312136096D01*
X128400000Y-312155307D01*
X128742086Y-312136096D01*
X129079870Y-312078704D01*
X129409104Y-311983853D01*
X129725648Y-311852736D01*
X130025521Y-311687002D01*
X130304953Y-311488735D01*
X130560428Y-311260428D01*
X130788735Y-311004953D01*
X130987002Y-310725521D01*
X131152736Y-310425648D01*
X131283853Y-310109104D01*
X131378704Y-309779870D01*
X131436096Y-309442086D01*
X131455307Y-309100000D01*
X131436096Y-308757914D01*
X131378704Y-308420130D01*
X131283853Y-308090896D01*
X131152736Y-307774352D01*
X130987002Y-307474479D01*
X130788735Y-307195047D01*
X130788734Y-307195046D01*
X130788730Y-307195040D01*
X130560429Y-306939573D01*
X130560426Y-306939570D01*
X130304959Y-306711269D01*
X130025521Y-306512998D01*
X129725646Y-306347263D01*
X129660087Y-306320108D01*
X129409104Y-306216147D01*
X129324479Y-306191766D01*
X129079875Y-306121297D01*
X129079866Y-306121295D01*
X128742093Y-306063905D01*
X128742081Y-306063903D01*
X128400000Y-306044693D01*
X128057918Y-306063903D01*
X128057906Y-306063905D01*
X127720133Y-306121295D01*
X127720124Y-306121297D01*
X127390899Y-306216146D01*
X127390896Y-306216147D01*
X127298184Y-306254549D01*
X127074353Y-306347263D01*
X126774478Y-306512998D01*
X126495040Y-306711269D01*
X126239573Y-306939570D01*
X126239570Y-306939573D01*
X126011269Y-307195040D01*
X125812998Y-307474478D01*
X125647263Y-307774353D01*
X125516146Y-308090899D01*
X125421297Y-308420124D01*
X125421295Y-308420133D01*
X125363905Y-308757906D01*
X125363903Y-308757918D01*
X125344693Y-309100000D01*
X81455307Y-309100000D01*
X81436096Y-308757914D01*
X81398221Y-308535000D01*
X120544353Y-308535000D01*
X120564834Y-308677456D01*
X120624622Y-308808371D01*
X120624623Y-308808373D01*
X120718872Y-308917143D01*
X120839947Y-308994953D01*
X120839950Y-308994954D01*
X120839949Y-308994954D01*
X120978036Y-309035499D01*
X120978038Y-309035500D01*
X120978039Y-309035500D01*
X121121962Y-309035500D01*
X121121962Y-309035499D01*
X121260053Y-308994953D01*
X121381128Y-308917143D01*
X121475377Y-308808373D01*
X121535165Y-308677457D01*
X121555647Y-308535000D01*
X121535165Y-308392543D01*
X121475377Y-308261627D01*
X121381128Y-308152857D01*
X121260053Y-308075047D01*
X121260051Y-308075046D01*
X121260049Y-308075045D01*
X121260050Y-308075045D01*
X121121963Y-308034500D01*
X121121961Y-308034500D01*
X120978039Y-308034500D01*
X120978036Y-308034500D01*
X120839949Y-308075045D01*
X120718873Y-308152856D01*
X120624623Y-308261626D01*
X120624622Y-308261628D01*
X120564834Y-308392543D01*
X120544353Y-308535000D01*
X81398221Y-308535000D01*
X81378704Y-308420130D01*
X81283853Y-308090896D01*
X81152736Y-307774352D01*
X80987002Y-307474479D01*
X80788735Y-307195047D01*
X80788734Y-307195046D01*
X80788730Y-307195040D01*
X80560429Y-306939573D01*
X80560426Y-306939570D01*
X80304959Y-306711269D01*
X80025521Y-306512998D01*
X79725646Y-306347263D01*
X79660087Y-306320108D01*
X79409104Y-306216147D01*
X79324479Y-306191766D01*
X79079875Y-306121297D01*
X79079866Y-306121295D01*
X78742093Y-306063905D01*
X78742081Y-306063903D01*
X78400000Y-306044693D01*
X78057918Y-306063903D01*
X78057906Y-306063905D01*
X77720133Y-306121295D01*
X77720124Y-306121297D01*
X77390899Y-306216146D01*
X77390896Y-306216147D01*
X77298184Y-306254549D01*
X77074353Y-306347263D01*
X76774478Y-306512998D01*
X76495040Y-306711269D01*
X76239573Y-306939570D01*
X76239570Y-306939573D01*
X76011269Y-307195040D01*
X75812998Y-307474478D01*
X75647263Y-307774353D01*
X75516146Y-308090899D01*
X75421297Y-308420124D01*
X75421295Y-308420133D01*
X75363905Y-308757906D01*
X75363903Y-308757918D01*
X75344693Y-309100000D01*
X73900500Y-309100000D01*
X73900500Y-304724500D01*
X73920185Y-304657461D01*
X73972989Y-304611706D01*
X74024500Y-304600500D01*
X132775500Y-304600500D01*
X132842539Y-304620185D01*
G37*
%TD.AperFunction*%
%TD*%
D17*
X73400000Y-304100000D02*
X133400000Y-304100000D01*
X133400000Y-404100000D01*
X73400000Y-404100000D01*
X73400000Y-304100000D01*
M02*
