%TF.GenerationSoftware,KiCad,Pcbnew,8.0.3*%
%TF.CreationDate,2024-06-18T17:24:28+01:00*%
%TF.ProjectId,Basic_DSP_V0_1,42617369-635f-4445-9350-5f56305f312e,rev?*%
%TF.SameCoordinates,Original*%
%TF.FileFunction,Soldermask,Top*%
%TF.FilePolarity,Negative*%
%FSLAX46Y46*%
G04 Gerber Fmt 4.6, Leading zero omitted, Abs format (unit mm)*
G04 Created by KiCad (PCBNEW 8.0.3) date 2024-06-18 17:24:28*
%MOMM*%
%LPD*%
G01*
G04 APERTURE LIST*
G04 Aperture macros list*
%AMRoundRect*
0 Rectangle with rounded corners*
0 $1 Rounding radius*
0 $2 $3 $4 $5 $6 $7 $8 $9 X,Y pos of 4 corners*
0 Add a 4 corners polygon primitive as box body*
4,1,4,$2,$3,$4,$5,$6,$7,$8,$9,$2,$3,0*
0 Add four circle primitives for the rounded corners*
1,1,$1+$1,$2,$3*
1,1,$1+$1,$4,$5*
1,1,$1+$1,$6,$7*
1,1,$1+$1,$8,$9*
0 Add four rect primitives between the rounded corners*
20,1,$1+$1,$2,$3,$4,$5,0*
20,1,$1+$1,$4,$5,$6,$7,0*
20,1,$1+$1,$6,$7,$8,$9,0*
20,1,$1+$1,$8,$9,$2,$3,0*%
G04 Aperture macros list end*
%ADD10RoundRect,0.237500X0.300000X0.237500X-0.300000X0.237500X-0.300000X-0.237500X0.300000X-0.237500X0*%
%ADD11RoundRect,0.237500X-0.237500X0.300000X-0.237500X-0.300000X0.237500X-0.300000X0.237500X0.300000X0*%
%ADD12RoundRect,0.237500X-0.300000X-0.237500X0.300000X-0.237500X0.300000X0.237500X-0.300000X0.237500X0*%
%ADD13RoundRect,0.237500X0.237500X-0.300000X0.237500X0.300000X-0.237500X0.300000X-0.237500X-0.300000X0*%
%ADD14RoundRect,0.250000X-1.950000X-1.000000X1.950000X-1.000000X1.950000X1.000000X-1.950000X1.000000X0*%
%ADD15RoundRect,0.062500X0.062500X-0.117500X0.062500X0.117500X-0.062500X0.117500X-0.062500X-0.117500X0*%
%ADD16RoundRect,0.237500X-0.250000X-0.237500X0.250000X-0.237500X0.250000X0.237500X-0.250000X0.237500X0*%
%ADD17RoundRect,0.237500X0.237500X-0.250000X0.237500X0.250000X-0.237500X0.250000X-0.237500X-0.250000X0*%
%ADD18RoundRect,0.160000X0.565000X0.240000X-0.565000X0.240000X-0.565000X-0.240000X0.565000X-0.240000X0*%
%ADD19RoundRect,0.120000X0.605000X0.180000X-0.605000X0.180000X-0.605000X-0.180000X0.605000X-0.180000X0*%
%ADD20C,3.200000*%
%ADD21RoundRect,0.237500X0.250000X0.237500X-0.250000X0.237500X-0.250000X-0.237500X0.250000X-0.237500X0*%
%ADD22RoundRect,0.062500X0.117500X0.062500X-0.117500X0.062500X-0.117500X-0.062500X0.117500X-0.062500X0*%
%ADD23RoundRect,0.150000X-0.587500X-0.150000X0.587500X-0.150000X0.587500X0.150000X-0.587500X0.150000X0*%
%ADD24RoundRect,0.062500X-0.062500X0.117500X-0.062500X-0.117500X0.062500X-0.117500X0.062500X0.117500X0*%
%ADD25R,1.100000X1.100000*%
%ADD26C,1.100000*%
%ADD27RoundRect,0.150000X0.200000X-0.150000X0.200000X0.150000X-0.200000X0.150000X-0.200000X-0.150000X0*%
%ADD28RoundRect,0.237500X-0.237500X0.250000X-0.237500X-0.250000X0.237500X-0.250000X0.237500X0.250000X0*%
%ADD29R,1.200000X0.600000*%
%ADD30RoundRect,0.150000X-0.150000X0.512500X-0.150000X-0.512500X0.150000X-0.512500X0.150000X0.512500X0*%
%ADD31RoundRect,0.218750X-0.218750X-0.256250X0.218750X-0.256250X0.218750X0.256250X-0.218750X0.256250X0*%
%ADD32RoundRect,0.100000X-0.637500X-0.100000X0.637500X-0.100000X0.637500X0.100000X-0.637500X0.100000X0*%
%ADD33R,1.200000X1.400000*%
%ADD34RoundRect,0.225000X0.225000X0.250000X-0.225000X0.250000X-0.225000X-0.250000X0.225000X-0.250000X0*%
%ADD35RoundRect,0.075000X-0.700000X-0.075000X0.700000X-0.075000X0.700000X0.075000X-0.700000X0.075000X0*%
%ADD36RoundRect,0.075000X-0.075000X-0.700000X0.075000X-0.700000X0.075000X0.700000X-0.075000X0.700000X0*%
%ADD37C,0.900000*%
%ADD38R,1.200000X1.200000*%
%ADD39R,0.350000X0.800000*%
%ADD40R,2.500000X1.750000*%
%ADD41C,2.374900*%
%ADD42C,0.990600*%
%ADD43C,0.787400*%
%ADD44R,0.600000X1.200000*%
%ADD45R,1.700000X1.700000*%
%ADD46O,1.700000X1.700000*%
%ADD47RoundRect,0.218750X-0.256250X0.218750X-0.256250X-0.218750X0.256250X-0.218750X0.256250X0.218750X0*%
%ADD48R,0.300000X0.700000*%
%ADD49R,1.000000X0.700000*%
%ADD50O,1.100000X2.100000*%
%ADD51O,1.100000X2.600000*%
%TA.AperFunction,Profile*%
%ADD52C,0.500000*%
%TD*%
G04 APERTURE END LIST*
D10*
%TO.C,C76*%
X99412500Y-334000000D03*
X97687500Y-334000000D03*
%TD*%
%TO.C,C75*%
X100362500Y-354000000D03*
X98637500Y-354000000D03*
%TD*%
%TO.C,C72*%
X109262500Y-390150000D03*
X107537500Y-390150000D03*
%TD*%
D11*
%TO.C,C71*%
X88250000Y-395087500D03*
X88250000Y-396812500D03*
%TD*%
%TO.C,C70*%
X88750000Y-384087500D03*
X88750000Y-385812500D03*
%TD*%
D10*
%TO.C,C69*%
X115312500Y-383000000D03*
X113587500Y-383000000D03*
%TD*%
%TO.C,C68*%
X115262500Y-396000000D03*
X113537500Y-396000000D03*
%TD*%
D12*
%TO.C,C67*%
X107637500Y-354000000D03*
X109362500Y-354000000D03*
%TD*%
D13*
%TO.C,C66*%
X113500000Y-339862500D03*
X113500000Y-338137500D03*
%TD*%
D11*
%TO.C,C65*%
X92850000Y-348137500D03*
X92850000Y-349862500D03*
%TD*%
D13*
%TO.C,C52*%
X116500000Y-339862500D03*
X116500000Y-338137500D03*
%TD*%
D12*
%TO.C,C51*%
X112637500Y-352000000D03*
X114362500Y-352000000D03*
%TD*%
D11*
%TO.C,C49*%
X104400000Y-399137500D03*
X104400000Y-400862500D03*
%TD*%
D14*
%TO.C,C16*%
X87100000Y-310000000D03*
X94500000Y-310000000D03*
%TD*%
D12*
%TO.C,C15*%
X90187500Y-332837500D03*
X91912500Y-332837500D03*
%TD*%
D13*
%TO.C,C11*%
X92500000Y-317500000D03*
X92500000Y-315775000D03*
%TD*%
%TO.C,C10*%
X84500000Y-314862500D03*
X84500000Y-313137500D03*
%TD*%
D11*
%TO.C,C9*%
X115500000Y-368637500D03*
X115500000Y-370362500D03*
%TD*%
D15*
%TO.C,D12*%
X126000000Y-365580000D03*
X126000000Y-366420000D03*
%TD*%
D16*
%TO.C,R26*%
X122175000Y-367000000D03*
X124000000Y-367000000D03*
%TD*%
D11*
%TO.C,C56*%
X84850000Y-348137500D03*
X84850000Y-349862500D03*
%TD*%
D17*
%TO.C,R5*%
X98000000Y-374412500D03*
X98000000Y-372587500D03*
%TD*%
D16*
%TO.C,R36*%
X107487500Y-400150000D03*
X109312500Y-400150000D03*
%TD*%
%TO.C,R23*%
X122087500Y-359000000D03*
X123912500Y-359000000D03*
%TD*%
D18*
%TO.C,D23*%
X112000000Y-327100000D03*
D19*
X112000000Y-326050000D03*
D18*
X112000000Y-325000000D03*
X108950000Y-325000000D03*
D19*
X108950000Y-326050000D03*
D18*
X108950000Y-327100000D03*
%TD*%
D17*
%TO.C,R34*%
X95250000Y-394862500D03*
X95250000Y-393037500D03*
%TD*%
D13*
%TO.C,C62*%
X111500000Y-339725000D03*
X111500000Y-338000000D03*
%TD*%
D10*
%TO.C,C38*%
X123262500Y-383500000D03*
X121537500Y-383500000D03*
%TD*%
D20*
%TO.C,H3*%
X128400000Y-399100000D03*
%TD*%
D21*
%TO.C,R47*%
X101325000Y-329000000D03*
X99500000Y-329000000D03*
%TD*%
D20*
%TO.C,H4*%
X78400000Y-399100000D03*
%TD*%
D21*
%TO.C,R9*%
X84087500Y-333200000D03*
X82262500Y-333200000D03*
%TD*%
D22*
%TO.C,D24*%
X100500000Y-316000000D03*
X101340000Y-316000000D03*
%TD*%
D12*
%TO.C,C23*%
X82437500Y-367750000D03*
X84162500Y-367750000D03*
%TD*%
D16*
%TO.C,R46*%
X115562500Y-328050000D03*
X117387500Y-328050000D03*
%TD*%
D21*
%TO.C,R13*%
X84212500Y-374750000D03*
X82387500Y-374750000D03*
%TD*%
D10*
%TO.C,C12*%
X99362500Y-336000000D03*
X97637500Y-336000000D03*
%TD*%
D12*
%TO.C,C40*%
X122225000Y-373000000D03*
X123950000Y-373000000D03*
%TD*%
D11*
%TO.C,C4*%
X96000000Y-364637500D03*
X96000000Y-366362500D03*
%TD*%
D23*
%TO.C,Q1*%
X104475000Y-329050000D03*
X104475000Y-330950000D03*
X106350000Y-330000000D03*
%TD*%
D16*
%TO.C,R21*%
X122087500Y-351000000D03*
X123912500Y-351000000D03*
%TD*%
D24*
%TO.C,D22*%
X80375000Y-358840000D03*
X80375000Y-358000000D03*
%TD*%
D10*
%TO.C,C13*%
X80037500Y-328200000D03*
X78312500Y-328200000D03*
%TD*%
D25*
%TO.C,J2*%
X78000000Y-365750000D03*
D26*
X78000000Y-367000000D03*
X78000000Y-368250000D03*
%TD*%
D12*
%TO.C,C37*%
X122137500Y-357000000D03*
X123862500Y-357000000D03*
%TD*%
D17*
%TO.C,R41*%
X82000000Y-351912500D03*
X82000000Y-350087500D03*
%TD*%
D16*
%TO.C,R39*%
X103587500Y-315000000D03*
X105412500Y-315000000D03*
%TD*%
D27*
%TO.C,D3*%
X80000000Y-317300000D03*
X80000000Y-318700000D03*
%TD*%
D17*
%TO.C,R42*%
X82000000Y-359912500D03*
X82000000Y-358087500D03*
%TD*%
D20*
%TO.C,H1*%
X78400000Y-309100000D03*
%TD*%
D28*
%TO.C,R50*%
X94000000Y-368587500D03*
X94000000Y-370412500D03*
%TD*%
D23*
%TO.C,Q3*%
X104537500Y-321100000D03*
X104537500Y-323000000D03*
X106412500Y-322050000D03*
%TD*%
D25*
%TO.C,J8*%
X128300000Y-359875000D03*
D26*
X128300000Y-358625000D03*
X128300000Y-357375000D03*
%TD*%
D24*
%TO.C,D14*%
X82000000Y-388840000D03*
X82000000Y-388000000D03*
%TD*%
D29*
%TO.C,U9*%
X106200000Y-394125000D03*
X106200000Y-395075000D03*
X106200000Y-396025000D03*
X108700000Y-396025000D03*
X108700000Y-394125000D03*
%TD*%
D17*
%TO.C,R31*%
X84000000Y-388912500D03*
X84000000Y-387087500D03*
%TD*%
D30*
%TO.C,U5*%
X92000000Y-325200000D03*
X91050000Y-325200000D03*
X90100000Y-325200000D03*
X90100000Y-327475000D03*
X92000000Y-327475000D03*
%TD*%
D31*
%TO.C,FB2*%
X107712500Y-316955000D03*
X109287500Y-316955000D03*
%TD*%
D22*
%TO.C,D26*%
X100500000Y-317000000D03*
X101340000Y-317000000D03*
%TD*%
D17*
%TO.C,R14*%
X117400000Y-400050000D03*
X117400000Y-398225000D03*
%TD*%
D11*
%TO.C,C46*%
X90250000Y-395225000D03*
X90250000Y-396950000D03*
%TD*%
D21*
%TO.C,R12*%
X84212500Y-365750000D03*
X82387500Y-365750000D03*
%TD*%
D31*
%TO.C,FB1*%
X89212500Y-318000000D03*
X90787500Y-318000000D03*
%TD*%
D12*
%TO.C,C35*%
X122137500Y-349000000D03*
X123862500Y-349000000D03*
%TD*%
%TO.C,C61*%
X107775000Y-352000000D03*
X109500000Y-352000000D03*
%TD*%
D13*
%TO.C,C2*%
X111500000Y-365362500D03*
X111500000Y-363637500D03*
%TD*%
D16*
%TO.C,R22*%
X121487500Y-385500000D03*
X123312500Y-385500000D03*
%TD*%
D32*
%TO.C,U2*%
X100637500Y-363425000D03*
X100637500Y-364075000D03*
X100637500Y-364725000D03*
X100637500Y-365375000D03*
X100637500Y-366025000D03*
X100637500Y-366675000D03*
X100637500Y-367325000D03*
X100637500Y-367975000D03*
X100637500Y-368625000D03*
X100637500Y-369275000D03*
X100637500Y-369925000D03*
X100637500Y-370575000D03*
X106362500Y-370575000D03*
X106362500Y-369925000D03*
X106362500Y-369275000D03*
X106362500Y-368625000D03*
X106362500Y-367975000D03*
X106362500Y-367325000D03*
X106362500Y-366675000D03*
X106362500Y-366025000D03*
X106362500Y-365375000D03*
X106362500Y-364725000D03*
X106362500Y-364075000D03*
X106362500Y-363425000D03*
%TD*%
D17*
%TO.C,R29*%
X95750000Y-383862500D03*
X95750000Y-382037500D03*
%TD*%
%TO.C,R16*%
X115400000Y-392912500D03*
X115400000Y-391087500D03*
%TD*%
D21*
%TO.C,R25*%
X123312500Y-381000000D03*
X121487500Y-381000000D03*
%TD*%
D12*
%TO.C,C54*%
X107637500Y-319000000D03*
X109362500Y-319000000D03*
%TD*%
D33*
%TO.C,Y1*%
X91700000Y-343100000D03*
X91700000Y-340900000D03*
X90000000Y-340900000D03*
X90000000Y-343100000D03*
%TD*%
D13*
%TO.C,C28*%
X115400000Y-400000000D03*
X115400000Y-398275000D03*
%TD*%
D16*
%TO.C,R7*%
X82262500Y-331200000D03*
X84087500Y-331200000D03*
%TD*%
D15*
%TO.C,D8*%
X126000000Y-349580000D03*
X126000000Y-350420000D03*
%TD*%
D16*
%TO.C,R49*%
X99625000Y-321100000D03*
X101450000Y-321100000D03*
%TD*%
D10*
%TO.C,C55*%
X109362500Y-315000000D03*
X107637500Y-315000000D03*
%TD*%
D13*
%TO.C,C57*%
X88880000Y-349862500D03*
X88880000Y-348137500D03*
%TD*%
D17*
%TO.C,R4*%
X109500000Y-374412500D03*
X109500000Y-372587500D03*
%TD*%
D11*
%TO.C,C6*%
X111500000Y-368637500D03*
X111500000Y-370362500D03*
%TD*%
D15*
%TO.C,D9*%
X125100000Y-388110000D03*
X125100000Y-388950000D03*
%TD*%
D34*
%TO.C,C73*%
X79950000Y-326200000D03*
X78400000Y-326200000D03*
%TD*%
D24*
%TO.C,D4*%
X80300000Y-375750000D03*
X80300000Y-374910000D03*
%TD*%
D28*
%TO.C,R35*%
X93250000Y-395037500D03*
X93250000Y-396862500D03*
%TD*%
D34*
%TO.C,C74*%
X92325000Y-322337500D03*
X90775000Y-322337500D03*
%TD*%
D25*
%TO.C,J7*%
X128300000Y-351250000D03*
D26*
X128300000Y-350000000D03*
X128300000Y-348750000D03*
%TD*%
D10*
%TO.C,C59*%
X91712500Y-346000000D03*
X89987500Y-346000000D03*
%TD*%
D28*
%TO.C,R3*%
X94000000Y-372587500D03*
X94000000Y-374412500D03*
%TD*%
%TO.C,R20*%
X117400000Y-379087500D03*
X117400000Y-380912500D03*
%TD*%
D35*
%TO.C,U1*%
X97825000Y-340250000D03*
X97825000Y-340750000D03*
X97825000Y-341250000D03*
X97825000Y-341750000D03*
X97825000Y-342250000D03*
X97825000Y-342750000D03*
X97825000Y-343250000D03*
X97825000Y-343750000D03*
X97825000Y-344250000D03*
X97825000Y-344750000D03*
X97825000Y-345250000D03*
X97825000Y-345750000D03*
X97825000Y-346250000D03*
X97825000Y-346750000D03*
X97825000Y-347250000D03*
X97825000Y-347750000D03*
D36*
X99750000Y-349675000D03*
X100250000Y-349675000D03*
X100750000Y-349675000D03*
X101250000Y-349675000D03*
X101750000Y-349675000D03*
X102250000Y-349675000D03*
X102750000Y-349675000D03*
X103250000Y-349675000D03*
X103750000Y-349675000D03*
X104250000Y-349675000D03*
X104750000Y-349675000D03*
X105250000Y-349675000D03*
X105750000Y-349675000D03*
X106250000Y-349675000D03*
X106750000Y-349675000D03*
X107250000Y-349675000D03*
D35*
X109175000Y-347750000D03*
X109175000Y-347250000D03*
X109175000Y-346750000D03*
X109175000Y-346250000D03*
X109175000Y-345750000D03*
X109175000Y-345250000D03*
X109175000Y-344750000D03*
X109175000Y-344250000D03*
X109175000Y-343750000D03*
X109175000Y-343250000D03*
X109175000Y-342750000D03*
X109175000Y-342250000D03*
X109175000Y-341750000D03*
X109175000Y-341250000D03*
X109175000Y-340750000D03*
X109175000Y-340250000D03*
D36*
X107250000Y-338325000D03*
X106750000Y-338325000D03*
X106250000Y-338325000D03*
X105750000Y-338325000D03*
X105250000Y-338325000D03*
X104750000Y-338325000D03*
X104250000Y-338325000D03*
X103750000Y-338325000D03*
X103250000Y-338325000D03*
X102750000Y-338325000D03*
X102250000Y-338325000D03*
X101750000Y-338325000D03*
X101250000Y-338325000D03*
X100750000Y-338325000D03*
X100250000Y-338325000D03*
X99750000Y-338325000D03*
%TD*%
D11*
%TO.C,C8*%
X113500000Y-368637500D03*
X113500000Y-370362500D03*
%TD*%
D10*
%TO.C,C32*%
X115262500Y-385000000D03*
X113537500Y-385000000D03*
%TD*%
D37*
%TO.C,J11*%
X78275000Y-388125000D03*
X78275000Y-389375000D03*
X78275000Y-390625000D03*
X78275000Y-391875000D03*
%TD*%
D24*
%TO.C,D16*%
X119900000Y-325120000D03*
X119900000Y-324280000D03*
%TD*%
D25*
%TO.C,J15*%
X78000000Y-358000000D03*
D26*
X78000000Y-359250000D03*
%TD*%
D38*
%TO.C,D1*%
X94600000Y-318000000D03*
X97400000Y-318000000D03*
%TD*%
D24*
%TO.C,D13*%
X80375000Y-351420000D03*
X80375000Y-350580000D03*
%TD*%
D16*
%TO.C,R45*%
X115562500Y-326050000D03*
X117387500Y-326050000D03*
%TD*%
D11*
%TO.C,C34*%
X113400000Y-386707500D03*
X113400000Y-388432500D03*
%TD*%
D10*
%TO.C,C63*%
X100362500Y-352000000D03*
X98637500Y-352000000D03*
%TD*%
D12*
%TO.C,C39*%
X122225000Y-365000000D03*
X123950000Y-365000000D03*
%TD*%
D16*
%TO.C,R38*%
X114212500Y-319700000D03*
X116037500Y-319700000D03*
%TD*%
D39*
%TO.C,U3*%
X82025000Y-328700000D03*
X82675000Y-328700000D03*
X83325000Y-328700000D03*
X83975000Y-328700000D03*
X83975000Y-325700000D03*
X83325000Y-325700000D03*
X82675000Y-325700000D03*
X82025000Y-325700000D03*
D40*
X83000000Y-327200000D03*
%TD*%
D21*
%TO.C,R10*%
X84087500Y-321200000D03*
X82262500Y-321200000D03*
%TD*%
D41*
%TO.C,J12*%
X119360000Y-316160000D03*
D42*
X119360000Y-318700000D03*
D41*
X119360000Y-321240000D03*
X122535000Y-316160000D03*
X122535000Y-321240000D03*
D42*
X124440000Y-317684000D03*
X124440000Y-319716000D03*
D43*
X120630000Y-319335000D03*
X120630000Y-318065000D03*
X121900000Y-319335000D03*
X121900000Y-318065000D03*
X123170000Y-319335000D03*
X123170000Y-318065000D03*
%TD*%
D15*
%TO.C,D6*%
X125100000Y-391160000D03*
X125100000Y-392000000D03*
%TD*%
D11*
%TO.C,C64*%
X94850000Y-348000000D03*
X94850000Y-349725000D03*
%TD*%
%TO.C,C14*%
X86175000Y-326337500D03*
X86175000Y-328062500D03*
%TD*%
D44*
%TO.C,U6*%
X119350000Y-391250000D03*
X118400000Y-391250000D03*
X117450000Y-391250000D03*
X117450000Y-393750000D03*
X119350000Y-393750000D03*
%TD*%
D11*
%TO.C,C3*%
X98000000Y-368637500D03*
X98000000Y-370362500D03*
%TD*%
D28*
%TO.C,R1*%
X96000000Y-368587500D03*
X96000000Y-370412500D03*
%TD*%
D15*
%TO.C,D11*%
X126000000Y-373580000D03*
X126000000Y-374420000D03*
%TD*%
D25*
%TO.C,J1*%
X77700000Y-316750000D03*
D26*
X77700000Y-318000000D03*
X77700000Y-319250000D03*
%TD*%
D11*
%TO.C,C7*%
X109500000Y-368637500D03*
X109500000Y-370362500D03*
%TD*%
D10*
%TO.C,C24*%
X84162500Y-376750000D03*
X82437500Y-376750000D03*
%TD*%
D21*
%TO.C,R11*%
X91962500Y-329837500D03*
X90137500Y-329837500D03*
%TD*%
D16*
%TO.C,R15*%
X121487500Y-394500000D03*
X123312500Y-394500000D03*
%TD*%
D11*
%TO.C,C41*%
X90750000Y-384087500D03*
X90750000Y-385812500D03*
%TD*%
D29*
%TO.C,U8*%
X93250000Y-381950000D03*
X93250000Y-381000000D03*
X93250000Y-380050000D03*
X90750000Y-380050000D03*
X90750000Y-381950000D03*
%TD*%
D11*
%TO.C,C27*%
X113400000Y-391137500D03*
X113400000Y-392862500D03*
%TD*%
%TO.C,C47*%
X99250000Y-393087500D03*
X99250000Y-394812500D03*
%TD*%
D22*
%TO.C,D21*%
X100500000Y-315000000D03*
X101340000Y-315000000D03*
%TD*%
D16*
%TO.C,R43*%
X93937500Y-343150000D03*
X95762500Y-343150000D03*
%TD*%
D38*
%TO.C,D2*%
X86400000Y-318000000D03*
X83600000Y-318000000D03*
%TD*%
D15*
%TO.C,D19*%
X120900000Y-312280000D03*
X120900000Y-313120000D03*
%TD*%
D12*
%TO.C,C60*%
X89987500Y-338000000D03*
X91712500Y-338000000D03*
%TD*%
D16*
%TO.C,R40*%
X103587500Y-317000000D03*
X105412500Y-317000000D03*
%TD*%
D11*
%TO.C,C36*%
X115400000Y-379137500D03*
X115400000Y-380862500D03*
%TD*%
D21*
%TO.C,R51*%
X103412500Y-334000000D03*
X101587500Y-334000000D03*
%TD*%
D13*
%TO.C,C50*%
X95250000Y-390812500D03*
X95250000Y-389087500D03*
%TD*%
D25*
%TO.C,J3*%
X78000000Y-373750000D03*
D26*
X78000000Y-375000000D03*
X78000000Y-376250000D03*
%TD*%
D11*
%TO.C,C42*%
X99750000Y-382087500D03*
X99750000Y-383812500D03*
%TD*%
D16*
%TO.C,R8*%
X82262500Y-323200000D03*
X84087500Y-323200000D03*
%TD*%
D10*
%TO.C,C53*%
X115987500Y-317700000D03*
X114262500Y-317700000D03*
%TD*%
D28*
%TO.C,R30*%
X93750000Y-384037500D03*
X93750000Y-385862500D03*
%TD*%
D21*
%TO.C,R32*%
X109312500Y-398150000D03*
X107487500Y-398150000D03*
%TD*%
D23*
%TO.C,Q2*%
X104537500Y-325100000D03*
X104537500Y-327000000D03*
X106412500Y-326050000D03*
%TD*%
D25*
%TO.C,J14*%
X78000000Y-349375000D03*
D26*
X78000000Y-350625000D03*
%TD*%
D44*
%TO.C,U7*%
X117450000Y-388250000D03*
X118400000Y-388250000D03*
X119350000Y-388250000D03*
X119350000Y-385750000D03*
X117450000Y-385750000D03*
%TD*%
D13*
%TO.C,C48*%
X86000000Y-392862500D03*
X86000000Y-391137500D03*
%TD*%
D10*
%TO.C,C29*%
X123262500Y-396500000D03*
X121537500Y-396500000D03*
%TD*%
D24*
%TO.C,D15*%
X82000000Y-392000000D03*
X82000000Y-391160000D03*
%TD*%
D37*
%TO.C,J6*%
X128725000Y-391875000D03*
X128725000Y-390625000D03*
X128725000Y-389375000D03*
X128725000Y-388125000D03*
%TD*%
D17*
%TO.C,R24*%
X115400000Y-388482500D03*
X115400000Y-386657500D03*
%TD*%
D20*
%TO.C,H2*%
X128400000Y-309100000D03*
%TD*%
D16*
%TO.C,R48*%
X99625000Y-325000000D03*
X101450000Y-325000000D03*
%TD*%
D13*
%TO.C,C43*%
X86000000Y-388862500D03*
X86000000Y-387137500D03*
%TD*%
D45*
%TO.C,J16*%
X127710000Y-341875000D03*
D46*
X130250000Y-341875000D03*
X127710000Y-339335000D03*
X130250000Y-339335000D03*
X127710000Y-336795000D03*
X130250000Y-336795000D03*
X127710000Y-334255000D03*
X130250000Y-334255000D03*
X127710000Y-331715000D03*
X130250000Y-331715000D03*
X127710000Y-329175000D03*
X130250000Y-329175000D03*
X127710000Y-326635000D03*
X130250000Y-326635000D03*
X127710000Y-324095000D03*
X130250000Y-324095000D03*
%TD*%
D28*
%TO.C,R33*%
X97250000Y-393037500D03*
X97250000Y-394862500D03*
%TD*%
D47*
%TO.C,FB3*%
X86850000Y-348212500D03*
X86850000Y-349787500D03*
%TD*%
D11*
%TO.C,C33*%
X119400000Y-379137500D03*
X119400000Y-380862500D03*
%TD*%
D25*
%TO.C,J10*%
X128300000Y-376250000D03*
D26*
X128300000Y-375000000D03*
X128300000Y-373750000D03*
%TD*%
D15*
%TO.C,D10*%
X126000000Y-357580000D03*
X126000000Y-358420000D03*
%TD*%
D13*
%TO.C,C26*%
X119400000Y-400000000D03*
X119400000Y-398275000D03*
%TD*%
D11*
%TO.C,C5*%
X98000000Y-364637500D03*
X98000000Y-366362500D03*
%TD*%
D29*
%TO.C,U10*%
X93250000Y-392950000D03*
X93250000Y-392000000D03*
X93250000Y-391050000D03*
X90750000Y-391050000D03*
X90750000Y-392950000D03*
%TD*%
D17*
%TO.C,R37*%
X84000000Y-392912500D03*
X84000000Y-391087500D03*
%TD*%
D10*
%TO.C,C45*%
X109262500Y-392150000D03*
X107537500Y-392150000D03*
%TD*%
D28*
%TO.C,R2*%
X92000000Y-372587500D03*
X92000000Y-374412500D03*
%TD*%
D13*
%TO.C,C44*%
X95750000Y-379812500D03*
X95750000Y-378087500D03*
%TD*%
D15*
%TO.C,D18*%
X119900000Y-312280000D03*
X119900000Y-313120000D03*
%TD*%
D13*
%TO.C,C58*%
X90850000Y-349862500D03*
X90850000Y-348137500D03*
%TD*%
D25*
%TO.C,J9*%
X128300000Y-368250000D03*
D26*
X128300000Y-367000000D03*
X128300000Y-365750000D03*
%TD*%
D24*
%TO.C,D20*%
X121900000Y-325120000D03*
X121900000Y-324280000D03*
%TD*%
D15*
%TO.C,D17*%
X122900000Y-312280000D03*
X122900000Y-313120000D03*
%TD*%
D48*
%TO.C,J13*%
X106500000Y-312215000D03*
X106000000Y-312215000D03*
X105500000Y-312215000D03*
X105000000Y-312215000D03*
X104500000Y-312215000D03*
X104000000Y-312215000D03*
X103000000Y-312215000D03*
X102500000Y-312215000D03*
X102000000Y-312215000D03*
X101500000Y-312215000D03*
X101000000Y-312215000D03*
X100500000Y-312215000D03*
D49*
X100400000Y-310915000D03*
D48*
X101250000Y-310915000D03*
X101750000Y-310915000D03*
X102250000Y-310915000D03*
X102750000Y-310915000D03*
X103250000Y-310915000D03*
X103750000Y-310915000D03*
X104250000Y-310915000D03*
X104750000Y-310915000D03*
X105250000Y-310915000D03*
X105750000Y-310915000D03*
D49*
X106600000Y-310915000D03*
D50*
X107820000Y-311805000D03*
D51*
X107820000Y-306445000D03*
D50*
X99180000Y-311805000D03*
D51*
X99180000Y-306445000D03*
%TD*%
D28*
%TO.C,R28*%
X97750000Y-382037500D03*
X97750000Y-383862500D03*
%TD*%
D13*
%TO.C,C1*%
X109500000Y-365362500D03*
X109500000Y-363637500D03*
%TD*%
D21*
%TO.C,R17*%
X123312500Y-398500000D03*
X121487500Y-398500000D03*
%TD*%
D24*
%TO.C,D25*%
X80300000Y-367170000D03*
X80300000Y-366330000D03*
%TD*%
D16*
%TO.C,R27*%
X122175000Y-375000000D03*
X124000000Y-375000000D03*
%TD*%
D10*
%TO.C,C25*%
X115262500Y-394000000D03*
X113537500Y-394000000D03*
%TD*%
D17*
%TO.C,R6*%
X96000000Y-374412500D03*
X96000000Y-372587500D03*
%TD*%
D16*
%TO.C,R44*%
X115562500Y-324050000D03*
X117387500Y-324050000D03*
%TD*%
D52*
X73400000Y-304100000D02*
X133400000Y-304100000D01*
X133400000Y-404100000D01*
X73400000Y-404100000D01*
X73400000Y-304100000D01*
M02*
