M48
; DRILL file {KiCad 8.0.3} date 2024-06-18T17:24:32+0100
; FORMAT={-:-/ absolute / inch / decimal}
; #@! TF.CreationDate,2024-06-18T17:24:32+01:00
; #@! TF.GenerationSoftware,Kicad,Pcbnew,8.0.3
; #@! TF.FileFunction,Plated,1,4,PTH
FMAT,2
INCH
; #@! TA.AperFunction,Plated,PTH,ComponentDrill
T1C0.0217
; #@! TA.AperFunction,Plated,PTH,ComponentDrill
T2C0.0236
; #@! TA.AperFunction,Plated,PTH,ComponentDrill
T3C0.0276
; #@! TA.AperFunction,Plated,PTH,ComponentDrill
T4C0.0394
%
G90
G05
T1
X3.0817Y-15.2805
X3.0817Y-15.3297
X3.0817Y-15.3789
X3.0817Y-15.4281
X5.0679Y-15.2805
X5.0679Y-15.3297
X5.0679Y-15.3789
X5.0679Y-15.4281
T3
X3.0591Y-12.4705
X3.0591Y-12.5197
X3.0591Y-12.5689
X3.0709Y-13.7549
X3.0709Y-13.8041
X3.0709Y-14.0945
X3.0709Y-14.1437
X3.0709Y-14.3996
X3.0709Y-14.4488
X3.0709Y-14.498
X3.0709Y-14.7146
X3.0709Y-14.7638
X3.0709Y-14.813
X5.0512Y-13.7303
X5.0512Y-13.7795
X5.0512Y-13.8287
X5.0512Y-14.0699
X5.0512Y-14.1191
X5.0512Y-14.1683
X5.0512Y-14.3996
X5.0512Y-14.4488
X5.0512Y-14.498
X5.0512Y-14.7146
X5.0512Y-14.7638
X5.0512Y-14.813
T4
X5.028Y-12.7596
X5.028Y-12.8596
X5.028Y-12.9596
X5.028Y-13.0596
X5.028Y-13.1596
X5.028Y-13.2596
X5.028Y-13.3596
X5.028Y-13.4596
X5.128Y-12.7596
X5.128Y-12.8596
X5.128Y-12.9596
X5.128Y-13.0596
X5.128Y-13.1596
X5.128Y-13.2596
X5.128Y-13.3596
X5.128Y-13.4596
T2
G00X3.9047Y-12.0943
M15
G01X3.9047Y-12.0352
M16
G05
G00X3.9047Y-12.2955
M15
G01X3.9047Y-12.2561
M16
G05
G00X4.2449Y-12.0943
M15
G01X4.2449Y-12.0352
M16
G05
G00X4.2449Y-12.2955
M15
G01X4.2449Y-12.2561
M16
G05
M30
