%TF.GenerationSoftware,KiCad,Pcbnew,8.0.5*%
%TF.CreationDate,2024-09-12T11:50:27+01:00*%
%TF.ProjectId,Basic_DSP_V0_1,42617369-635f-4445-9350-5f56305f312e,rev?*%
%TF.SameCoordinates,Original*%
%TF.FileFunction,Legend,Bot*%
%TF.FilePolarity,Positive*%
%FSLAX46Y46*%
G04 Gerber Fmt 4.6, Leading zero omitted, Abs format (unit mm)*
G04 Created by KiCad (PCBNEW 8.0.5) date 2024-09-12 11:50:27*
%MOMM*%
%LPD*%
G01*
G04 APERTURE LIST*
%ADD10C,0.000000*%
%TA.AperFunction,Profile*%
%ADD11C,0.500000*%
%TD*%
G04 APERTURE END LIST*
D10*
G36*
X93090385Y-357688566D02*
G01*
X89050232Y-359127546D01*
X88330742Y-357107466D01*
X92370895Y-355668493D01*
X93090385Y-357688566D01*
G37*
G36*
X96065094Y-337280218D02*
G01*
X94045013Y-337999708D01*
X92606041Y-333959559D01*
X94626121Y-333240069D01*
X96065094Y-337280218D01*
G37*
G36*
X108185547Y-332963301D02*
G01*
X106165474Y-333682787D01*
X104726501Y-329642634D01*
X106746574Y-328923143D01*
X108185547Y-332963301D01*
G37*
G36*
X117325066Y-352232788D02*
G01*
X118119987Y-354464659D01*
X118137193Y-354517123D01*
X118151570Y-354569823D01*
X118163159Y-354622672D01*
X118172000Y-354675586D01*
X118178135Y-354728478D01*
X118181604Y-354781262D01*
X118182448Y-354833853D01*
X118180707Y-354886163D01*
X118176424Y-354938109D01*
X118169637Y-354989603D01*
X118160389Y-355040560D01*
X118148719Y-355090894D01*
X118134670Y-355140519D01*
X118118280Y-355189349D01*
X118099592Y-355237298D01*
X118078646Y-355284280D01*
X118055482Y-355330210D01*
X118030143Y-355375001D01*
X118002667Y-355418568D01*
X117973096Y-355460824D01*
X117941472Y-355501685D01*
X117907834Y-355541063D01*
X117872223Y-355578873D01*
X117834681Y-355615029D01*
X117795248Y-355649446D01*
X117753964Y-355682037D01*
X117710871Y-355712716D01*
X117666010Y-355741398D01*
X117619420Y-355767996D01*
X117571143Y-355792426D01*
X117521220Y-355814600D01*
X117469692Y-355834433D01*
X97268921Y-363029310D01*
X97216457Y-363046516D01*
X97163757Y-363060893D01*
X97110907Y-363072482D01*
X97057993Y-363081323D01*
X97005101Y-363087458D01*
X96952317Y-363090928D01*
X96899727Y-363091772D01*
X96847416Y-363090032D01*
X96795470Y-363085748D01*
X96743976Y-363078962D01*
X96693019Y-363069714D01*
X96642685Y-363058045D01*
X96593060Y-363043995D01*
X96544230Y-363027606D01*
X96496281Y-363008918D01*
X96449299Y-362987972D01*
X96403369Y-362964809D01*
X96358577Y-362939470D01*
X96315010Y-362911994D01*
X96272753Y-362882424D01*
X96231893Y-362850800D01*
X96192514Y-362817162D01*
X96154704Y-362781551D01*
X96118547Y-362744009D01*
X96084130Y-362704576D01*
X96051539Y-362663292D01*
X96020859Y-362620199D01*
X95992176Y-362575338D01*
X95965577Y-362528748D01*
X95941147Y-362480471D01*
X95918973Y-362430548D01*
X95899139Y-362379019D01*
X89499278Y-344410345D01*
X94120614Y-344410345D01*
X94121458Y-344462936D01*
X94124927Y-344515721D01*
X94131062Y-344568613D01*
X94139903Y-344621528D01*
X94151492Y-344674378D01*
X94165869Y-344727078D01*
X94183075Y-344779543D01*
X98500000Y-356900000D01*
X98519833Y-356951529D01*
X98542007Y-357001452D01*
X98566436Y-357049729D01*
X98593034Y-357096319D01*
X98621716Y-357141181D01*
X98652396Y-357184274D01*
X98684987Y-357225558D01*
X98719403Y-357264991D01*
X98755560Y-357302534D01*
X98793370Y-357338144D01*
X98832748Y-357371782D01*
X98873609Y-357403407D01*
X98915865Y-357432978D01*
X98959432Y-357460453D01*
X99004224Y-357485793D01*
X99050153Y-357508957D01*
X99097136Y-357529903D01*
X99145085Y-357548592D01*
X99193915Y-357564981D01*
X99243540Y-357579031D01*
X99293874Y-357590700D01*
X99344832Y-357599949D01*
X99396326Y-357606735D01*
X99448272Y-357611019D01*
X99500584Y-357612759D01*
X99553174Y-357611915D01*
X99605959Y-357608446D01*
X99658852Y-357602312D01*
X99711766Y-357593470D01*
X99764616Y-357581881D01*
X99817317Y-357567505D01*
X99869781Y-357550299D01*
X111990242Y-353233370D01*
X112041770Y-353213537D01*
X112091693Y-353191363D01*
X112139970Y-353166935D01*
X112186559Y-353140336D01*
X112231421Y-353111655D01*
X112274514Y-353080975D01*
X112315798Y-353048385D01*
X112355231Y-353013968D01*
X112392773Y-352977812D01*
X112428384Y-352940002D01*
X112462022Y-352900623D01*
X112493646Y-352859763D01*
X112523217Y-352817506D01*
X112550692Y-352773939D01*
X112576032Y-352729148D01*
X112599196Y-352683218D01*
X112620142Y-352636236D01*
X112638830Y-352588286D01*
X112655219Y-352539456D01*
X112669269Y-352489831D01*
X112680939Y-352439497D01*
X112690187Y-352388540D01*
X112696973Y-352337045D01*
X112701257Y-352285100D01*
X112702997Y-352232788D01*
X112702153Y-352180198D01*
X112698685Y-352127413D01*
X112692550Y-352074521D01*
X112683708Y-352021607D01*
X112672120Y-351968757D01*
X112657743Y-351916057D01*
X112640537Y-351863592D01*
X108323608Y-339743132D01*
X108303775Y-339691603D01*
X108281601Y-339641679D01*
X108257172Y-339593402D01*
X108230573Y-339546812D01*
X108201891Y-339501950D01*
X108171212Y-339458857D01*
X108138621Y-339417573D01*
X108104205Y-339378139D01*
X108068048Y-339340597D01*
X108030238Y-339304986D01*
X107990860Y-339271348D01*
X107949999Y-339239724D01*
X107907743Y-339210153D01*
X107864176Y-339182678D01*
X107819385Y-339157338D01*
X107773455Y-339134175D01*
X107726472Y-339113229D01*
X107678523Y-339094541D01*
X107629693Y-339078152D01*
X107580068Y-339064102D01*
X107529734Y-339052433D01*
X107478777Y-339043185D01*
X107427283Y-339036399D01*
X107375337Y-339032115D01*
X107323026Y-339030375D01*
X107270435Y-339031219D01*
X107217651Y-339034688D01*
X107164759Y-339040823D01*
X107111845Y-339049665D01*
X107058995Y-339061254D01*
X107006295Y-339075631D01*
X106953830Y-339092836D01*
X94833374Y-343409758D01*
X94781845Y-343429591D01*
X94731921Y-343451765D01*
X94683645Y-343476195D01*
X94637055Y-343502794D01*
X94592193Y-343531476D01*
X94549100Y-343562155D01*
X94507816Y-343594747D01*
X94468382Y-343629163D01*
X94430840Y-343665320D01*
X94395229Y-343703130D01*
X94361591Y-343742509D01*
X94329966Y-343783370D01*
X94300396Y-343825626D01*
X94272920Y-343869193D01*
X94247580Y-343913985D01*
X94224416Y-343959915D01*
X94203470Y-344006897D01*
X94184782Y-344054847D01*
X94168392Y-344103677D01*
X94154343Y-344153302D01*
X94142673Y-344203636D01*
X94133425Y-344254593D01*
X94126638Y-344306088D01*
X94122354Y-344358034D01*
X94120614Y-344410345D01*
X89499278Y-344410345D01*
X88704277Y-342178248D01*
X88687070Y-342125783D01*
X88672693Y-342073083D01*
X88661103Y-342020233D01*
X88652261Y-341967319D01*
X88646126Y-341914427D01*
X88642657Y-341861643D01*
X88641812Y-341809052D01*
X88643552Y-341756741D01*
X88647835Y-341704795D01*
X88654622Y-341653301D01*
X88663870Y-341602344D01*
X88675539Y-341552010D01*
X88689588Y-341502385D01*
X88705978Y-341453555D01*
X88724666Y-341405606D01*
X88745612Y-341358623D01*
X88768775Y-341312693D01*
X88794115Y-341267902D01*
X88821591Y-341224335D01*
X88851161Y-341182079D01*
X88882786Y-341141218D01*
X88916424Y-341101840D01*
X88952034Y-341064030D01*
X88989577Y-341027873D01*
X89029010Y-340993457D01*
X89070294Y-340960866D01*
X89113387Y-340930186D01*
X89158249Y-340901505D01*
X89204839Y-340874906D01*
X89253116Y-340850477D01*
X89303039Y-340828303D01*
X89354568Y-340808470D01*
X100963764Y-336673638D01*
X108403223Y-336673638D01*
X108403645Y-336699933D01*
X108405379Y-336726325D01*
X108408447Y-336752771D01*
X108412867Y-336779228D01*
X108418661Y-336805652D01*
X108425849Y-336832001D01*
X108434452Y-336858233D01*
X108444368Y-336883996D01*
X108455455Y-336908957D01*
X108467670Y-336933095D01*
X108480969Y-336956390D01*
X108495310Y-336978820D01*
X108510650Y-337000367D01*
X108526946Y-337021008D01*
X108544155Y-337040725D01*
X108562233Y-337059496D01*
X108581138Y-337077301D01*
X108600828Y-337094120D01*
X108621258Y-337109932D01*
X108642387Y-337124717D01*
X108664170Y-337138455D01*
X108686566Y-337151125D01*
X108709531Y-337162707D01*
X108733023Y-337173180D01*
X108756998Y-337182524D01*
X108781413Y-337190719D01*
X108806225Y-337197744D01*
X108831392Y-337203579D01*
X108856871Y-337208204D01*
X108882618Y-337211597D01*
X108908591Y-337213740D01*
X108934747Y-337214610D01*
X108961042Y-337214188D01*
X108987434Y-337212454D01*
X109013880Y-337209387D01*
X109040337Y-337204967D01*
X109066761Y-337199173D01*
X109093111Y-337191985D01*
X109119342Y-337183382D01*
X109145106Y-337173466D01*
X109170067Y-337162379D01*
X109194205Y-337150164D01*
X109217500Y-337136864D01*
X109239930Y-337122523D01*
X109261476Y-337107183D01*
X109282118Y-337090888D01*
X109301834Y-337073679D01*
X109320605Y-337055601D01*
X109338411Y-337036695D01*
X109355230Y-337017006D01*
X109371042Y-336996575D01*
X109385827Y-336975447D01*
X109399565Y-336953663D01*
X109412235Y-336931267D01*
X109423817Y-336908302D01*
X109434290Y-336884810D01*
X109443634Y-336860836D01*
X109451829Y-336836420D01*
X109458854Y-336811608D01*
X109464689Y-336786440D01*
X109469314Y-336760961D01*
X109472707Y-336735214D01*
X109474849Y-336709241D01*
X109475720Y-336683085D01*
X109475298Y-336656790D01*
X109473564Y-336630398D01*
X109470497Y-336603951D01*
X109466077Y-336577494D01*
X109460283Y-336551069D01*
X109453095Y-336524720D01*
X109444492Y-336498488D01*
X109434575Y-336472724D01*
X109423488Y-336447763D01*
X109411274Y-336423626D01*
X109397974Y-336400332D01*
X109383633Y-336377901D01*
X109368293Y-336356355D01*
X109351997Y-336335714D01*
X109334789Y-336315997D01*
X109316710Y-336297226D01*
X109297804Y-336279421D01*
X109278115Y-336262602D01*
X109257684Y-336246790D01*
X109236556Y-336232005D01*
X109214772Y-336218267D01*
X109192376Y-336205597D01*
X109169410Y-336194015D01*
X109145919Y-336183542D01*
X109121944Y-336174198D01*
X109097528Y-336166003D01*
X109072716Y-336158978D01*
X109047548Y-336153143D01*
X109022070Y-336148518D01*
X108996322Y-336145125D01*
X108970349Y-336142983D01*
X108944194Y-336142112D01*
X108917898Y-336142534D01*
X108891506Y-336144269D01*
X108865060Y-336147336D01*
X108838603Y-336151756D01*
X108812179Y-336157551D01*
X108785829Y-336164739D01*
X108759597Y-336173342D01*
X108733834Y-336183258D01*
X108708873Y-336194345D01*
X108684735Y-336206560D01*
X108661440Y-336219860D01*
X108639010Y-336234201D01*
X108617464Y-336249541D01*
X108596822Y-336265837D01*
X108577106Y-336283045D01*
X108558335Y-336301124D01*
X108540530Y-336320029D01*
X108523711Y-336339719D01*
X108507899Y-336360149D01*
X108493114Y-336381278D01*
X108479377Y-336403062D01*
X108466707Y-336425458D01*
X108455125Y-336448423D01*
X108444652Y-336471915D01*
X108435308Y-336495889D01*
X108427113Y-336520305D01*
X108420088Y-336545117D01*
X108414253Y-336570284D01*
X108409629Y-336595763D01*
X108406236Y-336621510D01*
X108404094Y-336647483D01*
X108403223Y-336673638D01*
X100963764Y-336673638D01*
X109555328Y-333613592D01*
X109607793Y-333596386D01*
X109660494Y-333582010D01*
X109713344Y-333570421D01*
X109766259Y-333561579D01*
X109819151Y-333555445D01*
X109871936Y-333551976D01*
X109924527Y-333551132D01*
X109976839Y-333552872D01*
X110028785Y-333557156D01*
X110080279Y-333563942D01*
X110131237Y-333573191D01*
X110181571Y-333584860D01*
X110231196Y-333598910D01*
X110280026Y-333615299D01*
X110327975Y-333633987D01*
X110374958Y-333654934D01*
X110420888Y-333678097D01*
X110465679Y-333703437D01*
X110509246Y-333730912D01*
X110551503Y-333760483D01*
X110592363Y-333792108D01*
X110631741Y-333825745D01*
X110669552Y-333861356D01*
X110705708Y-333898898D01*
X110740125Y-333938332D01*
X110772716Y-333979615D01*
X110803395Y-334022708D01*
X110832077Y-334067570D01*
X110858676Y-334114159D01*
X110883106Y-334162436D01*
X110905280Y-334212359D01*
X110925113Y-334263888D01*
X111786755Y-336683085D01*
X117325066Y-352232788D01*
G37*
G36*
X119932483Y-343575586D02*
G01*
X115892334Y-345014567D01*
X115172844Y-342994486D01*
X119212997Y-341555517D01*
X119932483Y-343575586D01*
G37*
G36*
X121371460Y-347615744D02*
G01*
X117331306Y-349054720D01*
X116611820Y-347034643D01*
X120651970Y-345595667D01*
X121371460Y-347615744D01*
G37*
G36*
X114218219Y-362683340D02*
G01*
X112198143Y-363402830D01*
X110759166Y-359362684D01*
X112779243Y-358643194D01*
X114218219Y-362683340D01*
G37*
G36*
X111279105Y-370897068D02*
G01*
X111462192Y-370906774D01*
X111639798Y-370922838D01*
X111811888Y-370945169D01*
X111978425Y-370973673D01*
X112139375Y-371008259D01*
X112294702Y-371048836D01*
X112444371Y-371095310D01*
X112588346Y-371147590D01*
X112726593Y-371205584D01*
X112859076Y-371269199D01*
X112985758Y-371338345D01*
X113106606Y-371412928D01*
X113221584Y-371492856D01*
X113330656Y-371578038D01*
X113433787Y-371668382D01*
X113530942Y-371763795D01*
X113622084Y-371864185D01*
X113707180Y-371969461D01*
X113786193Y-372079530D01*
X113859089Y-372194300D01*
X113925831Y-372313680D01*
X113986385Y-372437576D01*
X114040714Y-372565898D01*
X114088785Y-372698553D01*
X114130561Y-372835449D01*
X114166006Y-372976493D01*
X114195087Y-373121595D01*
X114217766Y-373270661D01*
X114234010Y-373423600D01*
X114243782Y-373580320D01*
X114247047Y-373740728D01*
X114243782Y-373901378D01*
X114234010Y-374058324D01*
X114217766Y-374211475D01*
X114195087Y-374360738D01*
X114166006Y-374506023D01*
X114130561Y-374647239D01*
X114088785Y-374784292D01*
X114040714Y-374917093D01*
X113986385Y-375045548D01*
X113925831Y-375169568D01*
X113859089Y-375289059D01*
X113786193Y-375403931D01*
X113707180Y-375514092D01*
X113622084Y-375619451D01*
X113530942Y-375719916D01*
X113433787Y-375815395D01*
X113330656Y-375905796D01*
X113221584Y-375991029D01*
X113106606Y-376071002D01*
X112985758Y-376145622D01*
X112859076Y-376214799D01*
X112726593Y-376278441D01*
X112588346Y-376336457D01*
X112444371Y-376388754D01*
X112294702Y-376435242D01*
X112139375Y-376475828D01*
X111978425Y-376510422D01*
X111811888Y-376538931D01*
X111639798Y-376561264D01*
X111462192Y-376577330D01*
X111279105Y-376587036D01*
X111090572Y-376590292D01*
X110919680Y-376587395D01*
X110753792Y-376578835D01*
X110592935Y-376564809D01*
X110437138Y-376545515D01*
X110286428Y-376521149D01*
X110140832Y-376491909D01*
X109865095Y-376419595D01*
X109610147Y-376330150D01*
X109376209Y-376225152D01*
X109163503Y-376106178D01*
X108972250Y-375974806D01*
X108802669Y-375832612D01*
X108654982Y-375681175D01*
X108529411Y-375522072D01*
X108426175Y-375356879D01*
X108345496Y-375187175D01*
X108287595Y-375014538D01*
X108252692Y-374840543D01*
X108243934Y-374753530D01*
X108241008Y-374666769D01*
X108241348Y-374648888D01*
X108242362Y-374631464D01*
X108244043Y-374614505D01*
X108246383Y-374598016D01*
X108249374Y-374582006D01*
X108253008Y-374566482D01*
X108257277Y-374551451D01*
X108262175Y-374536921D01*
X108267693Y-374522898D01*
X108273823Y-374509390D01*
X108280558Y-374496405D01*
X108287889Y-374483949D01*
X108295810Y-374472030D01*
X108304312Y-374460654D01*
X108313388Y-374449830D01*
X108323029Y-374439565D01*
X108333229Y-374429865D01*
X108343979Y-374420739D01*
X108355271Y-374412193D01*
X108367099Y-374404234D01*
X108379453Y-374396871D01*
X108392327Y-374390109D01*
X108405712Y-374383957D01*
X108419602Y-374378422D01*
X108433987Y-374373511D01*
X108448861Y-374369231D01*
X108464215Y-374365589D01*
X108480042Y-374362594D01*
X108496334Y-374360251D01*
X108513084Y-374358569D01*
X108530283Y-374357554D01*
X108547924Y-374357214D01*
X109511009Y-374357214D01*
X109552951Y-374358569D01*
X109573032Y-374360251D01*
X109592544Y-374362594D01*
X109611501Y-374365589D01*
X109629920Y-374369231D01*
X109647818Y-374373511D01*
X109665211Y-374378422D01*
X109682116Y-374383957D01*
X109698549Y-374390109D01*
X109714526Y-374396871D01*
X109730065Y-374404234D01*
X109745181Y-374412193D01*
X109759891Y-374420739D01*
X109788160Y-374439565D01*
X109815002Y-374460654D01*
X109840549Y-374483949D01*
X109864934Y-374509390D01*
X109888288Y-374536921D01*
X109910743Y-374566482D01*
X109932430Y-374598016D01*
X109953481Y-374631464D01*
X109974029Y-374666769D01*
X110011189Y-374730792D01*
X110051415Y-374793605D01*
X110094982Y-374854806D01*
X110142164Y-374913991D01*
X110193238Y-374970758D01*
X110248478Y-375024702D01*
X110277747Y-375050491D01*
X110308160Y-375075423D01*
X110339752Y-375099447D01*
X110372558Y-375122515D01*
X110406612Y-375144575D01*
X110441949Y-375165576D01*
X110478602Y-375185470D01*
X110516606Y-375204204D01*
X110555996Y-375221729D01*
X110596806Y-375237995D01*
X110639070Y-375252950D01*
X110682823Y-375266545D01*
X110728100Y-375278730D01*
X110774933Y-375289453D01*
X110823359Y-375298665D01*
X110873411Y-375306315D01*
X110925124Y-375312352D01*
X110978533Y-375316727D01*
X111033670Y-375319389D01*
X111090572Y-375320288D01*
X111169033Y-375318708D01*
X111245638Y-375313972D01*
X111320347Y-375306089D01*
X111393116Y-375295065D01*
X111463905Y-375280907D01*
X111532672Y-375263623D01*
X111599375Y-375243221D01*
X111663973Y-375219706D01*
X111726423Y-375193087D01*
X111786685Y-375163371D01*
X111844716Y-375130565D01*
X111900475Y-375094676D01*
X111953920Y-375055712D01*
X112005010Y-375013680D01*
X112053702Y-374968587D01*
X112099956Y-374920440D01*
X112143730Y-374869247D01*
X112184981Y-374815015D01*
X112223668Y-374757751D01*
X112259750Y-374697462D01*
X112293185Y-374634156D01*
X112323931Y-374567840D01*
X112351947Y-374498522D01*
X112377190Y-374426208D01*
X112399620Y-374350905D01*
X112419194Y-374272622D01*
X112435871Y-374191365D01*
X112449610Y-374107142D01*
X112460368Y-374019959D01*
X112468103Y-373929824D01*
X112472775Y-373836745D01*
X112474342Y-373740728D01*
X112472775Y-373644720D01*
X112468103Y-373551663D01*
X112460368Y-373461565D01*
X112449610Y-373374431D01*
X112435871Y-373290268D01*
X112419194Y-373209081D01*
X112399620Y-373130878D01*
X112377190Y-373055665D01*
X112351947Y-372983447D01*
X112323931Y-372914232D01*
X112293185Y-372848025D01*
X112259750Y-372784833D01*
X112223668Y-372724663D01*
X112184981Y-372667519D01*
X112143730Y-372613410D01*
X112099956Y-372562340D01*
X112053702Y-372514317D01*
X112005010Y-372469346D01*
X111953920Y-372427434D01*
X111900475Y-372388587D01*
X111844716Y-372352812D01*
X111786685Y-372320115D01*
X111726423Y-372290502D01*
X111663973Y-372263979D01*
X111599375Y-372240553D01*
X111532672Y-372220230D01*
X111463905Y-372203017D01*
X111393116Y-372188919D01*
X111320347Y-372177943D01*
X111245638Y-372170095D01*
X111169033Y-372165381D01*
X111090572Y-372163809D01*
X110985499Y-372166915D01*
X110887344Y-372176005D01*
X110795770Y-372190738D01*
X110710440Y-372210773D01*
X110631016Y-372235770D01*
X110557162Y-372265386D01*
X110488540Y-372299281D01*
X110424813Y-372337113D01*
X110365644Y-372378543D01*
X110310695Y-372423227D01*
X110259631Y-372470826D01*
X110212112Y-372520999D01*
X110167803Y-372573403D01*
X110126365Y-372627699D01*
X110087463Y-372683544D01*
X110050758Y-372740599D01*
X110028902Y-372775876D01*
X110006879Y-372809243D01*
X109984524Y-372840648D01*
X109961668Y-372870042D01*
X109938145Y-372897374D01*
X109913789Y-372922593D01*
X109888433Y-372945649D01*
X109875328Y-372956351D01*
X109861911Y-372966493D01*
X109848160Y-372976069D01*
X109834055Y-372985073D01*
X109819575Y-372993498D01*
X109804700Y-373001338D01*
X109789407Y-373008588D01*
X109773677Y-373015240D01*
X109757489Y-373021289D01*
X109740822Y-373026727D01*
X109723654Y-373031549D01*
X109705966Y-373035749D01*
X109687737Y-373039320D01*
X109668944Y-373042256D01*
X109649569Y-373044550D01*
X109629589Y-373046197D01*
X109608984Y-373047189D01*
X109587734Y-373047522D01*
X108624653Y-373047522D01*
X108607012Y-373047189D01*
X108589813Y-373046197D01*
X108573063Y-373044550D01*
X108556771Y-373042256D01*
X108540944Y-373039320D01*
X108525590Y-373035749D01*
X108510716Y-373031549D01*
X108496331Y-373026727D01*
X108482441Y-373021289D01*
X108469056Y-373015240D01*
X108456182Y-373008588D01*
X108443828Y-373001338D01*
X108432000Y-372993498D01*
X108420708Y-372985073D01*
X108409958Y-372976069D01*
X108399758Y-372966493D01*
X108390116Y-372956351D01*
X108381041Y-372945649D01*
X108372539Y-372934395D01*
X108364618Y-372922593D01*
X108357287Y-372910251D01*
X108350552Y-372897374D01*
X108344422Y-372883969D01*
X108338904Y-372870042D01*
X108334006Y-372855600D01*
X108329737Y-372840648D01*
X108326102Y-372825194D01*
X108323112Y-372809243D01*
X108320772Y-372792802D01*
X108319091Y-372775876D01*
X108318077Y-372758473D01*
X108317737Y-372740599D01*
X108320555Y-372657318D01*
X108328995Y-372573793D01*
X108343035Y-372490213D01*
X108362654Y-372406767D01*
X108387832Y-372323644D01*
X108418545Y-372241034D01*
X108454774Y-372159127D01*
X108496497Y-372078112D01*
X108543692Y-371998177D01*
X108596338Y-371919514D01*
X108654415Y-371842311D01*
X108717899Y-371766757D01*
X108786772Y-371693042D01*
X108861010Y-371621356D01*
X108940592Y-371551887D01*
X109025499Y-371484826D01*
X109115707Y-371420362D01*
X109211195Y-371358683D01*
X109311943Y-371299981D01*
X109417930Y-371244443D01*
X109529133Y-371192260D01*
X109645531Y-371143620D01*
X109767103Y-371098714D01*
X109893828Y-371057730D01*
X110025685Y-371020859D01*
X110162652Y-370988289D01*
X110304708Y-370960211D01*
X110451831Y-370936812D01*
X110604000Y-370918284D01*
X110761194Y-370904815D01*
X110923392Y-370896594D01*
X111090572Y-370893812D01*
X111279105Y-370897068D01*
G37*
G36*
X94529365Y-361728720D02*
G01*
X90489212Y-363167692D01*
X89769722Y-361147619D01*
X93809875Y-359708647D01*
X94529365Y-361728720D01*
G37*
G36*
X107099337Y-378006158D02*
G01*
X107113730Y-378007164D01*
X107127952Y-378008823D01*
X107141997Y-378011121D01*
X107155855Y-378014043D01*
X107169519Y-378017574D01*
X107182982Y-378021700D01*
X107196235Y-378026406D01*
X107209272Y-378031678D01*
X107222084Y-378037502D01*
X107234663Y-378043862D01*
X107247002Y-378050745D01*
X107270928Y-378066018D01*
X107293800Y-378083206D01*
X107315556Y-378102193D01*
X107336133Y-378122861D01*
X107355471Y-378145096D01*
X107373506Y-378168780D01*
X107390177Y-378193797D01*
X107405422Y-378220031D01*
X107419178Y-378247367D01*
X107431385Y-378275686D01*
X108780761Y-381778769D01*
X108857486Y-381778769D01*
X110241256Y-378275686D01*
X110253928Y-378247367D01*
X110268088Y-378220031D01*
X110283674Y-378193797D01*
X110300624Y-378168780D01*
X110318877Y-378145096D01*
X110338369Y-378122861D01*
X110359040Y-378102193D01*
X110380827Y-378083206D01*
X110403668Y-378066018D01*
X110415464Y-378058135D01*
X110427501Y-378050745D01*
X110439770Y-378043862D01*
X110452264Y-378037502D01*
X110464975Y-378031678D01*
X110477895Y-378026406D01*
X110491017Y-378021700D01*
X110504332Y-378017574D01*
X110517833Y-378014043D01*
X110531513Y-378011121D01*
X110545364Y-378008823D01*
X110559377Y-378007164D01*
X110573545Y-378006158D01*
X110587860Y-378005819D01*
X111820820Y-378005819D01*
X111835070Y-378006158D01*
X111849033Y-378007164D01*
X111862685Y-378008823D01*
X111876000Y-378011121D01*
X111888954Y-378014043D01*
X111901524Y-378017574D01*
X111913685Y-378021700D01*
X111925413Y-378026406D01*
X111936683Y-378031678D01*
X111947472Y-378037502D01*
X111957756Y-378043862D01*
X111967509Y-378050745D01*
X111976708Y-378058135D01*
X111985328Y-378066018D01*
X111993346Y-378074380D01*
X112000737Y-378083206D01*
X112007477Y-378092482D01*
X112013542Y-378102193D01*
X112018907Y-378112324D01*
X112023548Y-378122861D01*
X112027441Y-378133790D01*
X112030562Y-378145096D01*
X112032887Y-378156764D01*
X112034390Y-378168780D01*
X112035049Y-378181129D01*
X112034839Y-378193797D01*
X112033735Y-378206769D01*
X112031714Y-378220031D01*
X112028751Y-378233569D01*
X112024822Y-378247367D01*
X112019903Y-378261411D01*
X112013969Y-378275686D01*
X109934341Y-383128149D01*
X109920798Y-383156439D01*
X109905992Y-383183691D01*
X109889961Y-383209795D01*
X109872743Y-383234643D01*
X109854379Y-383258128D01*
X109834906Y-383280139D01*
X109814363Y-383300569D01*
X109792789Y-383319309D01*
X109770223Y-383336251D01*
X109758580Y-383344014D01*
X109746704Y-383351286D01*
X109734598Y-383358055D01*
X109722269Y-383364306D01*
X109709721Y-383370026D01*
X109696959Y-383375202D01*
X109683988Y-383379820D01*
X109670812Y-383383866D01*
X109657436Y-383387326D01*
X109643866Y-383390188D01*
X109630106Y-383392438D01*
X109616160Y-383394061D01*
X109602035Y-383395045D01*
X109587734Y-383395376D01*
X108010822Y-383390082D01*
X107996288Y-383389766D01*
X107981960Y-383388826D01*
X107967840Y-383387274D01*
X107953931Y-383385121D01*
X107940238Y-383382379D01*
X107926763Y-383379059D01*
X107913510Y-383375174D01*
X107900482Y-383370735D01*
X107887683Y-383365752D01*
X107875116Y-383360239D01*
X107862784Y-383354207D01*
X107850692Y-383347667D01*
X107827236Y-383333110D01*
X107804777Y-383316662D01*
X107783341Y-383298415D01*
X107762956Y-383278464D01*
X107743648Y-383256899D01*
X107725444Y-383233816D01*
X107708372Y-383209306D01*
X107692459Y-383183463D01*
X107677732Y-383156380D01*
X107664219Y-383128149D01*
X105584594Y-378275686D01*
X105578653Y-378261411D01*
X105573712Y-378247367D01*
X105569748Y-378233569D01*
X105566739Y-378220031D01*
X105564663Y-378206769D01*
X105563496Y-378193797D01*
X105563215Y-378181129D01*
X105563799Y-378168780D01*
X105565223Y-378156764D01*
X105567466Y-378145096D01*
X105570504Y-378133790D01*
X105574315Y-378122861D01*
X105578875Y-378112324D01*
X105584163Y-378102193D01*
X105590156Y-378092482D01*
X105596830Y-378083206D01*
X105604163Y-378074380D01*
X105612132Y-378066018D01*
X105620715Y-378058135D01*
X105629888Y-378050745D01*
X105639629Y-378043862D01*
X105649914Y-378037502D01*
X105660722Y-378031678D01*
X105672030Y-378026406D01*
X105683814Y-378021700D01*
X105696053Y-378017574D01*
X105708722Y-378014043D01*
X105721800Y-378011121D01*
X105735264Y-378008823D01*
X105749090Y-378007164D01*
X105763256Y-378006158D01*
X105777740Y-378005819D01*
X107084781Y-378005819D01*
X107099337Y-378006158D01*
G37*
G36*
X90212440Y-349608263D02*
G01*
X86172287Y-351047236D01*
X85452797Y-349027159D01*
X89492950Y-347588183D01*
X90212440Y-349608263D01*
G37*
G36*
X100105247Y-335841250D02*
G01*
X98085167Y-336560736D01*
X96646194Y-332520582D01*
X98666267Y-331801092D01*
X100105247Y-335841250D01*
G37*
G36*
X118258369Y-361244375D02*
G01*
X116238296Y-361963865D01*
X114799320Y-357923712D01*
X116819397Y-357204222D01*
X118258369Y-361244375D01*
G37*
G36*
X101909698Y-371047714D02*
G01*
X101930554Y-371049022D01*
X101950920Y-371051159D01*
X101970795Y-371054091D01*
X101990173Y-371057783D01*
X102009052Y-371062200D01*
X102027426Y-371067306D01*
X102045293Y-371073068D01*
X102079487Y-371086416D01*
X102111604Y-371101966D01*
X102141613Y-371119438D01*
X102169482Y-371138554D01*
X102195180Y-371159033D01*
X102218677Y-371180598D01*
X102239942Y-371202969D01*
X102258942Y-371225866D01*
X102275649Y-371249012D01*
X102290030Y-371272126D01*
X102302054Y-371294930D01*
X102311691Y-371317144D01*
X103658424Y-374587393D01*
X103737800Y-374587393D01*
X105084533Y-371317144D01*
X105094170Y-371294930D01*
X105106195Y-371272126D01*
X105120576Y-371249012D01*
X105137282Y-371225866D01*
X105156283Y-371202969D01*
X105177547Y-371180598D01*
X105189018Y-371169698D01*
X105201043Y-371159033D01*
X105213619Y-371148640D01*
X105226741Y-371138554D01*
X105240406Y-371128808D01*
X105254610Y-371119438D01*
X105269348Y-371110479D01*
X105284618Y-371101966D01*
X105300415Y-371093933D01*
X105316734Y-371086416D01*
X105333574Y-371079449D01*
X105350928Y-371073068D01*
X105368794Y-371067306D01*
X105387168Y-371062200D01*
X105406046Y-371057783D01*
X105425424Y-371054091D01*
X105445298Y-371051159D01*
X105465664Y-371049022D01*
X105486519Y-371047714D01*
X105507858Y-371047270D01*
X107124466Y-371047270D01*
X107138741Y-371047601D01*
X107152785Y-371048586D01*
X107166584Y-371050211D01*
X107180121Y-371052463D01*
X107193383Y-371055330D01*
X107206356Y-371058798D01*
X107219024Y-371062854D01*
X107231373Y-371067486D01*
X107243390Y-371072679D01*
X107255058Y-371078421D01*
X107266364Y-371084699D01*
X107277293Y-371091499D01*
X107287831Y-371098810D01*
X107297962Y-371106617D01*
X107307673Y-371114907D01*
X107316950Y-371123668D01*
X107325776Y-371132886D01*
X107334138Y-371142548D01*
X107342022Y-371152642D01*
X107349413Y-371163154D01*
X107356295Y-371174070D01*
X107362656Y-371185379D01*
X107368480Y-371197066D01*
X107373752Y-371209120D01*
X107378459Y-371221526D01*
X107382585Y-371234271D01*
X107386116Y-371247343D01*
X107389038Y-371260729D01*
X107391336Y-371274415D01*
X107392995Y-371288388D01*
X107394002Y-371302636D01*
X107394340Y-371317144D01*
X107394340Y-376166960D01*
X107394002Y-376181236D01*
X107392995Y-376195280D01*
X107391336Y-376209078D01*
X107389038Y-376222615D01*
X107386116Y-376235877D01*
X107382585Y-376248850D01*
X107378459Y-376261518D01*
X107373752Y-376273868D01*
X107368480Y-376285884D01*
X107362656Y-376297552D01*
X107356295Y-376308858D01*
X107349413Y-376319787D01*
X107342022Y-376330325D01*
X107334138Y-376340457D01*
X107325776Y-376350168D01*
X107316950Y-376359444D01*
X107307673Y-376368270D01*
X107297962Y-376376633D01*
X107287831Y-376384516D01*
X107277293Y-376391907D01*
X107266364Y-376398790D01*
X107255058Y-376405150D01*
X107243390Y-376410974D01*
X107231373Y-376416247D01*
X107219024Y-376420953D01*
X107206356Y-376425079D01*
X107193383Y-376428611D01*
X107180121Y-376431532D01*
X107166584Y-376433830D01*
X107152785Y-376435490D01*
X107138741Y-376436496D01*
X107124466Y-376436834D01*
X105968238Y-376436834D01*
X105953970Y-376436496D01*
X105939948Y-376435490D01*
X105926186Y-376433830D01*
X105912697Y-376431532D01*
X105899495Y-376428611D01*
X105886593Y-376425079D01*
X105874005Y-376420953D01*
X105861744Y-376416247D01*
X105849825Y-376410974D01*
X105838260Y-376405150D01*
X105827064Y-376398790D01*
X105816249Y-376391907D01*
X105805829Y-376384516D01*
X105795819Y-376376633D01*
X105786230Y-376368270D01*
X105777078Y-376359444D01*
X105768376Y-376350168D01*
X105760136Y-376340457D01*
X105752374Y-376330325D01*
X105745101Y-376319787D01*
X105738333Y-376308858D01*
X105732081Y-376297552D01*
X105726361Y-376285884D01*
X105721186Y-376273868D01*
X105716568Y-376261518D01*
X105712522Y-376248850D01*
X105709061Y-376235877D01*
X105706200Y-376222615D01*
X105703950Y-376209078D01*
X105702326Y-376195280D01*
X105701342Y-376181236D01*
X105701011Y-376166960D01*
X105701011Y-373626959D01*
X105621635Y-373626959D01*
X104584465Y-376166960D01*
X104574391Y-376189176D01*
X104562043Y-376211980D01*
X104547439Y-376235095D01*
X104530598Y-376258241D01*
X104511541Y-376281139D01*
X104490285Y-376303510D01*
X104478840Y-376314410D01*
X104466852Y-376325074D01*
X104454325Y-376335467D01*
X104441260Y-376345553D01*
X104427660Y-376355299D01*
X104413528Y-376364669D01*
X104398866Y-376373627D01*
X104383677Y-376382140D01*
X104367962Y-376390173D01*
X104351725Y-376397690D01*
X104334967Y-376404656D01*
X104317691Y-376411038D01*
X104299900Y-376416799D01*
X104281596Y-376421905D01*
X104262781Y-376426322D01*
X104243458Y-376430013D01*
X104223629Y-376432945D01*
X104203297Y-376435083D01*
X104182464Y-376436391D01*
X104161132Y-376436834D01*
X103227157Y-376436834D01*
X103205826Y-376436391D01*
X103184993Y-376435083D01*
X103164661Y-376432945D01*
X103144832Y-376430013D01*
X103125509Y-376426322D01*
X103106694Y-376421905D01*
X103088390Y-376416799D01*
X103070599Y-376411038D01*
X103036565Y-376397690D01*
X103004612Y-376382140D01*
X102974761Y-376364669D01*
X102947029Y-376345553D01*
X102921436Y-376325074D01*
X102898002Y-376303510D01*
X102876747Y-376281139D01*
X102857688Y-376258241D01*
X102840847Y-376235095D01*
X102826242Y-376211980D01*
X102813892Y-376189176D01*
X102803817Y-376166960D01*
X101774589Y-373626959D01*
X101695221Y-373626959D01*
X101695221Y-376166960D01*
X101694890Y-376181236D01*
X101693905Y-376195280D01*
X101692282Y-376209078D01*
X101690032Y-376222615D01*
X101687170Y-376235877D01*
X101683709Y-376248850D01*
X101679663Y-376261518D01*
X101675045Y-376273868D01*
X101669869Y-376285884D01*
X101664149Y-376297552D01*
X101657897Y-376308858D01*
X101651128Y-376319787D01*
X101643856Y-376330325D01*
X101636093Y-376340457D01*
X101627853Y-376350168D01*
X101619150Y-376359444D01*
X101609997Y-376368270D01*
X101600409Y-376376633D01*
X101590398Y-376384516D01*
X101579978Y-376391907D01*
X101569163Y-376398790D01*
X101557966Y-376405150D01*
X101546401Y-376410974D01*
X101534481Y-376416247D01*
X101522220Y-376420953D01*
X101509632Y-376425079D01*
X101496730Y-376428611D01*
X101483528Y-376431532D01*
X101470038Y-376433830D01*
X101456276Y-376435490D01*
X101442254Y-376436496D01*
X101427986Y-376436834D01*
X100271759Y-376436834D01*
X100257482Y-376436496D01*
X100243438Y-376435490D01*
X100229639Y-376433830D01*
X100216101Y-376431532D01*
X100202839Y-376428611D01*
X100189866Y-376425079D01*
X100177197Y-376420953D01*
X100164848Y-376416247D01*
X100152831Y-376410974D01*
X100141163Y-376405150D01*
X100129857Y-376398790D01*
X100118928Y-376391907D01*
X100108390Y-376384516D01*
X100098259Y-376376633D01*
X100088548Y-376368270D01*
X100079272Y-376359444D01*
X100070446Y-376350168D01*
X100062083Y-376340457D01*
X100054200Y-376330325D01*
X100046810Y-376319787D01*
X100039927Y-376308858D01*
X100033567Y-376297552D01*
X100027743Y-376285884D01*
X100022471Y-376273868D01*
X100017765Y-376261518D01*
X100013639Y-376248850D01*
X100010107Y-376235877D01*
X100007186Y-376222615D01*
X100004888Y-376209078D01*
X100003229Y-376195280D01*
X100002223Y-376181236D01*
X100001884Y-376166960D01*
X100001884Y-371317144D01*
X100002223Y-371302636D01*
X100003229Y-371288388D01*
X100004888Y-371274415D01*
X100007186Y-371260729D01*
X100010107Y-371247343D01*
X100013639Y-371234271D01*
X100017765Y-371221526D01*
X100022471Y-371209120D01*
X100027743Y-371197066D01*
X100033567Y-371185379D01*
X100039927Y-371174070D01*
X100046810Y-371163154D01*
X100054200Y-371152642D01*
X100062083Y-371142548D01*
X100070446Y-371132886D01*
X100079272Y-371123668D01*
X100088548Y-371114907D01*
X100098259Y-371106617D01*
X100108390Y-371098810D01*
X100118928Y-371091499D01*
X100129857Y-371084699D01*
X100141163Y-371078421D01*
X100152831Y-371072679D01*
X100164848Y-371067486D01*
X100177197Y-371062854D01*
X100189866Y-371058798D01*
X100202839Y-371055330D01*
X100216101Y-371052463D01*
X100229639Y-371050211D01*
X100243438Y-371048586D01*
X100257482Y-371047601D01*
X100271759Y-371047270D01*
X101888359Y-371047270D01*
X101909698Y-371047714D01*
G37*
G36*
X102097763Y-367000273D02*
G01*
X100077682Y-367719763D01*
X98638710Y-363679609D01*
X100658783Y-362960119D01*
X102097763Y-367000273D01*
G37*
G36*
X105037942Y-378006158D02*
G01*
X105051964Y-378007164D01*
X105065726Y-378008823D01*
X105079216Y-378011121D01*
X105092418Y-378014043D01*
X105105320Y-378017574D01*
X105117908Y-378021700D01*
X105130169Y-378026406D01*
X105142089Y-378031678D01*
X105153654Y-378037502D01*
X105164851Y-378043862D01*
X105175666Y-378050745D01*
X105186086Y-378058135D01*
X105196097Y-378066018D01*
X105205685Y-378074380D01*
X105214838Y-378083206D01*
X105223541Y-378092482D01*
X105231780Y-378102193D01*
X105239543Y-378112324D01*
X105246816Y-378122861D01*
X105253585Y-378133790D01*
X105259837Y-378145096D01*
X105265557Y-378156764D01*
X105270733Y-378168780D01*
X105275351Y-378181129D01*
X105279397Y-378193797D01*
X105282858Y-378206769D01*
X105285720Y-378220031D01*
X105287970Y-378233569D01*
X105289593Y-378247367D01*
X105290577Y-378261411D01*
X105290908Y-378275686D01*
X105290908Y-379045630D01*
X105290577Y-379060138D01*
X105289593Y-379074384D01*
X105287970Y-379088357D01*
X105285720Y-379102042D01*
X105282858Y-379115428D01*
X105279397Y-379128499D01*
X105275351Y-379141244D01*
X105270733Y-379153650D01*
X105265557Y-379165703D01*
X105259837Y-379177390D01*
X105253585Y-379188698D01*
X105246816Y-379199615D01*
X105239543Y-379210126D01*
X105231780Y-379220219D01*
X105223541Y-379229882D01*
X105214838Y-379239100D01*
X105205685Y-379247860D01*
X105196097Y-379256150D01*
X105186086Y-379263957D01*
X105175666Y-379271267D01*
X105164851Y-379278068D01*
X105153654Y-379284346D01*
X105142089Y-379290088D01*
X105130169Y-379295281D01*
X105117908Y-379299912D01*
X105105320Y-379303968D01*
X105092418Y-379307436D01*
X105079216Y-379310303D01*
X105065726Y-379312556D01*
X105051964Y-379314181D01*
X105037942Y-379315165D01*
X105023674Y-379315497D01*
X104290779Y-379315497D01*
X104290779Y-382088339D01*
X105023674Y-382088339D01*
X105037942Y-382088670D01*
X105051964Y-382089655D01*
X105065726Y-382091280D01*
X105079216Y-382093532D01*
X105092418Y-382096399D01*
X105105320Y-382099866D01*
X105117908Y-382103922D01*
X105130169Y-382108553D01*
X105142089Y-382113746D01*
X105153654Y-382119488D01*
X105164851Y-382125766D01*
X105175666Y-382132566D01*
X105186086Y-382139876D01*
X105196097Y-382147683D01*
X105205685Y-382155973D01*
X105214838Y-382164733D01*
X105223541Y-382173951D01*
X105231780Y-382183613D01*
X105239543Y-382193706D01*
X105246816Y-382204217D01*
X105253585Y-382215134D01*
X105259837Y-382226442D01*
X105265557Y-382238129D01*
X105270733Y-382250182D01*
X105275351Y-382262588D01*
X105279397Y-382275333D01*
X105282858Y-382288405D01*
X105285720Y-382301791D01*
X105287970Y-382315477D01*
X105289593Y-382329450D01*
X105290577Y-382343697D01*
X105290908Y-382358206D01*
X105290908Y-383128149D01*
X105290577Y-383142417D01*
X105289593Y-383156439D01*
X105287970Y-383170202D01*
X105285720Y-383183691D01*
X105282858Y-383196893D01*
X105279397Y-383209795D01*
X105275351Y-383222383D01*
X105270733Y-383234643D01*
X105265557Y-383246563D01*
X105259837Y-383258128D01*
X105253585Y-383269324D01*
X105246816Y-383280139D01*
X105239543Y-383290558D01*
X105231780Y-383300569D01*
X105223541Y-383310157D01*
X105214838Y-383319309D01*
X105205685Y-383328012D01*
X105196097Y-383336251D01*
X105186086Y-383344014D01*
X105175666Y-383351286D01*
X105164851Y-383358055D01*
X105153654Y-383364306D01*
X105142089Y-383370026D01*
X105130169Y-383375202D01*
X105117908Y-383379820D01*
X105105320Y-383383866D01*
X105092418Y-383387326D01*
X105079216Y-383390188D01*
X105065726Y-383392438D01*
X105051964Y-383394061D01*
X105037942Y-383395045D01*
X105023674Y-383395376D01*
X101864547Y-383395376D01*
X101850279Y-383395045D01*
X101836257Y-383394061D01*
X101822495Y-383392438D01*
X101809006Y-383390188D01*
X101795804Y-383387326D01*
X101782902Y-383383866D01*
X101770315Y-383379820D01*
X101758054Y-383375202D01*
X101746135Y-383370026D01*
X101734571Y-383364306D01*
X101723375Y-383358055D01*
X101712560Y-383351286D01*
X101702141Y-383344014D01*
X101692131Y-383336251D01*
X101682543Y-383328012D01*
X101673391Y-383319309D01*
X101664689Y-383310157D01*
X101656450Y-383300569D01*
X101648687Y-383290558D01*
X101641415Y-383280139D01*
X101634647Y-383269324D01*
X101628396Y-383258128D01*
X101622676Y-383246563D01*
X101617501Y-383234643D01*
X101612884Y-383222383D01*
X101608838Y-383209795D01*
X101605377Y-383196893D01*
X101602516Y-383183691D01*
X101600266Y-383170202D01*
X101598643Y-383156439D01*
X101597659Y-383142417D01*
X101597328Y-383128149D01*
X101597328Y-382358206D01*
X101597659Y-382343697D01*
X101598643Y-382329450D01*
X101600266Y-382315477D01*
X101602516Y-382301791D01*
X101605377Y-382288405D01*
X101608838Y-382275333D01*
X101612884Y-382262588D01*
X101617501Y-382250182D01*
X101622676Y-382238129D01*
X101628396Y-382226442D01*
X101634647Y-382215134D01*
X101641415Y-382204217D01*
X101648687Y-382193706D01*
X101656450Y-382183613D01*
X101664689Y-382173951D01*
X101673391Y-382164733D01*
X101682543Y-382155973D01*
X101692131Y-382147683D01*
X101702141Y-382139876D01*
X101712560Y-382132566D01*
X101723375Y-382125766D01*
X101734571Y-382119488D01*
X101746135Y-382113746D01*
X101758054Y-382108553D01*
X101770315Y-382103922D01*
X101782902Y-382099866D01*
X101795804Y-382096399D01*
X101809006Y-382093532D01*
X101822495Y-382091280D01*
X101836257Y-382089655D01*
X101850279Y-382088670D01*
X101864547Y-382088339D01*
X102597442Y-382088339D01*
X102597442Y-379315497D01*
X101864547Y-379315497D01*
X101850279Y-379315165D01*
X101836257Y-379314181D01*
X101822495Y-379312556D01*
X101809006Y-379310303D01*
X101795804Y-379307436D01*
X101782902Y-379303968D01*
X101770315Y-379299912D01*
X101758054Y-379295281D01*
X101746135Y-379290088D01*
X101734571Y-379284346D01*
X101723375Y-379278068D01*
X101712560Y-379271267D01*
X101702141Y-379263957D01*
X101692131Y-379256150D01*
X101682543Y-379247860D01*
X101673391Y-379239100D01*
X101664689Y-379229882D01*
X101656450Y-379220219D01*
X101648687Y-379210126D01*
X101641415Y-379199615D01*
X101634647Y-379188698D01*
X101628396Y-379177390D01*
X101622676Y-379165703D01*
X101617501Y-379153650D01*
X101612884Y-379141244D01*
X101608838Y-379128499D01*
X101605377Y-379115428D01*
X101602516Y-379102042D01*
X101600266Y-379088357D01*
X101598643Y-379074384D01*
X101597659Y-379060138D01*
X101597328Y-379045630D01*
X101597328Y-378275686D01*
X101597659Y-378261411D01*
X101598643Y-378247367D01*
X101600266Y-378233569D01*
X101602516Y-378220031D01*
X101605377Y-378206769D01*
X101608838Y-378193797D01*
X101612884Y-378181129D01*
X101617501Y-378168780D01*
X101622676Y-378156764D01*
X101628396Y-378145096D01*
X101634647Y-378133790D01*
X101641415Y-378122861D01*
X101648687Y-378112324D01*
X101656450Y-378102193D01*
X101664689Y-378092482D01*
X101673391Y-378083206D01*
X101682543Y-378074380D01*
X101692131Y-378066018D01*
X101702141Y-378058135D01*
X101712560Y-378050745D01*
X101723375Y-378043862D01*
X101734571Y-378037502D01*
X101746135Y-378031678D01*
X101758054Y-378026406D01*
X101770315Y-378021700D01*
X101782902Y-378017574D01*
X101795804Y-378014043D01*
X101809006Y-378011121D01*
X101822495Y-378008823D01*
X101836257Y-378007164D01*
X101850279Y-378006158D01*
X101864547Y-378005819D01*
X105023674Y-378005819D01*
X105037942Y-378006158D01*
G37*
G36*
X110178066Y-364122313D02*
G01*
X108157989Y-364841803D01*
X106719017Y-360801649D01*
X108739093Y-360082159D01*
X110178066Y-364122313D01*
G37*
G36*
X106137909Y-365561293D02*
G01*
X104117836Y-366280783D01*
X102678863Y-362240629D01*
X104698936Y-361521139D01*
X106137909Y-365561293D01*
G37*
G36*
X98012896Y-377855610D02*
G01*
X98195983Y-377865317D01*
X98373588Y-377881382D01*
X98545677Y-377903715D01*
X98712214Y-377932224D01*
X98873164Y-377966818D01*
X99028491Y-378007404D01*
X99178160Y-378053892D01*
X99322135Y-378106189D01*
X99460382Y-378164205D01*
X99592865Y-378227847D01*
X99719548Y-378297024D01*
X99840396Y-378371644D01*
X99955374Y-378451617D01*
X100064446Y-378536849D01*
X100167577Y-378627251D01*
X100264732Y-378722729D01*
X100355876Y-378823194D01*
X100440972Y-378928552D01*
X100519985Y-379038713D01*
X100592881Y-379153585D01*
X100659624Y-379273076D01*
X100720178Y-379397095D01*
X100774508Y-379525550D01*
X100822579Y-379658350D01*
X100864355Y-379795404D01*
X100899801Y-379936618D01*
X100928881Y-380081903D01*
X100951561Y-380231166D01*
X100967805Y-380384316D01*
X100977577Y-380541261D01*
X100980842Y-380701910D01*
X100977577Y-380862560D01*
X100967805Y-381019507D01*
X100951561Y-381172658D01*
X100928881Y-381321922D01*
X100899801Y-381467208D01*
X100864355Y-381608424D01*
X100822579Y-381745478D01*
X100774508Y-381878279D01*
X100720178Y-382006735D01*
X100659624Y-382130754D01*
X100592881Y-382250246D01*
X100519985Y-382365119D01*
X100440972Y-382475280D01*
X100355876Y-382580639D01*
X100264732Y-382681104D01*
X100167577Y-382776583D01*
X100064446Y-382866985D01*
X99955374Y-382952218D01*
X99840396Y-383032190D01*
X99719548Y-383106811D01*
X99592865Y-383175988D01*
X99460382Y-383239630D01*
X99322135Y-383297646D01*
X99178160Y-383349944D01*
X99028491Y-383396431D01*
X98873164Y-383437018D01*
X98712214Y-383471611D01*
X98545677Y-383500120D01*
X98373588Y-383522453D01*
X98195983Y-383538519D01*
X98012896Y-383548225D01*
X97824363Y-383551481D01*
X97653472Y-383548577D01*
X97487584Y-383539994D01*
X97326728Y-383525933D01*
X97170932Y-383506590D01*
X97020222Y-383482164D01*
X96874627Y-383452853D01*
X96598890Y-383380369D01*
X96343943Y-383290724D01*
X96110007Y-383185502D01*
X95897301Y-383066288D01*
X95706048Y-382934669D01*
X95536467Y-382792228D01*
X95388781Y-382640551D01*
X95263210Y-382481224D01*
X95159974Y-382315832D01*
X95079295Y-382145959D01*
X95021394Y-381973191D01*
X94986491Y-381799113D01*
X94977733Y-381712079D01*
X94974807Y-381625311D01*
X94975147Y-381607437D01*
X94976161Y-381590035D01*
X94977842Y-381573110D01*
X94980182Y-381556669D01*
X94983173Y-381540719D01*
X94986807Y-381525265D01*
X94991076Y-381510314D01*
X94995974Y-381495872D01*
X95001492Y-381481946D01*
X95007622Y-381468541D01*
X95014356Y-381455665D01*
X95021688Y-381443323D01*
X95029608Y-381431521D01*
X95038110Y-381420267D01*
X95047186Y-381409565D01*
X95056827Y-381399424D01*
X95067027Y-381389848D01*
X95077776Y-381380844D01*
X95089069Y-381372419D01*
X95100896Y-381364579D01*
X95113250Y-381357329D01*
X95126124Y-381350677D01*
X95139509Y-381344629D01*
X95153397Y-381339190D01*
X95167782Y-381334368D01*
X95182656Y-381330168D01*
X95198009Y-381326597D01*
X95213836Y-381323661D01*
X95230128Y-381321367D01*
X95246876Y-381319721D01*
X95264075Y-381318728D01*
X95281715Y-381318396D01*
X96244804Y-381318396D01*
X96286746Y-381319721D01*
X96326339Y-381323661D01*
X96345296Y-381326597D01*
X96363715Y-381330168D01*
X96381613Y-381334368D01*
X96399006Y-381339190D01*
X96415910Y-381344629D01*
X96432343Y-381350677D01*
X96448320Y-381357329D01*
X96463859Y-381364579D01*
X96493685Y-381380844D01*
X96521953Y-381399424D01*
X96548795Y-381420267D01*
X96574343Y-381443323D01*
X96598727Y-381468541D01*
X96622081Y-381495872D01*
X96644536Y-381525265D01*
X96666224Y-381556669D01*
X96687276Y-381590035D01*
X96707824Y-381625311D01*
X96744984Y-381689799D01*
X96785209Y-381753019D01*
X96828775Y-381814572D01*
X96875957Y-381874060D01*
X96927030Y-381931083D01*
X96982269Y-381985242D01*
X97011538Y-382011123D01*
X97041951Y-382036137D01*
X97073543Y-382060237D01*
X97106349Y-382083370D01*
X97140402Y-382105489D01*
X97175739Y-382126541D01*
X97212392Y-382146479D01*
X97250396Y-382165252D01*
X97289786Y-382182809D01*
X97330596Y-382199102D01*
X97372860Y-382214079D01*
X97416613Y-382227692D01*
X97461889Y-382239891D01*
X97508723Y-382250624D01*
X97557149Y-382259844D01*
X97607202Y-382267499D01*
X97658915Y-382273539D01*
X97712323Y-382277916D01*
X97767461Y-382280578D01*
X97824363Y-382281477D01*
X97902824Y-382279897D01*
X97979430Y-382275162D01*
X98054138Y-382267278D01*
X98126908Y-382256254D01*
X98197697Y-382242097D01*
X98266464Y-382224813D01*
X98333167Y-382204410D01*
X98397765Y-382180895D01*
X98460215Y-382154276D01*
X98520477Y-382124560D01*
X98578508Y-382091754D01*
X98634267Y-382055865D01*
X98687713Y-382016901D01*
X98738803Y-381974868D01*
X98787495Y-381929775D01*
X98833749Y-381881628D01*
X98877523Y-381830435D01*
X98918774Y-381776203D01*
X98957462Y-381718938D01*
X98993544Y-381658650D01*
X99026979Y-381595343D01*
X99057725Y-381529027D01*
X99085741Y-381459708D01*
X99110985Y-381387394D01*
X99133415Y-381312091D01*
X99152989Y-381233807D01*
X99169666Y-381152550D01*
X99183405Y-381068326D01*
X99194163Y-380981143D01*
X99201898Y-380891007D01*
X99206571Y-380797927D01*
X99208137Y-380701910D01*
X99206571Y-380605894D01*
X99201898Y-380512816D01*
X99194163Y-380422682D01*
X99183405Y-380335500D01*
X99169666Y-380251277D01*
X99152989Y-380170020D01*
X99133415Y-380091737D01*
X99110985Y-380016435D01*
X99085741Y-379944122D01*
X99057725Y-379874803D01*
X99026979Y-379808488D01*
X98993544Y-379745182D01*
X98957462Y-379684894D01*
X98918774Y-379627630D01*
X98877523Y-379573398D01*
X98833749Y-379522205D01*
X98787495Y-379474059D01*
X98738803Y-379428966D01*
X98687713Y-379386934D01*
X98634267Y-379347970D01*
X98578508Y-379312081D01*
X98520477Y-379279275D01*
X98460215Y-379249559D01*
X98397765Y-379222940D01*
X98333167Y-379199426D01*
X98266464Y-379179023D01*
X98197697Y-379161739D01*
X98126908Y-379147581D01*
X98054138Y-379136557D01*
X97979430Y-379128674D01*
X97902824Y-379123938D01*
X97824363Y-379122358D01*
X97719319Y-379125465D01*
X97621244Y-379134559D01*
X97529788Y-379149304D01*
X97444603Y-379169363D01*
X97365340Y-379194398D01*
X97291651Y-379224073D01*
X97223185Y-379258049D01*
X97159596Y-379295990D01*
X97100534Y-379337559D01*
X97045649Y-379382418D01*
X96994595Y-379430230D01*
X96947020Y-379480659D01*
X96902578Y-379533366D01*
X96860918Y-379588015D01*
X96821693Y-379644268D01*
X96784553Y-379701788D01*
X96762726Y-379736628D01*
X96740783Y-379769670D01*
X96718545Y-379800851D01*
X96695834Y-379830110D01*
X96672472Y-379857385D01*
X96648281Y-379882613D01*
X96623082Y-379905733D01*
X96610048Y-379916483D01*
X96596697Y-379926683D01*
X96583004Y-379936324D01*
X96568947Y-379945400D01*
X96554505Y-379953902D01*
X96539656Y-379961822D01*
X96524376Y-379969154D01*
X96508643Y-379975889D01*
X96492436Y-379982019D01*
X96475732Y-379987537D01*
X96458509Y-379992434D01*
X96440744Y-379996704D01*
X96422415Y-380000338D01*
X96403500Y-380003329D01*
X96383977Y-380005669D01*
X96363822Y-380007349D01*
X96343015Y-380008364D01*
X96321533Y-380008703D01*
X95358444Y-380008703D01*
X95340803Y-380008364D01*
X95323604Y-380007349D01*
X95306854Y-380005669D01*
X95290562Y-380003329D01*
X95274735Y-380000338D01*
X95259381Y-379996704D01*
X95244507Y-379992434D01*
X95230122Y-379987537D01*
X95216233Y-379982019D01*
X95202847Y-379975889D01*
X95189973Y-379969154D01*
X95177619Y-379961822D01*
X95165791Y-379953902D01*
X95154499Y-379945400D01*
X95143749Y-379936324D01*
X95133549Y-379926683D01*
X95123908Y-379916483D01*
X95114832Y-379905733D01*
X95106330Y-379894440D01*
X95098409Y-379882613D01*
X95091078Y-379870259D01*
X95084343Y-379857385D01*
X95078213Y-379843999D01*
X95072695Y-379830110D01*
X95067798Y-379815725D01*
X95063528Y-379800851D01*
X95059894Y-379785497D01*
X95056903Y-379769670D01*
X95054563Y-379753378D01*
X95052883Y-379736628D01*
X95051868Y-379719429D01*
X95051529Y-379701788D01*
X95054347Y-379618500D01*
X95062786Y-379534953D01*
X95076827Y-379451337D01*
X95096446Y-379367842D01*
X95121623Y-379284660D01*
X95152337Y-379201979D01*
X95188566Y-379119992D01*
X95230289Y-379038887D01*
X95277484Y-378958856D01*
X95330130Y-378880089D01*
X95388207Y-378802777D01*
X95451692Y-378727109D01*
X95520564Y-378653276D01*
X95594802Y-378581468D01*
X95674385Y-378511877D01*
X95759291Y-378444692D01*
X95849499Y-378380103D01*
X95944988Y-378318302D01*
X96045736Y-378259478D01*
X96151723Y-378203822D01*
X96262926Y-378151525D01*
X96379324Y-378102776D01*
X96500896Y-378057766D01*
X96627621Y-378016686D01*
X96759478Y-377979726D01*
X96896445Y-377947076D01*
X97038500Y-377918926D01*
X97185623Y-377895468D01*
X97337792Y-377876891D01*
X97494986Y-377863386D01*
X97657184Y-377855144D01*
X97824363Y-377852354D01*
X98012896Y-377855610D01*
G37*
G36*
X93872536Y-378006158D02*
G01*
X93886581Y-378007164D01*
X93900379Y-378008823D01*
X93913916Y-378011121D01*
X93927178Y-378014043D01*
X93940151Y-378017574D01*
X93952819Y-378021700D01*
X93965169Y-378026406D01*
X93977185Y-378031678D01*
X93988853Y-378037502D01*
X94000159Y-378043862D01*
X94011088Y-378050745D01*
X94021626Y-378058135D01*
X94031757Y-378066018D01*
X94041469Y-378074380D01*
X94050745Y-378083206D01*
X94059571Y-378092482D01*
X94067934Y-378102193D01*
X94075817Y-378112324D01*
X94083208Y-378122861D01*
X94090091Y-378133790D01*
X94096451Y-378145096D01*
X94102275Y-378156764D01*
X94107547Y-378168780D01*
X94112254Y-378181129D01*
X94116380Y-378193797D01*
X94119912Y-378206769D01*
X94122833Y-378220031D01*
X94125131Y-378233569D01*
X94126790Y-378247367D01*
X94127797Y-378261411D01*
X94128135Y-378275686D01*
X94128135Y-383128149D01*
X94127797Y-383142417D01*
X94126790Y-383156439D01*
X94125131Y-383170202D01*
X94122833Y-383183691D01*
X94119912Y-383196893D01*
X94116380Y-383209795D01*
X94112254Y-383222383D01*
X94107547Y-383234643D01*
X94102275Y-383246563D01*
X94096451Y-383258128D01*
X94090091Y-383269324D01*
X94083208Y-383280139D01*
X94075817Y-383290558D01*
X94067934Y-383300569D01*
X94059571Y-383310157D01*
X94050745Y-383319309D01*
X94041469Y-383328012D01*
X94031757Y-383336251D01*
X94021626Y-383344014D01*
X94011088Y-383351286D01*
X94000159Y-383358055D01*
X93988853Y-383364306D01*
X93977185Y-383370026D01*
X93965169Y-383375202D01*
X93952819Y-383379820D01*
X93940151Y-383383866D01*
X93927178Y-383387326D01*
X93913916Y-383390188D01*
X93900379Y-383392438D01*
X93886581Y-383394061D01*
X93872536Y-383395045D01*
X93858261Y-383395376D01*
X89161911Y-383395376D01*
X89147634Y-383395045D01*
X89133589Y-383394061D01*
X89119791Y-383392438D01*
X89106253Y-383390188D01*
X89092990Y-383387326D01*
X89080017Y-383383866D01*
X89067348Y-383379820D01*
X89054998Y-383375202D01*
X89042982Y-383370026D01*
X89031313Y-383364306D01*
X89020007Y-383358055D01*
X89009077Y-383351286D01*
X88998540Y-383344014D01*
X88988408Y-383336251D01*
X88978696Y-383328012D01*
X88969420Y-383319309D01*
X88960593Y-383310157D01*
X88952231Y-383300569D01*
X88944347Y-383290558D01*
X88936956Y-383280139D01*
X88930074Y-383269324D01*
X88923713Y-383258128D01*
X88917889Y-383246563D01*
X88912617Y-383234643D01*
X88907910Y-383222383D01*
X88903784Y-383209795D01*
X88900252Y-383196893D01*
X88897330Y-383183691D01*
X88895033Y-383170202D01*
X88893373Y-383156439D01*
X88892367Y-383142417D01*
X88892028Y-383128149D01*
X88892028Y-382358206D01*
X88892367Y-382343697D01*
X88893373Y-382329450D01*
X88895033Y-382315477D01*
X88897330Y-382301791D01*
X88900252Y-382288405D01*
X88903784Y-382275333D01*
X88907910Y-382262588D01*
X88912617Y-382250182D01*
X88917889Y-382238129D01*
X88923713Y-382226442D01*
X88930074Y-382215134D01*
X88936956Y-382204217D01*
X88944347Y-382193706D01*
X88952231Y-382183613D01*
X88960593Y-382173951D01*
X88969420Y-382164733D01*
X88978696Y-382155973D01*
X88988408Y-382147683D01*
X88998540Y-382139876D01*
X89009077Y-382132566D01*
X89020007Y-382125766D01*
X89031313Y-382119488D01*
X89042982Y-382113746D01*
X89054998Y-382108553D01*
X89067348Y-382103922D01*
X89080017Y-382099866D01*
X89092990Y-382096399D01*
X89106253Y-382093532D01*
X89119791Y-382091280D01*
X89133589Y-382089655D01*
X89147634Y-382088670D01*
X89161911Y-382088339D01*
X92434806Y-382088339D01*
X92434806Y-381318396D01*
X90008567Y-381318396D01*
X89994292Y-381318057D01*
X89980249Y-381317051D01*
X89966452Y-381315392D01*
X89952915Y-381313094D01*
X89939653Y-381310172D01*
X89926681Y-381306641D01*
X89914013Y-381302514D01*
X89901664Y-381297808D01*
X89889648Y-381292535D01*
X89877980Y-381286712D01*
X89866675Y-381280351D01*
X89855746Y-381273468D01*
X89845208Y-381266078D01*
X89835077Y-381258194D01*
X89825366Y-381249832D01*
X89816090Y-381241005D01*
X89807264Y-381231729D01*
X89798902Y-381222018D01*
X89791018Y-381211886D01*
X89783628Y-381201349D01*
X89776745Y-381190420D01*
X89770384Y-381179114D01*
X89764561Y-381167445D01*
X89759288Y-381155429D01*
X89754582Y-381143079D01*
X89750456Y-381130411D01*
X89746924Y-381117439D01*
X89744003Y-381104176D01*
X89741705Y-381090639D01*
X89740045Y-381076841D01*
X89739039Y-381062797D01*
X89738701Y-381048521D01*
X89738701Y-380278586D01*
X89739039Y-380264309D01*
X89740045Y-380250264D01*
X89741705Y-380236466D01*
X89744003Y-380222928D01*
X89746924Y-380209665D01*
X89750456Y-380196692D01*
X89754582Y-380184023D01*
X89759288Y-380171673D01*
X89764561Y-380159657D01*
X89770384Y-380147988D01*
X89776745Y-380136682D01*
X89783628Y-380125752D01*
X89791018Y-380115214D01*
X89798902Y-380105083D01*
X89807264Y-380095371D01*
X89816090Y-380086095D01*
X89825366Y-380077268D01*
X89835077Y-380068906D01*
X89845208Y-380061022D01*
X89855746Y-380053631D01*
X89866675Y-380046748D01*
X89877980Y-380040388D01*
X89889648Y-380034564D01*
X89901664Y-380029291D01*
X89914013Y-380024585D01*
X89926681Y-380020458D01*
X89939653Y-380016927D01*
X89952915Y-380014005D01*
X89966452Y-380011708D01*
X89980249Y-380010048D01*
X89994292Y-380009042D01*
X90008567Y-380008703D01*
X92434806Y-380008703D01*
X92434806Y-379315497D01*
X89161911Y-379315497D01*
X89147634Y-379315165D01*
X89133589Y-379314181D01*
X89119791Y-379312556D01*
X89106253Y-379310303D01*
X89092990Y-379307436D01*
X89080017Y-379303968D01*
X89067348Y-379299912D01*
X89054998Y-379295281D01*
X89042982Y-379290088D01*
X89031313Y-379284346D01*
X89020007Y-379278068D01*
X89009077Y-379271267D01*
X88998540Y-379263957D01*
X88988408Y-379256150D01*
X88978696Y-379247860D01*
X88969420Y-379239100D01*
X88960593Y-379229882D01*
X88952231Y-379220219D01*
X88944347Y-379210126D01*
X88936956Y-379199615D01*
X88930074Y-379188698D01*
X88923713Y-379177390D01*
X88917889Y-379165703D01*
X88912617Y-379153650D01*
X88907910Y-379141244D01*
X88903784Y-379128499D01*
X88900252Y-379115428D01*
X88897330Y-379102042D01*
X88895033Y-379088357D01*
X88893373Y-379074384D01*
X88892367Y-379060138D01*
X88892028Y-379045630D01*
X88892028Y-378275686D01*
X88892367Y-378261411D01*
X88893373Y-378247367D01*
X88895033Y-378233569D01*
X88897330Y-378220031D01*
X88900252Y-378206769D01*
X88903784Y-378193797D01*
X88907910Y-378181129D01*
X88912617Y-378168780D01*
X88917889Y-378156764D01*
X88923713Y-378145096D01*
X88930074Y-378133790D01*
X88936956Y-378122861D01*
X88944347Y-378112324D01*
X88952231Y-378102193D01*
X88960593Y-378092482D01*
X88969420Y-378083206D01*
X88978696Y-378074380D01*
X88988408Y-378066018D01*
X88998540Y-378058135D01*
X89009077Y-378050745D01*
X89020007Y-378043862D01*
X89031313Y-378037502D01*
X89042982Y-378031678D01*
X89054998Y-378026406D01*
X89067348Y-378021700D01*
X89080017Y-378017574D01*
X89092990Y-378014043D01*
X89106253Y-378011121D01*
X89119791Y-378008823D01*
X89133589Y-378007164D01*
X89147634Y-378006158D01*
X89161911Y-378005819D01*
X93858261Y-378005819D01*
X93872536Y-378006158D01*
G37*
G36*
X85883565Y-377861672D02*
G01*
X86199879Y-377888946D01*
X86491737Y-377933157D01*
X86759530Y-377993286D01*
X87003650Y-378068313D01*
X87224489Y-378157219D01*
X87422438Y-378258985D01*
X87512951Y-378314372D01*
X87597888Y-378372591D01*
X87677298Y-378433516D01*
X87751230Y-378497018D01*
X87819734Y-378562971D01*
X87882857Y-378631248D01*
X87940650Y-378701719D01*
X87993160Y-378774259D01*
X88082530Y-378925034D01*
X88151358Y-379082553D01*
X88200037Y-379245796D01*
X88228957Y-379413744D01*
X88238510Y-379585379D01*
X88227793Y-379779207D01*
X88196554Y-379956909D01*
X88146161Y-380119291D01*
X88077982Y-380267157D01*
X87993386Y-380401310D01*
X87893740Y-380522555D01*
X87780413Y-380631696D01*
X87654773Y-380729537D01*
X87518188Y-380816882D01*
X87372025Y-380894537D01*
X87217654Y-380963304D01*
X87056443Y-381023988D01*
X86718970Y-381124325D01*
X86370552Y-381201982D01*
X85086331Y-381414473D01*
X84847363Y-381475231D01*
X84747718Y-381511178D01*
X84663121Y-381551910D01*
X84594943Y-381598231D01*
X84544550Y-381650945D01*
X84513311Y-381710856D01*
X84502594Y-381778769D01*
X84503391Y-381800696D01*
X84505813Y-381822784D01*
X84509899Y-381844977D01*
X84515694Y-381867218D01*
X84523238Y-381889452D01*
X84532575Y-381911621D01*
X84543746Y-381933671D01*
X84556793Y-381955544D01*
X84571758Y-381977184D01*
X84588685Y-381998536D01*
X84607614Y-382019543D01*
X84628588Y-382040148D01*
X84651649Y-382060297D01*
X84676839Y-382079931D01*
X84704201Y-382098996D01*
X84733776Y-382117436D01*
X84765607Y-382135193D01*
X84799735Y-382152211D01*
X84836204Y-382168435D01*
X84875054Y-382183809D01*
X84916329Y-382198275D01*
X84960070Y-382211779D01*
X85006320Y-382224263D01*
X85055120Y-382235671D01*
X85106513Y-382245948D01*
X85160541Y-382255037D01*
X85217247Y-382262882D01*
X85276671Y-382269426D01*
X85338857Y-382274614D01*
X85403846Y-382278389D01*
X85471681Y-382280696D01*
X85542404Y-382281477D01*
X85680575Y-382278815D01*
X85806770Y-382271096D01*
X85921601Y-382258717D01*
X86025681Y-382242080D01*
X86119622Y-382221582D01*
X86204037Y-382197624D01*
X86279537Y-382170603D01*
X86346736Y-382140920D01*
X86406245Y-382108973D01*
X86458677Y-382075162D01*
X86504644Y-382039886D01*
X86544759Y-382003543D01*
X86579634Y-381966534D01*
X86609882Y-381929257D01*
X86636114Y-381892112D01*
X86658943Y-381855497D01*
X86679462Y-381821966D01*
X86700435Y-381789896D01*
X86722005Y-381759384D01*
X86744315Y-381730526D01*
X86767508Y-381703420D01*
X86791729Y-381678163D01*
X86817119Y-381654851D01*
X86830299Y-381643955D01*
X86843824Y-381633581D01*
X86857714Y-381623743D01*
X86871986Y-381614451D01*
X86886658Y-381605719D01*
X86901748Y-381597557D01*
X86917274Y-381589979D01*
X86933254Y-381582996D01*
X86949706Y-381576621D01*
X86966648Y-381570866D01*
X86984097Y-381565742D01*
X87002072Y-381561262D01*
X87020591Y-381557438D01*
X87039671Y-381554282D01*
X87059330Y-381551807D01*
X87079586Y-381550023D01*
X87100458Y-381548944D01*
X87121963Y-381548582D01*
X88085052Y-381548582D01*
X88102693Y-381548922D01*
X88119892Y-381549936D01*
X88136642Y-381551617D01*
X88152934Y-381553957D01*
X88168761Y-381556947D01*
X88184115Y-381560581D01*
X88198989Y-381564851D01*
X88213374Y-381569749D01*
X88227263Y-381575267D01*
X88240649Y-381581397D01*
X88253523Y-381588131D01*
X88265877Y-381595463D01*
X88277705Y-381603384D01*
X88288997Y-381611886D01*
X88299747Y-381620961D01*
X88309947Y-381630603D01*
X88319588Y-381640803D01*
X88328664Y-381651553D01*
X88337166Y-381662845D01*
X88345087Y-381674672D01*
X88352418Y-381687027D01*
X88359153Y-381699901D01*
X88365283Y-381713286D01*
X88370801Y-381727175D01*
X88375698Y-381741561D01*
X88379968Y-381756434D01*
X88383602Y-381771789D01*
X88386593Y-381787616D01*
X88388933Y-381803908D01*
X88390614Y-381820657D01*
X88391628Y-381837857D01*
X88391967Y-381855497D01*
X88389478Y-381935087D01*
X88381970Y-382014506D01*
X88369388Y-382093601D01*
X88351675Y-382172217D01*
X88328775Y-382250199D01*
X88300630Y-382327393D01*
X88267184Y-382403644D01*
X88228381Y-382478798D01*
X88184163Y-382552700D01*
X88134474Y-382625196D01*
X88079257Y-382696131D01*
X88018456Y-382765350D01*
X87952014Y-382832699D01*
X87879873Y-382898024D01*
X87801979Y-382961169D01*
X87718273Y-383021981D01*
X87628699Y-383080305D01*
X87533201Y-383135986D01*
X87431721Y-383188869D01*
X87324204Y-383238801D01*
X87210592Y-383285626D01*
X87090828Y-383329191D01*
X86964857Y-383369340D01*
X86832621Y-383405918D01*
X86694064Y-383438773D01*
X86549129Y-383467748D01*
X86397759Y-383492689D01*
X86239897Y-383513442D01*
X86075488Y-383529852D01*
X85904473Y-383541765D01*
X85726798Y-383549027D01*
X85542404Y-383551481D01*
X85187322Y-383541747D01*
X84858013Y-383513292D01*
X84554082Y-383467242D01*
X84275134Y-383404719D01*
X84020774Y-383326849D01*
X83790606Y-383234755D01*
X83584235Y-383129561D01*
X83401265Y-383012390D01*
X83241301Y-382884368D01*
X83103949Y-382746617D01*
X82988812Y-382600263D01*
X82895496Y-382446428D01*
X82823605Y-382286238D01*
X82772743Y-382120815D01*
X82742516Y-381951284D01*
X82732528Y-381778769D01*
X82743238Y-381585174D01*
X82774455Y-381407675D01*
X82824812Y-381245469D01*
X82892943Y-381097753D01*
X82977479Y-380963723D01*
X83077054Y-380842578D01*
X83190301Y-380733514D01*
X83315853Y-380635730D01*
X83452342Y-380548421D01*
X83598401Y-380470786D01*
X83752663Y-380402021D01*
X83913760Y-380341324D01*
X84250995Y-380240922D01*
X84599167Y-380163159D01*
X85882480Y-379950045D01*
X86121279Y-379889142D01*
X86220854Y-379853131D01*
X86305390Y-379812344D01*
X86373521Y-379765978D01*
X86423878Y-379713230D01*
X86455095Y-379653298D01*
X86465805Y-379585379D01*
X86465123Y-379563798D01*
X86463050Y-379542244D01*
X86459543Y-379520761D01*
X86454560Y-379499392D01*
X86448057Y-379478181D01*
X86439992Y-379457169D01*
X86430322Y-379436401D01*
X86419006Y-379415919D01*
X86405999Y-379395766D01*
X86391260Y-379375986D01*
X86374746Y-379356622D01*
X86356414Y-379337717D01*
X86336222Y-379319313D01*
X86314127Y-379301455D01*
X86290086Y-379284185D01*
X86264057Y-379267546D01*
X86235997Y-379251581D01*
X86205863Y-379236334D01*
X86173614Y-379221848D01*
X86139206Y-379208165D01*
X86102596Y-379195329D01*
X86063742Y-379183384D01*
X86022602Y-379172371D01*
X85979132Y-379162334D01*
X85933290Y-379153317D01*
X85885034Y-379145362D01*
X85834321Y-379138513D01*
X85781107Y-379132812D01*
X85725352Y-379128303D01*
X85667011Y-379125029D01*
X85606043Y-379123033D01*
X85542404Y-379122358D01*
X85438183Y-379125001D01*
X85341652Y-379132585D01*
X85252562Y-379144595D01*
X85170666Y-379160515D01*
X85095715Y-379179831D01*
X85027461Y-379202026D01*
X84965656Y-379226585D01*
X84910053Y-379252994D01*
X84860403Y-379280735D01*
X84816457Y-379309295D01*
X84777969Y-379338156D01*
X84744689Y-379366805D01*
X84716370Y-379394726D01*
X84692764Y-379421402D01*
X84673623Y-379446319D01*
X84658699Y-379468962D01*
X84638150Y-379504266D01*
X84617098Y-379537715D01*
X84595411Y-379569249D01*
X84572956Y-379598810D01*
X84549602Y-379626340D01*
X84525217Y-379651782D01*
X84499669Y-379675077D01*
X84486418Y-379685901D01*
X84472827Y-379696166D01*
X84458879Y-379705866D01*
X84444558Y-379714992D01*
X84429848Y-379723538D01*
X84414731Y-379731497D01*
X84399193Y-379738860D01*
X84383215Y-379745622D01*
X84366782Y-379751774D01*
X84349877Y-379757309D01*
X84332483Y-379762220D01*
X84314585Y-379766500D01*
X84296165Y-379770142D01*
X84277208Y-379773137D01*
X84257696Y-379775480D01*
X84237614Y-379777162D01*
X84216944Y-379778177D01*
X84195671Y-379778517D01*
X83232597Y-379778517D01*
X83214723Y-379778177D01*
X83197319Y-379777162D01*
X83180394Y-379775480D01*
X83163953Y-379773137D01*
X83148002Y-379770142D01*
X83132547Y-379766500D01*
X83117596Y-379762220D01*
X83103154Y-379757309D01*
X83089227Y-379751774D01*
X83075822Y-379745622D01*
X83062945Y-379738860D01*
X83050603Y-379731497D01*
X83038801Y-379723538D01*
X83027546Y-379714992D01*
X83016845Y-379705866D01*
X83006703Y-379696166D01*
X82997127Y-379685901D01*
X82988123Y-379675077D01*
X82979698Y-379663701D01*
X82971857Y-379651782D01*
X82964608Y-379639326D01*
X82957956Y-379626340D01*
X82951907Y-379612833D01*
X82946469Y-379598810D01*
X82941646Y-379584280D01*
X82937447Y-379569249D01*
X82933876Y-379553725D01*
X82930940Y-379537715D01*
X82928646Y-379521226D01*
X82926999Y-379504266D01*
X82926006Y-379486843D01*
X82925674Y-379468962D01*
X82928157Y-379396584D01*
X82935615Y-379323925D01*
X82948061Y-379251155D01*
X82965511Y-379178442D01*
X82987978Y-379105957D01*
X83015477Y-379033867D01*
X83048020Y-378962341D01*
X83085623Y-378891550D01*
X83128299Y-378821662D01*
X83176062Y-378752846D01*
X83228927Y-378685271D01*
X83286907Y-378619106D01*
X83350017Y-378554521D01*
X83418271Y-378491684D01*
X83491682Y-378430765D01*
X83570264Y-378371932D01*
X83654033Y-378315355D01*
X83743001Y-378261203D01*
X83837183Y-378209644D01*
X83936593Y-378160849D01*
X84041245Y-378114985D01*
X84151153Y-378072222D01*
X84266331Y-378032730D01*
X84386794Y-377996677D01*
X84512554Y-377964232D01*
X84643626Y-377935565D01*
X84780025Y-377910844D01*
X84921764Y-377890238D01*
X85068857Y-377873918D01*
X85221319Y-377862051D01*
X85379163Y-377854806D01*
X85542404Y-377852354D01*
X85883565Y-377861672D01*
G37*
G36*
X104145393Y-334402269D02*
G01*
X102125320Y-335121760D01*
X100686340Y-331081610D01*
X102706421Y-330362120D01*
X104145393Y-334402269D01*
G37*
G36*
X122810436Y-351655897D02*
G01*
X118770282Y-353094870D01*
X118050792Y-351074793D01*
X122090946Y-349635820D01*
X122810436Y-351655897D01*
G37*
G36*
X117054535Y-335495283D02*
G01*
X113014385Y-336934260D01*
X112294895Y-334914183D01*
X116335048Y-333475206D01*
X117054535Y-335495283D01*
G37*
G36*
X118493511Y-339535437D02*
G01*
X114453357Y-340974413D01*
X113733867Y-338954336D01*
X117774021Y-337515360D01*
X118493511Y-339535437D01*
G37*
G36*
X117285745Y-378006158D02*
G01*
X117299992Y-378007164D01*
X117313965Y-378008823D01*
X117327651Y-378011121D01*
X117341037Y-378014043D01*
X117354109Y-378017574D01*
X117366855Y-378021700D01*
X117379261Y-378026406D01*
X117391314Y-378031678D01*
X117403002Y-378037502D01*
X117414310Y-378043862D01*
X117425227Y-378050745D01*
X117435739Y-378058135D01*
X117445832Y-378066018D01*
X117455495Y-378074380D01*
X117464713Y-378083206D01*
X117473474Y-378092482D01*
X117481764Y-378102193D01*
X117489571Y-378112324D01*
X117496881Y-378122861D01*
X117503682Y-378133790D01*
X117509960Y-378145096D01*
X117515702Y-378156764D01*
X117520895Y-378168780D01*
X117525526Y-378181129D01*
X117529582Y-378193797D01*
X117533050Y-378206769D01*
X117535917Y-378220031D01*
X117538170Y-378233569D01*
X117539795Y-378247367D01*
X117540780Y-378261411D01*
X117541111Y-378275686D01*
X117541111Y-383128149D01*
X117540780Y-383142417D01*
X117539795Y-383156439D01*
X117538170Y-383170202D01*
X117535917Y-383183691D01*
X117533050Y-383196893D01*
X117529582Y-383209795D01*
X117525526Y-383222383D01*
X117520895Y-383234643D01*
X117515702Y-383246563D01*
X117509960Y-383258128D01*
X117503682Y-383269324D01*
X117496881Y-383280139D01*
X117489571Y-383290558D01*
X117481764Y-383300569D01*
X117473474Y-383310157D01*
X117464713Y-383319309D01*
X117455495Y-383328012D01*
X117445832Y-383336251D01*
X117435739Y-383344014D01*
X117425227Y-383351286D01*
X117414310Y-383358055D01*
X117403002Y-383364306D01*
X117391314Y-383370026D01*
X117379261Y-383375202D01*
X117366855Y-383379820D01*
X117354109Y-383383866D01*
X117341037Y-383387326D01*
X117327651Y-383390188D01*
X117313965Y-383392438D01*
X117299992Y-383394061D01*
X117285745Y-383395045D01*
X117271236Y-383395376D01*
X112574882Y-383395376D01*
X112560606Y-383395045D01*
X112546562Y-383394061D01*
X112532764Y-383392438D01*
X112519227Y-383390188D01*
X112505965Y-383387326D01*
X112492992Y-383383866D01*
X112480324Y-383379820D01*
X112467974Y-383375202D01*
X112455958Y-383370026D01*
X112444290Y-383364306D01*
X112432984Y-383358055D01*
X112422055Y-383351286D01*
X112411517Y-383344014D01*
X112401385Y-383336251D01*
X112391674Y-383328012D01*
X112382398Y-383319309D01*
X112373572Y-383310157D01*
X112365209Y-383300569D01*
X112357326Y-383290558D01*
X112349935Y-383280139D01*
X112343052Y-383269324D01*
X112336692Y-383258128D01*
X112330868Y-383246563D01*
X112325596Y-383234643D01*
X112320889Y-383222383D01*
X112316763Y-383209795D01*
X112313231Y-383196893D01*
X112310310Y-383183691D01*
X112308012Y-383170202D01*
X112306352Y-383156439D01*
X112305346Y-383142417D01*
X112305008Y-383128149D01*
X112305008Y-382358206D01*
X112305346Y-382343697D01*
X112306352Y-382329450D01*
X112308012Y-382315477D01*
X112310310Y-382301791D01*
X112313231Y-382288405D01*
X112316763Y-382275333D01*
X112320889Y-382262588D01*
X112325596Y-382250182D01*
X112330868Y-382238129D01*
X112336692Y-382226442D01*
X112343052Y-382215134D01*
X112349935Y-382204217D01*
X112357326Y-382193706D01*
X112365209Y-382183613D01*
X112373572Y-382173951D01*
X112382398Y-382164733D01*
X112391674Y-382155973D01*
X112401385Y-382147683D01*
X112411517Y-382139876D01*
X112422055Y-382132566D01*
X112432984Y-382125766D01*
X112444290Y-382119488D01*
X112455958Y-382113746D01*
X112467974Y-382108553D01*
X112480324Y-382103922D01*
X112492992Y-382099866D01*
X112505965Y-382096399D01*
X112519227Y-382093532D01*
X112532764Y-382091280D01*
X112546562Y-382089655D01*
X112560606Y-382088670D01*
X112574882Y-382088339D01*
X115847778Y-382088339D01*
X115847778Y-381318396D01*
X113421550Y-381318396D01*
X113407274Y-381318057D01*
X113393230Y-381317051D01*
X113379432Y-381315392D01*
X113365894Y-381313094D01*
X113352631Y-381310172D01*
X113339659Y-381306641D01*
X113326990Y-381302514D01*
X113314640Y-381297808D01*
X113302624Y-381292535D01*
X113290955Y-381286712D01*
X113279649Y-381280351D01*
X113268720Y-381273468D01*
X113258182Y-381266078D01*
X113248051Y-381258194D01*
X113238339Y-381249832D01*
X113229063Y-381241005D01*
X113220237Y-381231729D01*
X113211874Y-381222018D01*
X113203990Y-381211886D01*
X113196600Y-381201349D01*
X113189717Y-381190420D01*
X113183356Y-381179114D01*
X113177532Y-381167445D01*
X113172260Y-381155429D01*
X113167553Y-381143079D01*
X113163427Y-381130411D01*
X113159896Y-381117439D01*
X113156974Y-381104176D01*
X113154676Y-381090639D01*
X113153017Y-381076841D01*
X113152011Y-381062797D01*
X113151672Y-381048521D01*
X113151672Y-380278586D01*
X113152011Y-380264309D01*
X113153017Y-380250264D01*
X113154676Y-380236466D01*
X113156974Y-380222928D01*
X113159896Y-380209665D01*
X113163427Y-380196692D01*
X113167553Y-380184023D01*
X113172260Y-380171673D01*
X113177532Y-380159657D01*
X113183356Y-380147988D01*
X113189717Y-380136682D01*
X113196600Y-380125752D01*
X113203990Y-380115214D01*
X113211874Y-380105083D01*
X113220237Y-380095371D01*
X113229063Y-380086095D01*
X113238339Y-380077268D01*
X113248051Y-380068906D01*
X113258182Y-380061022D01*
X113268720Y-380053631D01*
X113279649Y-380046748D01*
X113290955Y-380040388D01*
X113302624Y-380034564D01*
X113314640Y-380029291D01*
X113326990Y-380024585D01*
X113339659Y-380020458D01*
X113352631Y-380016927D01*
X113365894Y-380014005D01*
X113379432Y-380011708D01*
X113393230Y-380010048D01*
X113407274Y-380009042D01*
X113421550Y-380008703D01*
X115847778Y-380008703D01*
X115847778Y-379315497D01*
X112574882Y-379315497D01*
X112560606Y-379315165D01*
X112546562Y-379314181D01*
X112532764Y-379312556D01*
X112519227Y-379310303D01*
X112505965Y-379307436D01*
X112492992Y-379303968D01*
X112480324Y-379299912D01*
X112467974Y-379295281D01*
X112455958Y-379290088D01*
X112444290Y-379284346D01*
X112432984Y-379278068D01*
X112422055Y-379271267D01*
X112411517Y-379263957D01*
X112401385Y-379256150D01*
X112391674Y-379247860D01*
X112382398Y-379239100D01*
X112373572Y-379229882D01*
X112365209Y-379220219D01*
X112357326Y-379210126D01*
X112349935Y-379199615D01*
X112343052Y-379188698D01*
X112336692Y-379177390D01*
X112330868Y-379165703D01*
X112325596Y-379153650D01*
X112320889Y-379141244D01*
X112316763Y-379128499D01*
X112313231Y-379115428D01*
X112310310Y-379102042D01*
X112308012Y-379088357D01*
X112306352Y-379074384D01*
X112305346Y-379060138D01*
X112305008Y-379045630D01*
X112305008Y-378275686D01*
X112305346Y-378261411D01*
X112306352Y-378247367D01*
X112308012Y-378233569D01*
X112310310Y-378220031D01*
X112313231Y-378206769D01*
X112316763Y-378193797D01*
X112320889Y-378181129D01*
X112325596Y-378168780D01*
X112330868Y-378156764D01*
X112336692Y-378145096D01*
X112343052Y-378133790D01*
X112349935Y-378122861D01*
X112357326Y-378112324D01*
X112365209Y-378102193D01*
X112373572Y-378092482D01*
X112382398Y-378083206D01*
X112391674Y-378074380D01*
X112401385Y-378066018D01*
X112411517Y-378058135D01*
X112422055Y-378050745D01*
X112432984Y-378043862D01*
X112444290Y-378037502D01*
X112455958Y-378031678D01*
X112467974Y-378026406D01*
X112480324Y-378021700D01*
X112492992Y-378017574D01*
X112505965Y-378014043D01*
X112519227Y-378011121D01*
X112532764Y-378008823D01*
X112546562Y-378007164D01*
X112560606Y-378006158D01*
X112574882Y-378005819D01*
X117271236Y-378005819D01*
X117285745Y-378006158D01*
G37*
G36*
X88773460Y-345568106D02*
G01*
X84733314Y-347007082D01*
X84013824Y-344987005D01*
X88053970Y-343548029D01*
X88773460Y-345568106D01*
G37*
G36*
X96110544Y-370897068D02*
G01*
X96293631Y-370906774D01*
X96471237Y-370922838D01*
X96643325Y-370945169D01*
X96809862Y-370973673D01*
X96970812Y-371008259D01*
X97126138Y-371048836D01*
X97275807Y-371095310D01*
X97419782Y-371147590D01*
X97558029Y-371205584D01*
X97690511Y-371269199D01*
X97817194Y-371338345D01*
X97938042Y-371412928D01*
X98053019Y-371492856D01*
X98162091Y-371578038D01*
X98265222Y-371668382D01*
X98362377Y-371763795D01*
X98453520Y-371864185D01*
X98538615Y-371969461D01*
X98617629Y-372079530D01*
X98690524Y-372194300D01*
X98757267Y-372313680D01*
X98817820Y-372437576D01*
X98872150Y-372565898D01*
X98920221Y-372698553D01*
X98961996Y-372835449D01*
X98997442Y-372976493D01*
X99026523Y-373121595D01*
X99049202Y-373270661D01*
X99065446Y-373423600D01*
X99075218Y-373580320D01*
X99078483Y-373740728D01*
X99075218Y-373901378D01*
X99065446Y-374058324D01*
X99049202Y-374211475D01*
X99026523Y-374360738D01*
X98997442Y-374506023D01*
X98961996Y-374647239D01*
X98920221Y-374784292D01*
X98872150Y-374917093D01*
X98817820Y-375045548D01*
X98757267Y-375169568D01*
X98690524Y-375289059D01*
X98617629Y-375403931D01*
X98538615Y-375514092D01*
X98453520Y-375619451D01*
X98362377Y-375719916D01*
X98265222Y-375815394D01*
X98162091Y-375905796D01*
X98053019Y-375991029D01*
X97938042Y-376071002D01*
X97817194Y-376145622D01*
X97690511Y-376214799D01*
X97558029Y-376278441D01*
X97419782Y-376336457D01*
X97275807Y-376388754D01*
X97126138Y-376435242D01*
X96970812Y-376475828D01*
X96809862Y-376510422D01*
X96643325Y-376538931D01*
X96471237Y-376561264D01*
X96293631Y-376577330D01*
X96110544Y-376587036D01*
X95922012Y-376590292D01*
X95751353Y-376587395D01*
X95585668Y-376578835D01*
X95424987Y-376564809D01*
X95269338Y-376545515D01*
X95118751Y-376521149D01*
X94973255Y-376491909D01*
X94697651Y-376419595D01*
X94442760Y-376330150D01*
X94208813Y-376225152D01*
X93996043Y-376106178D01*
X93804682Y-375974806D01*
X93634964Y-375832612D01*
X93487120Y-375681175D01*
X93361384Y-375522072D01*
X93257987Y-375356879D01*
X93177163Y-375187175D01*
X93119143Y-375014538D01*
X93098758Y-374927611D01*
X93084161Y-374840543D01*
X93075381Y-374753530D01*
X93072448Y-374666769D01*
X93072788Y-374648888D01*
X93073803Y-374631464D01*
X93075485Y-374614505D01*
X93077828Y-374598016D01*
X93080824Y-374582006D01*
X93084465Y-374566482D01*
X93088745Y-374551451D01*
X93093656Y-374536921D01*
X93099192Y-374522898D01*
X93105344Y-374509390D01*
X93112105Y-374496405D01*
X93119469Y-374483949D01*
X93127427Y-374472030D01*
X93135974Y-374460654D01*
X93145100Y-374449830D01*
X93154800Y-374439565D01*
X93165066Y-374429865D01*
X93175890Y-374420739D01*
X93187265Y-374412193D01*
X93199185Y-374404234D01*
X93211641Y-374396871D01*
X93224627Y-374390109D01*
X93238135Y-374383957D01*
X93252159Y-374378422D01*
X93266689Y-374373511D01*
X93281721Y-374369231D01*
X93297245Y-374365589D01*
X93313256Y-374362594D01*
X93329745Y-374360251D01*
X93346705Y-374358569D01*
X93364130Y-374357554D01*
X93382011Y-374357214D01*
X94342445Y-374357214D01*
X94384823Y-374358569D01*
X94405080Y-374360251D01*
X94424740Y-374362594D01*
X94443820Y-374365589D01*
X94462339Y-374369231D01*
X94480315Y-374373511D01*
X94497764Y-374378422D01*
X94514706Y-374383957D01*
X94531159Y-374390109D01*
X94547139Y-374396871D01*
X94562665Y-374404234D01*
X94577756Y-374412193D01*
X94592428Y-374420739D01*
X94620590Y-374439565D01*
X94647294Y-374460654D01*
X94672685Y-374483949D01*
X94696905Y-374509390D01*
X94720098Y-374536921D01*
X94742407Y-374566482D01*
X94763976Y-374598016D01*
X94784947Y-374631464D01*
X94805465Y-374666769D01*
X94843063Y-374730792D01*
X94883613Y-374793605D01*
X94927403Y-374854806D01*
X94974720Y-374913991D01*
X95025851Y-374970758D01*
X95081082Y-375024702D01*
X95110324Y-375050491D01*
X95140700Y-375075423D01*
X95172244Y-375099447D01*
X95204992Y-375122515D01*
X95238980Y-375144575D01*
X95274245Y-375165576D01*
X95310821Y-375185470D01*
X95348746Y-375204204D01*
X95388053Y-375221729D01*
X95428781Y-375237995D01*
X95470963Y-375252950D01*
X95514637Y-375266545D01*
X95559838Y-375278730D01*
X95606602Y-375289453D01*
X95654964Y-375298665D01*
X95704961Y-375306315D01*
X95756629Y-375312352D01*
X95810002Y-375316727D01*
X95865118Y-375319389D01*
X95922012Y-375320288D01*
X96000481Y-375318708D01*
X96077108Y-375313972D01*
X96151852Y-375306089D01*
X96224670Y-375295065D01*
X96295519Y-375280907D01*
X96364356Y-375263623D01*
X96431139Y-375243221D01*
X96495826Y-375219706D01*
X96558373Y-375193087D01*
X96618738Y-375163371D01*
X96676878Y-375130565D01*
X96732751Y-375094676D01*
X96786314Y-375055712D01*
X96837525Y-375013680D01*
X96886340Y-374968587D01*
X96932718Y-374920440D01*
X96976615Y-374869247D01*
X97017989Y-374815015D01*
X97056797Y-374757751D01*
X97092997Y-374697462D01*
X97126546Y-374634156D01*
X97157401Y-374567840D01*
X97185520Y-374498522D01*
X97210861Y-374426208D01*
X97233379Y-374350905D01*
X97253034Y-374272622D01*
X97269781Y-374191365D01*
X97283580Y-374107142D01*
X97294386Y-374019959D01*
X97302157Y-373929824D01*
X97306851Y-373836745D01*
X97308426Y-373740728D01*
X97306851Y-373644720D01*
X97302157Y-373551663D01*
X97294386Y-373461565D01*
X97283580Y-373374431D01*
X97269781Y-373290268D01*
X97253034Y-373209081D01*
X97233379Y-373130878D01*
X97210861Y-373055665D01*
X97185520Y-372983447D01*
X97157401Y-372914232D01*
X97126546Y-372848025D01*
X97092997Y-372784833D01*
X97056797Y-372724663D01*
X97017989Y-372667519D01*
X96976615Y-372613410D01*
X96932718Y-372562340D01*
X96886340Y-372514317D01*
X96837525Y-372469346D01*
X96786314Y-372427434D01*
X96732751Y-372388587D01*
X96676878Y-372352812D01*
X96618738Y-372320115D01*
X96558373Y-372290502D01*
X96495826Y-372263979D01*
X96431139Y-372240553D01*
X96364356Y-372220230D01*
X96295519Y-372203017D01*
X96224670Y-372188919D01*
X96151852Y-372177943D01*
X96077108Y-372170095D01*
X96000481Y-372165381D01*
X95922012Y-372163809D01*
X95817404Y-372166915D01*
X95719653Y-372176005D01*
X95628420Y-372190738D01*
X95543368Y-372210773D01*
X95464162Y-372235770D01*
X95390463Y-372265386D01*
X95321933Y-372299281D01*
X95258238Y-372337113D01*
X95199037Y-372378543D01*
X95143996Y-372423227D01*
X95092776Y-372470826D01*
X95045041Y-372520999D01*
X95000453Y-372573403D01*
X94958676Y-372627699D01*
X94919371Y-372683544D01*
X94882202Y-372740599D01*
X94860375Y-372775876D01*
X94838432Y-372809243D01*
X94816194Y-372840648D01*
X94793484Y-372870042D01*
X94770122Y-372897374D01*
X94745931Y-372922593D01*
X94720732Y-372945649D01*
X94707699Y-372956351D01*
X94694347Y-372966493D01*
X94680654Y-372976069D01*
X94666598Y-372985073D01*
X94652156Y-372993498D01*
X94637306Y-373001338D01*
X94622026Y-373008588D01*
X94606293Y-373015240D01*
X94590085Y-373021289D01*
X94573381Y-373026727D01*
X94556157Y-373031549D01*
X94538391Y-373035749D01*
X94520062Y-373039320D01*
X94501146Y-373042256D01*
X94481621Y-373044550D01*
X94461466Y-373046197D01*
X94440658Y-373047189D01*
X94419174Y-373047522D01*
X93458740Y-373047522D01*
X93440858Y-373047189D01*
X93423433Y-373046197D01*
X93406472Y-373044550D01*
X93389982Y-373042256D01*
X93373971Y-373039320D01*
X93358446Y-373035749D01*
X93343414Y-373031549D01*
X93328883Y-373026727D01*
X93314859Y-373021289D01*
X93301351Y-373015240D01*
X93288365Y-373008588D01*
X93275908Y-373001338D01*
X93263988Y-372993498D01*
X93252612Y-372985073D01*
X93241788Y-372976069D01*
X93231522Y-372966493D01*
X93221822Y-372956351D01*
X93212696Y-372945649D01*
X93204149Y-372934395D01*
X93196190Y-372922593D01*
X93188827Y-372910251D01*
X93182065Y-372897374D01*
X93175913Y-372883969D01*
X93170378Y-372870042D01*
X93165466Y-372855600D01*
X93161186Y-372840648D01*
X93157545Y-372825194D01*
X93154549Y-372809243D01*
X93152206Y-372792802D01*
X93150524Y-372775876D01*
X93149509Y-372758473D01*
X93149170Y-372740599D01*
X93151988Y-372657318D01*
X93160427Y-372573793D01*
X93174468Y-372490213D01*
X93194087Y-372406767D01*
X93219264Y-372323644D01*
X93249978Y-372241034D01*
X93286207Y-372159127D01*
X93327930Y-372078112D01*
X93375125Y-371998177D01*
X93427772Y-371919514D01*
X93485848Y-371842311D01*
X93549333Y-371766757D01*
X93618206Y-371693042D01*
X93692444Y-371621356D01*
X93772027Y-371551887D01*
X93856933Y-371484826D01*
X93947142Y-371420362D01*
X94042631Y-371358683D01*
X94143379Y-371299981D01*
X94249366Y-371244443D01*
X94360569Y-371192260D01*
X94476967Y-371143620D01*
X94598540Y-371098714D01*
X94725266Y-371057730D01*
X94857123Y-371020859D01*
X94994090Y-370988289D01*
X95136146Y-370960211D01*
X95283269Y-370936812D01*
X95435439Y-370918284D01*
X95592633Y-370904815D01*
X95754832Y-370896595D01*
X95922012Y-370893812D01*
X96110544Y-370897068D01*
G37*
G36*
X91651413Y-353648413D02*
G01*
X87611259Y-355087385D01*
X86891769Y-353067312D01*
X90931923Y-351628340D01*
X91651413Y-353648413D01*
G37*
G36*
X124317093Y-383128149D02*
G01*
X124316754Y-383142417D01*
X124315748Y-383156439D01*
X124314088Y-383170202D01*
X124311791Y-383183691D01*
X124308869Y-383196893D01*
X124305337Y-383209795D01*
X124301211Y-383222383D01*
X124296505Y-383234643D01*
X124291232Y-383246563D01*
X124285408Y-383258128D01*
X124279048Y-383269324D01*
X124272165Y-383280139D01*
X124264774Y-383290558D01*
X124256891Y-383300569D01*
X124248528Y-383310157D01*
X124239702Y-383319309D01*
X124230426Y-383328012D01*
X124220715Y-383336251D01*
X124210583Y-383344014D01*
X124200045Y-383351286D01*
X124189116Y-383358055D01*
X124177810Y-383364306D01*
X124166142Y-383370026D01*
X124154126Y-383375202D01*
X124141776Y-383379820D01*
X124129108Y-383383866D01*
X124116136Y-383387326D01*
X124102873Y-383390188D01*
X124089336Y-383392438D01*
X124075538Y-383394061D01*
X124061494Y-383395045D01*
X124047218Y-383395376D01*
X121620987Y-383395376D01*
X121429194Y-383392238D01*
X121243262Y-383382888D01*
X121063204Y-383367425D01*
X120889036Y-383345948D01*
X120720773Y-383318554D01*
X120558429Y-383285342D01*
X120402020Y-383246410D01*
X120251561Y-383201858D01*
X120107066Y-383151782D01*
X119968551Y-383096282D01*
X119836031Y-383035455D01*
X119709521Y-382969401D01*
X119589036Y-382898217D01*
X119474591Y-382822002D01*
X119366200Y-382740854D01*
X119263879Y-382654871D01*
X119167644Y-382564152D01*
X119077508Y-382468796D01*
X118993487Y-382368900D01*
X118915596Y-382264563D01*
X118843850Y-382155883D01*
X118778264Y-382042959D01*
X118718853Y-381925889D01*
X118665632Y-381804771D01*
X118618616Y-381679703D01*
X118577820Y-381550785D01*
X118543260Y-381418114D01*
X118514949Y-381281788D01*
X118492903Y-381141907D01*
X118477138Y-380998568D01*
X118467668Y-380851869D01*
X118464508Y-380701910D01*
X120237213Y-380701910D01*
X120238674Y-380790842D01*
X120243045Y-380877054D01*
X120250302Y-380960540D01*
X120260426Y-381041292D01*
X120273395Y-381119304D01*
X120289187Y-381194569D01*
X120307781Y-381267080D01*
X120329156Y-381336830D01*
X120353291Y-381403814D01*
X120380164Y-381468023D01*
X120409754Y-381529452D01*
X120442039Y-381588092D01*
X120476999Y-381643939D01*
X120514612Y-381696984D01*
X120554856Y-381747221D01*
X120597710Y-381794643D01*
X120643154Y-381839244D01*
X120691165Y-381881017D01*
X120741722Y-381919954D01*
X120794805Y-381956050D01*
X120850391Y-381989297D01*
X120908460Y-382019688D01*
X120968989Y-382047217D01*
X121031959Y-382071877D01*
X121097347Y-382093662D01*
X121165132Y-382112563D01*
X121235292Y-382128576D01*
X121307808Y-382141692D01*
X121382656Y-382151905D01*
X121459816Y-382159209D01*
X121539267Y-382163596D01*
X121620987Y-382165060D01*
X122623756Y-382165060D01*
X122623756Y-379238768D01*
X121620987Y-379238768D01*
X121539267Y-379240232D01*
X121459816Y-379244619D01*
X121382656Y-379251923D01*
X121307808Y-379262136D01*
X121235292Y-379275252D01*
X121165132Y-379291265D01*
X121097347Y-379310167D01*
X121031959Y-379331951D01*
X120968989Y-379356612D01*
X120908460Y-379384141D01*
X120850391Y-379414533D01*
X120794805Y-379447780D01*
X120741722Y-379483875D01*
X120691165Y-379522813D01*
X120643154Y-379564585D01*
X120597710Y-379609186D01*
X120554856Y-379656609D01*
X120514612Y-379706846D01*
X120476999Y-379759891D01*
X120442039Y-379815737D01*
X120409754Y-379874377D01*
X120380164Y-379935806D01*
X120353291Y-380000014D01*
X120329156Y-380066997D01*
X120307781Y-380136747D01*
X120289187Y-380209258D01*
X120273395Y-380284522D01*
X120260426Y-380362533D01*
X120250302Y-380443284D01*
X120243045Y-380526769D01*
X120238674Y-380612980D01*
X120237213Y-380701910D01*
X118464508Y-380701910D01*
X118467668Y-380551944D01*
X118477138Y-380405224D01*
X118492903Y-380261850D01*
X118514949Y-380121921D01*
X118543260Y-379985537D01*
X118577820Y-379852796D01*
X118618616Y-379723798D01*
X118665632Y-379598643D01*
X118718853Y-379477429D01*
X118778264Y-379360256D01*
X118843850Y-379247223D01*
X118915596Y-379138430D01*
X118993487Y-379033976D01*
X119077508Y-378933960D01*
X119167644Y-378838481D01*
X119263879Y-378747640D01*
X119366200Y-378661534D01*
X119474591Y-378580264D01*
X119589036Y-378503929D01*
X119709521Y-378432627D01*
X119836031Y-378366459D01*
X119968551Y-378305524D01*
X120107066Y-378249921D01*
X120251561Y-378199749D01*
X120402020Y-378155108D01*
X120558429Y-378116097D01*
X120720773Y-378082815D01*
X120889036Y-378055361D01*
X121063204Y-378033836D01*
X121243262Y-378018337D01*
X121429194Y-378008965D01*
X121620987Y-378005819D01*
X124047218Y-378005819D01*
X124061494Y-378006158D01*
X124075538Y-378007164D01*
X124089336Y-378008823D01*
X124102873Y-378011121D01*
X124116136Y-378014043D01*
X124129108Y-378017574D01*
X124141776Y-378021700D01*
X124154126Y-378026406D01*
X124166142Y-378031678D01*
X124177810Y-378037502D01*
X124189116Y-378043862D01*
X124200045Y-378050745D01*
X124210583Y-378058135D01*
X124220715Y-378066018D01*
X124230426Y-378074380D01*
X124239702Y-378083206D01*
X124248528Y-378092482D01*
X124256891Y-378102193D01*
X124264774Y-378112324D01*
X124272165Y-378122861D01*
X124279048Y-378133790D01*
X124285408Y-378145096D01*
X124291232Y-378156764D01*
X124296505Y-378168780D01*
X124301211Y-378181129D01*
X124305337Y-378193797D01*
X124308869Y-378206769D01*
X124311791Y-378220031D01*
X124314088Y-378233569D01*
X124315748Y-378247367D01*
X124316754Y-378261411D01*
X124317093Y-378275686D01*
X124317093Y-382165060D01*
X124317093Y-383128149D01*
G37*
G36*
X92024933Y-338719198D02*
G01*
X90004860Y-339438685D01*
X88565879Y-335398531D01*
X90585960Y-334679041D01*
X92024933Y-338719198D01*
G37*
D11*
X73400000Y-304100000D02*
X133400000Y-304100000D01*
X133400000Y-404100000D01*
X73400000Y-404100000D01*
X73400000Y-304100000D01*
M02*
