%TF.GenerationSoftware,KiCad,Pcbnew,8.0.5*%
%TF.CreationDate,2024-10-21T17:45:40+01:00*%
%TF.ProjectId,Basic_DSP_V0_1,42617369-635f-4445-9350-5f56305f312e,rev?*%
%TF.SameCoordinates,Original*%
%TF.FileFunction,Copper,L4,Inr*%
%TF.FilePolarity,Positive*%
%FSLAX46Y46*%
G04 Gerber Fmt 4.6, Leading zero omitted, Abs format (unit mm)*
G04 Created by KiCad (PCBNEW 8.0.5) date 2024-10-21 17:45:40*
%MOMM*%
%LPD*%
G01*
G04 APERTURE LIST*
%TA.AperFunction,ComponentPad*%
%ADD10C,5.700000*%
%TD*%
%TA.AperFunction,ComponentPad*%
%ADD11R,1.100000X1.000000*%
%TD*%
%TA.AperFunction,ComponentPad*%
%ADD12C,1.000000*%
%TD*%
%TA.AperFunction,ComponentPad*%
%ADD13R,1.000000X1.000000*%
%TD*%
%TA.AperFunction,ComponentPad*%
%ADD14R,1.700000X1.700000*%
%TD*%
%TA.AperFunction,ComponentPad*%
%ADD15O,1.700000X1.700000*%
%TD*%
%TA.AperFunction,ViaPad*%
%ADD16C,0.600000*%
%TD*%
%TA.AperFunction,Conductor*%
%ADD17C,0.750000*%
%TD*%
%TA.AperFunction,Profile*%
%ADD18C,0.500000*%
%TD*%
G04 APERTURE END LIST*
D10*
%TO.N,N/C*%
%TO.C,H3*%
X128400000Y-399100000D03*
%TD*%
%TO.N,N/C*%
%TO.C,H4*%
X78400000Y-399100000D03*
%TD*%
D11*
%TO.N,+3V3*%
%TO.C,J2*%
X78300000Y-365750000D03*
D12*
%TO.N,Net-(D25-A2)*%
X78300000Y-367000000D03*
%TO.N,GND*%
X78300000Y-368250000D03*
%TD*%
D10*
%TO.N,N/C*%
%TO.C,H1*%
X78400000Y-309100000D03*
%TD*%
D11*
%TO.N,+3V3*%
%TO.C,J8*%
X128300000Y-359875000D03*
D12*
%TO.N,Net-(D10-A2)*%
X128300000Y-358625000D03*
%TO.N,GND*%
X128300000Y-357375000D03*
%TD*%
D11*
%TO.N,+3V3*%
%TO.C,J7*%
X128300000Y-351250000D03*
D12*
%TO.N,Net-(D8-A2)*%
X128300000Y-350000000D03*
%TO.N,GND*%
X128300000Y-348750000D03*
%TD*%
%TO.N,/Analogue/AUDIO_OUT_R*%
%TO.C,J11*%
X78275000Y-388125000D03*
%TO.N,GND*%
X78275000Y-389375000D03*
%TO.N,/Analogue/AUDIO_OUT_L*%
X78275000Y-390625000D03*
%TO.N,GND*%
X78275000Y-391875000D03*
%TD*%
D13*
%TO.N,/Connections/SWITCH_1*%
%TO.C,J15*%
X78300000Y-358000000D03*
D12*
%TO.N,GND*%
X78300000Y-359250000D03*
%TD*%
D11*
%TO.N,VCC*%
%TO.C,J1*%
X78300000Y-316750000D03*
D12*
%TO.N,unconnected-(J1-Pad2)*%
X78300000Y-318000000D03*
%TO.N,GND*%
X78300000Y-319250000D03*
%TD*%
D11*
%TO.N,+3V3*%
%TO.C,J3*%
X78300000Y-373750000D03*
D12*
%TO.N,Net-(D4-A2)*%
X78300000Y-375000000D03*
%TO.N,GND*%
X78300000Y-376250000D03*
%TD*%
D13*
%TO.N,/Connections/SWITCH_0*%
%TO.C,J14*%
X78300000Y-349375000D03*
D12*
%TO.N,GND*%
X78300000Y-350625000D03*
%TD*%
%TO.N,/Analogue/AUDIO_IN_L*%
%TO.C,J6*%
X128525000Y-391875000D03*
%TO.N,GND*%
X128525000Y-390625000D03*
%TO.N,/Analogue/AUDIO_IN_R*%
X128525000Y-389375000D03*
%TO.N,GND*%
X128525000Y-388125000D03*
%TD*%
D10*
%TO.N,N/C*%
%TO.C,H2*%
X128400000Y-309100000D03*
%TD*%
D14*
%TO.N,+5V*%
%TO.C,J16*%
X127710000Y-341875000D03*
D15*
%TO.N,+3V3*%
X130250000Y-341875000D03*
%TO.N,/Connections/GPIO0*%
X127710000Y-339335000D03*
%TO.N,/Connections/GPIO1*%
X130250000Y-339335000D03*
%TO.N,/Connections/GPIO2*%
X127710000Y-336795000D03*
%TO.N,/Connections/GPIO3*%
X130250000Y-336795000D03*
%TO.N,/Connections/GPIO4*%
X127710000Y-334255000D03*
%TO.N,/Connections/GPIO5*%
X130250000Y-334255000D03*
%TO.N,/Connections/GPIO6*%
X127710000Y-331715000D03*
%TO.N,/Connections/GPIO7*%
X130250000Y-331715000D03*
%TO.N,/Connections/GPIO8*%
X127710000Y-329175000D03*
%TO.N,/Connections/GPIO9*%
X130250000Y-329175000D03*
%TO.N,/Connections/GPIO10*%
X127710000Y-326635000D03*
%TO.N,/Connections/GPIO11*%
X130250000Y-326635000D03*
%TO.N,GND*%
X127710000Y-324095000D03*
X130250000Y-324095000D03*
%TD*%
D11*
%TO.N,+3V3*%
%TO.C,J10*%
X128300000Y-376250000D03*
D12*
%TO.N,Net-(D11-A2)*%
X128300000Y-375000000D03*
%TO.N,GND*%
X128300000Y-373750000D03*
%TD*%
D11*
%TO.N,+3V3*%
%TO.C,J9*%
X128300000Y-368250000D03*
D12*
%TO.N,Net-(D12-A2)*%
X128300000Y-367000000D03*
%TO.N,GND*%
X128300000Y-365750000D03*
%TD*%
D16*
%TO.N,+5VA*%
X87200000Y-382400000D03*
X110000000Y-384000000D03*
X121200000Y-379200000D03*
X89400000Y-393200000D03*
X106800000Y-391200000D03*
X112600000Y-363000000D03*
X106800000Y-393200000D03*
X109900000Y-395300000D03*
X111100000Y-395300000D03*
X111200000Y-384000000D03*
X112600000Y-364200000D03*
X88200000Y-393200000D03*
X122400000Y-379200000D03*
X87200000Y-384000000D03*
%TO.N,GND*%
X91500000Y-397000000D03*
X103500000Y-364300000D03*
X124400000Y-395900000D03*
X109100000Y-379300000D03*
X93500000Y-306700000D03*
X104600000Y-344800000D03*
X81800000Y-331200000D03*
X96900000Y-354000000D03*
X93100000Y-323000000D03*
X88300000Y-344800000D03*
X106500000Y-347300000D03*
X102100000Y-346100000D03*
X101500000Y-332000000D03*
X94400000Y-361500000D03*
X117600000Y-324800000D03*
X121100000Y-377400000D03*
X103545110Y-344161654D03*
X123800000Y-346300000D03*
X117400000Y-401400000D03*
X104700000Y-368700000D03*
X115000000Y-337900000D03*
X92500000Y-306700000D03*
X103500000Y-359100000D03*
X100900000Y-402300000D03*
X99700000Y-340900000D03*
X123900000Y-371500000D03*
X95300000Y-387700000D03*
X105400000Y-332100000D03*
X100650000Y-358534313D03*
X112600000Y-361300000D03*
X89500000Y-333200000D03*
X107700000Y-353700000D03*
X100000000Y-343900000D03*
X94000000Y-335700000D03*
X124300000Y-397700000D03*
X96900000Y-352000000D03*
X86900000Y-396900000D03*
X98800000Y-335700000D03*
X101500000Y-370300000D03*
X113400000Y-342900000D03*
X101400000Y-339900000D03*
X91700000Y-337300000D03*
X110900000Y-400900000D03*
X109600000Y-353700000D03*
X123900000Y-363400000D03*
X115500000Y-369700000D03*
X110500000Y-359700000D03*
X123900000Y-355400000D03*
%TO.N,+3V3*%
X99000000Y-366600000D03*
X82000000Y-353100000D03*
X81800000Y-330000000D03*
X82000000Y-362200000D03*
X115000000Y-339700000D03*
X110700000Y-349700000D03*
X90800000Y-346800000D03*
X110500000Y-372100000D03*
X109600000Y-349700000D03*
X100400000Y-355300000D03*
X116100000Y-339700000D03*
X119850000Y-313235000D03*
X90800000Y-347900000D03*
X94400000Y-363000000D03*
X80800000Y-329100000D03*
X94000000Y-337600000D03*
X94000000Y-338800000D03*
X99500000Y-355300000D03*
X94400000Y-364000000D03*
X81800000Y-329100000D03*
X79800000Y-329100000D03*
X79800000Y-330000000D03*
X90200000Y-331300000D03*
X80800000Y-330000000D03*
%TO.N,Net-(D1-K)*%
X83700000Y-322700000D03*
X109100000Y-377700000D03*
X83700000Y-321700000D03*
X85700000Y-321700000D03*
X84700000Y-322700000D03*
X84700000Y-321700000D03*
X109100000Y-376600000D03*
X85700000Y-322700000D03*
%TO.N,/Power/V_ENABLE*%
X112000000Y-380500000D03*
X112000000Y-331200000D03*
X92700000Y-326900000D03*
%TO.N,/Connections/ADC_IN0*%
X88300000Y-367100000D03*
X100650000Y-346750000D03*
%TO.N,/Connections/ADC_IN1*%
X96100000Y-349100000D03*
X84200000Y-373800000D03*
%TO.N,/Analogue/CODEC_IN_L*%
X108100000Y-368500000D03*
X117400000Y-400400000D03*
%TO.N,/Connections/ADC_IN2*%
X97600000Y-374300000D03*
X97600000Y-349100000D03*
%TO.N,/Connections/ADC_IN3*%
X99300000Y-375000000D03*
X98600000Y-350700000D03*
%TO.N,/Analogue/CODEC_IN_R*%
X117500000Y-387700000D03*
X108000000Y-366400000D03*
%TO.N,/Connections/ADC_IN4*%
X102030761Y-358000000D03*
X100650000Y-347800000D03*
%TO.N,/Connections/ADC_IN5*%
X103950000Y-357000000D03*
X102000000Y-347600000D03*
%TO.N,/Analogue/CODEC_OUT_L*%
X107800000Y-362500000D03*
X99900000Y-391500000D03*
%TO.N,/Analogue/CODEC_OUT_R*%
X100300000Y-382100000D03*
X107900000Y-359600000D03*
%TO.N,/Processor/MCU_~{RST}*%
X121050000Y-308535000D03*
X99800000Y-342500000D03*
%TO.N,VBUS*%
X91500000Y-319400000D03*
X106600000Y-313300000D03*
X106600000Y-314200000D03*
X101900000Y-312800000D03*
X107400000Y-314200000D03*
X107400000Y-313300000D03*
X89700000Y-319400000D03*
X90600000Y-319400000D03*
X101900000Y-313600000D03*
%TO.N,/Processor/SWO*%
X104400000Y-336800000D03*
X112800000Y-329400000D03*
%TO.N,/Connections/USB_D+*%
X102475000Y-314252248D03*
X106621851Y-341575000D03*
%TO.N,/Connections/USB_D-*%
X106621851Y-342425000D03*
X103325000Y-314252248D03*
%TO.N,+5V*%
X118800000Y-375900000D03*
X107000000Y-317700000D03*
X107000000Y-316600000D03*
%TO.N,/Connections/GPIO2*%
X105250000Y-346600000D03*
%TO.N,/Connections/GPIO3*%
X105300000Y-340300000D03*
%TO.N,/CODEC/I2S_ADC_OUT*%
X100000000Y-344700000D03*
X92300000Y-368200000D03*
%TO.N,/CODEC/I2C1_SDA*%
X102200000Y-342200000D03*
X103100000Y-366400000D03*
%TO.N,/CODEC/I2C1_SCL*%
X102900000Y-341266728D03*
X103200000Y-367200000D03*
%TO.N,+VREF*%
X119000000Y-398000000D03*
X107250000Y-397750000D03*
X98000000Y-391750000D03*
X97000000Y-380750000D03*
X120000000Y-398000000D03*
X98000000Y-380750000D03*
X97000000Y-391750000D03*
X107250000Y-396750000D03*
X120000000Y-386200000D03*
X119000000Y-386200000D03*
%TO.N,/CODEC/I2S_BCLK*%
X103450000Y-363150000D03*
X105700000Y-347315544D03*
%TO.N,/CODEC/I2S_WCLK*%
X102750000Y-344250000D03*
X102700000Y-359100000D03*
%TO.N,/CODEC/I2S_MCLK*%
X104600000Y-345700000D03*
X102800000Y-362400000D03*
%TO.N,/CODEC/I2S_DAC_IN*%
X101300000Y-346100000D03*
X101300000Y-359100000D03*
%TO.N,/CODEC/CODEC_~{RST}*%
X104700000Y-367700000D03*
X106500000Y-348100000D03*
%TD*%
D17*
%TO.N,+5V*%
X127710000Y-341875000D02*
X120575000Y-341875000D01*
X120525000Y-341875000D02*
X118800000Y-343600000D01*
X107000000Y-321562563D02*
X107000000Y-316600000D01*
X120575000Y-341875000D02*
X118800000Y-340100000D01*
X118800000Y-343600000D02*
X118800000Y-375900000D01*
X120575000Y-341875000D02*
X120525000Y-341875000D01*
X118800000Y-333362563D02*
X107000000Y-321562563D01*
X118800000Y-340100000D02*
X118800000Y-333362563D01*
%TD*%
%TA.AperFunction,Conductor*%
%TO.N,Net-(D1-K)*%
G36*
X86978233Y-320397294D02*
G01*
X87044818Y-320418463D01*
X87089389Y-320472270D01*
X87099477Y-320521795D01*
X86900000Y-367000000D01*
X87672529Y-367000000D01*
X87739568Y-367019685D01*
X87785323Y-367072489D01*
X87795267Y-367106354D01*
X87814834Y-367242456D01*
X87860504Y-367342457D01*
X87874623Y-367373373D01*
X87968872Y-367482143D01*
X88089947Y-367559953D01*
X88089950Y-367559954D01*
X88089949Y-367559954D01*
X88228036Y-367600499D01*
X88228038Y-367600500D01*
X88228039Y-367600500D01*
X88371962Y-367600500D01*
X88371962Y-367600499D01*
X88510053Y-367559953D01*
X88631128Y-367482143D01*
X88725377Y-367373373D01*
X88785165Y-367242457D01*
X88804733Y-367106352D01*
X88833758Y-367042798D01*
X88892535Y-367005023D01*
X88927471Y-367000000D01*
X98660248Y-367000000D01*
X98727286Y-367019684D01*
X98789949Y-367059954D01*
X98897107Y-367091417D01*
X98926336Y-367100000D01*
X98928036Y-367100499D01*
X98928038Y-367100500D01*
X98928039Y-367100500D01*
X99071962Y-367100500D01*
X99071962Y-367100499D01*
X99210050Y-367059954D01*
X99210051Y-367059954D01*
X99272714Y-367019684D01*
X99339752Y-367000000D01*
X102580005Y-367000000D01*
X102647044Y-367019685D01*
X102692799Y-367072489D01*
X102702743Y-367141647D01*
X102694353Y-367200000D01*
X102714834Y-367342456D01*
X102753275Y-367426628D01*
X102774623Y-367473373D01*
X102868872Y-367582143D01*
X102989947Y-367659953D01*
X102989950Y-367659954D01*
X102989949Y-367659954D01*
X103097107Y-367691417D01*
X103126336Y-367700000D01*
X103128036Y-367700499D01*
X103128038Y-367700500D01*
X103128039Y-367700500D01*
X103271962Y-367700500D01*
X103271962Y-367700499D01*
X103410053Y-367659953D01*
X103531128Y-367582143D01*
X103625377Y-367473373D01*
X103685165Y-367342457D01*
X103705647Y-367200000D01*
X103697257Y-367141646D01*
X103707201Y-367072489D01*
X103752956Y-367019685D01*
X103819995Y-367000000D01*
X104445557Y-367000000D01*
X104512596Y-367019685D01*
X104558351Y-367072489D01*
X104568295Y-367141647D01*
X104539270Y-367205203D01*
X104497071Y-367236793D01*
X104489950Y-367240045D01*
X104368873Y-367317856D01*
X104274623Y-367426626D01*
X104274622Y-367426628D01*
X104214834Y-367557543D01*
X104194353Y-367700000D01*
X104214834Y-367842456D01*
X104253275Y-367926628D01*
X104274623Y-367973373D01*
X104368872Y-368082143D01*
X104376324Y-368086932D01*
X104389943Y-368095685D01*
X104435698Y-368148489D01*
X104445641Y-368217648D01*
X104416615Y-368281203D01*
X104389943Y-368304315D01*
X104368874Y-368317855D01*
X104274623Y-368426626D01*
X104274622Y-368426628D01*
X104214834Y-368557543D01*
X104194353Y-368700000D01*
X104214834Y-368842456D01*
X104232959Y-368882143D01*
X104274623Y-368973373D01*
X104368872Y-369082143D01*
X104489947Y-369159953D01*
X104489950Y-369159954D01*
X104489949Y-369159954D01*
X104628036Y-369200499D01*
X104628038Y-369200500D01*
X104628039Y-369200500D01*
X104771962Y-369200500D01*
X104771962Y-369200499D01*
X104910053Y-369159953D01*
X105031128Y-369082143D01*
X105125377Y-368973373D01*
X105185165Y-368842457D01*
X105205647Y-368700000D01*
X105185165Y-368557543D01*
X105158886Y-368500000D01*
X107594353Y-368500000D01*
X107614834Y-368642456D01*
X107674622Y-368773371D01*
X107674623Y-368773373D01*
X107768872Y-368882143D01*
X107889947Y-368959953D01*
X107889950Y-368959954D01*
X107889949Y-368959954D01*
X108028036Y-369000499D01*
X108028038Y-369000500D01*
X108028039Y-369000500D01*
X108171962Y-369000500D01*
X108171962Y-369000499D01*
X108310053Y-368959953D01*
X108431128Y-368882143D01*
X108525377Y-368773373D01*
X108585165Y-368642457D01*
X108605647Y-368500000D01*
X108585165Y-368357543D01*
X108525377Y-368226627D01*
X108431128Y-368117857D01*
X108310053Y-368040047D01*
X108310051Y-368040046D01*
X108310049Y-368040045D01*
X108310050Y-368040045D01*
X108171963Y-367999500D01*
X108171961Y-367999500D01*
X108028039Y-367999500D01*
X108028036Y-367999500D01*
X107889949Y-368040045D01*
X107768873Y-368117856D01*
X107674623Y-368226626D01*
X107674622Y-368226628D01*
X107614834Y-368357543D01*
X107594353Y-368500000D01*
X105158886Y-368500000D01*
X105125377Y-368426627D01*
X105031128Y-368317857D01*
X105031125Y-368317855D01*
X105031125Y-368317854D01*
X105010058Y-368304316D01*
X104964302Y-368251513D01*
X104954358Y-368182354D01*
X104983382Y-368118798D01*
X105010058Y-368095684D01*
X105031125Y-368082145D01*
X105031125Y-368082144D01*
X105031128Y-368082143D01*
X105125377Y-367973373D01*
X105185165Y-367842457D01*
X105205647Y-367700000D01*
X105185165Y-367557543D01*
X105125377Y-367426627D01*
X105031128Y-367317857D01*
X104910053Y-367240047D01*
X104910051Y-367240046D01*
X104910049Y-367240045D01*
X104902929Y-367236793D01*
X104850126Y-367191037D01*
X104830443Y-367123997D01*
X104850129Y-367056958D01*
X104902934Y-367011204D01*
X104954443Y-367000000D01*
X109477065Y-367000000D01*
X109544104Y-367019685D01*
X109589859Y-367072489D01*
X109601059Y-367122929D01*
X109698922Y-378474931D01*
X109679816Y-378542138D01*
X109627409Y-378588346D01*
X109574927Y-378600000D01*
X106124000Y-378600000D01*
X106056961Y-378580315D01*
X106011206Y-378527511D01*
X106000000Y-378476000D01*
X106000000Y-370300000D01*
X102110173Y-370283376D01*
X102043218Y-370263405D01*
X101997690Y-370210406D01*
X101987965Y-370177020D01*
X101987216Y-370171812D01*
X101985165Y-370157543D01*
X101925377Y-370026627D01*
X101831128Y-369917857D01*
X101710053Y-369840047D01*
X101710051Y-369840046D01*
X101710049Y-369840045D01*
X101710050Y-369840045D01*
X101571963Y-369799500D01*
X101571961Y-369799500D01*
X101428039Y-369799500D01*
X101428036Y-369799500D01*
X101289949Y-369840045D01*
X101168873Y-369917856D01*
X101074623Y-370026626D01*
X101074622Y-370026628D01*
X101014835Y-370157541D01*
X101014833Y-370157550D01*
X101012782Y-370171812D01*
X100983755Y-370235366D01*
X100924975Y-370273138D01*
X100889515Y-370278159D01*
X82723470Y-370200527D01*
X82656515Y-370180556D01*
X82610987Y-370127557D01*
X82600000Y-370076528D01*
X82600000Y-368200000D01*
X91794353Y-368200000D01*
X91814834Y-368342456D01*
X91853275Y-368426628D01*
X91874623Y-368473373D01*
X91968872Y-368582143D01*
X92089947Y-368659953D01*
X92089950Y-368659954D01*
X92089949Y-368659954D01*
X92197107Y-368691417D01*
X92226336Y-368700000D01*
X92228036Y-368700499D01*
X92228038Y-368700500D01*
X92228039Y-368700500D01*
X92371962Y-368700500D01*
X92371962Y-368700499D01*
X92510053Y-368659953D01*
X92631128Y-368582143D01*
X92725377Y-368473373D01*
X92785165Y-368342457D01*
X92805647Y-368200000D01*
X92785165Y-368057543D01*
X92725377Y-367926627D01*
X92631128Y-367817857D01*
X92510053Y-367740047D01*
X92510051Y-367740046D01*
X92510049Y-367740045D01*
X92510050Y-367740045D01*
X92371963Y-367699500D01*
X92371961Y-367699500D01*
X92228039Y-367699500D01*
X92228036Y-367699500D01*
X92089949Y-367740045D01*
X91968873Y-367817856D01*
X91874623Y-367926626D01*
X91874622Y-367926628D01*
X91814834Y-368057543D01*
X91794353Y-368200000D01*
X82600000Y-368200000D01*
X82600000Y-320426785D01*
X82619685Y-320359746D01*
X82672489Y-320313991D01*
X82726751Y-320302816D01*
X86978233Y-320397294D01*
G37*
%TD.AperFunction*%
%TD*%
%TA.AperFunction,Conductor*%
%TO.N,+3V3*%
G36*
X132825000Y-304620462D02*
G01*
X132879538Y-304675000D01*
X132899500Y-304749500D01*
X132899500Y-403450500D01*
X132879538Y-403525000D01*
X132825000Y-403579538D01*
X132750500Y-403599500D01*
X74049500Y-403599500D01*
X73975000Y-403579538D01*
X73920462Y-403525000D01*
X73900500Y-403450500D01*
X73900500Y-399100000D01*
X75344693Y-399100000D01*
X75363904Y-399442086D01*
X75421296Y-399779870D01*
X75516147Y-400109104D01*
X75516148Y-400109108D01*
X75516149Y-400109109D01*
X75516150Y-400109114D01*
X75636640Y-400399999D01*
X75647264Y-400425648D01*
X75812998Y-400725521D01*
X76011265Y-401004953D01*
X76239572Y-401260428D01*
X76495047Y-401488735D01*
X76774479Y-401687002D01*
X77074352Y-401852736D01*
X77236696Y-401919981D01*
X77390885Y-401983849D01*
X77390887Y-401983849D01*
X77390896Y-401983853D01*
X77720130Y-402078704D01*
X78057914Y-402136096D01*
X78400000Y-402155307D01*
X78742086Y-402136096D01*
X79079870Y-402078704D01*
X79409104Y-401983853D01*
X79725648Y-401852736D01*
X80025521Y-401687002D01*
X80304953Y-401488735D01*
X80560428Y-401260428D01*
X80788735Y-401004953D01*
X80987002Y-400725521D01*
X81152736Y-400425648D01*
X81283853Y-400109104D01*
X81378704Y-399779870D01*
X81436096Y-399442086D01*
X81455307Y-399100000D01*
X81436096Y-398757914D01*
X81378704Y-398420130D01*
X81283853Y-398090896D01*
X81283849Y-398090887D01*
X81283849Y-398090885D01*
X81180946Y-397842457D01*
X81152736Y-397774352D01*
X80987002Y-397474479D01*
X80788735Y-397195047D01*
X80560428Y-396939572D01*
X80304953Y-396711265D01*
X80025521Y-396512998D01*
X79725648Y-396347264D01*
X79719690Y-396344796D01*
X79409114Y-396216150D01*
X79409109Y-396216149D01*
X79409108Y-396216148D01*
X79409104Y-396216147D01*
X79079870Y-396121296D01*
X78742086Y-396063904D01*
X78400000Y-396044693D01*
X78057913Y-396063904D01*
X78057910Y-396063904D01*
X77720130Y-396121296D01*
X77390896Y-396216147D01*
X77390893Y-396216147D01*
X77390890Y-396216149D01*
X77390885Y-396216150D01*
X77074351Y-396347264D01*
X76774483Y-396512995D01*
X76495043Y-396711268D01*
X76239572Y-396939572D01*
X76011268Y-397195043D01*
X76011265Y-397195046D01*
X76011265Y-397195047D01*
X75912131Y-397334763D01*
X75812995Y-397474483D01*
X75647264Y-397774351D01*
X75516150Y-398090885D01*
X75516149Y-398090890D01*
X75516147Y-398090896D01*
X75421296Y-398420130D01*
X75363904Y-398757914D01*
X75344693Y-399100000D01*
X73900500Y-399100000D01*
X73900500Y-388125000D01*
X77569355Y-388125000D01*
X77589860Y-388293874D01*
X77650181Y-388452929D01*
X77650182Y-388452930D01*
X77746817Y-388592929D01*
X77746819Y-388592930D01*
X77746820Y-388592932D01*
X77798224Y-388638472D01*
X77840751Y-388702816D01*
X77845408Y-388779804D01*
X77810947Y-388848805D01*
X77798224Y-388861528D01*
X77746820Y-388907067D01*
X77746817Y-388907071D01*
X77650181Y-389047070D01*
X77589860Y-389206125D01*
X77569355Y-389375000D01*
X77589860Y-389543874D01*
X77650181Y-389702929D01*
X77650182Y-389702930D01*
X77746817Y-389842929D01*
X77746819Y-389842930D01*
X77746820Y-389842932D01*
X77798224Y-389888472D01*
X77840751Y-389952816D01*
X77845408Y-390029804D01*
X77810947Y-390098805D01*
X77798224Y-390111528D01*
X77746820Y-390157067D01*
X77746817Y-390157071D01*
X77650181Y-390297070D01*
X77589860Y-390456125D01*
X77569355Y-390625000D01*
X77589860Y-390793874D01*
X77650181Y-390952929D01*
X77650182Y-390952930D01*
X77746817Y-391092929D01*
X77746819Y-391092930D01*
X77746820Y-391092932D01*
X77798224Y-391138472D01*
X77840751Y-391202816D01*
X77845408Y-391279804D01*
X77810947Y-391348805D01*
X77798224Y-391361528D01*
X77746820Y-391407067D01*
X77746817Y-391407071D01*
X77650181Y-391547070D01*
X77589860Y-391706125D01*
X77569355Y-391875000D01*
X77589860Y-392043874D01*
X77650181Y-392202929D01*
X77650182Y-392202930D01*
X77746817Y-392342929D01*
X77746819Y-392342930D01*
X77746820Y-392342932D01*
X77874146Y-392455732D01*
X77874148Y-392455734D01*
X78024775Y-392534790D01*
X78189944Y-392575500D01*
X78360056Y-392575500D01*
X78525225Y-392534790D01*
X78675852Y-392455734D01*
X78803183Y-392342929D01*
X78899818Y-392202930D01*
X78960140Y-392043872D01*
X78980645Y-391875000D01*
X78960140Y-391706128D01*
X78899818Y-391547070D01*
X78803183Y-391407071D01*
X78803178Y-391407067D01*
X78781177Y-391387576D01*
X78751775Y-391361527D01*
X78709249Y-391297185D01*
X78704591Y-391220198D01*
X78739051Y-391151196D01*
X78751775Y-391138472D01*
X78803183Y-391092929D01*
X78899818Y-390952930D01*
X78960140Y-390793872D01*
X78980645Y-390625000D01*
X78960140Y-390456128D01*
X78899818Y-390297070D01*
X78803183Y-390157071D01*
X78803178Y-390157067D01*
X78781177Y-390137576D01*
X78751775Y-390111527D01*
X78709249Y-390047185D01*
X78704591Y-389970198D01*
X78739051Y-389901196D01*
X78751775Y-389888472D01*
X78803183Y-389842929D01*
X78899818Y-389702930D01*
X78960140Y-389543872D01*
X78980645Y-389375000D01*
X78960140Y-389206128D01*
X78899818Y-389047070D01*
X78803183Y-388907071D01*
X78803178Y-388907067D01*
X78781177Y-388887576D01*
X78751775Y-388861527D01*
X78709249Y-388797185D01*
X78704591Y-388720198D01*
X78739051Y-388651196D01*
X78751775Y-388638472D01*
X78803183Y-388592929D01*
X78899818Y-388452930D01*
X78960140Y-388293872D01*
X78980645Y-388125000D01*
X78960140Y-387956128D01*
X78899818Y-387797070D01*
X78803183Y-387657071D01*
X78803180Y-387657068D01*
X78803179Y-387657067D01*
X78675853Y-387544267D01*
X78675854Y-387544267D01*
X78525224Y-387465209D01*
X78360056Y-387424500D01*
X78189944Y-387424500D01*
X78024775Y-387465209D01*
X77874145Y-387544267D01*
X77746820Y-387657067D01*
X77746817Y-387657071D01*
X77650181Y-387797070D01*
X77589860Y-387956125D01*
X77569355Y-388125000D01*
X73900500Y-388125000D01*
X73900500Y-374000000D01*
X77250000Y-374000000D01*
X77250000Y-374297822D01*
X77250001Y-374297842D01*
X77256401Y-374357377D01*
X77306645Y-374492084D01*
X77306650Y-374492094D01*
X77392809Y-374607187D01*
X77392812Y-374607190D01*
X77507905Y-374693349D01*
X77507913Y-374693353D01*
X77516234Y-374696457D01*
X77579062Y-374741195D01*
X77611103Y-374811352D01*
X77612080Y-374854023D01*
X77594355Y-374999999D01*
X77614860Y-375168874D01*
X77675181Y-375327929D01*
X77675182Y-375327930D01*
X77771817Y-375467929D01*
X77771819Y-375467930D01*
X77771820Y-375467932D01*
X77823224Y-375513472D01*
X77865751Y-375577816D01*
X77870408Y-375654804D01*
X77835947Y-375723805D01*
X77823224Y-375736528D01*
X77771820Y-375782067D01*
X77771817Y-375782071D01*
X77675181Y-375922070D01*
X77614860Y-376081125D01*
X77594355Y-376250000D01*
X77614860Y-376418874D01*
X77675181Y-376577929D01*
X77675182Y-376577930D01*
X77771817Y-376717929D01*
X77862020Y-376797842D01*
X77899146Y-376830732D01*
X77899148Y-376830734D01*
X78049775Y-376909790D01*
X78214944Y-376950500D01*
X78385056Y-376950500D01*
X78550225Y-376909790D01*
X78700852Y-376830734D01*
X78828183Y-376717929D01*
X78924818Y-376577930D01*
X78985140Y-376418872D01*
X79005645Y-376250000D01*
X78985140Y-376081128D01*
X78924818Y-375922070D01*
X78828183Y-375782071D01*
X78828178Y-375782067D01*
X78806177Y-375762576D01*
X78776775Y-375736527D01*
X78734249Y-375672185D01*
X78729591Y-375595198D01*
X78764051Y-375526196D01*
X78776775Y-375513472D01*
X78828183Y-375467929D01*
X78924818Y-375327930D01*
X78985140Y-375168872D01*
X79005645Y-375000000D01*
X78987919Y-374854019D01*
X78998756Y-374777661D01*
X79046322Y-374716946D01*
X79083767Y-374696456D01*
X79092089Y-374693352D01*
X79092094Y-374693349D01*
X79207187Y-374607190D01*
X79207190Y-374607187D01*
X79293349Y-374492094D01*
X79293354Y-374492084D01*
X79343598Y-374357377D01*
X79349998Y-374297842D01*
X79350000Y-374297822D01*
X79350000Y-374000000D01*
X78349728Y-374000000D01*
X78441614Y-373961940D01*
X78511940Y-373891614D01*
X78549889Y-373799996D01*
X83694353Y-373799996D01*
X83694353Y-373800003D01*
X83714834Y-373942454D01*
X83714834Y-373942455D01*
X83714835Y-373942457D01*
X83774623Y-374073373D01*
X83868872Y-374182143D01*
X83989947Y-374259953D01*
X84128039Y-374300500D01*
X84128041Y-374300500D01*
X84271959Y-374300500D01*
X84271961Y-374300500D01*
X84410053Y-374259953D01*
X84531128Y-374182143D01*
X84625377Y-374073373D01*
X84685165Y-373942457D01*
X84705647Y-373800000D01*
X84705647Y-373799996D01*
X84685165Y-373657545D01*
X84685165Y-373657543D01*
X84625377Y-373526627D01*
X84531128Y-373417857D01*
X84531127Y-373417856D01*
X84497465Y-373396223D01*
X84410053Y-373340047D01*
X84410050Y-373340046D01*
X84271967Y-373299501D01*
X84271962Y-373299500D01*
X84271961Y-373299500D01*
X84128039Y-373299500D01*
X84128037Y-373299500D01*
X84128032Y-373299501D01*
X83989949Y-373340046D01*
X83868872Y-373417856D01*
X83868870Y-373417859D01*
X83774622Y-373526628D01*
X83714834Y-373657545D01*
X83694353Y-373799996D01*
X78549889Y-373799996D01*
X78550000Y-373799728D01*
X78550000Y-373700272D01*
X78511940Y-373608386D01*
X78441614Y-373538060D01*
X78349728Y-373500000D01*
X78550000Y-373500000D01*
X79350000Y-373500000D01*
X79350000Y-373202177D01*
X79349998Y-373202157D01*
X79343598Y-373142622D01*
X79336649Y-373123991D01*
X85294500Y-373123991D01*
X85294500Y-402476013D01*
X85299195Y-402519676D01*
X85310409Y-402571224D01*
X85312887Y-402581365D01*
X85312891Y-402581376D01*
X85355900Y-402662085D01*
X85386903Y-402697865D01*
X85401655Y-402714889D01*
X85419246Y-402732843D01*
X85499063Y-402777490D01*
X85566102Y-402797175D01*
X85585686Y-402799990D01*
X85623991Y-402805499D01*
X85623997Y-402805499D01*
X85624000Y-402805500D01*
X85624001Y-402805500D01*
X100295452Y-402805500D01*
X100297763Y-402805417D01*
X100310108Y-402804977D01*
X100327755Y-402803715D01*
X100398465Y-402785667D01*
X100462020Y-402756642D01*
X100484202Y-402744822D01*
X100484210Y-402744813D01*
X100486784Y-402742929D01*
X100490373Y-402741534D01*
X100493607Y-402739811D01*
X100493812Y-402740197D01*
X100558675Y-402714991D01*
X100634902Y-402726741D01*
X100655416Y-402737762D01*
X100666407Y-402744825D01*
X100689947Y-402759953D01*
X100828039Y-402800500D01*
X100828041Y-402800500D01*
X100971959Y-402800500D01*
X100971961Y-402800500D01*
X101110053Y-402759953D01*
X101145667Y-402737064D01*
X101219130Y-402713582D01*
X101294496Y-402729976D01*
X101298958Y-402732374D01*
X101308591Y-402737762D01*
X101379614Y-402777490D01*
X101446653Y-402797175D01*
X101466237Y-402799990D01*
X101504542Y-402805499D01*
X101504548Y-402805499D01*
X101504551Y-402805500D01*
X101504552Y-402805500D01*
X123625739Y-402805500D01*
X123625742Y-402805500D01*
X123669634Y-402800758D01*
X123721379Y-402789445D01*
X123731759Y-402786891D01*
X123812382Y-402743715D01*
X123865091Y-402697851D01*
X123883009Y-402680221D01*
X123927491Y-402600311D01*
X123947037Y-402533231D01*
X123955242Y-402475317D01*
X123948238Y-399100000D01*
X125344693Y-399100000D01*
X125363904Y-399442086D01*
X125421296Y-399779870D01*
X125516147Y-400109104D01*
X125516148Y-400109108D01*
X125516149Y-400109109D01*
X125516150Y-400109114D01*
X125636640Y-400399999D01*
X125647264Y-400425648D01*
X125812998Y-400725521D01*
X126011265Y-401004953D01*
X126239572Y-401260428D01*
X126495047Y-401488735D01*
X126774479Y-401687002D01*
X127074352Y-401852736D01*
X127236696Y-401919981D01*
X127390885Y-401983849D01*
X127390887Y-401983849D01*
X127390896Y-401983853D01*
X127720130Y-402078704D01*
X128057914Y-402136096D01*
X128400000Y-402155307D01*
X128742086Y-402136096D01*
X129079870Y-402078704D01*
X129409104Y-401983853D01*
X129725648Y-401852736D01*
X130025521Y-401687002D01*
X130304953Y-401488735D01*
X130560428Y-401260428D01*
X130788735Y-401004953D01*
X130987002Y-400725521D01*
X131152736Y-400425648D01*
X131283853Y-400109104D01*
X131378704Y-399779870D01*
X131436096Y-399442086D01*
X131455307Y-399100000D01*
X131436096Y-398757914D01*
X131378704Y-398420130D01*
X131283853Y-398090896D01*
X131283849Y-398090887D01*
X131283849Y-398090885D01*
X131180946Y-397842457D01*
X131152736Y-397774352D01*
X130987002Y-397474479D01*
X130788735Y-397195047D01*
X130560428Y-396939572D01*
X130304953Y-396711265D01*
X130025521Y-396512998D01*
X129725648Y-396347264D01*
X129719690Y-396344796D01*
X129409114Y-396216150D01*
X129409109Y-396216149D01*
X129409108Y-396216148D01*
X129409104Y-396216147D01*
X129079870Y-396121296D01*
X128742086Y-396063904D01*
X128400000Y-396044693D01*
X128057913Y-396063904D01*
X128057910Y-396063904D01*
X127720130Y-396121296D01*
X127390896Y-396216147D01*
X127390893Y-396216147D01*
X127390890Y-396216149D01*
X127390885Y-396216150D01*
X127074351Y-396347264D01*
X126774483Y-396512995D01*
X126495043Y-396711268D01*
X126239572Y-396939572D01*
X126011268Y-397195043D01*
X126011265Y-397195046D01*
X126011265Y-397195047D01*
X125912131Y-397334763D01*
X125812995Y-397474483D01*
X125647264Y-397774351D01*
X125516150Y-398090885D01*
X125516149Y-398090890D01*
X125516147Y-398090896D01*
X125421296Y-398420130D01*
X125363904Y-398757914D01*
X125344693Y-399100000D01*
X123948238Y-399100000D01*
X123946614Y-398317214D01*
X123966422Y-398242675D01*
X124020846Y-398188024D01*
X124095305Y-398167907D01*
X124137592Y-398173943D01*
X124185549Y-398188024D01*
X124228039Y-398200500D01*
X124228041Y-398200500D01*
X124371959Y-398200500D01*
X124371961Y-398200500D01*
X124510053Y-398159953D01*
X124631128Y-398082143D01*
X124725377Y-397973373D01*
X124785165Y-397842457D01*
X124805647Y-397700000D01*
X124805647Y-397699996D01*
X124785165Y-397557545D01*
X124785165Y-397557543D01*
X124725377Y-397426627D01*
X124631128Y-397317857D01*
X124631127Y-397317856D01*
X124597465Y-397296223D01*
X124510053Y-397240047D01*
X124510050Y-397240046D01*
X124371967Y-397199501D01*
X124371962Y-397199500D01*
X124371961Y-397199500D01*
X124228039Y-397199500D01*
X124228036Y-397199500D01*
X124135033Y-397226808D01*
X124057927Y-397228643D01*
X123990233Y-397191678D01*
X123950091Y-397125820D01*
X123944056Y-397084158D01*
X123942791Y-396474294D01*
X123962599Y-396399756D01*
X124017024Y-396345105D01*
X124091482Y-396324988D01*
X124166023Y-396344796D01*
X124172312Y-396348620D01*
X124189947Y-396359953D01*
X124328039Y-396400500D01*
X124328041Y-396400500D01*
X124471959Y-396400500D01*
X124471961Y-396400500D01*
X124610053Y-396359953D01*
X124731128Y-396282143D01*
X124825377Y-396173373D01*
X124885165Y-396042457D01*
X124905647Y-395900000D01*
X124905647Y-395899996D01*
X124885165Y-395757545D01*
X124885165Y-395757543D01*
X124825377Y-395626627D01*
X124731128Y-395517857D01*
X124731127Y-395517856D01*
X124666574Y-395476371D01*
X124610053Y-395440047D01*
X124610050Y-395440046D01*
X124471967Y-395399501D01*
X124471962Y-395399500D01*
X124471961Y-395399500D01*
X124328039Y-395399500D01*
X124328037Y-395399500D01*
X124328032Y-395399501D01*
X124189949Y-395440046D01*
X124169968Y-395452887D01*
X124096502Y-395476371D01*
X124021137Y-395459976D01*
X123964066Y-395408095D01*
X123940582Y-395334629D01*
X123940413Y-395327849D01*
X123934618Y-392534790D01*
X123925469Y-388125000D01*
X127819355Y-388125000D01*
X127839860Y-388293874D01*
X127900181Y-388452929D01*
X127900182Y-388452930D01*
X127996817Y-388592929D01*
X127996819Y-388592930D01*
X127996820Y-388592932D01*
X128048224Y-388638472D01*
X128090751Y-388702816D01*
X128095408Y-388779804D01*
X128060947Y-388848805D01*
X128048224Y-388861528D01*
X127996820Y-388907067D01*
X127996817Y-388907071D01*
X127900181Y-389047070D01*
X127839860Y-389206125D01*
X127819355Y-389375000D01*
X127839860Y-389543874D01*
X127900181Y-389702929D01*
X127900182Y-389702930D01*
X127996817Y-389842929D01*
X127996819Y-389842930D01*
X127996820Y-389842932D01*
X128048224Y-389888472D01*
X128090751Y-389952816D01*
X128095408Y-390029804D01*
X128060947Y-390098805D01*
X128048224Y-390111528D01*
X127996820Y-390157067D01*
X127996817Y-390157071D01*
X127900181Y-390297070D01*
X127839860Y-390456125D01*
X127819355Y-390625000D01*
X127839860Y-390793874D01*
X127900181Y-390952929D01*
X127900182Y-390952930D01*
X127996817Y-391092929D01*
X127996819Y-391092930D01*
X127996820Y-391092932D01*
X128048224Y-391138472D01*
X128090751Y-391202816D01*
X128095408Y-391279804D01*
X128060947Y-391348805D01*
X128048224Y-391361528D01*
X127996820Y-391407067D01*
X127996817Y-391407071D01*
X127900181Y-391547070D01*
X127839860Y-391706125D01*
X127819355Y-391875000D01*
X127839860Y-392043874D01*
X127900181Y-392202929D01*
X127900182Y-392202930D01*
X127996817Y-392342929D01*
X127996819Y-392342930D01*
X127996820Y-392342932D01*
X128124146Y-392455732D01*
X128124148Y-392455734D01*
X128274775Y-392534790D01*
X128439944Y-392575500D01*
X128610056Y-392575500D01*
X128775225Y-392534790D01*
X128925852Y-392455734D01*
X129053183Y-392342929D01*
X129149818Y-392202930D01*
X129210140Y-392043872D01*
X129230645Y-391875000D01*
X129210140Y-391706128D01*
X129149818Y-391547070D01*
X129053183Y-391407071D01*
X129053178Y-391407067D01*
X129031177Y-391387576D01*
X129001775Y-391361527D01*
X128959249Y-391297185D01*
X128954591Y-391220198D01*
X128989051Y-391151196D01*
X129001775Y-391138472D01*
X129053183Y-391092929D01*
X129149818Y-390952930D01*
X129210140Y-390793872D01*
X129230645Y-390625000D01*
X129210140Y-390456128D01*
X129149818Y-390297070D01*
X129053183Y-390157071D01*
X129053178Y-390157067D01*
X129031177Y-390137576D01*
X129001775Y-390111527D01*
X128959249Y-390047185D01*
X128954591Y-389970198D01*
X128989051Y-389901196D01*
X129001775Y-389888472D01*
X129053183Y-389842929D01*
X129149818Y-389702930D01*
X129210140Y-389543872D01*
X129230645Y-389375000D01*
X129210140Y-389206128D01*
X129149818Y-389047070D01*
X129053183Y-388907071D01*
X129053178Y-388907067D01*
X129031177Y-388887576D01*
X129001775Y-388861527D01*
X128959249Y-388797185D01*
X128954591Y-388720198D01*
X128989051Y-388651196D01*
X129001775Y-388638472D01*
X129053183Y-388592929D01*
X129149818Y-388452930D01*
X129210140Y-388293872D01*
X129230645Y-388125000D01*
X129210140Y-387956128D01*
X129149818Y-387797070D01*
X129053183Y-387657071D01*
X129053180Y-387657068D01*
X129053179Y-387657067D01*
X128925853Y-387544267D01*
X128925854Y-387544267D01*
X128775224Y-387465209D01*
X128610056Y-387424500D01*
X128439944Y-387424500D01*
X128274775Y-387465209D01*
X128124145Y-387544267D01*
X127996820Y-387657067D01*
X127996817Y-387657071D01*
X127900181Y-387797070D01*
X127839860Y-387956125D01*
X127819355Y-388125000D01*
X123925469Y-388125000D01*
X123919139Y-385073566D01*
X123905756Y-378623315D01*
X123901014Y-378579850D01*
X123889809Y-378528598D01*
X123887367Y-378518627D01*
X123844357Y-378437915D01*
X123798602Y-378385111D01*
X123781011Y-378367157D01*
X123781010Y-378367156D01*
X123745840Y-378347483D01*
X123701194Y-378322510D01*
X123701192Y-378322509D01*
X123674973Y-378314810D01*
X123634155Y-378302825D01*
X123634150Y-378302824D01*
X123634146Y-378302823D01*
X123576265Y-378294500D01*
X123576257Y-378294500D01*
X116855543Y-378294500D01*
X116781043Y-378274538D01*
X116726505Y-378220000D01*
X116706543Y-378145500D01*
X116706544Y-378145062D01*
X116708735Y-377399996D01*
X120594353Y-377399996D01*
X120594353Y-377400003D01*
X120614834Y-377542454D01*
X120614834Y-377542455D01*
X120614835Y-377542457D01*
X120674623Y-377673373D01*
X120768872Y-377782143D01*
X120889947Y-377859953D01*
X121028039Y-377900500D01*
X121028041Y-377900500D01*
X121171959Y-377900500D01*
X121171961Y-377900500D01*
X121310053Y-377859953D01*
X121431128Y-377782143D01*
X121525377Y-377673373D01*
X121585165Y-377542457D01*
X121605647Y-377400000D01*
X121605647Y-377399996D01*
X121585165Y-377257545D01*
X121585165Y-377257543D01*
X121525377Y-377126627D01*
X121431128Y-377017857D01*
X121431127Y-377017856D01*
X121391024Y-376992084D01*
X121310053Y-376940047D01*
X121310050Y-376940046D01*
X121171967Y-376899501D01*
X121171962Y-376899500D01*
X121171961Y-376899500D01*
X121028039Y-376899500D01*
X121028037Y-376899500D01*
X121028032Y-376899501D01*
X120889949Y-376940046D01*
X120768872Y-377017856D01*
X120768870Y-377017859D01*
X120674622Y-377126628D01*
X120614834Y-377257545D01*
X120594353Y-377399996D01*
X116708735Y-377399996D01*
X116710506Y-376797822D01*
X127250000Y-376797822D01*
X127250001Y-376797842D01*
X127256401Y-376857377D01*
X127306645Y-376992084D01*
X127306650Y-376992094D01*
X127392809Y-377107187D01*
X127392812Y-377107190D01*
X127507905Y-377193349D01*
X127507915Y-377193354D01*
X127642623Y-377243598D01*
X127642621Y-377243598D01*
X127702157Y-377249998D01*
X127702177Y-377250000D01*
X128050000Y-377250000D01*
X128550000Y-377250000D01*
X128897823Y-377250000D01*
X128897842Y-377249998D01*
X128957377Y-377243598D01*
X129092084Y-377193354D01*
X129092094Y-377193349D01*
X129207187Y-377107190D01*
X129207190Y-377107187D01*
X129293349Y-376992094D01*
X129293354Y-376992084D01*
X129343598Y-376857377D01*
X129349998Y-376797842D01*
X129350000Y-376797822D01*
X129350000Y-376500000D01*
X128550000Y-376500000D01*
X128550000Y-377250000D01*
X128050000Y-377250000D01*
X128050000Y-376500000D01*
X127250000Y-376500000D01*
X127250000Y-376797822D01*
X116710506Y-376797822D01*
X116755133Y-361624974D01*
X116755132Y-361624958D01*
X116750504Y-361580990D01*
X116750499Y-361580962D01*
X116739299Y-361529106D01*
X116736746Y-361518628D01*
X116693734Y-361437914D01*
X116647987Y-361385119D01*
X116647986Y-361385118D01*
X116647980Y-361385111D01*
X116630389Y-361367157D01*
X116630388Y-361367156D01*
X116595218Y-361347483D01*
X116550572Y-361322510D01*
X116550570Y-361322509D01*
X116524351Y-361314810D01*
X116483533Y-361302825D01*
X116483528Y-361302824D01*
X116483524Y-361302823D01*
X116425643Y-361294500D01*
X116425635Y-361294500D01*
X113233966Y-361294500D01*
X113159466Y-361274538D01*
X113104928Y-361220000D01*
X113086483Y-361166706D01*
X113085165Y-361157545D01*
X113085165Y-361157543D01*
X113025377Y-361026627D01*
X112931128Y-360917857D01*
X112931127Y-360917856D01*
X112864441Y-360875000D01*
X112810053Y-360840047D01*
X112810050Y-360840046D01*
X112671967Y-360799501D01*
X112671962Y-360799500D01*
X112671961Y-360799500D01*
X112528039Y-360799500D01*
X112528037Y-360799500D01*
X112528032Y-360799501D01*
X112389949Y-360840046D01*
X112268872Y-360917856D01*
X112268870Y-360917859D01*
X112174622Y-361026628D01*
X112114834Y-361157545D01*
X112114833Y-361157546D01*
X112113517Y-361166705D01*
X112083156Y-361237606D01*
X112021412Y-361283827D01*
X111966034Y-361294500D01*
X111873986Y-361294500D01*
X111830323Y-361299195D01*
X111778775Y-361310409D01*
X111768634Y-361312887D01*
X111768623Y-361312891D01*
X111687914Y-361355900D01*
X111635119Y-361401647D01*
X111635103Y-361401662D01*
X111617156Y-361419246D01*
X111572510Y-361499063D01*
X111572509Y-361499064D01*
X111552823Y-361566110D01*
X111544500Y-361623991D01*
X111544500Y-379886128D01*
X111545024Y-379900807D01*
X111546284Y-379918426D01*
X111546285Y-379918434D01*
X111546286Y-379918437D01*
X111564333Y-379989146D01*
X111564334Y-379989149D01*
X111593361Y-380052708D01*
X111593362Y-380052710D01*
X111595498Y-380056720D01*
X111612905Y-380131858D01*
X111590411Y-380205633D01*
X111576605Y-380224338D01*
X111574626Y-380226621D01*
X111574623Y-380226625D01*
X111514834Y-380357545D01*
X111494353Y-380499996D01*
X111494353Y-380500003D01*
X111514834Y-380642454D01*
X111574623Y-380773374D01*
X111578126Y-380777416D01*
X111611826Y-380846792D01*
X111606323Y-380923724D01*
X111595558Y-380947726D01*
X111572509Y-380988932D01*
X111552823Y-381055977D01*
X111544500Y-381113858D01*
X111544500Y-381645500D01*
X111524538Y-381720000D01*
X111470000Y-381774538D01*
X111395500Y-381794500D01*
X101354500Y-381794500D01*
X101280000Y-381774538D01*
X101225462Y-381720000D01*
X101205500Y-381645500D01*
X101205500Y-373124004D01*
X101205499Y-373123986D01*
X101200804Y-373080323D01*
X101200803Y-373080320D01*
X101200803Y-373080316D01*
X101189597Y-373028805D01*
X101187110Y-373018627D01*
X101144100Y-372937915D01*
X101098345Y-372885111D01*
X101080754Y-372867157D01*
X101080753Y-372867156D01*
X101045583Y-372847483D01*
X101000937Y-372822510D01*
X101000935Y-372822509D01*
X100974716Y-372814810D01*
X100933898Y-372802825D01*
X100933893Y-372802824D01*
X100933889Y-372802823D01*
X100876008Y-372794500D01*
X100876000Y-372794500D01*
X85624000Y-372794500D01*
X85623986Y-372794500D01*
X85580323Y-372799195D01*
X85528775Y-372810409D01*
X85518634Y-372812887D01*
X85518623Y-372812891D01*
X85437914Y-372855900D01*
X85385119Y-372901647D01*
X85385103Y-372901662D01*
X85367156Y-372919246D01*
X85322510Y-372999063D01*
X85322509Y-372999064D01*
X85302823Y-373066110D01*
X85294500Y-373123991D01*
X79336649Y-373123991D01*
X79293354Y-373007915D01*
X79293349Y-373007905D01*
X79207190Y-372892812D01*
X79207187Y-372892809D01*
X79092094Y-372806650D01*
X79092084Y-372806645D01*
X78957376Y-372756401D01*
X78957378Y-372756401D01*
X78897842Y-372750001D01*
X78897823Y-372750000D01*
X78550000Y-372750000D01*
X78550000Y-373500000D01*
X78349728Y-373500000D01*
X78250272Y-373500000D01*
X78158386Y-373538060D01*
X78088060Y-373608386D01*
X78050000Y-373700272D01*
X78050000Y-373799728D01*
X78088060Y-373891614D01*
X78158386Y-373961940D01*
X78250272Y-374000000D01*
X77250000Y-374000000D01*
X73900500Y-374000000D01*
X73900500Y-373202177D01*
X77250000Y-373202177D01*
X77250000Y-373500000D01*
X78050000Y-373500000D01*
X78050000Y-372750000D01*
X77702177Y-372750000D01*
X77702157Y-372750001D01*
X77642622Y-372756401D01*
X77507915Y-372806645D01*
X77507905Y-372806650D01*
X77392812Y-372892809D01*
X77392809Y-372892812D01*
X77306650Y-373007905D01*
X77306645Y-373007915D01*
X77256401Y-373142622D01*
X77250001Y-373202157D01*
X77250000Y-373202177D01*
X73900500Y-373202177D01*
X73900500Y-366000000D01*
X77250000Y-366000000D01*
X77250000Y-366297822D01*
X77250001Y-366297842D01*
X77256401Y-366357377D01*
X77306645Y-366492084D01*
X77306650Y-366492094D01*
X77392809Y-366607187D01*
X77392812Y-366607190D01*
X77507905Y-366693349D01*
X77507913Y-366693353D01*
X77516234Y-366696457D01*
X77579062Y-366741195D01*
X77611103Y-366811352D01*
X77612080Y-366854023D01*
X77601894Y-366937915D01*
X77594355Y-367000000D01*
X77597748Y-367027943D01*
X77614860Y-367168874D01*
X77675181Y-367327929D01*
X77675182Y-367327930D01*
X77771817Y-367467929D01*
X77771819Y-367467930D01*
X77771820Y-367467932D01*
X77823224Y-367513472D01*
X77865751Y-367577816D01*
X77870408Y-367654804D01*
X77835947Y-367723805D01*
X77823224Y-367736528D01*
X77771820Y-367782067D01*
X77771817Y-367782071D01*
X77675181Y-367922070D01*
X77614860Y-368081125D01*
X77594355Y-368250000D01*
X77614860Y-368418874D01*
X77675181Y-368577929D01*
X77675182Y-368577930D01*
X77771817Y-368717929D01*
X77862020Y-368797842D01*
X77899146Y-368830732D01*
X77899148Y-368830734D01*
X78049775Y-368909790D01*
X78214944Y-368950500D01*
X78385056Y-368950500D01*
X78550225Y-368909790D01*
X78700852Y-368830734D01*
X78828183Y-368717929D01*
X78924818Y-368577930D01*
X78985140Y-368418872D01*
X79005645Y-368250000D01*
X78985140Y-368081128D01*
X78924818Y-367922070D01*
X78828183Y-367782071D01*
X78828178Y-367782067D01*
X78806177Y-367762576D01*
X78776775Y-367736527D01*
X78734249Y-367672185D01*
X78729591Y-367595198D01*
X78764051Y-367526196D01*
X78776775Y-367513472D01*
X78828183Y-367467929D01*
X78924818Y-367327930D01*
X78985140Y-367168872D01*
X79005645Y-367000000D01*
X78987919Y-366854019D01*
X78998756Y-366777661D01*
X79046322Y-366716946D01*
X79083767Y-366696456D01*
X79092089Y-366693352D01*
X79092094Y-366693349D01*
X79207187Y-366607190D01*
X79207190Y-366607187D01*
X79293349Y-366492094D01*
X79293354Y-366492084D01*
X79343598Y-366357377D01*
X79349998Y-366297842D01*
X79350000Y-366297822D01*
X79350000Y-366000000D01*
X78349728Y-366000000D01*
X78441614Y-365961940D01*
X78511940Y-365891614D01*
X78550000Y-365799728D01*
X78550000Y-365700272D01*
X78511940Y-365608386D01*
X78441614Y-365538060D01*
X78349728Y-365500000D01*
X78550000Y-365500000D01*
X79350000Y-365500000D01*
X79350000Y-365202177D01*
X79349998Y-365202157D01*
X79343598Y-365142622D01*
X79293354Y-365007915D01*
X79293349Y-365007905D01*
X79207190Y-364892812D01*
X79207187Y-364892809D01*
X79092094Y-364806650D01*
X79092084Y-364806645D01*
X78957376Y-364756401D01*
X78957378Y-364756401D01*
X78897842Y-364750001D01*
X78897823Y-364750000D01*
X78550000Y-364750000D01*
X78550000Y-365500000D01*
X78349728Y-365500000D01*
X78250272Y-365500000D01*
X78158386Y-365538060D01*
X78088060Y-365608386D01*
X78050000Y-365700272D01*
X78050000Y-365799728D01*
X78088060Y-365891614D01*
X78158386Y-365961940D01*
X78250272Y-366000000D01*
X77250000Y-366000000D01*
X73900500Y-366000000D01*
X73900500Y-365202177D01*
X77250000Y-365202177D01*
X77250000Y-365500000D01*
X78050000Y-365500000D01*
X78050000Y-364750000D01*
X77702177Y-364750000D01*
X77702157Y-364750001D01*
X77642622Y-364756401D01*
X77507915Y-364806645D01*
X77507905Y-364806650D01*
X77392812Y-364892809D01*
X77392809Y-364892812D01*
X77306650Y-365007905D01*
X77306645Y-365007915D01*
X77256401Y-365142622D01*
X77250001Y-365202157D01*
X77250000Y-365202177D01*
X73900500Y-365202177D01*
X73900500Y-359250000D01*
X77594355Y-359250000D01*
X77614860Y-359418874D01*
X77675181Y-359577929D01*
X77675182Y-359577930D01*
X77771817Y-359717929D01*
X77771819Y-359717930D01*
X77771820Y-359717932D01*
X77899146Y-359830732D01*
X77899148Y-359830734D01*
X78049775Y-359909790D01*
X78214944Y-359950500D01*
X78385056Y-359950500D01*
X78550225Y-359909790D01*
X78700852Y-359830734D01*
X78828183Y-359717929D01*
X78924818Y-359577930D01*
X78985140Y-359418872D01*
X79005645Y-359250000D01*
X78985140Y-359081128D01*
X78967574Y-359034811D01*
X78938271Y-358957543D01*
X78924818Y-358922070D01*
X78885879Y-358865657D01*
X78859988Y-358793011D01*
X78873890Y-358717146D01*
X78923862Y-358658396D01*
X78925632Y-358657194D01*
X78944552Y-358644552D01*
X78988867Y-358578231D01*
X79000500Y-358519748D01*
X79000500Y-357480252D01*
X78988867Y-357421769D01*
X78944552Y-357355448D01*
X78878231Y-357311133D01*
X78878230Y-357311132D01*
X78819748Y-357299500D01*
X77780252Y-357299500D01*
X77721769Y-357311132D01*
X77655448Y-357355448D01*
X77611132Y-357421769D01*
X77599500Y-357480251D01*
X77599500Y-358519748D01*
X77611132Y-358578230D01*
X77611133Y-358578231D01*
X77655448Y-358644552D01*
X77674277Y-358657133D01*
X77725129Y-358715121D01*
X77740175Y-358790768D01*
X77715382Y-358863802D01*
X77714185Y-358865563D01*
X77679059Y-358916453D01*
X77675180Y-358922073D01*
X77614860Y-359081125D01*
X77594355Y-359250000D01*
X73900500Y-359250000D01*
X73900500Y-350625000D01*
X77594355Y-350625000D01*
X77614860Y-350793874D01*
X77675181Y-350952929D01*
X77689293Y-350973373D01*
X77771817Y-351092929D01*
X77771819Y-351092930D01*
X77771820Y-351092932D01*
X77899146Y-351205732D01*
X77899148Y-351205734D01*
X78049775Y-351284790D01*
X78214944Y-351325500D01*
X78385056Y-351325500D01*
X78550225Y-351284790D01*
X78700852Y-351205734D01*
X78828183Y-351092929D01*
X78924818Y-350952930D01*
X78985140Y-350793872D01*
X79005645Y-350625000D01*
X78985140Y-350456128D01*
X78924818Y-350297070D01*
X78885879Y-350240657D01*
X78859988Y-350168011D01*
X78873890Y-350092146D01*
X78923862Y-350033396D01*
X78925632Y-350032194D01*
X78944552Y-350019552D01*
X78988867Y-349953231D01*
X79000500Y-349894748D01*
X79000500Y-348855252D01*
X78988867Y-348796769D01*
X78944552Y-348730448D01*
X78878231Y-348686133D01*
X78878230Y-348686132D01*
X78819748Y-348674500D01*
X77780252Y-348674500D01*
X77721769Y-348686132D01*
X77655448Y-348730448D01*
X77611132Y-348796769D01*
X77599500Y-348855251D01*
X77599500Y-349894748D01*
X77611132Y-349953230D01*
X77611133Y-349953231D01*
X77655448Y-350019552D01*
X77674277Y-350032133D01*
X77725129Y-350090121D01*
X77740175Y-350165768D01*
X77715382Y-350238802D01*
X77714185Y-350240563D01*
X77675182Y-350297070D01*
X77675180Y-350297073D01*
X77614860Y-350456125D01*
X77594355Y-350625000D01*
X73900500Y-350625000D01*
X73900500Y-331199996D01*
X81294353Y-331199996D01*
X81294353Y-331200003D01*
X81314834Y-331342454D01*
X81314834Y-331342455D01*
X81314835Y-331342457D01*
X81374623Y-331473373D01*
X81468872Y-331582143D01*
X81589947Y-331659953D01*
X81728039Y-331700500D01*
X81728041Y-331700500D01*
X81871959Y-331700500D01*
X81871961Y-331700500D01*
X82010053Y-331659953D01*
X82131128Y-331582143D01*
X82132890Y-331580109D01*
X82135560Y-331578301D01*
X82139184Y-331575162D01*
X82139559Y-331575595D01*
X82196761Y-331536876D01*
X82273692Y-331531370D01*
X82343069Y-331565068D01*
X82386303Y-331628940D01*
X82394500Y-331677679D01*
X82394500Y-370076528D01*
X82399103Y-370119782D01*
X82410093Y-370170823D01*
X82412440Y-370180564D01*
X82412441Y-370180566D01*
X82412442Y-370180569D01*
X82455106Y-370261465D01*
X82500636Y-370314466D01*
X82518151Y-370332496D01*
X82564954Y-370358938D01*
X82597777Y-370377483D01*
X82664732Y-370397454D01*
X82722592Y-370406025D01*
X100888637Y-370483657D01*
X100918326Y-370481629D01*
X100918357Y-370481624D01*
X100920923Y-370481356D01*
X100997100Y-370493435D01*
X101057031Y-370541984D01*
X101072006Y-370567643D01*
X101073368Y-370570625D01*
X101074623Y-370573373D01*
X101168872Y-370682143D01*
X101289947Y-370759953D01*
X101428039Y-370800500D01*
X101428041Y-370800500D01*
X101571959Y-370800500D01*
X101571961Y-370800500D01*
X101710053Y-370759953D01*
X101831128Y-370682143D01*
X101925377Y-370573373D01*
X101926633Y-370570622D01*
X101928938Y-370567830D01*
X101931135Y-370564412D01*
X101931543Y-370564674D01*
X101975736Y-370511149D01*
X102048000Y-370484193D01*
X102083999Y-370485126D01*
X102109295Y-370488874D01*
X105646140Y-370503988D01*
X105720551Y-370524269D01*
X105774855Y-370579039D01*
X105794500Y-370652987D01*
X105794500Y-378476013D01*
X105799195Y-378519676D01*
X105810409Y-378571224D01*
X105812887Y-378581365D01*
X105812891Y-378581376D01*
X105835236Y-378623307D01*
X105855900Y-378662085D01*
X105901655Y-378714889D01*
X105919246Y-378732843D01*
X105999063Y-378777490D01*
X106066102Y-378797175D01*
X106085686Y-378799990D01*
X106123991Y-378805499D01*
X106123997Y-378805499D01*
X106124000Y-378805500D01*
X108543859Y-378805500D01*
X108618359Y-378825462D01*
X108672897Y-378880000D01*
X108692859Y-378954500D01*
X108676448Y-379015745D01*
X108679050Y-379016934D01*
X108614834Y-379157545D01*
X108594353Y-379299996D01*
X108594353Y-379300003D01*
X108614834Y-379442454D01*
X108614834Y-379442455D01*
X108614835Y-379442457D01*
X108674623Y-379573373D01*
X108768872Y-379682143D01*
X108889947Y-379759953D01*
X109028039Y-379800500D01*
X109028041Y-379800500D01*
X109171959Y-379800500D01*
X109171961Y-379800500D01*
X109310053Y-379759953D01*
X109431128Y-379682143D01*
X109525377Y-379573373D01*
X109585165Y-379442457D01*
X109605647Y-379300000D01*
X109605647Y-379299996D01*
X109585165Y-379157545D01*
X109585165Y-379157543D01*
X109525377Y-379026627D01*
X109525376Y-379026626D01*
X109520950Y-379016934D01*
X109522167Y-379016377D01*
X109502022Y-378953376D01*
X109518411Y-378878009D01*
X109570287Y-378820934D01*
X109618555Y-378800817D01*
X109619472Y-378800613D01*
X109619475Y-378800613D01*
X109671957Y-378788959D01*
X109682979Y-378786190D01*
X109763317Y-378742487D01*
X109815724Y-378696279D01*
X109833527Y-378678532D01*
X109877484Y-378598332D01*
X109896590Y-378531125D01*
X109904414Y-378473159D01*
X109806551Y-367121157D01*
X109801673Y-367078383D01*
X109790473Y-367027943D01*
X109788175Y-367018627D01*
X109788175Y-367018626D01*
X109745166Y-366937916D01*
X109745164Y-366937914D01*
X109699417Y-366885119D01*
X109699416Y-366885118D01*
X109699410Y-366885111D01*
X109681819Y-366867157D01*
X109681818Y-366867156D01*
X109645435Y-366846805D01*
X109602002Y-366822510D01*
X109602000Y-366822509D01*
X109569230Y-366812887D01*
X109534963Y-366802825D01*
X109534958Y-366802824D01*
X109534954Y-366802823D01*
X109477073Y-366794500D01*
X109477065Y-366794500D01*
X108601909Y-366794500D01*
X108527409Y-366774538D01*
X108472871Y-366720000D01*
X108452909Y-366645500D01*
X108466374Y-366583602D01*
X108485165Y-366542457D01*
X108495406Y-366471228D01*
X108505647Y-366400003D01*
X108505647Y-366399996D01*
X108485165Y-366257545D01*
X108485165Y-366257543D01*
X108425377Y-366126627D01*
X108331128Y-366017857D01*
X108331127Y-366017856D01*
X108297465Y-365996223D01*
X108210053Y-365940047D01*
X108210050Y-365940046D01*
X108071967Y-365899501D01*
X108071962Y-365899500D01*
X108071961Y-365899500D01*
X107928039Y-365899500D01*
X107928037Y-365899500D01*
X107928032Y-365899501D01*
X107789949Y-365940046D01*
X107668872Y-366017856D01*
X107668870Y-366017859D01*
X107574622Y-366126628D01*
X107514834Y-366257545D01*
X107494353Y-366399996D01*
X107494353Y-366400003D01*
X107514834Y-366542454D01*
X107533626Y-366583602D01*
X107546416Y-366659662D01*
X107519464Y-366731927D01*
X107459989Y-366781035D01*
X107398091Y-366794500D01*
X104954442Y-366794500D01*
X104910756Y-366799196D01*
X104859251Y-366810400D01*
X104849076Y-366812886D01*
X104849072Y-366812888D01*
X104769394Y-366855345D01*
X104694258Y-366872762D01*
X104626588Y-366853887D01*
X104613927Y-366846805D01*
X104570494Y-366822510D01*
X104570492Y-366822509D01*
X104537722Y-366812887D01*
X104503455Y-366802825D01*
X104503450Y-366802824D01*
X104503446Y-366802823D01*
X104445565Y-366794500D01*
X104445557Y-366794500D01*
X103819995Y-366794500D01*
X103819986Y-366794500D01*
X103762098Y-366802824D01*
X103733490Y-366811224D01*
X103656384Y-366813058D01*
X103588691Y-366776093D01*
X103548550Y-366710234D01*
X103546716Y-366633128D01*
X103555977Y-366606367D01*
X103585165Y-366542457D01*
X103595406Y-366471228D01*
X103605647Y-366400003D01*
X103605647Y-366399996D01*
X103585165Y-366257545D01*
X103585165Y-366257543D01*
X103525377Y-366126627D01*
X103431128Y-366017857D01*
X103431127Y-366017856D01*
X103397465Y-365996223D01*
X103310053Y-365940047D01*
X103310050Y-365940046D01*
X103171967Y-365899501D01*
X103171962Y-365899500D01*
X103171961Y-365899500D01*
X103028039Y-365899500D01*
X103028037Y-365899500D01*
X103028032Y-365899501D01*
X102889949Y-365940046D01*
X102768872Y-366017856D01*
X102768870Y-366017859D01*
X102674622Y-366126628D01*
X102614834Y-366257545D01*
X102594353Y-366399996D01*
X102594353Y-366400003D01*
X102614834Y-366542454D01*
X102633626Y-366583602D01*
X102646416Y-366659662D01*
X102619464Y-366731927D01*
X102559989Y-366781035D01*
X102498091Y-366794500D01*
X99339752Y-366794500D01*
X99339748Y-366794500D01*
X99339740Y-366794501D01*
X99281858Y-366802823D01*
X99281851Y-366802824D01*
X99214822Y-366822506D01*
X99161612Y-366846806D01*
X99161605Y-366846810D01*
X99141826Y-366859521D01*
X99103252Y-366877136D01*
X99062967Y-366888965D01*
X99020991Y-366895000D01*
X98979012Y-366895000D01*
X98937035Y-366888965D01*
X98923936Y-366885119D01*
X98896745Y-366877135D01*
X98858168Y-366859518D01*
X98856965Y-366858745D01*
X98849406Y-366853887D01*
X98838390Y-366846807D01*
X98838388Y-366846806D01*
X98838386Y-366846805D01*
X98785182Y-366822508D01*
X98785180Y-366822507D01*
X98785177Y-366822506D01*
X98718148Y-366802824D01*
X98718141Y-366802823D01*
X98660259Y-366794501D01*
X98660251Y-366794500D01*
X98660248Y-366794500D01*
X88927471Y-366794500D01*
X88927468Y-366794500D01*
X88905537Y-366796069D01*
X88898226Y-366796592D01*
X88898223Y-366796592D01*
X88898199Y-366796595D01*
X88863297Y-366801613D01*
X88863290Y-366801615D01*
X88839610Y-366810447D01*
X88762831Y-366817778D01*
X88692674Y-366785737D01*
X88674944Y-366768423D01*
X88631128Y-366717857D01*
X88631127Y-366717856D01*
X88561909Y-366673373D01*
X88510053Y-366640047D01*
X88510050Y-366640046D01*
X88371967Y-366599501D01*
X88371962Y-366599500D01*
X88371961Y-366599500D01*
X88228039Y-366599500D01*
X88228037Y-366599500D01*
X88228032Y-366599501D01*
X88089949Y-366640046D01*
X88089947Y-366640046D01*
X88089947Y-366640047D01*
X88081462Y-366645500D01*
X87968872Y-366717856D01*
X87968868Y-366717861D01*
X87924522Y-366769038D01*
X87860648Y-366812268D01*
X87783717Y-366817769D01*
X87769941Y-366814427D01*
X87746324Y-366807492D01*
X87730427Y-366802825D01*
X87730423Y-366802824D01*
X87730422Y-366802824D01*
X87672537Y-366794500D01*
X87672529Y-366794500D01*
X87256025Y-366794500D01*
X87181525Y-366774538D01*
X87126987Y-366720000D01*
X87107025Y-366645500D01*
X87107026Y-366644861D01*
X87107047Y-366640046D01*
X87125244Y-362399996D01*
X102294353Y-362399996D01*
X102294353Y-362400003D01*
X102314834Y-362542454D01*
X102314834Y-362542455D01*
X102314835Y-362542457D01*
X102374623Y-362673373D01*
X102468872Y-362782143D01*
X102589947Y-362859953D01*
X102728039Y-362900500D01*
X102728041Y-362900500D01*
X102808270Y-362900500D01*
X102882770Y-362920462D01*
X102937308Y-362975000D01*
X102957270Y-363049500D01*
X102955754Y-363070702D01*
X102947714Y-363126628D01*
X102944353Y-363150002D01*
X102944353Y-363150003D01*
X102964834Y-363292454D01*
X102964834Y-363292455D01*
X102964835Y-363292457D01*
X103024623Y-363423373D01*
X103118872Y-363532143D01*
X103239947Y-363609953D01*
X103239948Y-363609953D01*
X103248912Y-363615714D01*
X103246365Y-363619675D01*
X103285462Y-363648925D01*
X103315844Y-363719817D01*
X103306710Y-363796402D01*
X103260507Y-363858160D01*
X103248923Y-363866411D01*
X103168874Y-363917855D01*
X103168870Y-363917859D01*
X103074622Y-364026628D01*
X103014834Y-364157545D01*
X102994353Y-364299996D01*
X102994353Y-364300003D01*
X103014834Y-364442454D01*
X103014834Y-364442455D01*
X103014835Y-364442457D01*
X103074623Y-364573373D01*
X103168872Y-364682143D01*
X103289947Y-364759953D01*
X103428039Y-364800500D01*
X103428041Y-364800500D01*
X103571959Y-364800500D01*
X103571961Y-364800500D01*
X103710053Y-364759953D01*
X103831128Y-364682143D01*
X103925377Y-364573373D01*
X103985165Y-364442457D01*
X104005647Y-364300000D01*
X104005647Y-364299996D01*
X103985165Y-364157545D01*
X103985165Y-364157543D01*
X103925377Y-364026627D01*
X103831128Y-363917857D01*
X103831127Y-363917856D01*
X103738237Y-363858160D01*
X103710053Y-363840047D01*
X103710051Y-363840046D01*
X103701088Y-363834286D01*
X103703293Y-363830854D01*
X103660413Y-363795577D01*
X103633332Y-363723360D01*
X103645987Y-363647277D01*
X103694989Y-363587715D01*
X103701052Y-363583604D01*
X103781128Y-363532143D01*
X103875377Y-363423373D01*
X103935165Y-363292457D01*
X103955647Y-363150000D01*
X103955647Y-363149996D01*
X103935165Y-363007545D01*
X103935165Y-363007543D01*
X103875377Y-362876627D01*
X103781128Y-362767857D01*
X103781127Y-362767856D01*
X103747465Y-362746223D01*
X103660053Y-362690047D01*
X103660050Y-362690046D01*
X103521967Y-362649501D01*
X103521962Y-362649500D01*
X103521961Y-362649500D01*
X103441730Y-362649500D01*
X103367230Y-362629538D01*
X103312692Y-362575000D01*
X103292730Y-362500500D01*
X103292766Y-362499996D01*
X107294353Y-362499996D01*
X107294353Y-362500003D01*
X107314834Y-362642454D01*
X107314834Y-362642455D01*
X107314835Y-362642457D01*
X107374623Y-362773373D01*
X107468872Y-362882143D01*
X107589947Y-362959953D01*
X107728039Y-363000500D01*
X107728041Y-363000500D01*
X107871959Y-363000500D01*
X107871961Y-363000500D01*
X108010053Y-362959953D01*
X108131128Y-362882143D01*
X108225377Y-362773373D01*
X108285165Y-362642457D01*
X108299543Y-362542454D01*
X108305647Y-362500003D01*
X108305647Y-362499996D01*
X108285165Y-362357545D01*
X108285165Y-362357543D01*
X108225377Y-362226627D01*
X108131128Y-362117857D01*
X108131127Y-362117856D01*
X108097465Y-362096223D01*
X108010053Y-362040047D01*
X108010050Y-362040046D01*
X107871967Y-361999501D01*
X107871962Y-361999500D01*
X107871961Y-361999500D01*
X107728039Y-361999500D01*
X107728037Y-361999500D01*
X107728032Y-361999501D01*
X107589949Y-362040046D01*
X107468872Y-362117856D01*
X107468870Y-362117859D01*
X107374622Y-362226628D01*
X107314834Y-362357545D01*
X107294353Y-362499996D01*
X103292766Y-362499996D01*
X103294246Y-362479296D01*
X103305647Y-362400000D01*
X103305647Y-362399997D01*
X103305647Y-362399996D01*
X103285165Y-362257545D01*
X103285165Y-362257543D01*
X103225377Y-362126627D01*
X103131128Y-362017857D01*
X103131127Y-362017856D01*
X103097465Y-361996223D01*
X103010053Y-361940047D01*
X103010050Y-361940046D01*
X102871967Y-361899501D01*
X102871962Y-361899500D01*
X102871961Y-361899500D01*
X102728039Y-361899500D01*
X102728037Y-361899500D01*
X102728032Y-361899501D01*
X102589949Y-361940046D01*
X102468872Y-362017856D01*
X102468870Y-362017859D01*
X102374622Y-362126628D01*
X102314834Y-362257545D01*
X102294353Y-362399996D01*
X87125244Y-362399996D01*
X87129107Y-361499996D01*
X93894353Y-361499996D01*
X93894353Y-361500003D01*
X93914834Y-361642454D01*
X93914834Y-361642455D01*
X93914835Y-361642457D01*
X93974623Y-361773373D01*
X94068872Y-361882143D01*
X94189947Y-361959953D01*
X94328039Y-362000500D01*
X94328041Y-362000500D01*
X94471959Y-362000500D01*
X94471961Y-362000500D01*
X94610053Y-361959953D01*
X94731128Y-361882143D01*
X94825377Y-361773373D01*
X94885165Y-361642457D01*
X94905647Y-361500000D01*
X94905647Y-361499996D01*
X94885165Y-361357545D01*
X94885165Y-361357543D01*
X94825377Y-361226627D01*
X94731128Y-361117857D01*
X94731127Y-361117856D01*
X94697465Y-361096223D01*
X94610053Y-361040047D01*
X94610050Y-361040046D01*
X94471967Y-360999501D01*
X94471962Y-360999500D01*
X94471961Y-360999500D01*
X94328039Y-360999500D01*
X94328037Y-360999500D01*
X94328032Y-360999501D01*
X94189949Y-361040046D01*
X94068872Y-361117856D01*
X94068870Y-361117859D01*
X93974622Y-361226628D01*
X93914834Y-361357545D01*
X93894353Y-361499996D01*
X87129107Y-361499996D01*
X87141835Y-358534309D01*
X100144353Y-358534309D01*
X100144353Y-358534316D01*
X100164834Y-358676767D01*
X100164834Y-358676768D01*
X100164835Y-358676770D01*
X100224623Y-358807686D01*
X100318872Y-358916456D01*
X100439947Y-358994266D01*
X100578039Y-359034813D01*
X100578041Y-359034813D01*
X100655871Y-359034813D01*
X100730371Y-359054775D01*
X100784909Y-359109313D01*
X100803354Y-359162608D01*
X100814834Y-359242454D01*
X100814834Y-359242455D01*
X100814835Y-359242457D01*
X100874623Y-359373373D01*
X100968872Y-359482143D01*
X101089947Y-359559953D01*
X101216135Y-359597004D01*
X101226322Y-359599996D01*
X101228039Y-359600500D01*
X101228041Y-359600500D01*
X101371959Y-359600500D01*
X101371961Y-359600500D01*
X101510053Y-359559953D01*
X101631128Y-359482143D01*
X101725377Y-359373373D01*
X101785165Y-359242457D01*
X101799889Y-359140047D01*
X101805647Y-359100003D01*
X101805647Y-359099996D01*
X102194353Y-359099996D01*
X102194353Y-359100003D01*
X102214834Y-359242454D01*
X102214834Y-359242455D01*
X102214835Y-359242457D01*
X102274623Y-359373373D01*
X102368872Y-359482143D01*
X102489947Y-359559953D01*
X102616135Y-359597004D01*
X102626322Y-359599996D01*
X102628039Y-359600500D01*
X102628041Y-359600500D01*
X102771959Y-359600500D01*
X102771961Y-359600500D01*
X102910053Y-359559953D01*
X103019445Y-359489650D01*
X103092911Y-359466167D01*
X103168276Y-359482562D01*
X103180552Y-359489649D01*
X103289947Y-359559953D01*
X103416135Y-359597004D01*
X103426322Y-359599996D01*
X103428039Y-359600500D01*
X103428041Y-359600500D01*
X103571959Y-359600500D01*
X103571961Y-359600500D01*
X103573677Y-359599996D01*
X107394353Y-359599996D01*
X107394353Y-359600003D01*
X107414834Y-359742454D01*
X107414834Y-359742455D01*
X107414835Y-359742457D01*
X107474623Y-359873373D01*
X107568872Y-359982143D01*
X107689947Y-360059953D01*
X107828039Y-360100500D01*
X107828041Y-360100500D01*
X107971959Y-360100500D01*
X107971961Y-360100500D01*
X108110053Y-360059953D01*
X108231128Y-359982143D01*
X108325377Y-359873373D01*
X108385165Y-359742457D01*
X108391270Y-359699996D01*
X109994353Y-359699996D01*
X109994353Y-359700003D01*
X110014834Y-359842454D01*
X110014834Y-359842455D01*
X110014835Y-359842457D01*
X110074623Y-359973373D01*
X110168872Y-360082143D01*
X110289947Y-360159953D01*
X110428039Y-360200500D01*
X110428041Y-360200500D01*
X110571959Y-360200500D01*
X110571961Y-360200500D01*
X110710053Y-360159953D01*
X110831128Y-360082143D01*
X110925377Y-359973373D01*
X110985165Y-359842457D01*
X111003069Y-359717932D01*
X111005647Y-359700003D01*
X111005647Y-359699996D01*
X110988096Y-359577929D01*
X110985165Y-359557543D01*
X110925377Y-359426627D01*
X110831128Y-359317857D01*
X110831127Y-359317856D01*
X110797465Y-359296223D01*
X110710053Y-359240047D01*
X110710050Y-359240046D01*
X110571967Y-359199501D01*
X110571962Y-359199500D01*
X110571961Y-359199500D01*
X110428039Y-359199500D01*
X110428037Y-359199500D01*
X110428032Y-359199501D01*
X110289949Y-359240046D01*
X110168872Y-359317856D01*
X110168870Y-359317859D01*
X110074622Y-359426628D01*
X110014834Y-359557545D01*
X109994353Y-359699996D01*
X108391270Y-359699996D01*
X108402053Y-359625000D01*
X108405647Y-359600003D01*
X108405647Y-359599996D01*
X108385165Y-359457545D01*
X108385165Y-359457543D01*
X108325377Y-359326627D01*
X108231128Y-359217857D01*
X108231127Y-359217856D01*
X108197465Y-359196223D01*
X108110053Y-359140047D01*
X108110050Y-359140046D01*
X107971967Y-359099501D01*
X107971962Y-359099500D01*
X107971961Y-359099500D01*
X107828039Y-359099500D01*
X107828037Y-359099500D01*
X107828032Y-359099501D01*
X107689949Y-359140046D01*
X107568872Y-359217856D01*
X107568870Y-359217859D01*
X107474622Y-359326628D01*
X107414834Y-359457545D01*
X107394353Y-359599996D01*
X103573677Y-359599996D01*
X103710053Y-359559953D01*
X103831128Y-359482143D01*
X103925377Y-359373373D01*
X103985165Y-359242457D01*
X103999889Y-359140047D01*
X104005647Y-359100003D01*
X104005647Y-359099996D01*
X103985165Y-358957545D01*
X103985165Y-358957543D01*
X103925377Y-358826627D01*
X103831128Y-358717857D01*
X103831127Y-358717856D01*
X103797465Y-358696223D01*
X103710053Y-358640047D01*
X103702990Y-358637973D01*
X103571967Y-358599501D01*
X103571962Y-358599500D01*
X103571961Y-358599500D01*
X103428039Y-358599500D01*
X103428037Y-358599500D01*
X103428032Y-358599501D01*
X103289949Y-358640046D01*
X103289947Y-358640046D01*
X103289947Y-358640047D01*
X103180555Y-358710349D01*
X103107089Y-358733833D01*
X103031724Y-358717438D01*
X103019445Y-358710349D01*
X102910053Y-358640047D01*
X102902990Y-358637973D01*
X102771967Y-358599501D01*
X102771962Y-358599500D01*
X102771961Y-358599500D01*
X102628039Y-358599500D01*
X102628036Y-358599500D01*
X102503258Y-358636138D01*
X102426152Y-358637973D01*
X102414026Y-358631351D01*
X102414279Y-358641954D01*
X102377316Y-358709648D01*
X102369659Y-358716948D01*
X102274622Y-358826628D01*
X102214834Y-358957545D01*
X102194353Y-359099996D01*
X101805647Y-359099996D01*
X101785165Y-358957545D01*
X101785165Y-358957543D01*
X101725377Y-358826627D01*
X101631128Y-358717857D01*
X101631127Y-358717856D01*
X101597465Y-358696223D01*
X101510053Y-358640047D01*
X101502990Y-358637973D01*
X101371967Y-358599501D01*
X101371962Y-358599500D01*
X101371961Y-358599500D01*
X101294129Y-358599500D01*
X101219629Y-358579538D01*
X101165091Y-358525000D01*
X101146646Y-358471705D01*
X101135165Y-358391858D01*
X101135165Y-358391856D01*
X101075377Y-358260940D01*
X100981128Y-358152170D01*
X100981127Y-358152169D01*
X100917889Y-358111529D01*
X100860053Y-358074360D01*
X100860050Y-358074359D01*
X100721967Y-358033814D01*
X100721962Y-358033813D01*
X100721961Y-358033813D01*
X100578039Y-358033813D01*
X100578037Y-358033813D01*
X100578032Y-358033814D01*
X100439949Y-358074359D01*
X100318872Y-358152169D01*
X100318870Y-358152172D01*
X100224622Y-358260941D01*
X100164834Y-358391858D01*
X100144353Y-358534309D01*
X87141835Y-358534309D01*
X87144128Y-357999996D01*
X101525114Y-357999996D01*
X101525114Y-358000003D01*
X101545595Y-358142454D01*
X101545595Y-358142455D01*
X101545596Y-358142457D01*
X101605384Y-358273373D01*
X101699633Y-358382143D01*
X101820708Y-358459953D01*
X101958800Y-358500500D01*
X101958802Y-358500500D01*
X102102720Y-358500500D01*
X102102722Y-358500500D01*
X102227501Y-358463861D01*
X102304607Y-358462026D01*
X102316733Y-358468647D01*
X102316481Y-358458044D01*
X102353445Y-358390350D01*
X102361103Y-358383049D01*
X102361886Y-358382144D01*
X102361889Y-358382143D01*
X102456138Y-358273373D01*
X102515926Y-358142457D01*
X102530044Y-358044266D01*
X102536408Y-358000003D01*
X102536408Y-357999996D01*
X102515926Y-357857545D01*
X102515926Y-357857543D01*
X102456138Y-357726627D01*
X102361889Y-357617857D01*
X102361888Y-357617856D01*
X102328226Y-357596223D01*
X102240814Y-357540047D01*
X102240811Y-357540046D01*
X102102728Y-357499501D01*
X102102723Y-357499500D01*
X102102722Y-357499500D01*
X101958800Y-357499500D01*
X101958798Y-357499500D01*
X101958793Y-357499501D01*
X101820710Y-357540046D01*
X101820708Y-357540046D01*
X101820708Y-357540047D01*
X101814753Y-357543874D01*
X101699633Y-357617856D01*
X101699631Y-357617859D01*
X101605383Y-357726628D01*
X101545595Y-357857545D01*
X101525114Y-357999996D01*
X87144128Y-357999996D01*
X87148420Y-356999996D01*
X103444353Y-356999996D01*
X103444353Y-357000003D01*
X103464834Y-357142454D01*
X103464834Y-357142455D01*
X103464835Y-357142457D01*
X103524623Y-357273373D01*
X103618872Y-357382143D01*
X103739947Y-357459953D01*
X103878039Y-357500500D01*
X103878041Y-357500500D01*
X104021959Y-357500500D01*
X104021961Y-357500500D01*
X104160053Y-357459953D01*
X104281128Y-357382143D01*
X104375377Y-357273373D01*
X104435165Y-357142457D01*
X104445406Y-357071228D01*
X104455647Y-357000003D01*
X104455647Y-356999996D01*
X104435165Y-356857545D01*
X104435165Y-356857543D01*
X104375377Y-356726627D01*
X104281128Y-356617857D01*
X104281127Y-356617856D01*
X104247465Y-356596223D01*
X104160053Y-356540047D01*
X104160050Y-356540046D01*
X104021967Y-356499501D01*
X104021962Y-356499500D01*
X104021961Y-356499500D01*
X103878039Y-356499500D01*
X103878037Y-356499500D01*
X103878032Y-356499501D01*
X103739949Y-356540046D01*
X103618872Y-356617856D01*
X103618870Y-356617859D01*
X103524622Y-356726628D01*
X103464834Y-356857545D01*
X103444353Y-356999996D01*
X87148420Y-356999996D01*
X87161296Y-353999996D01*
X96394353Y-353999996D01*
X96394353Y-354000003D01*
X96414834Y-354142454D01*
X96414834Y-354142455D01*
X96414835Y-354142457D01*
X96474623Y-354273373D01*
X96568872Y-354382143D01*
X96689947Y-354459953D01*
X96828039Y-354500500D01*
X96828041Y-354500500D01*
X96971959Y-354500500D01*
X96971961Y-354500500D01*
X97110053Y-354459953D01*
X97231128Y-354382143D01*
X97325377Y-354273373D01*
X97385165Y-354142457D01*
X97405647Y-354000000D01*
X97405647Y-353999996D01*
X97385165Y-353857545D01*
X97385165Y-353857543D01*
X97325377Y-353726627D01*
X97302301Y-353699996D01*
X107194353Y-353699996D01*
X107194353Y-353700003D01*
X107214834Y-353842454D01*
X107214834Y-353842455D01*
X107214835Y-353842457D01*
X107274623Y-353973373D01*
X107368872Y-354082143D01*
X107489947Y-354159953D01*
X107628039Y-354200500D01*
X107628041Y-354200500D01*
X107771959Y-354200500D01*
X107771961Y-354200500D01*
X107910053Y-354159953D01*
X108031128Y-354082143D01*
X108125377Y-353973373D01*
X108185165Y-353842457D01*
X108205647Y-353700000D01*
X108205647Y-353699996D01*
X109094353Y-353699996D01*
X109094353Y-353700003D01*
X109114834Y-353842454D01*
X109114834Y-353842455D01*
X109114835Y-353842457D01*
X109174623Y-353973373D01*
X109268872Y-354082143D01*
X109389947Y-354159953D01*
X109528039Y-354200500D01*
X109528041Y-354200500D01*
X109671959Y-354200500D01*
X109671961Y-354200500D01*
X109810053Y-354159953D01*
X109931128Y-354082143D01*
X110025377Y-353973373D01*
X110085165Y-353842457D01*
X110105647Y-353700000D01*
X110105647Y-353699996D01*
X110085165Y-353557545D01*
X110085165Y-353557543D01*
X110025377Y-353426627D01*
X109931128Y-353317857D01*
X109931127Y-353317856D01*
X109897465Y-353296223D01*
X109810053Y-353240047D01*
X109810050Y-353240046D01*
X109671967Y-353199501D01*
X109671962Y-353199500D01*
X109671961Y-353199500D01*
X109528039Y-353199500D01*
X109528037Y-353199500D01*
X109528032Y-353199501D01*
X109389949Y-353240046D01*
X109268872Y-353317856D01*
X109268870Y-353317859D01*
X109174622Y-353426628D01*
X109114834Y-353557545D01*
X109094353Y-353699996D01*
X108205647Y-353699996D01*
X108185165Y-353557545D01*
X108185165Y-353557543D01*
X108125377Y-353426627D01*
X108031128Y-353317857D01*
X108031127Y-353317856D01*
X107997465Y-353296223D01*
X107910053Y-353240047D01*
X107910050Y-353240046D01*
X107771967Y-353199501D01*
X107771962Y-353199500D01*
X107771961Y-353199500D01*
X107628039Y-353199500D01*
X107628037Y-353199500D01*
X107628032Y-353199501D01*
X107489949Y-353240046D01*
X107368872Y-353317856D01*
X107368870Y-353317859D01*
X107274622Y-353426628D01*
X107214834Y-353557545D01*
X107194353Y-353699996D01*
X97302301Y-353699996D01*
X97231128Y-353617857D01*
X97231127Y-353617856D01*
X97197465Y-353596223D01*
X97110053Y-353540047D01*
X97110050Y-353540046D01*
X96971967Y-353499501D01*
X96971962Y-353499500D01*
X96971961Y-353499500D01*
X96828039Y-353499500D01*
X96828037Y-353499500D01*
X96828032Y-353499501D01*
X96689949Y-353540046D01*
X96568872Y-353617856D01*
X96568870Y-353617859D01*
X96474622Y-353726628D01*
X96414834Y-353857545D01*
X96394353Y-353999996D01*
X87161296Y-353999996D01*
X87169880Y-351999996D01*
X96394353Y-351999996D01*
X96394353Y-352000003D01*
X96414834Y-352142454D01*
X96414834Y-352142455D01*
X96414835Y-352142457D01*
X96474623Y-352273373D01*
X96568872Y-352382143D01*
X96689947Y-352459953D01*
X96828039Y-352500500D01*
X96828041Y-352500500D01*
X96971959Y-352500500D01*
X96971961Y-352500500D01*
X97110053Y-352459953D01*
X97231128Y-352382143D01*
X97325377Y-352273373D01*
X97385165Y-352142457D01*
X97405647Y-352000000D01*
X97405647Y-351999996D01*
X97385165Y-351857545D01*
X97385165Y-351857543D01*
X97325377Y-351726627D01*
X97231128Y-351617857D01*
X97231127Y-351617856D01*
X97197465Y-351596223D01*
X97110053Y-351540047D01*
X97110050Y-351540046D01*
X96971967Y-351499501D01*
X96971962Y-351499500D01*
X96971961Y-351499500D01*
X96828039Y-351499500D01*
X96828037Y-351499500D01*
X96828032Y-351499501D01*
X96689949Y-351540046D01*
X96568872Y-351617856D01*
X96568870Y-351617859D01*
X96474622Y-351726628D01*
X96414834Y-351857545D01*
X96394353Y-351999996D01*
X87169880Y-351999996D01*
X87175459Y-350699996D01*
X98094353Y-350699996D01*
X98094353Y-350700003D01*
X98114834Y-350842454D01*
X98114834Y-350842455D01*
X98114835Y-350842457D01*
X98174623Y-350973373D01*
X98268872Y-351082143D01*
X98389947Y-351159953D01*
X98528039Y-351200500D01*
X98528041Y-351200500D01*
X98671959Y-351200500D01*
X98671961Y-351200500D01*
X98810053Y-351159953D01*
X98931128Y-351082143D01*
X99025377Y-350973373D01*
X99085165Y-350842457D01*
X99105337Y-350702157D01*
X99105647Y-350700003D01*
X99105647Y-350699996D01*
X99085165Y-350557545D01*
X99085165Y-350557543D01*
X99025377Y-350426627D01*
X98931128Y-350317857D01*
X98931127Y-350317856D01*
X98897465Y-350296223D01*
X98810053Y-350240047D01*
X98805813Y-350238802D01*
X98671967Y-350199501D01*
X98671962Y-350199500D01*
X98671961Y-350199500D01*
X98528039Y-350199500D01*
X98528037Y-350199500D01*
X98528032Y-350199501D01*
X98389949Y-350240046D01*
X98389947Y-350240046D01*
X98389947Y-350240047D01*
X98363071Y-350257318D01*
X98268872Y-350317856D01*
X98268870Y-350317859D01*
X98174622Y-350426628D01*
X98114834Y-350557545D01*
X98094353Y-350699996D01*
X87175459Y-350699996D01*
X87182326Y-349099996D01*
X95594353Y-349099996D01*
X95594353Y-349100003D01*
X95614834Y-349242454D01*
X95614834Y-349242455D01*
X95614835Y-349242457D01*
X95674623Y-349373373D01*
X95768872Y-349482143D01*
X95889947Y-349559953D01*
X96028039Y-349600500D01*
X96028041Y-349600500D01*
X96171959Y-349600500D01*
X96171961Y-349600500D01*
X96310053Y-349559953D01*
X96431128Y-349482143D01*
X96525377Y-349373373D01*
X96585165Y-349242457D01*
X96605647Y-349100000D01*
X96605647Y-349099996D01*
X97094353Y-349099996D01*
X97094353Y-349100003D01*
X97114834Y-349242454D01*
X97114834Y-349242455D01*
X97114835Y-349242457D01*
X97174623Y-349373373D01*
X97268872Y-349482143D01*
X97389947Y-349559953D01*
X97528039Y-349600500D01*
X97528041Y-349600500D01*
X97671959Y-349600500D01*
X97671961Y-349600500D01*
X97810053Y-349559953D01*
X97931128Y-349482143D01*
X98025377Y-349373373D01*
X98085165Y-349242457D01*
X98105647Y-349100000D01*
X98105647Y-349099996D01*
X98085165Y-348957545D01*
X98085165Y-348957543D01*
X98025377Y-348826627D01*
X97931128Y-348717857D01*
X97931127Y-348717856D01*
X97881763Y-348686132D01*
X97810053Y-348640047D01*
X97810050Y-348640046D01*
X97671967Y-348599501D01*
X97671962Y-348599500D01*
X97671961Y-348599500D01*
X97528039Y-348599500D01*
X97528037Y-348599500D01*
X97528032Y-348599501D01*
X97389949Y-348640046D01*
X97268872Y-348717856D01*
X97268870Y-348717859D01*
X97174622Y-348826628D01*
X97114834Y-348957545D01*
X97094353Y-349099996D01*
X96605647Y-349099996D01*
X96585165Y-348957545D01*
X96585165Y-348957543D01*
X96525377Y-348826627D01*
X96431128Y-348717857D01*
X96431127Y-348717856D01*
X96381763Y-348686132D01*
X96310053Y-348640047D01*
X96310050Y-348640046D01*
X96171967Y-348599501D01*
X96171962Y-348599500D01*
X96171961Y-348599500D01*
X96028039Y-348599500D01*
X96028037Y-348599500D01*
X96028032Y-348599501D01*
X95889949Y-348640046D01*
X95768872Y-348717856D01*
X95768870Y-348717859D01*
X95674622Y-348826628D01*
X95614834Y-348957545D01*
X95594353Y-349099996D01*
X87182326Y-349099996D01*
X87192412Y-346749996D01*
X100144353Y-346749996D01*
X100144353Y-346750003D01*
X100164834Y-346892454D01*
X100164834Y-346892455D01*
X100164835Y-346892457D01*
X100224623Y-347023373D01*
X100318872Y-347132143D01*
X100346118Y-347149653D01*
X100346120Y-347149654D01*
X100398000Y-347206726D01*
X100414394Y-347282091D01*
X100390909Y-347355557D01*
X100346120Y-347400346D01*
X100318872Y-347417857D01*
X100318870Y-347417859D01*
X100224622Y-347526628D01*
X100164834Y-347657545D01*
X100144353Y-347799996D01*
X100144353Y-347800003D01*
X100164834Y-347942454D01*
X100164834Y-347942455D01*
X100164835Y-347942457D01*
X100224623Y-348073373D01*
X100318872Y-348182143D01*
X100439947Y-348259953D01*
X100578039Y-348300500D01*
X100578041Y-348300500D01*
X100721959Y-348300500D01*
X100721961Y-348300500D01*
X100860053Y-348259953D01*
X100981128Y-348182143D01*
X101075377Y-348073373D01*
X101135165Y-347942457D01*
X101145406Y-347871228D01*
X101155647Y-347800003D01*
X101155647Y-347799996D01*
X101135165Y-347657545D01*
X101135165Y-347657543D01*
X101108884Y-347599996D01*
X101494353Y-347599996D01*
X101494353Y-347600003D01*
X101514834Y-347742454D01*
X101514834Y-347742455D01*
X101514835Y-347742457D01*
X101574623Y-347873373D01*
X101668872Y-347982143D01*
X101789947Y-348059953D01*
X101892991Y-348090209D01*
X101926322Y-348099996D01*
X101928039Y-348100500D01*
X101928041Y-348100500D01*
X102071959Y-348100500D01*
X102071961Y-348100500D01*
X102210053Y-348059953D01*
X102331128Y-347982143D01*
X102425377Y-347873373D01*
X102485165Y-347742457D01*
X102498276Y-347651266D01*
X102505647Y-347600003D01*
X102505647Y-347599996D01*
X102485165Y-347457545D01*
X102485165Y-347457543D01*
X102425377Y-347326627D01*
X102331128Y-347217857D01*
X102331127Y-347217856D01*
X102261464Y-347173087D01*
X102210053Y-347140047D01*
X102210050Y-347140046D01*
X102071967Y-347099501D01*
X102071962Y-347099500D01*
X102071961Y-347099500D01*
X101928039Y-347099500D01*
X101928037Y-347099500D01*
X101928032Y-347099501D01*
X101789949Y-347140046D01*
X101668872Y-347217856D01*
X101668870Y-347217859D01*
X101574622Y-347326628D01*
X101514834Y-347457545D01*
X101494353Y-347599996D01*
X101108884Y-347599996D01*
X101075377Y-347526627D01*
X100981128Y-347417857D01*
X100981127Y-347417856D01*
X100970320Y-347410911D01*
X100953879Y-347400345D01*
X100902000Y-347343276D01*
X100885605Y-347267910D01*
X100909089Y-347194445D01*
X100953879Y-347149654D01*
X100981128Y-347132143D01*
X101075377Y-347023373D01*
X101135165Y-346892457D01*
X101148530Y-346799500D01*
X101155647Y-346750003D01*
X101155647Y-346749500D01*
X101155803Y-346748917D01*
X101157164Y-346739452D01*
X101158295Y-346739614D01*
X101175609Y-346675000D01*
X101230147Y-346620462D01*
X101304647Y-346600500D01*
X101371959Y-346600500D01*
X101371961Y-346600500D01*
X101510053Y-346559953D01*
X101619445Y-346489650D01*
X101692911Y-346466167D01*
X101768276Y-346482562D01*
X101780552Y-346489649D01*
X101889947Y-346559953D01*
X102016135Y-346597004D01*
X102026322Y-346599996D01*
X102028039Y-346600500D01*
X102028041Y-346600500D01*
X102171959Y-346600500D01*
X102171961Y-346600500D01*
X102310053Y-346559953D01*
X102431128Y-346482143D01*
X102525377Y-346373373D01*
X102585165Y-346242457D01*
X102599889Y-346140047D01*
X102605647Y-346100003D01*
X102605647Y-346099996D01*
X102585165Y-345957545D01*
X102585165Y-345957543D01*
X102525377Y-345826627D01*
X102431128Y-345717857D01*
X102431127Y-345717856D01*
X102397465Y-345696223D01*
X102310053Y-345640047D01*
X102310050Y-345640046D01*
X102171967Y-345599501D01*
X102171962Y-345599500D01*
X102171961Y-345599500D01*
X102028039Y-345599500D01*
X102028037Y-345599500D01*
X102028032Y-345599501D01*
X101889949Y-345640046D01*
X101889947Y-345640046D01*
X101889947Y-345640047D01*
X101780555Y-345710349D01*
X101707089Y-345733833D01*
X101631724Y-345717438D01*
X101619445Y-345710349D01*
X101510053Y-345640047D01*
X101510050Y-345640046D01*
X101371967Y-345599501D01*
X101371962Y-345599500D01*
X101371961Y-345599500D01*
X101228039Y-345599500D01*
X101228037Y-345599500D01*
X101228032Y-345599501D01*
X101089949Y-345640046D01*
X100968872Y-345717856D01*
X100968870Y-345717859D01*
X100874622Y-345826628D01*
X100814834Y-345957545D01*
X100794353Y-346099996D01*
X100794353Y-346100500D01*
X100794196Y-346101082D01*
X100792836Y-346110548D01*
X100791704Y-346110385D01*
X100774391Y-346175000D01*
X100719853Y-346229538D01*
X100645353Y-346249500D01*
X100578039Y-346249500D01*
X100578037Y-346249500D01*
X100578032Y-346249501D01*
X100439949Y-346290046D01*
X100318872Y-346367856D01*
X100318870Y-346367859D01*
X100224622Y-346476628D01*
X100164834Y-346607545D01*
X100144353Y-346749996D01*
X87192412Y-346749996D01*
X87200781Y-344799996D01*
X87794353Y-344799996D01*
X87794353Y-344800003D01*
X87814834Y-344942454D01*
X87814834Y-344942455D01*
X87814835Y-344942457D01*
X87874623Y-345073373D01*
X87968872Y-345182143D01*
X88089947Y-345259953D01*
X88228039Y-345300500D01*
X88228041Y-345300500D01*
X88371959Y-345300500D01*
X88371961Y-345300500D01*
X88510053Y-345259953D01*
X88631128Y-345182143D01*
X88725377Y-345073373D01*
X88785165Y-344942457D01*
X88805647Y-344800000D01*
X88805647Y-344799996D01*
X88785828Y-344662154D01*
X88785165Y-344657543D01*
X88725377Y-344526627D01*
X88631128Y-344417857D01*
X88631127Y-344417856D01*
X88567867Y-344377202D01*
X88510053Y-344340047D01*
X88510050Y-344340046D01*
X88371967Y-344299501D01*
X88371962Y-344299500D01*
X88371961Y-344299500D01*
X88228039Y-344299500D01*
X88228037Y-344299500D01*
X88228032Y-344299501D01*
X88089949Y-344340046D01*
X87968872Y-344417856D01*
X87968870Y-344417859D01*
X87874622Y-344526628D01*
X87814834Y-344657545D01*
X87794353Y-344799996D01*
X87200781Y-344799996D01*
X87204644Y-343899996D01*
X99494353Y-343899996D01*
X99494353Y-343900003D01*
X99514834Y-344042454D01*
X99514834Y-344042455D01*
X99514835Y-344042457D01*
X99574623Y-344173373D01*
X99596703Y-344198855D01*
X99599799Y-344202428D01*
X99633498Y-344271805D01*
X99627994Y-344348736D01*
X99599799Y-344397572D01*
X99574622Y-344426628D01*
X99514834Y-344557545D01*
X99494353Y-344699996D01*
X99494353Y-344700003D01*
X99514834Y-344842454D01*
X99514834Y-344842455D01*
X99514835Y-344842457D01*
X99574623Y-344973373D01*
X99668872Y-345082143D01*
X99789947Y-345159953D01*
X99928039Y-345200500D01*
X99928041Y-345200500D01*
X100071959Y-345200500D01*
X100071961Y-345200500D01*
X100210053Y-345159953D01*
X100331128Y-345082143D01*
X100425377Y-344973373D01*
X100485165Y-344842457D01*
X100505647Y-344700000D01*
X100505647Y-344699996D01*
X100489883Y-344590357D01*
X100485165Y-344557543D01*
X100425377Y-344426627D01*
X100400201Y-344397572D01*
X100366501Y-344328198D01*
X100372004Y-344251266D01*
X100372737Y-344249996D01*
X102244353Y-344249996D01*
X102244353Y-344250003D01*
X102264834Y-344392454D01*
X102264834Y-344392455D01*
X102264835Y-344392457D01*
X102324623Y-344523373D01*
X102418872Y-344632143D01*
X102539947Y-344709953D01*
X102678039Y-344750500D01*
X102678041Y-344750500D01*
X102821959Y-344750500D01*
X102821961Y-344750500D01*
X102960053Y-344709953D01*
X103081128Y-344632143D01*
X103093269Y-344618130D01*
X103157139Y-344574900D01*
X103234070Y-344569396D01*
X103286430Y-344590356D01*
X103335057Y-344621607D01*
X103473149Y-344662154D01*
X103473151Y-344662154D01*
X103617069Y-344662154D01*
X103617071Y-344662154D01*
X103755163Y-344621607D01*
X103876238Y-344543797D01*
X103876240Y-344543793D01*
X103882673Y-344539660D01*
X103956138Y-344516175D01*
X104031504Y-344532569D01*
X104088575Y-344584450D01*
X104112060Y-344657915D01*
X104110713Y-344686210D01*
X104094353Y-344800002D01*
X104094353Y-344800003D01*
X104114834Y-344942454D01*
X104114834Y-344942455D01*
X104114835Y-344942457D01*
X104174623Y-345073373D01*
X104232005Y-345139596D01*
X104243123Y-345152427D01*
X104276823Y-345221803D01*
X104271320Y-345298735D01*
X104243123Y-345347573D01*
X104174622Y-345426628D01*
X104114834Y-345557545D01*
X104094353Y-345699996D01*
X104094353Y-345700003D01*
X104114834Y-345842454D01*
X104114834Y-345842455D01*
X104114835Y-345842457D01*
X104149270Y-345917859D01*
X104167394Y-345957545D01*
X104174623Y-345973373D01*
X104268872Y-346082143D01*
X104389947Y-346159953D01*
X104528039Y-346200500D01*
X104528041Y-346200500D01*
X104650374Y-346200500D01*
X104724874Y-346220462D01*
X104779412Y-346275000D01*
X104799374Y-346349500D01*
X104785909Y-346411397D01*
X104764834Y-346457543D01*
X104744353Y-346599996D01*
X104744353Y-346600003D01*
X104764834Y-346742454D01*
X104764834Y-346742455D01*
X104764835Y-346742457D01*
X104824623Y-346873373D01*
X104918872Y-346982143D01*
X105039947Y-347059953D01*
X105099480Y-347077433D01*
X105165336Y-347117575D01*
X105202300Y-347185269D01*
X105204984Y-347241600D01*
X105194353Y-347315545D01*
X105194353Y-347315547D01*
X105214834Y-347457998D01*
X105214834Y-347457999D01*
X105214835Y-347458001D01*
X105274623Y-347588917D01*
X105368872Y-347697687D01*
X105489947Y-347775497D01*
X105628039Y-347816044D01*
X105628041Y-347816044D01*
X105771959Y-347816044D01*
X105771961Y-347816044D01*
X105771963Y-347816043D01*
X105771965Y-347816043D01*
X105790913Y-347810479D01*
X105824324Y-347800668D01*
X105901429Y-347798833D01*
X105969123Y-347835796D01*
X106009266Y-347901654D01*
X106013786Y-347964837D01*
X106011298Y-347982143D01*
X105998182Y-348073373D01*
X105994353Y-348100002D01*
X105994353Y-348100003D01*
X106014834Y-348242454D01*
X106014834Y-348242455D01*
X106014835Y-348242457D01*
X106074623Y-348373373D01*
X106168872Y-348482143D01*
X106289947Y-348559953D01*
X106428039Y-348600500D01*
X106428041Y-348600500D01*
X106571959Y-348600500D01*
X106571961Y-348600500D01*
X106710053Y-348559953D01*
X106831128Y-348482143D01*
X106925377Y-348373373D01*
X106985165Y-348242457D01*
X106995688Y-348169266D01*
X107005647Y-348100003D01*
X107005647Y-348099996D01*
X106988701Y-347982140D01*
X106985165Y-347957543D01*
X106925377Y-347826627D01*
X106900201Y-347797572D01*
X106866501Y-347728198D01*
X106872004Y-347651266D01*
X106900200Y-347602428D01*
X106925377Y-347573373D01*
X106985165Y-347442457D01*
X107005647Y-347300000D01*
X107005647Y-347299996D01*
X106985165Y-347157545D01*
X106985165Y-347157543D01*
X106925377Y-347026627D01*
X106831128Y-346917857D01*
X106831127Y-346917856D01*
X106761906Y-346873371D01*
X106710053Y-346840047D01*
X106710050Y-346840046D01*
X106571967Y-346799501D01*
X106571962Y-346799500D01*
X106571961Y-346799500D01*
X106428039Y-346799500D01*
X106428037Y-346799500D01*
X106428032Y-346799501D01*
X106289949Y-346840046D01*
X106168461Y-346918121D01*
X106094995Y-346941605D01*
X106019630Y-346925210D01*
X106007358Y-346918125D01*
X105910053Y-346855591D01*
X105910052Y-346855590D01*
X105910051Y-346855590D01*
X105850520Y-346838110D01*
X105784662Y-346797967D01*
X105747699Y-346730273D01*
X105745016Y-346673941D01*
X105755647Y-346600002D01*
X105755647Y-346599996D01*
X105735165Y-346457545D01*
X105735165Y-346457543D01*
X105675377Y-346326627D01*
X105581128Y-346217857D01*
X105581127Y-346217856D01*
X105514441Y-346175000D01*
X105460053Y-346140047D01*
X105460050Y-346140046D01*
X105321967Y-346099501D01*
X105321962Y-346099500D01*
X105321961Y-346099500D01*
X105199626Y-346099500D01*
X105125126Y-346079538D01*
X105070588Y-346025000D01*
X105050626Y-345950500D01*
X105064091Y-345888603D01*
X105085165Y-345842456D01*
X105085512Y-345840047D01*
X105100783Y-345733833D01*
X105105647Y-345700003D01*
X105105647Y-345699996D01*
X105085165Y-345557545D01*
X105085165Y-345557543D01*
X105025377Y-345426627D01*
X104956876Y-345347572D01*
X104923177Y-345278198D01*
X104928679Y-345201266D01*
X104956875Y-345152428D01*
X105025377Y-345073373D01*
X105085165Y-344942457D01*
X105105647Y-344800000D01*
X105105647Y-344799996D01*
X105085828Y-344662154D01*
X105085165Y-344657543D01*
X105025377Y-344526627D01*
X104931128Y-344417857D01*
X104931127Y-344417856D01*
X104867867Y-344377202D01*
X104810053Y-344340047D01*
X104810050Y-344340046D01*
X104671967Y-344299501D01*
X104671962Y-344299500D01*
X104671961Y-344299500D01*
X104528039Y-344299500D01*
X104528037Y-344299500D01*
X104528032Y-344299501D01*
X104389949Y-344340046D01*
X104389947Y-344340046D01*
X104389947Y-344340047D01*
X104300436Y-344397572D01*
X104262435Y-344421994D01*
X104188969Y-344445478D01*
X104113604Y-344429083D01*
X104056533Y-344377202D01*
X104033049Y-344303736D01*
X104034397Y-344275442D01*
X104050757Y-344161656D01*
X104050757Y-344161650D01*
X104030275Y-344019199D01*
X104030275Y-344019197D01*
X103970487Y-343888281D01*
X103876238Y-343779511D01*
X103876237Y-343779510D01*
X103829540Y-343749500D01*
X103755163Y-343701701D01*
X103755160Y-343701700D01*
X103617077Y-343661155D01*
X103617072Y-343661154D01*
X103617071Y-343661154D01*
X103473149Y-343661154D01*
X103473147Y-343661154D01*
X103473142Y-343661155D01*
X103335059Y-343701700D01*
X103213982Y-343779510D01*
X103213977Y-343779515D01*
X103201838Y-343793525D01*
X103137964Y-343836755D01*
X103061032Y-343842256D01*
X103008679Y-343821297D01*
X102960050Y-343790045D01*
X102821967Y-343749501D01*
X102821962Y-343749500D01*
X102821961Y-343749500D01*
X102678039Y-343749500D01*
X102678037Y-343749500D01*
X102678032Y-343749501D01*
X102539949Y-343790046D01*
X102418872Y-343867856D01*
X102418870Y-343867859D01*
X102324622Y-343976628D01*
X102264834Y-344107545D01*
X102244353Y-344249996D01*
X100372737Y-344249996D01*
X100400200Y-344202428D01*
X100425377Y-344173373D01*
X100485165Y-344042457D01*
X100495406Y-343971228D01*
X100505647Y-343900003D01*
X100505647Y-343899996D01*
X100485165Y-343757545D01*
X100485165Y-343757543D01*
X100425377Y-343626627D01*
X100331128Y-343517857D01*
X100331127Y-343517856D01*
X100297465Y-343496223D01*
X100210053Y-343440047D01*
X100210050Y-343440046D01*
X100071967Y-343399501D01*
X100071962Y-343399500D01*
X100071961Y-343399500D01*
X99928039Y-343399500D01*
X99928037Y-343399500D01*
X99928032Y-343399501D01*
X99789949Y-343440046D01*
X99668872Y-343517856D01*
X99668870Y-343517859D01*
X99574622Y-343626628D01*
X99514834Y-343757545D01*
X99494353Y-343899996D01*
X87204644Y-343899996D01*
X87210652Y-342499996D01*
X99294353Y-342499996D01*
X99294353Y-342500003D01*
X99314834Y-342642454D01*
X99314834Y-342642455D01*
X99314835Y-342642457D01*
X99340371Y-342698373D01*
X99367394Y-342757545D01*
X99374623Y-342773373D01*
X99468872Y-342882143D01*
X99589947Y-342959953D01*
X99728039Y-343000500D01*
X99728041Y-343000500D01*
X99871959Y-343000500D01*
X99871961Y-343000500D01*
X100010053Y-342959953D01*
X100131128Y-342882143D01*
X100225377Y-342773373D01*
X100285165Y-342642457D01*
X100298087Y-342552579D01*
X100305647Y-342500003D01*
X100305647Y-342499996D01*
X100285165Y-342357545D01*
X100285165Y-342357543D01*
X100225377Y-342226627D01*
X100202301Y-342199996D01*
X101694353Y-342199996D01*
X101694353Y-342200003D01*
X101714834Y-342342454D01*
X101714834Y-342342455D01*
X101714835Y-342342457D01*
X101749419Y-342418185D01*
X101773293Y-342470462D01*
X101774623Y-342473373D01*
X101868872Y-342582143D01*
X101989947Y-342659953D01*
X102128039Y-342700500D01*
X102128041Y-342700500D01*
X102271959Y-342700500D01*
X102271961Y-342700500D01*
X102410053Y-342659953D01*
X102531128Y-342582143D01*
X102625377Y-342473373D01*
X102685165Y-342342457D01*
X102705647Y-342200000D01*
X102705647Y-342199996D01*
X102691992Y-342105028D01*
X102685165Y-342057543D01*
X102645459Y-341970601D01*
X102632670Y-341894543D01*
X102659623Y-341822277D01*
X102719097Y-341773170D01*
X102795157Y-341760380D01*
X102822974Y-341765740D01*
X102828039Y-341767228D01*
X102828041Y-341767228D01*
X102971959Y-341767228D01*
X102971961Y-341767228D01*
X103110053Y-341726681D01*
X103231128Y-341648871D01*
X103295141Y-341574996D01*
X106116204Y-341574996D01*
X106116204Y-341575003D01*
X106136685Y-341717454D01*
X106136685Y-341717455D01*
X106136686Y-341717457D01*
X106196474Y-341848373D01*
X106243311Y-341902426D01*
X106243312Y-341902427D01*
X106277012Y-341971803D01*
X106271509Y-342048734D01*
X106243312Y-342097573D01*
X106196473Y-342151628D01*
X106136685Y-342282545D01*
X106116204Y-342424996D01*
X106116204Y-342425003D01*
X106136685Y-342567454D01*
X106136685Y-342567455D01*
X106136686Y-342567457D01*
X106196474Y-342698373D01*
X106290723Y-342807143D01*
X106411798Y-342884953D01*
X106549890Y-342925500D01*
X106549892Y-342925500D01*
X106693810Y-342925500D01*
X106693812Y-342925500D01*
X106780672Y-342899996D01*
X112894353Y-342899996D01*
X112894353Y-342900003D01*
X112914834Y-343042454D01*
X112914834Y-343042455D01*
X112914835Y-343042457D01*
X112974623Y-343173373D01*
X113068872Y-343282143D01*
X113189947Y-343359953D01*
X113328039Y-343400500D01*
X113328041Y-343400500D01*
X113471959Y-343400500D01*
X113471961Y-343400500D01*
X113610053Y-343359953D01*
X113731128Y-343282143D01*
X113825377Y-343173373D01*
X113885165Y-343042457D01*
X113901981Y-342925498D01*
X113905647Y-342900003D01*
X113905647Y-342899996D01*
X113885165Y-342757545D01*
X113885165Y-342757543D01*
X113825377Y-342626627D01*
X113731128Y-342517857D01*
X113731127Y-342517856D01*
X113661906Y-342473371D01*
X113610053Y-342440047D01*
X113610050Y-342440046D01*
X113471967Y-342399501D01*
X113471962Y-342399500D01*
X113471961Y-342399500D01*
X113328039Y-342399500D01*
X113328037Y-342399500D01*
X113328032Y-342399501D01*
X113189949Y-342440046D01*
X113068872Y-342517856D01*
X113068870Y-342517859D01*
X112974622Y-342626628D01*
X112914834Y-342757545D01*
X112894353Y-342899996D01*
X106780672Y-342899996D01*
X106831904Y-342884953D01*
X106952979Y-342807143D01*
X107047228Y-342698373D01*
X107107016Y-342567457D01*
X107120543Y-342473373D01*
X107127498Y-342425003D01*
X107127498Y-342424996D01*
X107107016Y-342282545D01*
X107107016Y-342282543D01*
X107047228Y-342151627D01*
X107000388Y-342097570D01*
X106966690Y-342028198D01*
X106972192Y-341951267D01*
X107000387Y-341902430D01*
X107047228Y-341848373D01*
X107107016Y-341717457D01*
X107127498Y-341575000D01*
X107127498Y-341574996D01*
X107107016Y-341432545D01*
X107107016Y-341432543D01*
X107047228Y-341301627D01*
X106952979Y-341192857D01*
X106952978Y-341192856D01*
X106887070Y-341150500D01*
X106831904Y-341115047D01*
X106831901Y-341115046D01*
X106693818Y-341074501D01*
X106693813Y-341074500D01*
X106693812Y-341074500D01*
X106549890Y-341074500D01*
X106549888Y-341074500D01*
X106549883Y-341074501D01*
X106411800Y-341115046D01*
X106290723Y-341192856D01*
X106290721Y-341192859D01*
X106196473Y-341301628D01*
X106136685Y-341432545D01*
X106116204Y-341574996D01*
X103295141Y-341574996D01*
X103325377Y-341540101D01*
X103385165Y-341409185D01*
X103400629Y-341301628D01*
X103405647Y-341266731D01*
X103405647Y-341266724D01*
X103385165Y-341124273D01*
X103385165Y-341124271D01*
X103325377Y-340993355D01*
X103231128Y-340884585D01*
X103231127Y-340884584D01*
X103197465Y-340862951D01*
X103110053Y-340806775D01*
X103110050Y-340806774D01*
X102971967Y-340766229D01*
X102971962Y-340766228D01*
X102971961Y-340766228D01*
X102828039Y-340766228D01*
X102828037Y-340766228D01*
X102828032Y-340766229D01*
X102689949Y-340806774D01*
X102568872Y-340884584D01*
X102568870Y-340884587D01*
X102474622Y-340993356D01*
X102414834Y-341124273D01*
X102394353Y-341266724D01*
X102394353Y-341266731D01*
X102414834Y-341409184D01*
X102454539Y-341496125D01*
X102467329Y-341572185D01*
X102440376Y-341644450D01*
X102380901Y-341693557D01*
X102304841Y-341706347D01*
X102277031Y-341700988D01*
X102271966Y-341699501D01*
X102271962Y-341699500D01*
X102271961Y-341699500D01*
X102128039Y-341699500D01*
X102128037Y-341699500D01*
X102128032Y-341699501D01*
X101989949Y-341740046D01*
X101868872Y-341817856D01*
X101868870Y-341817859D01*
X101774622Y-341926628D01*
X101714834Y-342057545D01*
X101694353Y-342199996D01*
X100202301Y-342199996D01*
X100131128Y-342117857D01*
X100131127Y-342117856D01*
X100097465Y-342096223D01*
X100010053Y-342040047D01*
X100010050Y-342040046D01*
X99871967Y-341999501D01*
X99871962Y-341999500D01*
X99871961Y-341999500D01*
X99728039Y-341999500D01*
X99728037Y-341999500D01*
X99728032Y-341999501D01*
X99589949Y-342040046D01*
X99468872Y-342117856D01*
X99468870Y-342117859D01*
X99374622Y-342226628D01*
X99314834Y-342357545D01*
X99294353Y-342499996D01*
X87210652Y-342499996D01*
X87217519Y-340899996D01*
X99194353Y-340899996D01*
X99194353Y-340900003D01*
X99214834Y-341042454D01*
X99214834Y-341042455D01*
X99214835Y-341042457D01*
X99274623Y-341173373D01*
X99368872Y-341282143D01*
X99489947Y-341359953D01*
X99628039Y-341400500D01*
X99628041Y-341400500D01*
X99771959Y-341400500D01*
X99771961Y-341400500D01*
X99910053Y-341359953D01*
X100031128Y-341282143D01*
X100125377Y-341173373D01*
X100185165Y-341042457D01*
X100205647Y-340900000D01*
X100205647Y-340899996D01*
X100186414Y-340766229D01*
X100185165Y-340757543D01*
X100125377Y-340626627D01*
X100031128Y-340517857D01*
X100031127Y-340517856D01*
X99981081Y-340485694D01*
X99910053Y-340440047D01*
X99910050Y-340440046D01*
X99771967Y-340399501D01*
X99771962Y-340399500D01*
X99771961Y-340399500D01*
X99628039Y-340399500D01*
X99628037Y-340399500D01*
X99628032Y-340399501D01*
X99489949Y-340440046D01*
X99368872Y-340517856D01*
X99368870Y-340517859D01*
X99274622Y-340626628D01*
X99214834Y-340757545D01*
X99194353Y-340899996D01*
X87217519Y-340899996D01*
X87221811Y-339899996D01*
X100894353Y-339899996D01*
X100894353Y-339900003D01*
X100914834Y-340042454D01*
X100914834Y-340042455D01*
X100914835Y-340042457D01*
X100963282Y-340148539D01*
X100967394Y-340157545D01*
X100974623Y-340173373D01*
X101068872Y-340282143D01*
X101189947Y-340359953D01*
X101328039Y-340400500D01*
X101328041Y-340400500D01*
X101471959Y-340400500D01*
X101471961Y-340400500D01*
X101610053Y-340359953D01*
X101703348Y-340299996D01*
X104794353Y-340299996D01*
X104794353Y-340300003D01*
X104814834Y-340442454D01*
X104814834Y-340442455D01*
X104814835Y-340442457D01*
X104874623Y-340573373D01*
X104968872Y-340682143D01*
X105089947Y-340759953D01*
X105228039Y-340800500D01*
X105228041Y-340800500D01*
X105371959Y-340800500D01*
X105371961Y-340800500D01*
X105510053Y-340759953D01*
X105631128Y-340682143D01*
X105725377Y-340573373D01*
X105785165Y-340442457D01*
X105795406Y-340371228D01*
X105805647Y-340300003D01*
X105805647Y-340299996D01*
X105785165Y-340157545D01*
X105785165Y-340157543D01*
X105725377Y-340026627D01*
X105631128Y-339917857D01*
X105631127Y-339917856D01*
X105597465Y-339896223D01*
X105510053Y-339840047D01*
X105504669Y-339838466D01*
X105371967Y-339799501D01*
X105371962Y-339799500D01*
X105371961Y-339799500D01*
X105228039Y-339799500D01*
X105228037Y-339799500D01*
X105228032Y-339799501D01*
X105089949Y-339840046D01*
X104968872Y-339917856D01*
X104968870Y-339917859D01*
X104874622Y-340026628D01*
X104814834Y-340157545D01*
X104794353Y-340299996D01*
X101703348Y-340299996D01*
X101731128Y-340282143D01*
X101825377Y-340173373D01*
X101885165Y-340042457D01*
X101902564Y-339921442D01*
X101905647Y-339900003D01*
X101905647Y-339899996D01*
X101885165Y-339757545D01*
X101885165Y-339757543D01*
X101825377Y-339626627D01*
X101731128Y-339517857D01*
X101731127Y-339517856D01*
X101697465Y-339496223D01*
X101610053Y-339440047D01*
X101610050Y-339440046D01*
X101471967Y-339399501D01*
X101471962Y-339399500D01*
X101471961Y-339399500D01*
X101328039Y-339399500D01*
X101328037Y-339399500D01*
X101328032Y-339399501D01*
X101189949Y-339440046D01*
X101068872Y-339517856D01*
X101068870Y-339517859D01*
X100974622Y-339626628D01*
X100914834Y-339757545D01*
X100894353Y-339899996D01*
X87221811Y-339899996D01*
X87230395Y-337899996D01*
X114494353Y-337899996D01*
X114494353Y-337900003D01*
X114514834Y-338042454D01*
X114514834Y-338042455D01*
X114514835Y-338042457D01*
X114574623Y-338173373D01*
X114668872Y-338282143D01*
X114789947Y-338359953D01*
X114928039Y-338400500D01*
X114928041Y-338400500D01*
X115071959Y-338400500D01*
X115071961Y-338400500D01*
X115210053Y-338359953D01*
X115331128Y-338282143D01*
X115425377Y-338173373D01*
X115485165Y-338042457D01*
X115505647Y-337900000D01*
X115505647Y-337899996D01*
X115486989Y-337770231D01*
X115485165Y-337757543D01*
X115425377Y-337626627D01*
X115331128Y-337517857D01*
X115331127Y-337517856D01*
X115297465Y-337496223D01*
X115210053Y-337440047D01*
X115210050Y-337440046D01*
X115071967Y-337399501D01*
X115071962Y-337399500D01*
X115071961Y-337399500D01*
X114928039Y-337399500D01*
X114928037Y-337399500D01*
X114928032Y-337399501D01*
X114789949Y-337440046D01*
X114668872Y-337517856D01*
X114668870Y-337517859D01*
X114574622Y-337626628D01*
X114514834Y-337757545D01*
X114494353Y-337899996D01*
X87230395Y-337899996D01*
X87232970Y-337299996D01*
X91194353Y-337299996D01*
X91194353Y-337300003D01*
X91214834Y-337442454D01*
X91214834Y-337442455D01*
X91214835Y-337442457D01*
X91274623Y-337573373D01*
X91368872Y-337682143D01*
X91489947Y-337759953D01*
X91628039Y-337800500D01*
X91628041Y-337800500D01*
X91771959Y-337800500D01*
X91771961Y-337800500D01*
X91910053Y-337759953D01*
X92031128Y-337682143D01*
X92125377Y-337573373D01*
X92185165Y-337442457D01*
X92195406Y-337371228D01*
X92205647Y-337300003D01*
X92205647Y-337299996D01*
X92185165Y-337157545D01*
X92185165Y-337157543D01*
X92125377Y-337026627D01*
X92031128Y-336917857D01*
X92031127Y-336917856D01*
X91997465Y-336896223D01*
X91910053Y-336840047D01*
X91910050Y-336840046D01*
X91773653Y-336799996D01*
X103894353Y-336799996D01*
X103894353Y-336800003D01*
X103914834Y-336942454D01*
X103914834Y-336942455D01*
X103914835Y-336942457D01*
X103974623Y-337073373D01*
X104068872Y-337182143D01*
X104189947Y-337259953D01*
X104316135Y-337297004D01*
X104326322Y-337299996D01*
X104328039Y-337300500D01*
X104328041Y-337300500D01*
X104471959Y-337300500D01*
X104471961Y-337300500D01*
X104610053Y-337259953D01*
X104731128Y-337182143D01*
X104825377Y-337073373D01*
X104885165Y-336942457D01*
X104899889Y-336840047D01*
X104905647Y-336800003D01*
X104905647Y-336799996D01*
X104885165Y-336657545D01*
X104885165Y-336657543D01*
X104825377Y-336526627D01*
X104731128Y-336417857D01*
X104731127Y-336417856D01*
X104689406Y-336391044D01*
X104610053Y-336340047D01*
X104610050Y-336340046D01*
X104471967Y-336299501D01*
X104471962Y-336299500D01*
X104471961Y-336299500D01*
X104328039Y-336299500D01*
X104328037Y-336299500D01*
X104328032Y-336299501D01*
X104189949Y-336340046D01*
X104068872Y-336417856D01*
X104068870Y-336417859D01*
X103974622Y-336526628D01*
X103914834Y-336657545D01*
X103894353Y-336799996D01*
X91773653Y-336799996D01*
X91771967Y-336799501D01*
X91771962Y-336799500D01*
X91771961Y-336799500D01*
X91628039Y-336799500D01*
X91628037Y-336799500D01*
X91628032Y-336799501D01*
X91489949Y-336840046D01*
X91368872Y-336917856D01*
X91368870Y-336917859D01*
X91274622Y-337026628D01*
X91214834Y-337157545D01*
X91194353Y-337299996D01*
X87232970Y-337299996D01*
X87239837Y-335699996D01*
X93494353Y-335699996D01*
X93494353Y-335700003D01*
X93514834Y-335842454D01*
X93514834Y-335842455D01*
X93514835Y-335842457D01*
X93574623Y-335973373D01*
X93668872Y-336082143D01*
X93789947Y-336159953D01*
X93928039Y-336200500D01*
X93928041Y-336200500D01*
X94071959Y-336200500D01*
X94071961Y-336200500D01*
X94210053Y-336159953D01*
X94331128Y-336082143D01*
X94425377Y-335973373D01*
X94485165Y-335842457D01*
X94505647Y-335700000D01*
X94505647Y-335699996D01*
X98294353Y-335699996D01*
X98294353Y-335700003D01*
X98314834Y-335842454D01*
X98314834Y-335842455D01*
X98314835Y-335842457D01*
X98374623Y-335973373D01*
X98468872Y-336082143D01*
X98589947Y-336159953D01*
X98728039Y-336200500D01*
X98728041Y-336200500D01*
X98871959Y-336200500D01*
X98871961Y-336200500D01*
X99010053Y-336159953D01*
X99131128Y-336082143D01*
X99225377Y-335973373D01*
X99285165Y-335842457D01*
X99305647Y-335700000D01*
X99305647Y-335699996D01*
X99285165Y-335557545D01*
X99285165Y-335557543D01*
X99225377Y-335426627D01*
X99131128Y-335317857D01*
X99131127Y-335317856D01*
X99088247Y-335290299D01*
X99010053Y-335240047D01*
X99010050Y-335240046D01*
X98871967Y-335199501D01*
X98871962Y-335199500D01*
X98871961Y-335199500D01*
X98728039Y-335199500D01*
X98728037Y-335199500D01*
X98728032Y-335199501D01*
X98589949Y-335240046D01*
X98468872Y-335317856D01*
X98468870Y-335317859D01*
X98374622Y-335426628D01*
X98314834Y-335557545D01*
X98294353Y-335699996D01*
X94505647Y-335699996D01*
X94485165Y-335557545D01*
X94485165Y-335557543D01*
X94425377Y-335426627D01*
X94331128Y-335317857D01*
X94331127Y-335317856D01*
X94288247Y-335290299D01*
X94210053Y-335240047D01*
X94210050Y-335240046D01*
X94071967Y-335199501D01*
X94071962Y-335199500D01*
X94071961Y-335199500D01*
X93928039Y-335199500D01*
X93928037Y-335199500D01*
X93928032Y-335199501D01*
X93789949Y-335240046D01*
X93668872Y-335317856D01*
X93668870Y-335317859D01*
X93574622Y-335426628D01*
X93514834Y-335557545D01*
X93494353Y-335699996D01*
X87239837Y-335699996D01*
X87250566Y-333199996D01*
X88994353Y-333199996D01*
X88994353Y-333200003D01*
X89014834Y-333342454D01*
X89014834Y-333342455D01*
X89014835Y-333342457D01*
X89074623Y-333473373D01*
X89168872Y-333582143D01*
X89289947Y-333659953D01*
X89428039Y-333700500D01*
X89428041Y-333700500D01*
X89571959Y-333700500D01*
X89571961Y-333700500D01*
X89710053Y-333659953D01*
X89831128Y-333582143D01*
X89925377Y-333473373D01*
X89985165Y-333342457D01*
X90005647Y-333200000D01*
X90005647Y-333199996D01*
X89985165Y-333057545D01*
X89985165Y-333057543D01*
X89925377Y-332926627D01*
X89831128Y-332817857D01*
X89831127Y-332817856D01*
X89797465Y-332796223D01*
X89710053Y-332740047D01*
X89710050Y-332740046D01*
X89571967Y-332699501D01*
X89571962Y-332699500D01*
X89571961Y-332699500D01*
X89428039Y-332699500D01*
X89428037Y-332699500D01*
X89428032Y-332699501D01*
X89289949Y-332740046D01*
X89168872Y-332817856D01*
X89168870Y-332817859D01*
X89074622Y-332926628D01*
X89014834Y-333057545D01*
X88994353Y-333199996D01*
X87250566Y-333199996D01*
X87255716Y-331999996D01*
X100994353Y-331999996D01*
X100994353Y-332000003D01*
X101014834Y-332142454D01*
X101014834Y-332142455D01*
X101014835Y-332142457D01*
X101074623Y-332273373D01*
X101168872Y-332382143D01*
X101289947Y-332459953D01*
X101428039Y-332500500D01*
X101428041Y-332500500D01*
X101571959Y-332500500D01*
X101571961Y-332500500D01*
X101710053Y-332459953D01*
X101831128Y-332382143D01*
X101925377Y-332273373D01*
X101985165Y-332142457D01*
X101991270Y-332099996D01*
X104894353Y-332099996D01*
X104894353Y-332100003D01*
X104914834Y-332242454D01*
X104914834Y-332242455D01*
X104914835Y-332242457D01*
X104974623Y-332373373D01*
X105068872Y-332482143D01*
X105189947Y-332559953D01*
X105328039Y-332600500D01*
X105328041Y-332600500D01*
X105471959Y-332600500D01*
X105471961Y-332600500D01*
X105610053Y-332559953D01*
X105731128Y-332482143D01*
X105825377Y-332373373D01*
X105885165Y-332242457D01*
X105905647Y-332100000D01*
X105905647Y-332099996D01*
X105885165Y-331957545D01*
X105885165Y-331957543D01*
X105825377Y-331826627D01*
X105731128Y-331717857D01*
X105731127Y-331717856D01*
X105697465Y-331696223D01*
X105610053Y-331640047D01*
X105610050Y-331640046D01*
X105471967Y-331599501D01*
X105471962Y-331599500D01*
X105471961Y-331599500D01*
X105328039Y-331599500D01*
X105328037Y-331599500D01*
X105328032Y-331599501D01*
X105189949Y-331640046D01*
X105068872Y-331717856D01*
X105068870Y-331717859D01*
X104974622Y-331826628D01*
X104914834Y-331957545D01*
X104894353Y-332099996D01*
X101991270Y-332099996D01*
X102005647Y-332000000D01*
X102005647Y-331999996D01*
X101985165Y-331857545D01*
X101985165Y-331857543D01*
X101925377Y-331726627D01*
X101831128Y-331617857D01*
X101831127Y-331617856D01*
X101797465Y-331596223D01*
X101710053Y-331540047D01*
X101710050Y-331540046D01*
X101571967Y-331499501D01*
X101571962Y-331499500D01*
X101571961Y-331499500D01*
X101428039Y-331499500D01*
X101428037Y-331499500D01*
X101428032Y-331499501D01*
X101289949Y-331540046D01*
X101168872Y-331617856D01*
X101168870Y-331617859D01*
X101074622Y-331726628D01*
X101014834Y-331857545D01*
X100994353Y-331999996D01*
X87255716Y-331999996D01*
X87259149Y-331199996D01*
X111494353Y-331199996D01*
X111494353Y-331200003D01*
X111514834Y-331342454D01*
X111514834Y-331342455D01*
X111514835Y-331342457D01*
X111574623Y-331473373D01*
X111668872Y-331582143D01*
X111789947Y-331659953D01*
X111928039Y-331700500D01*
X111928041Y-331700500D01*
X112071959Y-331700500D01*
X112071961Y-331700500D01*
X112210053Y-331659953D01*
X112331128Y-331582143D01*
X112425377Y-331473373D01*
X112485165Y-331342457D01*
X112505647Y-331200000D01*
X112505647Y-331199996D01*
X112485165Y-331057545D01*
X112485165Y-331057543D01*
X112425377Y-330926627D01*
X112331128Y-330817857D01*
X112331127Y-330817856D01*
X112297465Y-330796223D01*
X112210053Y-330740047D01*
X112209103Y-330739768D01*
X112071967Y-330699501D01*
X112071962Y-330699500D01*
X112071961Y-330699500D01*
X111928039Y-330699500D01*
X111928037Y-330699500D01*
X111928032Y-330699501D01*
X111789949Y-330740046D01*
X111668872Y-330817856D01*
X111668870Y-330817859D01*
X111574622Y-330926628D01*
X111514834Y-331057545D01*
X111494353Y-331199996D01*
X87259149Y-331199996D01*
X87266874Y-329399996D01*
X112294353Y-329399996D01*
X112294353Y-329400003D01*
X112314834Y-329542454D01*
X112314834Y-329542455D01*
X112314835Y-329542457D01*
X112374623Y-329673373D01*
X112468872Y-329782143D01*
X112589947Y-329859953D01*
X112728039Y-329900500D01*
X112728041Y-329900500D01*
X112871959Y-329900500D01*
X112871961Y-329900500D01*
X113010053Y-329859953D01*
X113131128Y-329782143D01*
X113225377Y-329673373D01*
X113285165Y-329542457D01*
X113305647Y-329400000D01*
X113305647Y-329399996D01*
X113285165Y-329257545D01*
X113285165Y-329257543D01*
X113225377Y-329126627D01*
X113131128Y-329017857D01*
X113131127Y-329017856D01*
X113097465Y-328996223D01*
X113010053Y-328940047D01*
X113010050Y-328940046D01*
X112871967Y-328899501D01*
X112871962Y-328899500D01*
X112871961Y-328899500D01*
X112728039Y-328899500D01*
X112728037Y-328899500D01*
X112728032Y-328899501D01*
X112589949Y-328940046D01*
X112468872Y-329017856D01*
X112468870Y-329017859D01*
X112374622Y-329126628D01*
X112314834Y-329257545D01*
X112294353Y-329399996D01*
X87266874Y-329399996D01*
X87304975Y-320522677D01*
X87300842Y-320480778D01*
X87290754Y-320431253D01*
X87288852Y-320422825D01*
X87288851Y-320422823D01*
X87288851Y-320422822D01*
X87247643Y-320341173D01*
X87203071Y-320287366D01*
X87185889Y-320269033D01*
X87185888Y-320269032D01*
X87185887Y-320269031D01*
X87107081Y-320222622D01*
X87107077Y-320222620D01*
X87040503Y-320201454D01*
X87040489Y-320201451D01*
X86982796Y-320191844D01*
X86982800Y-320191844D01*
X82731327Y-320097367D01*
X82731323Y-320097367D01*
X82731317Y-320097367D01*
X82731309Y-320097367D01*
X82731302Y-320097368D01*
X82685306Y-320101539D01*
X82685300Y-320101539D01*
X82685299Y-320101540D01*
X82685296Y-320101540D01*
X82685287Y-320101542D01*
X82631062Y-320112709D01*
X82618628Y-320115674D01*
X82618625Y-320115675D01*
X82537916Y-320158683D01*
X82537914Y-320158685D01*
X82485119Y-320204432D01*
X82485103Y-320204447D01*
X82467156Y-320222031D01*
X82422510Y-320301848D01*
X82422509Y-320301849D01*
X82402823Y-320368895D01*
X82394500Y-320426776D01*
X82394500Y-330722320D01*
X82374538Y-330796820D01*
X82320000Y-330851358D01*
X82245500Y-330871320D01*
X82171000Y-330851358D01*
X82132894Y-330819895D01*
X82132693Y-330819663D01*
X82131128Y-330817857D01*
X82131127Y-330817856D01*
X82097465Y-330796223D01*
X82010053Y-330740047D01*
X82009103Y-330739768D01*
X81871967Y-330699501D01*
X81871962Y-330699500D01*
X81871961Y-330699500D01*
X81728039Y-330699500D01*
X81728037Y-330699500D01*
X81728032Y-330699501D01*
X81589949Y-330740046D01*
X81468872Y-330817856D01*
X81468870Y-330817859D01*
X81374622Y-330926628D01*
X81314834Y-331057545D01*
X81294353Y-331199996D01*
X73900500Y-331199996D01*
X73900500Y-316230251D01*
X77549500Y-316230251D01*
X77549500Y-317269748D01*
X77561132Y-317328230D01*
X77561133Y-317328231D01*
X77605448Y-317394552D01*
X77605451Y-317394554D01*
X77658493Y-317429997D01*
X77709346Y-317487985D01*
X77724392Y-317563632D01*
X77699598Y-317636666D01*
X77698337Y-317638524D01*
X77675181Y-317672071D01*
X77614860Y-317831125D01*
X77594355Y-318000000D01*
X77614860Y-318168874D01*
X77675181Y-318327929D01*
X77675182Y-318327930D01*
X77771817Y-318467929D01*
X77771819Y-318467930D01*
X77771820Y-318467932D01*
X77823224Y-318513472D01*
X77865751Y-318577816D01*
X77870408Y-318654804D01*
X77835947Y-318723805D01*
X77823224Y-318736528D01*
X77771820Y-318782067D01*
X77771817Y-318782071D01*
X77675181Y-318922070D01*
X77614860Y-319081125D01*
X77594355Y-319250000D01*
X77614860Y-319418874D01*
X77675181Y-319577929D01*
X77675182Y-319577930D01*
X77771817Y-319717929D01*
X77771819Y-319717930D01*
X77771820Y-319717932D01*
X77899146Y-319830732D01*
X77899148Y-319830734D01*
X78049775Y-319909790D01*
X78214944Y-319950500D01*
X78385056Y-319950500D01*
X78550225Y-319909790D01*
X78700852Y-319830734D01*
X78828183Y-319717929D01*
X78924818Y-319577930D01*
X78985140Y-319418872D01*
X79005645Y-319250000D01*
X78985140Y-319081128D01*
X78955299Y-319002444D01*
X78924818Y-318922070D01*
X78828183Y-318782071D01*
X78828178Y-318782067D01*
X78806177Y-318762576D01*
X78776775Y-318736527D01*
X78734249Y-318672185D01*
X78729591Y-318595198D01*
X78764051Y-318526196D01*
X78776775Y-318513472D01*
X78828183Y-318467929D01*
X78924818Y-318327930D01*
X78985140Y-318168872D01*
X79005645Y-318000000D01*
X78985140Y-317831128D01*
X78924818Y-317672070D01*
X78901661Y-317638522D01*
X78875771Y-317565873D01*
X78889674Y-317490009D01*
X78939646Y-317431259D01*
X78941507Y-317429996D01*
X78994552Y-317394552D01*
X79038867Y-317328231D01*
X79050500Y-317269748D01*
X79050500Y-316230252D01*
X79046578Y-316210537D01*
X79038867Y-316171769D01*
X79020558Y-316144368D01*
X78994552Y-316105448D01*
X78950236Y-316075836D01*
X78928230Y-316061132D01*
X78869748Y-316049500D01*
X77730252Y-316049500D01*
X77671769Y-316061132D01*
X77605448Y-316105448D01*
X77561132Y-316171769D01*
X77549500Y-316230251D01*
X73900500Y-316230251D01*
X73900500Y-309100000D01*
X75344693Y-309100000D01*
X75363904Y-309442086D01*
X75421296Y-309779870D01*
X75516147Y-310109104D01*
X75516148Y-310109108D01*
X75516149Y-310109109D01*
X75516150Y-310109114D01*
X75647264Y-310425648D01*
X75812998Y-310725521D01*
X76011265Y-311004953D01*
X76239572Y-311260428D01*
X76495047Y-311488735D01*
X76774479Y-311687002D01*
X77074352Y-311852736D01*
X77209548Y-311908736D01*
X77390885Y-311983849D01*
X77390887Y-311983849D01*
X77390896Y-311983853D01*
X77720130Y-312078704D01*
X78057914Y-312136096D01*
X78400000Y-312155307D01*
X78742086Y-312136096D01*
X79079870Y-312078704D01*
X79409104Y-311983853D01*
X79725648Y-311852736D01*
X80025521Y-311687002D01*
X80304953Y-311488735D01*
X80560428Y-311260428D01*
X80788735Y-311004953D01*
X80987002Y-310725521D01*
X81152736Y-310425648D01*
X81283853Y-310109104D01*
X81378704Y-309779870D01*
X81436096Y-309442086D01*
X81455307Y-309100000D01*
X81436096Y-308757914D01*
X81378704Y-308420130D01*
X81283853Y-308090896D01*
X81283849Y-308090887D01*
X81283849Y-308090885D01*
X81219981Y-307936696D01*
X81173297Y-307823991D01*
X88594500Y-307823991D01*
X88594500Y-327376013D01*
X88599195Y-327419676D01*
X88610409Y-327471224D01*
X88612887Y-327481365D01*
X88612891Y-327481376D01*
X88655900Y-327562085D01*
X88697619Y-327610232D01*
X88701655Y-327614889D01*
X88719246Y-327632843D01*
X88799063Y-327677490D01*
X88866102Y-327697175D01*
X88885686Y-327699990D01*
X88923991Y-327705499D01*
X88923997Y-327705499D01*
X88924000Y-327705500D01*
X88924001Y-327705500D01*
X92287839Y-327705500D01*
X92290422Y-327705407D01*
X92302495Y-327704977D01*
X92320142Y-327703715D01*
X92390851Y-327685667D01*
X92454407Y-327656642D01*
X92476592Y-327644821D01*
X92541917Y-327580814D01*
X92575196Y-327529029D01*
X92632266Y-327477150D01*
X92707632Y-327460756D01*
X92781098Y-327484240D01*
X92832037Y-327539515D01*
X92844064Y-327562085D01*
X92885783Y-327610232D01*
X92889819Y-327614889D01*
X92907410Y-327632843D01*
X92987227Y-327677490D01*
X93054266Y-327697175D01*
X93073850Y-327699990D01*
X93112155Y-327705499D01*
X93112161Y-327705499D01*
X93112164Y-327705500D01*
X93112165Y-327705500D01*
X106075996Y-327705500D01*
X106076000Y-327705500D01*
X106076004Y-327705499D01*
X106076013Y-327705499D01*
X106119676Y-327700804D01*
X106119677Y-327700803D01*
X106119684Y-327700803D01*
X106171195Y-327689597D01*
X106181373Y-327687110D01*
X106262085Y-327644100D01*
X106314889Y-327598345D01*
X106332843Y-327580754D01*
X106377490Y-327500937D01*
X106397175Y-327433898D01*
X106405500Y-327376000D01*
X106405500Y-322141660D01*
X106425462Y-322067160D01*
X106480000Y-322012622D01*
X106554500Y-321992660D01*
X106629000Y-322012622D01*
X106659854Y-322036297D01*
X118180860Y-333557303D01*
X118219423Y-333624096D01*
X118224500Y-333662660D01*
X118224500Y-340175769D01*
X118234391Y-340212682D01*
X118261863Y-340315209D01*
X118263720Y-340322137D01*
X118339482Y-340453361D01*
X118339483Y-340453362D01*
X118339485Y-340453365D01*
X119630762Y-341744642D01*
X119669325Y-341811435D01*
X119669325Y-341888563D01*
X119630761Y-341955358D01*
X118446635Y-343139485D01*
X118446634Y-343139484D01*
X118339487Y-343246632D01*
X118339482Y-343246638D01*
X118263720Y-343377862D01*
X118224500Y-343524230D01*
X118224500Y-375975769D01*
X118263720Y-376122137D01*
X118339482Y-376253361D01*
X118339483Y-376253362D01*
X118339485Y-376253365D01*
X118446635Y-376360515D01*
X118577865Y-376436281D01*
X118724234Y-376475500D01*
X118875766Y-376475500D01*
X119022135Y-376436281D01*
X119153365Y-376360515D01*
X119260515Y-376253365D01*
X119336281Y-376122135D01*
X119375500Y-375975766D01*
X119375500Y-375702177D01*
X127250000Y-375702177D01*
X127250000Y-376000000D01*
X128250272Y-376000000D01*
X128158386Y-376038060D01*
X128088060Y-376108386D01*
X128050000Y-376200272D01*
X128050000Y-376299728D01*
X128088060Y-376391614D01*
X128158386Y-376461940D01*
X128250272Y-376500000D01*
X128349728Y-376500000D01*
X128441614Y-376461940D01*
X128511940Y-376391614D01*
X128550000Y-376299728D01*
X128550000Y-376200272D01*
X128511940Y-376108386D01*
X128441614Y-376038060D01*
X128349728Y-376000000D01*
X129350000Y-376000000D01*
X129350000Y-375702177D01*
X129349998Y-375702157D01*
X129343598Y-375642622D01*
X129293354Y-375507915D01*
X129293349Y-375507905D01*
X129207190Y-375392812D01*
X129207187Y-375392809D01*
X129092094Y-375306650D01*
X129092089Y-375306648D01*
X129083760Y-375303541D01*
X129020935Y-375258801D01*
X128988896Y-375188642D01*
X128987919Y-375145983D01*
X129005645Y-375000000D01*
X128985140Y-374831128D01*
X128924818Y-374672070D01*
X128828183Y-374532071D01*
X128828178Y-374532067D01*
X128783058Y-374492094D01*
X128776775Y-374486527D01*
X128734249Y-374422185D01*
X128729591Y-374345198D01*
X128764051Y-374276196D01*
X128776775Y-374263472D01*
X128828183Y-374217929D01*
X128924818Y-374077930D01*
X128985140Y-373918872D01*
X129005645Y-373750000D01*
X128985140Y-373581128D01*
X128924818Y-373422070D01*
X128828183Y-373282071D01*
X128828180Y-373282068D01*
X128828179Y-373282067D01*
X128700853Y-373169267D01*
X128700854Y-373169267D01*
X128550224Y-373090209D01*
X128385056Y-373049500D01*
X128214944Y-373049500D01*
X128049775Y-373090209D01*
X127899145Y-373169267D01*
X127771820Y-373282067D01*
X127771817Y-373282071D01*
X127675181Y-373422070D01*
X127614860Y-373581125D01*
X127594355Y-373750000D01*
X127614860Y-373918874D01*
X127675181Y-374077929D01*
X127675182Y-374077930D01*
X127771817Y-374217929D01*
X127771819Y-374217930D01*
X127771820Y-374217932D01*
X127823224Y-374263472D01*
X127865751Y-374327816D01*
X127870408Y-374404804D01*
X127835947Y-374473805D01*
X127823224Y-374486528D01*
X127771820Y-374532067D01*
X127771817Y-374532071D01*
X127675181Y-374672070D01*
X127614860Y-374831125D01*
X127594355Y-375000000D01*
X127612080Y-375145976D01*
X127601243Y-375222339D01*
X127553677Y-375283053D01*
X127516241Y-375303540D01*
X127507912Y-375306646D01*
X127507905Y-375306650D01*
X127392812Y-375392809D01*
X127392809Y-375392812D01*
X127306650Y-375507905D01*
X127306645Y-375507915D01*
X127256401Y-375642622D01*
X127250001Y-375702157D01*
X127250000Y-375702177D01*
X119375500Y-375702177D01*
X119375500Y-371499996D01*
X123394353Y-371499996D01*
X123394353Y-371500003D01*
X123414834Y-371642454D01*
X123414834Y-371642455D01*
X123414835Y-371642457D01*
X123474623Y-371773373D01*
X123568872Y-371882143D01*
X123689947Y-371959953D01*
X123828039Y-372000500D01*
X123828041Y-372000500D01*
X123971959Y-372000500D01*
X123971961Y-372000500D01*
X124110053Y-371959953D01*
X124231128Y-371882143D01*
X124325377Y-371773373D01*
X124385165Y-371642457D01*
X124405647Y-371500000D01*
X124405647Y-371499996D01*
X124385165Y-371357545D01*
X124385165Y-371357543D01*
X124325377Y-371226627D01*
X124231128Y-371117857D01*
X124231127Y-371117856D01*
X124197465Y-371096223D01*
X124110053Y-371040047D01*
X124110050Y-371040046D01*
X123971967Y-370999501D01*
X123971962Y-370999500D01*
X123971961Y-370999500D01*
X123828039Y-370999500D01*
X123828037Y-370999500D01*
X123828032Y-370999501D01*
X123689949Y-371040046D01*
X123568872Y-371117856D01*
X123568870Y-371117859D01*
X123474622Y-371226628D01*
X123414834Y-371357545D01*
X123394353Y-371499996D01*
X119375500Y-371499996D01*
X119375500Y-368797822D01*
X127250000Y-368797822D01*
X127250001Y-368797842D01*
X127256401Y-368857377D01*
X127306645Y-368992084D01*
X127306650Y-368992094D01*
X127392809Y-369107187D01*
X127392812Y-369107190D01*
X127507905Y-369193349D01*
X127507915Y-369193354D01*
X127642623Y-369243598D01*
X127642621Y-369243598D01*
X127702157Y-369249998D01*
X127702177Y-369250000D01*
X128050000Y-369250000D01*
X128550000Y-369250000D01*
X128897823Y-369250000D01*
X128897842Y-369249998D01*
X128957377Y-369243598D01*
X129092084Y-369193354D01*
X129092094Y-369193349D01*
X129207187Y-369107190D01*
X129207190Y-369107187D01*
X129293349Y-368992094D01*
X129293354Y-368992084D01*
X129343598Y-368857377D01*
X129349998Y-368797842D01*
X129350000Y-368797822D01*
X129350000Y-368500000D01*
X128550000Y-368500000D01*
X128550000Y-369250000D01*
X128050000Y-369250000D01*
X128050000Y-368500000D01*
X127250000Y-368500000D01*
X127250000Y-368797822D01*
X119375500Y-368797822D01*
X119375500Y-367702177D01*
X127250000Y-367702177D01*
X127250000Y-368000000D01*
X128250272Y-368000000D01*
X128158386Y-368038060D01*
X128088060Y-368108386D01*
X128050000Y-368200272D01*
X128050000Y-368299728D01*
X128088060Y-368391614D01*
X128158386Y-368461940D01*
X128250272Y-368500000D01*
X128349728Y-368500000D01*
X128441614Y-368461940D01*
X128511940Y-368391614D01*
X128550000Y-368299728D01*
X128550000Y-368200272D01*
X128511940Y-368108386D01*
X128441614Y-368038060D01*
X128349728Y-368000000D01*
X129350000Y-368000000D01*
X129350000Y-367702177D01*
X129349998Y-367702157D01*
X129343598Y-367642622D01*
X129293354Y-367507915D01*
X129293349Y-367507905D01*
X129207190Y-367392812D01*
X129207187Y-367392809D01*
X129092094Y-367306650D01*
X129092089Y-367306648D01*
X129083760Y-367303541D01*
X129020935Y-367258801D01*
X128988896Y-367188642D01*
X128987919Y-367145983D01*
X129005645Y-367000000D01*
X128985140Y-366831128D01*
X128977987Y-366812268D01*
X128924818Y-366672070D01*
X128879462Y-366606361D01*
X128828183Y-366532071D01*
X128828178Y-366532067D01*
X128783058Y-366492094D01*
X128776775Y-366486527D01*
X128734249Y-366422185D01*
X128729591Y-366345198D01*
X128764051Y-366276196D01*
X128776775Y-366263472D01*
X128828183Y-366217929D01*
X128924818Y-366077930D01*
X128985140Y-365918872D01*
X129005645Y-365750000D01*
X128985140Y-365581128D01*
X128924818Y-365422070D01*
X128828183Y-365282071D01*
X128828180Y-365282068D01*
X128828179Y-365282067D01*
X128700853Y-365169267D01*
X128700854Y-365169267D01*
X128550224Y-365090209D01*
X128385056Y-365049500D01*
X128214944Y-365049500D01*
X128049775Y-365090209D01*
X127899145Y-365169267D01*
X127771820Y-365282067D01*
X127771817Y-365282071D01*
X127675181Y-365422070D01*
X127614860Y-365581125D01*
X127594355Y-365750000D01*
X127614860Y-365918874D01*
X127675181Y-366077929D01*
X127675182Y-366077930D01*
X127771817Y-366217929D01*
X127771819Y-366217930D01*
X127771820Y-366217932D01*
X127823224Y-366263472D01*
X127865751Y-366327816D01*
X127870408Y-366404804D01*
X127835947Y-366473805D01*
X127823224Y-366486528D01*
X127771820Y-366532067D01*
X127771817Y-366532071D01*
X127675181Y-366672070D01*
X127614860Y-366831125D01*
X127594355Y-367000000D01*
X127612080Y-367145976D01*
X127601243Y-367222339D01*
X127553677Y-367283053D01*
X127516241Y-367303540D01*
X127507912Y-367306646D01*
X127507905Y-367306650D01*
X127392812Y-367392809D01*
X127392809Y-367392812D01*
X127306650Y-367507905D01*
X127306645Y-367507915D01*
X127256401Y-367642622D01*
X127250001Y-367702157D01*
X127250000Y-367702177D01*
X119375500Y-367702177D01*
X119375500Y-363399996D01*
X123394353Y-363399996D01*
X123394353Y-363400003D01*
X123414834Y-363542454D01*
X123414834Y-363542455D01*
X123414835Y-363542457D01*
X123474623Y-363673373D01*
X123568872Y-363782143D01*
X123689947Y-363859953D01*
X123828039Y-363900500D01*
X123828041Y-363900500D01*
X123971959Y-363900500D01*
X123971961Y-363900500D01*
X124110053Y-363859953D01*
X124231128Y-363782143D01*
X124325377Y-363673373D01*
X124385165Y-363542457D01*
X124405647Y-363400000D01*
X124405647Y-363399996D01*
X124385165Y-363257545D01*
X124385165Y-363257543D01*
X124325377Y-363126627D01*
X124231128Y-363017857D01*
X124231127Y-363017856D01*
X124164441Y-362975000D01*
X124110053Y-362940047D01*
X124110050Y-362940046D01*
X123971967Y-362899501D01*
X123971962Y-362899500D01*
X123971961Y-362899500D01*
X123828039Y-362899500D01*
X123828037Y-362899500D01*
X123828032Y-362899501D01*
X123689949Y-362940046D01*
X123568872Y-363017856D01*
X123568870Y-363017859D01*
X123474622Y-363126628D01*
X123414834Y-363257545D01*
X123394353Y-363399996D01*
X119375500Y-363399996D01*
X119375500Y-360422822D01*
X127250000Y-360422822D01*
X127250001Y-360422842D01*
X127256401Y-360482377D01*
X127306645Y-360617084D01*
X127306650Y-360617094D01*
X127392809Y-360732187D01*
X127392812Y-360732190D01*
X127507905Y-360818349D01*
X127507915Y-360818354D01*
X127642623Y-360868598D01*
X127642621Y-360868598D01*
X127702157Y-360874998D01*
X127702177Y-360875000D01*
X128050000Y-360875000D01*
X128550000Y-360875000D01*
X128897823Y-360875000D01*
X128897842Y-360874998D01*
X128957377Y-360868598D01*
X129092084Y-360818354D01*
X129092094Y-360818349D01*
X129207187Y-360732190D01*
X129207190Y-360732187D01*
X129293349Y-360617094D01*
X129293354Y-360617084D01*
X129343598Y-360482377D01*
X129349998Y-360422842D01*
X129350000Y-360422822D01*
X129350000Y-360125000D01*
X128550000Y-360125000D01*
X128550000Y-360875000D01*
X128050000Y-360875000D01*
X128050000Y-360125000D01*
X127250000Y-360125000D01*
X127250000Y-360422822D01*
X119375500Y-360422822D01*
X119375500Y-359327177D01*
X127250000Y-359327177D01*
X127250000Y-359625000D01*
X128250272Y-359625000D01*
X128158386Y-359663060D01*
X128088060Y-359733386D01*
X128050000Y-359825272D01*
X128050000Y-359924728D01*
X128088060Y-360016614D01*
X128158386Y-360086940D01*
X128250272Y-360125000D01*
X128349728Y-360125000D01*
X128441614Y-360086940D01*
X128511940Y-360016614D01*
X128550000Y-359924728D01*
X128550000Y-359825272D01*
X128511940Y-359733386D01*
X128441614Y-359663060D01*
X128349728Y-359625000D01*
X129350000Y-359625000D01*
X129350000Y-359327177D01*
X129349998Y-359327157D01*
X129343598Y-359267622D01*
X129293354Y-359132915D01*
X129293349Y-359132905D01*
X129207190Y-359017812D01*
X129207187Y-359017809D01*
X129092094Y-358931650D01*
X129092089Y-358931648D01*
X129083760Y-358928541D01*
X129020935Y-358883801D01*
X128988896Y-358813642D01*
X128987919Y-358770983D01*
X129005645Y-358625000D01*
X128985140Y-358456128D01*
X128924818Y-358297070D01*
X128828183Y-358157071D01*
X128828178Y-358157067D01*
X128806177Y-358137576D01*
X128776775Y-358111527D01*
X128734249Y-358047185D01*
X128729591Y-357970198D01*
X128764051Y-357901196D01*
X128776775Y-357888472D01*
X128828183Y-357842929D01*
X128924818Y-357702930D01*
X128985140Y-357543872D01*
X129005645Y-357375000D01*
X128985140Y-357206128D01*
X128924818Y-357047070D01*
X128828183Y-356907071D01*
X128828180Y-356907068D01*
X128828179Y-356907067D01*
X128700853Y-356794267D01*
X128700854Y-356794267D01*
X128550224Y-356715209D01*
X128385056Y-356674500D01*
X128214944Y-356674500D01*
X128049775Y-356715209D01*
X127899145Y-356794267D01*
X127771820Y-356907067D01*
X127771817Y-356907071D01*
X127675181Y-357047070D01*
X127614860Y-357206125D01*
X127594355Y-357375000D01*
X127614860Y-357543874D01*
X127675181Y-357702929D01*
X127675182Y-357702930D01*
X127771817Y-357842929D01*
X127771819Y-357842930D01*
X127771820Y-357842932D01*
X127823224Y-357888472D01*
X127865751Y-357952816D01*
X127870408Y-358029804D01*
X127835947Y-358098805D01*
X127823224Y-358111528D01*
X127771820Y-358157067D01*
X127771817Y-358157071D01*
X127675181Y-358297070D01*
X127614860Y-358456125D01*
X127605366Y-358534316D01*
X127594355Y-358625000D01*
X127603522Y-358700500D01*
X127612080Y-358770976D01*
X127601243Y-358847339D01*
X127553677Y-358908053D01*
X127516241Y-358928540D01*
X127507912Y-358931646D01*
X127507905Y-358931650D01*
X127392812Y-359017809D01*
X127392809Y-359017812D01*
X127306650Y-359132905D01*
X127306645Y-359132915D01*
X127256401Y-359267622D01*
X127250001Y-359327157D01*
X127250000Y-359327177D01*
X119375500Y-359327177D01*
X119375500Y-355399996D01*
X123394353Y-355399996D01*
X123394353Y-355400003D01*
X123414834Y-355542454D01*
X123414834Y-355542455D01*
X123414835Y-355542457D01*
X123474623Y-355673373D01*
X123568872Y-355782143D01*
X123689947Y-355859953D01*
X123828039Y-355900500D01*
X123828041Y-355900500D01*
X123971959Y-355900500D01*
X123971961Y-355900500D01*
X124110053Y-355859953D01*
X124231128Y-355782143D01*
X124325377Y-355673373D01*
X124385165Y-355542457D01*
X124405647Y-355400000D01*
X124405647Y-355399996D01*
X124385165Y-355257545D01*
X124385165Y-355257543D01*
X124325377Y-355126627D01*
X124231128Y-355017857D01*
X124231127Y-355017856D01*
X124197465Y-354996223D01*
X124110053Y-354940047D01*
X124110050Y-354940046D01*
X123971967Y-354899501D01*
X123971962Y-354899500D01*
X123971961Y-354899500D01*
X123828039Y-354899500D01*
X123828037Y-354899500D01*
X123828032Y-354899501D01*
X123689949Y-354940046D01*
X123568872Y-355017856D01*
X123568870Y-355017859D01*
X123474622Y-355126628D01*
X123414834Y-355257545D01*
X123394353Y-355399996D01*
X119375500Y-355399996D01*
X119375500Y-351797822D01*
X127250000Y-351797822D01*
X127250001Y-351797842D01*
X127256401Y-351857377D01*
X127306645Y-351992084D01*
X127306650Y-351992094D01*
X127392809Y-352107187D01*
X127392812Y-352107190D01*
X127507905Y-352193349D01*
X127507915Y-352193354D01*
X127642623Y-352243598D01*
X127642621Y-352243598D01*
X127702157Y-352249998D01*
X127702177Y-352250000D01*
X128050000Y-352250000D01*
X128550000Y-352250000D01*
X128897823Y-352250000D01*
X128897842Y-352249998D01*
X128957377Y-352243598D01*
X129092084Y-352193354D01*
X129092094Y-352193349D01*
X129207187Y-352107190D01*
X129207190Y-352107187D01*
X129293349Y-351992094D01*
X129293354Y-351992084D01*
X129343598Y-351857377D01*
X129349998Y-351797842D01*
X129350000Y-351797822D01*
X129350000Y-351500000D01*
X128550000Y-351500000D01*
X128550000Y-352250000D01*
X128050000Y-352250000D01*
X128050000Y-351500000D01*
X127250000Y-351500000D01*
X127250000Y-351797822D01*
X119375500Y-351797822D01*
X119375500Y-350702177D01*
X127250000Y-350702177D01*
X127250000Y-351000000D01*
X128250272Y-351000000D01*
X128158386Y-351038060D01*
X128088060Y-351108386D01*
X128050000Y-351200272D01*
X128050000Y-351299728D01*
X128088060Y-351391614D01*
X128158386Y-351461940D01*
X128250272Y-351500000D01*
X128349728Y-351500000D01*
X128441614Y-351461940D01*
X128511940Y-351391614D01*
X128550000Y-351299728D01*
X128550000Y-351200272D01*
X128511940Y-351108386D01*
X128441614Y-351038060D01*
X128349728Y-351000000D01*
X129350000Y-351000000D01*
X129350000Y-350702177D01*
X129349998Y-350702157D01*
X129343598Y-350642622D01*
X129293354Y-350507915D01*
X129293349Y-350507905D01*
X129207190Y-350392812D01*
X129207187Y-350392809D01*
X129092094Y-350306650D01*
X129092089Y-350306648D01*
X129083760Y-350303541D01*
X129020935Y-350258801D01*
X128988896Y-350188642D01*
X128987919Y-350145983D01*
X129005645Y-350000000D01*
X128985140Y-349831128D01*
X128924818Y-349672070D01*
X128828183Y-349532071D01*
X128828178Y-349532067D01*
X128806177Y-349512576D01*
X128776775Y-349486527D01*
X128734249Y-349422185D01*
X128729591Y-349345198D01*
X128764051Y-349276196D01*
X128776775Y-349263472D01*
X128828183Y-349217929D01*
X128924818Y-349077930D01*
X128985140Y-348918872D01*
X129005645Y-348750000D01*
X128985140Y-348581128D01*
X128977109Y-348559953D01*
X128924818Y-348422070D01*
X128828183Y-348282071D01*
X128828180Y-348282068D01*
X128828179Y-348282067D01*
X128700853Y-348169267D01*
X128700854Y-348169267D01*
X128550224Y-348090209D01*
X128385056Y-348049500D01*
X128214944Y-348049500D01*
X128049775Y-348090209D01*
X127899145Y-348169267D01*
X127771820Y-348282067D01*
X127771817Y-348282071D01*
X127675181Y-348422070D01*
X127614860Y-348581125D01*
X127594355Y-348750000D01*
X127614860Y-348918874D01*
X127675181Y-349077929D01*
X127675182Y-349077930D01*
X127771817Y-349217929D01*
X127771819Y-349217930D01*
X127771820Y-349217932D01*
X127823224Y-349263472D01*
X127865751Y-349327816D01*
X127870408Y-349404804D01*
X127835947Y-349473805D01*
X127823224Y-349486528D01*
X127771820Y-349532067D01*
X127771817Y-349532071D01*
X127675181Y-349672070D01*
X127614860Y-349831125D01*
X127614860Y-349831128D01*
X127594355Y-350000000D01*
X127603522Y-350075500D01*
X127612080Y-350145976D01*
X127601243Y-350222339D01*
X127553677Y-350283053D01*
X127516241Y-350303540D01*
X127507912Y-350306646D01*
X127507905Y-350306650D01*
X127392812Y-350392809D01*
X127392809Y-350392812D01*
X127306650Y-350507905D01*
X127306645Y-350507915D01*
X127256401Y-350642622D01*
X127250001Y-350702157D01*
X127250000Y-350702177D01*
X119375500Y-350702177D01*
X119375500Y-346299996D01*
X123294353Y-346299996D01*
X123294353Y-346300003D01*
X123314834Y-346442454D01*
X123314834Y-346442455D01*
X123314835Y-346442457D01*
X123374623Y-346573373D01*
X123468872Y-346682143D01*
X123589947Y-346759953D01*
X123728039Y-346800500D01*
X123728041Y-346800500D01*
X123871959Y-346800500D01*
X123871961Y-346800500D01*
X124010053Y-346759953D01*
X124131128Y-346682143D01*
X124225377Y-346573373D01*
X124285165Y-346442457D01*
X124305647Y-346300000D01*
X124305647Y-346299996D01*
X124287675Y-346175000D01*
X124285165Y-346157543D01*
X124225377Y-346026627D01*
X124131128Y-345917857D01*
X124131127Y-345917856D01*
X124085608Y-345888603D01*
X124010053Y-345840047D01*
X124010050Y-345840046D01*
X123871967Y-345799501D01*
X123871962Y-345799500D01*
X123871961Y-345799500D01*
X123728039Y-345799500D01*
X123728037Y-345799500D01*
X123728032Y-345799501D01*
X123589949Y-345840046D01*
X123468872Y-345917856D01*
X123468870Y-345917859D01*
X123374622Y-346026628D01*
X123314834Y-346157545D01*
X123294353Y-346299996D01*
X119375500Y-346299996D01*
X119375500Y-343900098D01*
X119395462Y-343825598D01*
X119419141Y-343794739D01*
X120719739Y-342494141D01*
X120786534Y-342455577D01*
X120825098Y-342450500D01*
X126510500Y-342450500D01*
X126585000Y-342470462D01*
X126639538Y-342525000D01*
X126659500Y-342599500D01*
X126659500Y-342744748D01*
X126671132Y-342803230D01*
X126671133Y-342803231D01*
X126715448Y-342869552D01*
X126781769Y-342913867D01*
X126840252Y-342925500D01*
X128579748Y-342925500D01*
X128638231Y-342913867D01*
X128704552Y-342869552D01*
X128748867Y-342803231D01*
X128760500Y-342744748D01*
X128760500Y-342547223D01*
X128780462Y-342472723D01*
X128835000Y-342418185D01*
X128909500Y-342398223D01*
X128984000Y-342418185D01*
X129038538Y-342472723D01*
X129044540Y-342484253D01*
X129076400Y-342552579D01*
X129076406Y-342552588D01*
X129211888Y-342746076D01*
X129378923Y-342913111D01*
X129572411Y-343048593D01*
X129572420Y-343048599D01*
X129786508Y-343148430D01*
X129786513Y-343148432D01*
X130000000Y-343205634D01*
X130000000Y-342308012D01*
X130057007Y-342340925D01*
X130184174Y-342375000D01*
X130315826Y-342375000D01*
X130442993Y-342340925D01*
X130500000Y-342308012D01*
X130500000Y-343205633D01*
X130713486Y-343148432D01*
X130713491Y-343148430D01*
X130927579Y-343048599D01*
X130927588Y-343048593D01*
X131121076Y-342913111D01*
X131288111Y-342746076D01*
X131423593Y-342552588D01*
X131423599Y-342552579D01*
X131523430Y-342338491D01*
X131523431Y-342338489D01*
X131580636Y-342125000D01*
X130683012Y-342125000D01*
X130715925Y-342067993D01*
X130750000Y-341940826D01*
X130750000Y-341809174D01*
X130715925Y-341682007D01*
X130683012Y-341625000D01*
X131580636Y-341625000D01*
X131580635Y-341624999D01*
X131523431Y-341411512D01*
X131423597Y-341197419D01*
X131288108Y-341003920D01*
X131121076Y-340836888D01*
X130927588Y-340701406D01*
X130927579Y-340701400D01*
X130713491Y-340601569D01*
X130713489Y-340601568D01*
X130674244Y-340591053D01*
X130607449Y-340552489D01*
X130568885Y-340485694D01*
X130568885Y-340408566D01*
X130607449Y-340341771D01*
X130648022Y-340314663D01*
X130647498Y-340313683D01*
X130718394Y-340275787D01*
X130836450Y-340212685D01*
X130996410Y-340081410D01*
X131127685Y-339921450D01*
X131225232Y-339738954D01*
X131285300Y-339540934D01*
X131305583Y-339335000D01*
X131285300Y-339129066D01*
X131225232Y-338931046D01*
X131127685Y-338748550D01*
X130996410Y-338588590D01*
X130836450Y-338457315D01*
X130836446Y-338457313D01*
X130836442Y-338457310D01*
X130653955Y-338359768D01*
X130455936Y-338299700D01*
X130455937Y-338299700D01*
X130250000Y-338279417D01*
X130044062Y-338299700D01*
X129846044Y-338359768D01*
X129663557Y-338457310D01*
X129663547Y-338457317D01*
X129503590Y-338588589D01*
X129503589Y-338588590D01*
X129372317Y-338748547D01*
X129372310Y-338748557D01*
X129274768Y-338931044D01*
X129214700Y-339129062D01*
X129194417Y-339335000D01*
X129214700Y-339540937D01*
X129274768Y-339738955D01*
X129372310Y-339921442D01*
X129372313Y-339921446D01*
X129372315Y-339921450D01*
X129503590Y-340081410D01*
X129663550Y-340212685D01*
X129663555Y-340212687D01*
X129663557Y-340212689D01*
X129852502Y-340313683D01*
X129851685Y-340315209D01*
X129905397Y-340356420D01*
X129934915Y-340427675D01*
X129924851Y-340504144D01*
X129877901Y-340565336D01*
X129825756Y-340591053D01*
X129786511Y-340601568D01*
X129572419Y-340701402D01*
X129378920Y-340836891D01*
X129211891Y-341003920D01*
X129076401Y-341197420D01*
X129076397Y-341197426D01*
X129044539Y-341265747D01*
X128994962Y-341324830D01*
X128922485Y-341351209D01*
X128846529Y-341337815D01*
X128787446Y-341288238D01*
X128761067Y-341215761D01*
X128760500Y-341202776D01*
X128760500Y-341005251D01*
X128748867Y-340946769D01*
X128717616Y-340900000D01*
X128704552Y-340880448D01*
X128660236Y-340850836D01*
X128638230Y-340836132D01*
X128579748Y-340824500D01*
X126840252Y-340824500D01*
X126781769Y-340836132D01*
X126715448Y-340880448D01*
X126671132Y-340946769D01*
X126659500Y-341005251D01*
X126659500Y-341150500D01*
X126639538Y-341225000D01*
X126585000Y-341279538D01*
X126510500Y-341299500D01*
X120875098Y-341299500D01*
X120800598Y-341279538D01*
X120769739Y-341255859D01*
X119419141Y-339905261D01*
X119380577Y-339838466D01*
X119375500Y-339799902D01*
X119375500Y-339335000D01*
X126654417Y-339335000D01*
X126674700Y-339540937D01*
X126734768Y-339738955D01*
X126832310Y-339921442D01*
X126832313Y-339921446D01*
X126832315Y-339921450D01*
X126963590Y-340081410D01*
X127123550Y-340212685D01*
X127123555Y-340212687D01*
X127123557Y-340212689D01*
X127286896Y-340299996D01*
X127306046Y-340310232D01*
X127504063Y-340370299D01*
X127504066Y-340370300D01*
X127710000Y-340390583D01*
X127915934Y-340370300D01*
X128113954Y-340310232D01*
X128296450Y-340212685D01*
X128456410Y-340081410D01*
X128587685Y-339921450D01*
X128685232Y-339738954D01*
X128745300Y-339540934D01*
X128765583Y-339335000D01*
X128745300Y-339129066D01*
X128685232Y-338931046D01*
X128587685Y-338748550D01*
X128456410Y-338588590D01*
X128296450Y-338457315D01*
X128296446Y-338457313D01*
X128296442Y-338457310D01*
X128113955Y-338359768D01*
X127915936Y-338299700D01*
X127915937Y-338299700D01*
X127710000Y-338279417D01*
X127504062Y-338299700D01*
X127306044Y-338359768D01*
X127123557Y-338457310D01*
X127123547Y-338457317D01*
X126963590Y-338588589D01*
X126963589Y-338588590D01*
X126832317Y-338748547D01*
X126832310Y-338748557D01*
X126734768Y-338931044D01*
X126674700Y-339129062D01*
X126654417Y-339335000D01*
X119375500Y-339335000D01*
X119375500Y-336795000D01*
X126654417Y-336795000D01*
X126674700Y-337000937D01*
X126734768Y-337198955D01*
X126832310Y-337381442D01*
X126832313Y-337381446D01*
X126832315Y-337381450D01*
X126963590Y-337541410D01*
X127123550Y-337672685D01*
X127123555Y-337672687D01*
X127123557Y-337672689D01*
X127306044Y-337770231D01*
X127306046Y-337770232D01*
X127504063Y-337830299D01*
X127504066Y-337830300D01*
X127710000Y-337850583D01*
X127915934Y-337830300D01*
X128113954Y-337770232D01*
X128296450Y-337672685D01*
X128456410Y-337541410D01*
X128587685Y-337381450D01*
X128685232Y-337198954D01*
X128745300Y-337000934D01*
X128765583Y-336795000D01*
X129194417Y-336795000D01*
X129214700Y-337000937D01*
X129274768Y-337198955D01*
X129372310Y-337381442D01*
X129372313Y-337381446D01*
X129372315Y-337381450D01*
X129503590Y-337541410D01*
X129663550Y-337672685D01*
X129663555Y-337672687D01*
X129663557Y-337672689D01*
X129846044Y-337770231D01*
X129846046Y-337770232D01*
X130044063Y-337830299D01*
X130044066Y-337830300D01*
X130250000Y-337850583D01*
X130455934Y-337830300D01*
X130653954Y-337770232D01*
X130836450Y-337672685D01*
X130996410Y-337541410D01*
X131127685Y-337381450D01*
X131225232Y-337198954D01*
X131285300Y-337000934D01*
X131305583Y-336795000D01*
X131285300Y-336589066D01*
X131225232Y-336391046D01*
X131127685Y-336208550D01*
X130996410Y-336048590D01*
X130836450Y-335917315D01*
X130836446Y-335917313D01*
X130836442Y-335917310D01*
X130653955Y-335819768D01*
X130455936Y-335759700D01*
X130455937Y-335759700D01*
X130250000Y-335739417D01*
X130044062Y-335759700D01*
X129846044Y-335819768D01*
X129663557Y-335917310D01*
X129663547Y-335917317D01*
X129503590Y-336048589D01*
X129503589Y-336048590D01*
X129372317Y-336208547D01*
X129372310Y-336208557D01*
X129274768Y-336391044D01*
X129214700Y-336589062D01*
X129194417Y-336795000D01*
X128765583Y-336795000D01*
X128745300Y-336589066D01*
X128685232Y-336391046D01*
X128587685Y-336208550D01*
X128456410Y-336048590D01*
X128296450Y-335917315D01*
X128296446Y-335917313D01*
X128296442Y-335917310D01*
X128113955Y-335819768D01*
X127915936Y-335759700D01*
X127915937Y-335759700D01*
X127710000Y-335739417D01*
X127504062Y-335759700D01*
X127306044Y-335819768D01*
X127123557Y-335917310D01*
X127123547Y-335917317D01*
X126963590Y-336048589D01*
X126963589Y-336048590D01*
X126832317Y-336208547D01*
X126832310Y-336208557D01*
X126734768Y-336391044D01*
X126674700Y-336589062D01*
X126654417Y-336795000D01*
X119375500Y-336795000D01*
X119375500Y-334255000D01*
X126654417Y-334255000D01*
X126674700Y-334460937D01*
X126734768Y-334658955D01*
X126832310Y-334841442D01*
X126832313Y-334841446D01*
X126832315Y-334841450D01*
X126963590Y-335001410D01*
X127123550Y-335132685D01*
X127306046Y-335230232D01*
X127504063Y-335290299D01*
X127504066Y-335290300D01*
X127710000Y-335310583D01*
X127915934Y-335290300D01*
X128113954Y-335230232D01*
X128296450Y-335132685D01*
X128456410Y-335001410D01*
X128587685Y-334841450D01*
X128685232Y-334658954D01*
X128745300Y-334460934D01*
X128765583Y-334255000D01*
X129194417Y-334255000D01*
X129214700Y-334460937D01*
X129274768Y-334658955D01*
X129372310Y-334841442D01*
X129372313Y-334841446D01*
X129372315Y-334841450D01*
X129503590Y-335001410D01*
X129663550Y-335132685D01*
X129846046Y-335230232D01*
X130044063Y-335290299D01*
X130044066Y-335290300D01*
X130250000Y-335310583D01*
X130455934Y-335290300D01*
X130653954Y-335230232D01*
X130836450Y-335132685D01*
X130996410Y-335001410D01*
X131127685Y-334841450D01*
X131225232Y-334658954D01*
X131285300Y-334460934D01*
X131305583Y-334255000D01*
X131285300Y-334049066D01*
X131225232Y-333851046D01*
X131127685Y-333668550D01*
X130996410Y-333508590D01*
X130836450Y-333377315D01*
X130836446Y-333377313D01*
X130836442Y-333377310D01*
X130653955Y-333279768D01*
X130455936Y-333219700D01*
X130455937Y-333219700D01*
X130250000Y-333199417D01*
X130044062Y-333219700D01*
X129846044Y-333279768D01*
X129663557Y-333377310D01*
X129663547Y-333377317D01*
X129503590Y-333508589D01*
X129503589Y-333508590D01*
X129372317Y-333668547D01*
X129372310Y-333668557D01*
X129274768Y-333851044D01*
X129214700Y-334049062D01*
X129194417Y-334255000D01*
X128765583Y-334255000D01*
X128745300Y-334049066D01*
X128685232Y-333851046D01*
X128587685Y-333668550D01*
X128456410Y-333508590D01*
X128296450Y-333377315D01*
X128296446Y-333377313D01*
X128296442Y-333377310D01*
X128113955Y-333279768D01*
X127915936Y-333219700D01*
X127915937Y-333219700D01*
X127710000Y-333199417D01*
X127504062Y-333219700D01*
X127306044Y-333279768D01*
X127123557Y-333377310D01*
X127123547Y-333377317D01*
X126963590Y-333508589D01*
X126963589Y-333508590D01*
X126832317Y-333668547D01*
X126832310Y-333668557D01*
X126734768Y-333851044D01*
X126674700Y-334049062D01*
X126654417Y-334255000D01*
X119375500Y-334255000D01*
X119375500Y-333286797D01*
X119375499Y-333286793D01*
X119373278Y-333278506D01*
X119336281Y-333140428D01*
X119260515Y-333009198D01*
X119260512Y-333009195D01*
X119153365Y-332902047D01*
X119153365Y-332902048D01*
X117966317Y-331715000D01*
X126654417Y-331715000D01*
X126674700Y-331920937D01*
X126734768Y-332118955D01*
X126832310Y-332301442D01*
X126832313Y-332301446D01*
X126832315Y-332301450D01*
X126963590Y-332461410D01*
X127123550Y-332592685D01*
X127123555Y-332592687D01*
X127123557Y-332592689D01*
X127306044Y-332690231D01*
X127306046Y-332690232D01*
X127504063Y-332750299D01*
X127504066Y-332750300D01*
X127710000Y-332770583D01*
X127915934Y-332750300D01*
X128113954Y-332690232D01*
X128296450Y-332592685D01*
X128456410Y-332461410D01*
X128587685Y-332301450D01*
X128685232Y-332118954D01*
X128745300Y-331920934D01*
X128765583Y-331715000D01*
X129194417Y-331715000D01*
X129214700Y-331920937D01*
X129274768Y-332118955D01*
X129372310Y-332301442D01*
X129372313Y-332301446D01*
X129372315Y-332301450D01*
X129503590Y-332461410D01*
X129663550Y-332592685D01*
X129663555Y-332592687D01*
X129663557Y-332592689D01*
X129846044Y-332690231D01*
X129846046Y-332690232D01*
X130044063Y-332750299D01*
X130044066Y-332750300D01*
X130250000Y-332770583D01*
X130455934Y-332750300D01*
X130653954Y-332690232D01*
X130836450Y-332592685D01*
X130996410Y-332461410D01*
X131127685Y-332301450D01*
X131225232Y-332118954D01*
X131285300Y-331920934D01*
X131305583Y-331715000D01*
X131285300Y-331509066D01*
X131225232Y-331311046D01*
X131127685Y-331128550D01*
X130996410Y-330968590D01*
X130836450Y-330837315D01*
X130836446Y-330837313D01*
X130836442Y-330837310D01*
X130653955Y-330739768D01*
X130455936Y-330679700D01*
X130455937Y-330679700D01*
X130250000Y-330659417D01*
X130044062Y-330679700D01*
X129846044Y-330739768D01*
X129663557Y-330837310D01*
X129663547Y-330837317D01*
X129503590Y-330968589D01*
X129503589Y-330968590D01*
X129372317Y-331128547D01*
X129372310Y-331128557D01*
X129274768Y-331311044D01*
X129214700Y-331509062D01*
X129194417Y-331715000D01*
X128765583Y-331715000D01*
X128745300Y-331509066D01*
X128685232Y-331311046D01*
X128587685Y-331128550D01*
X128456410Y-330968590D01*
X128296450Y-330837315D01*
X128296446Y-330837313D01*
X128296442Y-330837310D01*
X128113955Y-330739768D01*
X127915936Y-330679700D01*
X127915937Y-330679700D01*
X127710000Y-330659417D01*
X127504062Y-330679700D01*
X127306044Y-330739768D01*
X127123557Y-330837310D01*
X127123547Y-330837317D01*
X126963590Y-330968589D01*
X126963589Y-330968590D01*
X126832317Y-331128547D01*
X126832310Y-331128557D01*
X126734768Y-331311044D01*
X126674700Y-331509062D01*
X126654417Y-331715000D01*
X117966317Y-331715000D01*
X115426317Y-329175000D01*
X126654417Y-329175000D01*
X126674700Y-329380937D01*
X126734768Y-329578955D01*
X126832310Y-329761442D01*
X126832313Y-329761446D01*
X126832315Y-329761450D01*
X126963590Y-329921410D01*
X127123550Y-330052685D01*
X127306046Y-330150232D01*
X127504063Y-330210299D01*
X127504066Y-330210300D01*
X127710000Y-330230583D01*
X127915934Y-330210300D01*
X128113954Y-330150232D01*
X128296450Y-330052685D01*
X128456410Y-329921410D01*
X128587685Y-329761450D01*
X128685232Y-329578954D01*
X128745300Y-329380934D01*
X128765583Y-329175000D01*
X129194417Y-329175000D01*
X129214700Y-329380937D01*
X129274768Y-329578955D01*
X129372310Y-329761442D01*
X129372313Y-329761446D01*
X129372315Y-329761450D01*
X129503590Y-329921410D01*
X129663550Y-330052685D01*
X129846046Y-330150232D01*
X130044063Y-330210299D01*
X130044066Y-330210300D01*
X130250000Y-330230583D01*
X130455934Y-330210300D01*
X130653954Y-330150232D01*
X130836450Y-330052685D01*
X130996410Y-329921410D01*
X131127685Y-329761450D01*
X131225232Y-329578954D01*
X131285300Y-329380934D01*
X131305583Y-329175000D01*
X131285300Y-328969066D01*
X131225232Y-328771046D01*
X131127685Y-328588550D01*
X130996410Y-328428590D01*
X130836450Y-328297315D01*
X130836446Y-328297313D01*
X130836442Y-328297310D01*
X130653955Y-328199768D01*
X130455936Y-328139700D01*
X130455937Y-328139700D01*
X130250000Y-328119417D01*
X130044062Y-328139700D01*
X129846044Y-328199768D01*
X129663557Y-328297310D01*
X129663547Y-328297317D01*
X129503590Y-328428589D01*
X129503589Y-328428590D01*
X129372317Y-328588547D01*
X129372310Y-328588557D01*
X129274768Y-328771044D01*
X129214700Y-328969062D01*
X129194417Y-329175000D01*
X128765583Y-329175000D01*
X128745300Y-328969066D01*
X128685232Y-328771046D01*
X128587685Y-328588550D01*
X128456410Y-328428590D01*
X128296450Y-328297315D01*
X128296446Y-328297313D01*
X128296442Y-328297310D01*
X128113955Y-328199768D01*
X127915936Y-328139700D01*
X127915937Y-328139700D01*
X127710000Y-328119417D01*
X127504062Y-328139700D01*
X127306044Y-328199768D01*
X127123557Y-328297310D01*
X127123547Y-328297317D01*
X126963590Y-328428589D01*
X126963589Y-328428590D01*
X126832317Y-328588547D01*
X126832310Y-328588557D01*
X126734768Y-328771044D01*
X126674700Y-328969062D01*
X126654417Y-329175000D01*
X115426317Y-329175000D01*
X112886317Y-326635000D01*
X126654417Y-326635000D01*
X126674700Y-326840937D01*
X126734768Y-327038955D01*
X126832310Y-327221442D01*
X126832313Y-327221446D01*
X126832315Y-327221450D01*
X126832317Y-327221452D01*
X126959148Y-327375998D01*
X126963590Y-327381410D01*
X127123550Y-327512685D01*
X127306046Y-327610232D01*
X127504063Y-327670299D01*
X127504066Y-327670300D01*
X127710000Y-327690583D01*
X127915934Y-327670300D01*
X128113954Y-327610232D01*
X128296450Y-327512685D01*
X128456410Y-327381410D01*
X128587685Y-327221450D01*
X128685232Y-327038954D01*
X128745300Y-326840934D01*
X128765583Y-326635000D01*
X129194417Y-326635000D01*
X129214700Y-326840937D01*
X129274768Y-327038955D01*
X129372310Y-327221442D01*
X129372313Y-327221446D01*
X129372315Y-327221450D01*
X129372317Y-327221452D01*
X129499148Y-327375998D01*
X129503590Y-327381410D01*
X129663550Y-327512685D01*
X129846046Y-327610232D01*
X130044063Y-327670299D01*
X130044066Y-327670300D01*
X130250000Y-327690583D01*
X130455934Y-327670300D01*
X130653954Y-327610232D01*
X130836450Y-327512685D01*
X130996410Y-327381410D01*
X131127685Y-327221450D01*
X131225232Y-327038954D01*
X131285300Y-326840934D01*
X131305583Y-326635000D01*
X131285300Y-326429066D01*
X131225232Y-326231046D01*
X131127685Y-326048550D01*
X130996410Y-325888590D01*
X130836450Y-325757315D01*
X130836446Y-325757313D01*
X130836442Y-325757310D01*
X130653955Y-325659768D01*
X130455936Y-325599700D01*
X130455937Y-325599700D01*
X130250000Y-325579417D01*
X130044062Y-325599700D01*
X129846044Y-325659768D01*
X129663557Y-325757310D01*
X129663547Y-325757317D01*
X129503590Y-325888589D01*
X129503589Y-325888590D01*
X129372317Y-326048547D01*
X129372310Y-326048557D01*
X129274768Y-326231044D01*
X129214700Y-326429062D01*
X129194417Y-326635000D01*
X128765583Y-326635000D01*
X128745300Y-326429066D01*
X128685232Y-326231046D01*
X128587685Y-326048550D01*
X128456410Y-325888590D01*
X128296450Y-325757315D01*
X128296446Y-325757313D01*
X128296442Y-325757310D01*
X128113955Y-325659768D01*
X127915936Y-325599700D01*
X127915937Y-325599700D01*
X127710000Y-325579417D01*
X127504062Y-325599700D01*
X127306044Y-325659768D01*
X127123557Y-325757310D01*
X127123547Y-325757317D01*
X126963590Y-325888589D01*
X126963589Y-325888590D01*
X126832317Y-326048547D01*
X126832310Y-326048557D01*
X126734768Y-326231044D01*
X126674700Y-326429062D01*
X126654417Y-326635000D01*
X112886317Y-326635000D01*
X111051313Y-324799996D01*
X117094353Y-324799996D01*
X117094353Y-324800003D01*
X117114834Y-324942454D01*
X117114834Y-324942455D01*
X117114835Y-324942457D01*
X117128640Y-324972685D01*
X117173188Y-325070232D01*
X117174623Y-325073373D01*
X117268872Y-325182143D01*
X117389947Y-325259953D01*
X117528039Y-325300500D01*
X117528041Y-325300500D01*
X117671959Y-325300500D01*
X117671961Y-325300500D01*
X117810053Y-325259953D01*
X117931128Y-325182143D01*
X118025377Y-325073373D01*
X118085165Y-324942457D01*
X118099693Y-324841410D01*
X118105647Y-324800003D01*
X118105647Y-324799996D01*
X118091992Y-324705028D01*
X118085165Y-324657543D01*
X118025377Y-324526627D01*
X117931128Y-324417857D01*
X117931127Y-324417856D01*
X117897465Y-324396223D01*
X117810053Y-324340047D01*
X117810050Y-324340046D01*
X117671967Y-324299501D01*
X117671962Y-324299500D01*
X117671961Y-324299500D01*
X117528039Y-324299500D01*
X117528037Y-324299500D01*
X117528032Y-324299501D01*
X117389949Y-324340046D01*
X117268872Y-324417856D01*
X117268870Y-324417859D01*
X117174622Y-324526628D01*
X117114834Y-324657545D01*
X117094353Y-324799996D01*
X111051313Y-324799996D01*
X110346317Y-324095000D01*
X126654417Y-324095000D01*
X126674700Y-324300937D01*
X126734768Y-324498955D01*
X126832310Y-324681442D01*
X126832313Y-324681446D01*
X126832315Y-324681450D01*
X126963590Y-324841410D01*
X127123550Y-324972685D01*
X127306046Y-325070232D01*
X127504063Y-325130299D01*
X127504066Y-325130300D01*
X127710000Y-325150583D01*
X127915934Y-325130300D01*
X128113954Y-325070232D01*
X128296450Y-324972685D01*
X128456410Y-324841410D01*
X128587685Y-324681450D01*
X128685232Y-324498954D01*
X128745300Y-324300934D01*
X128765583Y-324095000D01*
X129194417Y-324095000D01*
X129214700Y-324300937D01*
X129274768Y-324498955D01*
X129372310Y-324681442D01*
X129372313Y-324681446D01*
X129372315Y-324681450D01*
X129503590Y-324841410D01*
X129663550Y-324972685D01*
X129846046Y-325070232D01*
X130044063Y-325130299D01*
X130044066Y-325130300D01*
X130250000Y-325150583D01*
X130455934Y-325130300D01*
X130653954Y-325070232D01*
X130836450Y-324972685D01*
X130996410Y-324841410D01*
X131127685Y-324681450D01*
X131225232Y-324498954D01*
X131285300Y-324300934D01*
X131305583Y-324095000D01*
X131285300Y-323889066D01*
X131225232Y-323691046D01*
X131127685Y-323508550D01*
X130996410Y-323348590D01*
X130836450Y-323217315D01*
X130836446Y-323217313D01*
X130836442Y-323217310D01*
X130653955Y-323119768D01*
X130455936Y-323059700D01*
X130455937Y-323059700D01*
X130250000Y-323039417D01*
X130044062Y-323059700D01*
X129846044Y-323119768D01*
X129663557Y-323217310D01*
X129663547Y-323217317D01*
X129503590Y-323348589D01*
X129503589Y-323348590D01*
X129372317Y-323508547D01*
X129372310Y-323508557D01*
X129274768Y-323691044D01*
X129214700Y-323889062D01*
X129194417Y-324095000D01*
X128765583Y-324095000D01*
X128745300Y-323889066D01*
X128685232Y-323691046D01*
X128587685Y-323508550D01*
X128456410Y-323348590D01*
X128296450Y-323217315D01*
X128296446Y-323217313D01*
X128296442Y-323217310D01*
X128113955Y-323119768D01*
X127915936Y-323059700D01*
X127915937Y-323059700D01*
X127710000Y-323039417D01*
X127504062Y-323059700D01*
X127306044Y-323119768D01*
X127123557Y-323217310D01*
X127123547Y-323217317D01*
X126963590Y-323348589D01*
X126963589Y-323348590D01*
X126832317Y-323508547D01*
X126832310Y-323508557D01*
X126734768Y-323691044D01*
X126674700Y-323889062D01*
X126654417Y-324095000D01*
X110346317Y-324095000D01*
X107619141Y-321367824D01*
X107580577Y-321301029D01*
X107575500Y-321262465D01*
X107575500Y-318165766D01*
X112777050Y-318165766D01*
X112777050Y-318384234D01*
X112790306Y-318467928D01*
X112811226Y-318600017D01*
X112878736Y-318807790D01*
X112936966Y-318922070D01*
X112977919Y-319002444D01*
X113106331Y-319179189D01*
X113260811Y-319333669D01*
X113437556Y-319462081D01*
X113564047Y-319526531D01*
X113632209Y-319561263D01*
X113839982Y-319628772D01*
X113839982Y-319628773D01*
X113839987Y-319628773D01*
X113839988Y-319628774D01*
X114055766Y-319662950D01*
X114055770Y-319662950D01*
X114274230Y-319662950D01*
X114274234Y-319662950D01*
X114490012Y-319628774D01*
X114490013Y-319628773D01*
X114490017Y-319628773D01*
X114490017Y-319628772D01*
X114697788Y-319561264D01*
X114892444Y-319462081D01*
X115069189Y-319333669D01*
X115223669Y-319179189D01*
X115352081Y-319002444D01*
X115451264Y-318807788D01*
X115518772Y-318600017D01*
X115518773Y-318600017D01*
X115521827Y-318580734D01*
X115552950Y-318384234D01*
X115552950Y-318165766D01*
X115952050Y-318165766D01*
X115952050Y-318384234D01*
X115965306Y-318467928D01*
X115986226Y-318600017D01*
X116053736Y-318807790D01*
X116111966Y-318922070D01*
X116152919Y-319002444D01*
X116281331Y-319179189D01*
X116435811Y-319333669D01*
X116612556Y-319462081D01*
X116739047Y-319526531D01*
X116807209Y-319561263D01*
X117014982Y-319628772D01*
X117014982Y-319628773D01*
X117014987Y-319628773D01*
X117014988Y-319628774D01*
X117230766Y-319662950D01*
X117230770Y-319662950D01*
X117449230Y-319662950D01*
X117449234Y-319662950D01*
X117665012Y-319628774D01*
X117665013Y-319628773D01*
X117665017Y-319628773D01*
X117665017Y-319628772D01*
X117872788Y-319561264D01*
X118067444Y-319462081D01*
X118244189Y-319333669D01*
X118398669Y-319179189D01*
X118527081Y-319002444D01*
X118626264Y-318807788D01*
X118693772Y-318600017D01*
X118693773Y-318600017D01*
X118696827Y-318580734D01*
X118727950Y-318384234D01*
X118727950Y-318165766D01*
X118693774Y-317949988D01*
X118693773Y-317949987D01*
X118693773Y-317949982D01*
X118626263Y-317742209D01*
X118572485Y-317636666D01*
X118527081Y-317547556D01*
X118398669Y-317370811D01*
X118244189Y-317216331D01*
X118067444Y-317087919D01*
X118004198Y-317055693D01*
X117872790Y-316988736D01*
X117665017Y-316921227D01*
X117665017Y-316921226D01*
X117545135Y-316902239D01*
X117449234Y-316887050D01*
X117230766Y-316887050D01*
X117144454Y-316900720D01*
X117014982Y-316921226D01*
X117014982Y-316921227D01*
X116807209Y-316988736D01*
X116612554Y-317087920D01*
X116612553Y-317087920D01*
X116435812Y-317216330D01*
X116435809Y-317216332D01*
X116281332Y-317370809D01*
X116281330Y-317370812D01*
X116152920Y-317547553D01*
X116152920Y-317547554D01*
X116053736Y-317742209D01*
X115986227Y-317949982D01*
X115986226Y-317949982D01*
X115963442Y-318093840D01*
X115952050Y-318165766D01*
X115552950Y-318165766D01*
X115518774Y-317949988D01*
X115518773Y-317949987D01*
X115518773Y-317949982D01*
X115451263Y-317742209D01*
X115397485Y-317636666D01*
X115352081Y-317547556D01*
X115223669Y-317370811D01*
X115069189Y-317216331D01*
X114892444Y-317087919D01*
X114829198Y-317055693D01*
X114697790Y-316988736D01*
X114490017Y-316921227D01*
X114490017Y-316921226D01*
X114370135Y-316902239D01*
X114274234Y-316887050D01*
X114055766Y-316887050D01*
X113969454Y-316900720D01*
X113839982Y-316921226D01*
X113839982Y-316921227D01*
X113632209Y-316988736D01*
X113437554Y-317087920D01*
X113437553Y-317087920D01*
X113260812Y-317216330D01*
X113260809Y-317216332D01*
X113106332Y-317370809D01*
X113106330Y-317370812D01*
X112977920Y-317547553D01*
X112977920Y-317547554D01*
X112878736Y-317742209D01*
X112811227Y-317949982D01*
X112811226Y-317949982D01*
X112788442Y-318093840D01*
X112777050Y-318165766D01*
X107575500Y-318165766D01*
X107575500Y-316682469D01*
X111564200Y-316682469D01*
X111564200Y-316819530D01*
X111590938Y-316953954D01*
X111590939Y-316953958D01*
X111643386Y-317080577D01*
X111643388Y-317080581D01*
X111643390Y-317080585D01*
X111719537Y-317194547D01*
X111816453Y-317291463D01*
X111930415Y-317367610D01*
X112057043Y-317420061D01*
X112191470Y-317446800D01*
X112328530Y-317446800D01*
X112462957Y-317420061D01*
X112589585Y-317367610D01*
X112703547Y-317291463D01*
X112800463Y-317194547D01*
X112876610Y-317080585D01*
X112929061Y-316953957D01*
X112955800Y-316819530D01*
X112955800Y-316682470D01*
X112929061Y-316548043D01*
X112876610Y-316421415D01*
X112800463Y-316307453D01*
X112703547Y-316210537D01*
X112589585Y-316134390D01*
X112589581Y-316134388D01*
X112589577Y-316134386D01*
X112462958Y-316081939D01*
X112462954Y-316081938D01*
X112328530Y-316055200D01*
X112191470Y-316055200D01*
X112057045Y-316081938D01*
X112057041Y-316081939D01*
X111930422Y-316134386D01*
X111930415Y-316134390D01*
X111864330Y-316178547D01*
X111816449Y-316210540D01*
X111719540Y-316307449D01*
X111643390Y-316421415D01*
X111643386Y-316421422D01*
X111590939Y-316548041D01*
X111590938Y-316548045D01*
X111564200Y-316682469D01*
X107575500Y-316682469D01*
X107575500Y-316524234D01*
X107575499Y-316524230D01*
X107573278Y-316515943D01*
X107536281Y-316377865D01*
X107460515Y-316246635D01*
X107353365Y-316139485D01*
X107353362Y-316139483D01*
X107353361Y-316139482D01*
X107222137Y-316063720D01*
X107222136Y-316063719D01*
X107222135Y-316063719D01*
X107168561Y-316049364D01*
X107075769Y-316024500D01*
X107075766Y-316024500D01*
X106924234Y-316024500D01*
X106924230Y-316024500D01*
X106800506Y-316057652D01*
X106777865Y-316063719D01*
X106777864Y-316063719D01*
X106777862Y-316063720D01*
X106646632Y-316139486D01*
X106645207Y-316140580D01*
X106643546Y-316141267D01*
X106638177Y-316144368D01*
X106637768Y-316143661D01*
X106573951Y-316170097D01*
X106497482Y-316160031D01*
X106436292Y-316113079D01*
X106406775Y-316041823D01*
X106405500Y-316022372D01*
X106405500Y-315754500D01*
X106425462Y-315680000D01*
X106438993Y-315666469D01*
X116644200Y-315666469D01*
X116644200Y-315803530D01*
X116670938Y-315937954D01*
X116670939Y-315937958D01*
X116723386Y-316064577D01*
X116723388Y-316064581D01*
X116723390Y-316064585D01*
X116799537Y-316178547D01*
X116896453Y-316275463D01*
X117010415Y-316351610D01*
X117137043Y-316404061D01*
X117271470Y-316430800D01*
X117408530Y-316430800D01*
X117542957Y-316404061D01*
X117669585Y-316351610D01*
X117783547Y-316275463D01*
X117880463Y-316178547D01*
X117956610Y-316064585D01*
X118009061Y-315937957D01*
X118035800Y-315803530D01*
X118035800Y-315666470D01*
X118009061Y-315532043D01*
X117956610Y-315405415D01*
X117880463Y-315291453D01*
X117783547Y-315194537D01*
X117669585Y-315118390D01*
X117669581Y-315118388D01*
X117669577Y-315118386D01*
X117542958Y-315065939D01*
X117542954Y-315065938D01*
X117408530Y-315039200D01*
X117271470Y-315039200D01*
X117137045Y-315065938D01*
X117137041Y-315065939D01*
X117010422Y-315118386D01*
X117010415Y-315118390D01*
X116944330Y-315162547D01*
X116896449Y-315194540D01*
X116799540Y-315291449D01*
X116723390Y-315405415D01*
X116723386Y-315405422D01*
X116670939Y-315532041D01*
X116670938Y-315532045D01*
X116644200Y-315666469D01*
X106438993Y-315666469D01*
X106480000Y-315625462D01*
X106554500Y-315605500D01*
X108475996Y-315605500D01*
X108476000Y-315605500D01*
X108476004Y-315605499D01*
X108476013Y-315605499D01*
X108519676Y-315600804D01*
X108519677Y-315600803D01*
X108519684Y-315600803D01*
X108571195Y-315589597D01*
X108581373Y-315587110D01*
X108662085Y-315544100D01*
X108714889Y-315498345D01*
X108732843Y-315480754D01*
X108777490Y-315400937D01*
X108797175Y-315333898D01*
X108805500Y-315276000D01*
X108805500Y-314650469D01*
X111564200Y-314650469D01*
X111564200Y-314787530D01*
X111590938Y-314921954D01*
X111590939Y-314921958D01*
X111643386Y-315048577D01*
X111643388Y-315048581D01*
X111643390Y-315048585D01*
X111719537Y-315162547D01*
X111816453Y-315259463D01*
X111930415Y-315335610D01*
X112057043Y-315388061D01*
X112191470Y-315414800D01*
X112328530Y-315414800D01*
X112462957Y-315388061D01*
X112589585Y-315335610D01*
X112703547Y-315259463D01*
X112800463Y-315162547D01*
X112876610Y-315048585D01*
X112929061Y-314921957D01*
X112955800Y-314787530D01*
X112955800Y-314650470D01*
X112929061Y-314516043D01*
X112876610Y-314389415D01*
X112800463Y-314275453D01*
X112703547Y-314178537D01*
X112589585Y-314102390D01*
X112589581Y-314102388D01*
X112589577Y-314102386D01*
X112462958Y-314049939D01*
X112462954Y-314049938D01*
X112328530Y-314023200D01*
X112191470Y-314023200D01*
X112057045Y-314049938D01*
X112057041Y-314049939D01*
X111930422Y-314102386D01*
X111930415Y-314102390D01*
X111816449Y-314178540D01*
X111719540Y-314275449D01*
X111643390Y-314389415D01*
X111643386Y-314389422D01*
X111590939Y-314516041D01*
X111590938Y-314516045D01*
X111564200Y-314650469D01*
X108805500Y-314650469D01*
X108805500Y-313085766D01*
X112777050Y-313085766D01*
X112777050Y-313304234D01*
X112792239Y-313400135D01*
X112811226Y-313520017D01*
X112878736Y-313727790D01*
X112945693Y-313859198D01*
X112977919Y-313922444D01*
X113106331Y-314099189D01*
X113260811Y-314253669D01*
X113437556Y-314382081D01*
X113564047Y-314446531D01*
X113632209Y-314481263D01*
X113632211Y-314481263D01*
X113632212Y-314481264D01*
X113739245Y-314516041D01*
X113839982Y-314548772D01*
X113839982Y-314548773D01*
X113839987Y-314548773D01*
X113839988Y-314548774D01*
X114055766Y-314582950D01*
X114055770Y-314582950D01*
X114274230Y-314582950D01*
X114274234Y-314582950D01*
X114490012Y-314548774D01*
X114490013Y-314548773D01*
X114490017Y-314548773D01*
X114490017Y-314548772D01*
X114697788Y-314481264D01*
X114892444Y-314382081D01*
X115069189Y-314253669D01*
X115223669Y-314099189D01*
X115352081Y-313922444D01*
X115451264Y-313727788D01*
X115518772Y-313520017D01*
X115518773Y-313520017D01*
X115518774Y-313520012D01*
X115552950Y-313304234D01*
X115552950Y-313085766D01*
X115952050Y-313085766D01*
X115952050Y-313304234D01*
X115967239Y-313400135D01*
X115986226Y-313520017D01*
X116053736Y-313727790D01*
X116120693Y-313859198D01*
X116152919Y-313922444D01*
X116281331Y-314099189D01*
X116435811Y-314253669D01*
X116612556Y-314382081D01*
X116739047Y-314446531D01*
X116807209Y-314481263D01*
X116807211Y-314481263D01*
X116807212Y-314481264D01*
X116914245Y-314516041D01*
X117014982Y-314548772D01*
X117014982Y-314548773D01*
X117014987Y-314548773D01*
X117014988Y-314548774D01*
X117230766Y-314582950D01*
X117230770Y-314582950D01*
X117449230Y-314582950D01*
X117449234Y-314582950D01*
X117665012Y-314548774D01*
X117665013Y-314548773D01*
X117665017Y-314548773D01*
X117665017Y-314548772D01*
X117872788Y-314481264D01*
X118067444Y-314382081D01*
X118244189Y-314253669D01*
X118398669Y-314099189D01*
X118527081Y-313922444D01*
X118626264Y-313727788D01*
X118693772Y-313520017D01*
X118693773Y-313520017D01*
X118693774Y-313520012D01*
X118727950Y-313304234D01*
X118727950Y-313085766D01*
X118693774Y-312869988D01*
X118693773Y-312869987D01*
X118693773Y-312869982D01*
X118626263Y-312662209D01*
X118591531Y-312594047D01*
X118527081Y-312467556D01*
X118398669Y-312290811D01*
X118244189Y-312136331D01*
X118067444Y-312007919D01*
X118004198Y-311975693D01*
X117872790Y-311908736D01*
X117665017Y-311841227D01*
X117665017Y-311841226D01*
X117545135Y-311822239D01*
X117449234Y-311807050D01*
X117230766Y-311807050D01*
X117144454Y-311820720D01*
X117014982Y-311841226D01*
X117014982Y-311841227D01*
X116807209Y-311908736D01*
X116612554Y-312007920D01*
X116612553Y-312007920D01*
X116435812Y-312136330D01*
X116435809Y-312136332D01*
X116281332Y-312290809D01*
X116281330Y-312290812D01*
X116152920Y-312467553D01*
X116152920Y-312467554D01*
X116053736Y-312662209D01*
X115986227Y-312869982D01*
X115986226Y-312869982D01*
X115963442Y-313013840D01*
X115952050Y-313085766D01*
X115552950Y-313085766D01*
X115518774Y-312869988D01*
X115518773Y-312869987D01*
X115518773Y-312869982D01*
X115451263Y-312662209D01*
X115416531Y-312594047D01*
X115352081Y-312467556D01*
X115223669Y-312290811D01*
X115069189Y-312136331D01*
X114892444Y-312007919D01*
X114829198Y-311975693D01*
X114697790Y-311908736D01*
X114490017Y-311841227D01*
X114490017Y-311841226D01*
X114370135Y-311822239D01*
X114274234Y-311807050D01*
X114055766Y-311807050D01*
X113969454Y-311820720D01*
X113839982Y-311841226D01*
X113839982Y-311841227D01*
X113632209Y-311908736D01*
X113437554Y-312007920D01*
X113437553Y-312007920D01*
X113260812Y-312136330D01*
X113260809Y-312136332D01*
X113106332Y-312290809D01*
X113106330Y-312290812D01*
X112977920Y-312467553D01*
X112977920Y-312467554D01*
X112878736Y-312662209D01*
X112811227Y-312869982D01*
X112811226Y-312869982D01*
X112788442Y-313013840D01*
X112777050Y-313085766D01*
X108805500Y-313085766D01*
X108805500Y-309100000D01*
X125344693Y-309100000D01*
X125363904Y-309442086D01*
X125421296Y-309779870D01*
X125516147Y-310109104D01*
X125516148Y-310109108D01*
X125516149Y-310109109D01*
X125516150Y-310109114D01*
X125647264Y-310425648D01*
X125812998Y-310725521D01*
X126011265Y-311004953D01*
X126239572Y-311260428D01*
X126495047Y-311488735D01*
X126774479Y-311687002D01*
X127074352Y-311852736D01*
X127209548Y-311908736D01*
X127390885Y-311983849D01*
X127390887Y-311983849D01*
X127390896Y-311983853D01*
X127720130Y-312078704D01*
X128057914Y-312136096D01*
X128400000Y-312155307D01*
X128742086Y-312136096D01*
X129079870Y-312078704D01*
X129409104Y-311983853D01*
X129725648Y-311852736D01*
X130025521Y-311687002D01*
X130304953Y-311488735D01*
X130560428Y-311260428D01*
X130788735Y-311004953D01*
X130987002Y-310725521D01*
X131152736Y-310425648D01*
X131283853Y-310109104D01*
X131378704Y-309779870D01*
X131436096Y-309442086D01*
X131455307Y-309100000D01*
X131436096Y-308757914D01*
X131378704Y-308420130D01*
X131283853Y-308090896D01*
X131283849Y-308090887D01*
X131283849Y-308090885D01*
X131219981Y-307936696D01*
X131152736Y-307774352D01*
X130987002Y-307474479D01*
X130788735Y-307195047D01*
X130560428Y-306939572D01*
X130304953Y-306711265D01*
X130025521Y-306512998D01*
X129869246Y-306426628D01*
X129725648Y-306347264D01*
X129409114Y-306216150D01*
X129409109Y-306216149D01*
X129409108Y-306216148D01*
X129409104Y-306216147D01*
X129079870Y-306121296D01*
X128742086Y-306063904D01*
X128400000Y-306044693D01*
X128057913Y-306063904D01*
X128057910Y-306063904D01*
X127720130Y-306121296D01*
X127390896Y-306216147D01*
X127390893Y-306216147D01*
X127390890Y-306216149D01*
X127390885Y-306216150D01*
X127074351Y-306347264D01*
X126774483Y-306512995D01*
X126711696Y-306557545D01*
X126510920Y-306700003D01*
X126495043Y-306711268D01*
X126239572Y-306939572D01*
X126011268Y-307195043D01*
X125812995Y-307474483D01*
X125647264Y-307774351D01*
X125516150Y-308090885D01*
X125516149Y-308090890D01*
X125516147Y-308090896D01*
X125421296Y-308420130D01*
X125363904Y-308757914D01*
X125344693Y-309100000D01*
X108805500Y-309100000D01*
X108805500Y-308534996D01*
X120544353Y-308534996D01*
X120544353Y-308535003D01*
X120564834Y-308677454D01*
X120564834Y-308677455D01*
X120564835Y-308677457D01*
X120624623Y-308808373D01*
X120718872Y-308917143D01*
X120839947Y-308994953D01*
X120978039Y-309035500D01*
X120978041Y-309035500D01*
X121121959Y-309035500D01*
X121121961Y-309035500D01*
X121260053Y-308994953D01*
X121381128Y-308917143D01*
X121475377Y-308808373D01*
X121535165Y-308677457D01*
X121555647Y-308535000D01*
X121555647Y-308534996D01*
X121535165Y-308392545D01*
X121535165Y-308392543D01*
X121475377Y-308261627D01*
X121381128Y-308152857D01*
X121381127Y-308152856D01*
X121347465Y-308131223D01*
X121260053Y-308075047D01*
X121260050Y-308075046D01*
X121121967Y-308034501D01*
X121121962Y-308034500D01*
X121121961Y-308034500D01*
X120978039Y-308034500D01*
X120978037Y-308034500D01*
X120978032Y-308034501D01*
X120839949Y-308075046D01*
X120718872Y-308152856D01*
X120718870Y-308152859D01*
X120624622Y-308261628D01*
X120564834Y-308392545D01*
X120544353Y-308534996D01*
X108805500Y-308534996D01*
X108805500Y-307824000D01*
X108805499Y-307823991D01*
X108805499Y-307823986D01*
X108800804Y-307780323D01*
X108800803Y-307780320D01*
X108800803Y-307780316D01*
X108789597Y-307728805D01*
X108787110Y-307718627D01*
X108744100Y-307637915D01*
X108698345Y-307585111D01*
X108680754Y-307567157D01*
X108680753Y-307567156D01*
X108645583Y-307547483D01*
X108600937Y-307522510D01*
X108600935Y-307522509D01*
X108574716Y-307514810D01*
X108533898Y-307502825D01*
X108533893Y-307502824D01*
X108533889Y-307502823D01*
X108476008Y-307494500D01*
X108476000Y-307494500D01*
X93607007Y-307494500D01*
X93532507Y-307474538D01*
X93501681Y-307443712D01*
X93495815Y-307453336D01*
X93428121Y-307490300D01*
X93392993Y-307494500D01*
X92607007Y-307494500D01*
X92532507Y-307474538D01*
X92501681Y-307443712D01*
X92495815Y-307453336D01*
X92428121Y-307490300D01*
X92392993Y-307494500D01*
X88923986Y-307494500D01*
X88880323Y-307499195D01*
X88828775Y-307510409D01*
X88818634Y-307512887D01*
X88818623Y-307512891D01*
X88737914Y-307555900D01*
X88685119Y-307601647D01*
X88685103Y-307601662D01*
X88667156Y-307619246D01*
X88622510Y-307699063D01*
X88622509Y-307699064D01*
X88602823Y-307766110D01*
X88594500Y-307823991D01*
X81173297Y-307823991D01*
X81152736Y-307774352D01*
X80987002Y-307474479D01*
X80788735Y-307195047D01*
X80560428Y-306939572D01*
X80304953Y-306711265D01*
X80289071Y-306699996D01*
X91994353Y-306699996D01*
X91994353Y-306700003D01*
X92014834Y-306842454D01*
X92014834Y-306842455D01*
X92014835Y-306842457D01*
X92074623Y-306973373D01*
X92168872Y-307082143D01*
X92289947Y-307159953D01*
X92428039Y-307200500D01*
X92428040Y-307200500D01*
X92434971Y-307202535D01*
X92500829Y-307242678D01*
X92502758Y-307246210D01*
X92532507Y-307216462D01*
X92565029Y-307202535D01*
X92571960Y-307200500D01*
X92571961Y-307200500D01*
X92710053Y-307159953D01*
X92831128Y-307082143D01*
X92887394Y-307017207D01*
X92951265Y-306973977D01*
X93028197Y-306968474D01*
X93097573Y-307002174D01*
X93112599Y-307017200D01*
X93168872Y-307082143D01*
X93289947Y-307159953D01*
X93428039Y-307200500D01*
X93428040Y-307200500D01*
X93434971Y-307202535D01*
X93500829Y-307242678D01*
X93502758Y-307246210D01*
X93532507Y-307216462D01*
X93565029Y-307202535D01*
X93571960Y-307200500D01*
X93571961Y-307200500D01*
X93710053Y-307159953D01*
X93831128Y-307082143D01*
X93925377Y-306973373D01*
X93985165Y-306842457D01*
X94004027Y-306711268D01*
X94005647Y-306700003D01*
X94005647Y-306699996D01*
X93985165Y-306557545D01*
X93985165Y-306557543D01*
X93925377Y-306426627D01*
X93831128Y-306317857D01*
X93831127Y-306317856D01*
X93797465Y-306296223D01*
X93710053Y-306240047D01*
X93710050Y-306240046D01*
X93571967Y-306199501D01*
X93571962Y-306199500D01*
X93571961Y-306199500D01*
X93428039Y-306199500D01*
X93428037Y-306199500D01*
X93428032Y-306199501D01*
X93289949Y-306240046D01*
X93168872Y-306317856D01*
X93168870Y-306317859D01*
X93112607Y-306382791D01*
X93048734Y-306426022D01*
X92971802Y-306431524D01*
X92902426Y-306397824D01*
X92887393Y-306382791D01*
X92856609Y-306347264D01*
X92831128Y-306317857D01*
X92831127Y-306317856D01*
X92797465Y-306296223D01*
X92710053Y-306240047D01*
X92710050Y-306240046D01*
X92571967Y-306199501D01*
X92571962Y-306199500D01*
X92571961Y-306199500D01*
X92428039Y-306199500D01*
X92428037Y-306199500D01*
X92428032Y-306199501D01*
X92289949Y-306240046D01*
X92168872Y-306317856D01*
X92168870Y-306317859D01*
X92074622Y-306426628D01*
X92014834Y-306557545D01*
X91994353Y-306699996D01*
X80289071Y-306699996D01*
X80025521Y-306512998D01*
X79869246Y-306426628D01*
X79725648Y-306347264D01*
X79409114Y-306216150D01*
X79409109Y-306216149D01*
X79409108Y-306216148D01*
X79409104Y-306216147D01*
X79079870Y-306121296D01*
X78742086Y-306063904D01*
X78400000Y-306044693D01*
X78057913Y-306063904D01*
X78057910Y-306063904D01*
X77720130Y-306121296D01*
X77390896Y-306216147D01*
X77390893Y-306216147D01*
X77390890Y-306216149D01*
X77390885Y-306216150D01*
X77074351Y-306347264D01*
X76774483Y-306512995D01*
X76711696Y-306557545D01*
X76510920Y-306700003D01*
X76495043Y-306711268D01*
X76239572Y-306939572D01*
X76011268Y-307195043D01*
X75812995Y-307474483D01*
X75647264Y-307774351D01*
X75516150Y-308090885D01*
X75516149Y-308090890D01*
X75516147Y-308090896D01*
X75421296Y-308420130D01*
X75363904Y-308757914D01*
X75344693Y-309100000D01*
X73900500Y-309100000D01*
X73900500Y-304749500D01*
X73920462Y-304675000D01*
X73975000Y-304620462D01*
X74049500Y-304600500D01*
X132750500Y-304600500D01*
X132825000Y-304620462D01*
G37*
%TD.AperFunction*%
%TD*%
%TA.AperFunction,Conductor*%
%TO.N,+5VA*%
G36*
X112128464Y-361519685D02*
G01*
X112168988Y-361566452D01*
X112169829Y-361565913D01*
X112173584Y-361571756D01*
X112174219Y-361572489D01*
X112174623Y-361573373D01*
X112268872Y-361682143D01*
X112389947Y-361759953D01*
X112389950Y-361759954D01*
X112389949Y-361759954D01*
X112528036Y-361800499D01*
X112528038Y-361800500D01*
X112528039Y-361800500D01*
X112671962Y-361800500D01*
X112671962Y-361800499D01*
X112810053Y-361759953D01*
X112931128Y-361682143D01*
X113025377Y-361573373D01*
X113025780Y-361572489D01*
X113026416Y-361571755D01*
X113030171Y-361565913D01*
X113031010Y-361566452D01*
X113071533Y-361519686D01*
X113138572Y-361500000D01*
X116425635Y-361500000D01*
X116492674Y-361519685D01*
X116538429Y-361572489D01*
X116549634Y-361624365D01*
X116499999Y-378499999D01*
X116500000Y-378500000D01*
X123576257Y-378500000D01*
X123643296Y-378519685D01*
X123689051Y-378572489D01*
X123700256Y-378623741D01*
X123713639Y-385073992D01*
X123749742Y-402475743D01*
X123730196Y-402542823D01*
X123677487Y-402588687D01*
X123625742Y-402600000D01*
X101504551Y-402600000D01*
X101437512Y-402580315D01*
X101391757Y-402527511D01*
X101381813Y-402458353D01*
X101384957Y-402443897D01*
X101385163Y-402442460D01*
X101385165Y-402442457D01*
X101405647Y-402300000D01*
X101385165Y-402157543D01*
X101325377Y-402026627D01*
X101231128Y-401917857D01*
X101110053Y-401840047D01*
X101110051Y-401840046D01*
X101110049Y-401840045D01*
X101110050Y-401840045D01*
X100971963Y-401799500D01*
X100971961Y-401799500D01*
X100828039Y-401799500D01*
X100828036Y-401799500D01*
X100689949Y-401840045D01*
X100568873Y-401917856D01*
X100474623Y-402026626D01*
X100474622Y-402026628D01*
X100414834Y-402157543D01*
X100394353Y-402300000D01*
X100416097Y-402451235D01*
X100414426Y-402451475D01*
X100414426Y-402510935D01*
X100376651Y-402569713D01*
X100313096Y-402598738D01*
X100295449Y-402600000D01*
X85624000Y-402600000D01*
X85556961Y-402580315D01*
X85511206Y-402527511D01*
X85500000Y-402476000D01*
X85500000Y-400900000D01*
X110394353Y-400900000D01*
X110414834Y-401042456D01*
X110453275Y-401126628D01*
X110474623Y-401173373D01*
X110568872Y-401282143D01*
X110689947Y-401359953D01*
X110689950Y-401359954D01*
X110689949Y-401359954D01*
X110797107Y-401391417D01*
X110826336Y-401400000D01*
X110828036Y-401400499D01*
X110828038Y-401400500D01*
X110828039Y-401400500D01*
X110971962Y-401400500D01*
X110971962Y-401400499D01*
X111110053Y-401359953D01*
X111231128Y-401282143D01*
X111325377Y-401173373D01*
X111385165Y-401042457D01*
X111405647Y-400900000D01*
X111385165Y-400757543D01*
X111325377Y-400626627D01*
X111231128Y-400517857D01*
X111110053Y-400440047D01*
X111110051Y-400440046D01*
X111110049Y-400440045D01*
X111110050Y-400440045D01*
X110973666Y-400400000D01*
X116894353Y-400400000D01*
X116914834Y-400542456D01*
X116953275Y-400626628D01*
X116974623Y-400673373D01*
X117068872Y-400782143D01*
X117076324Y-400786932D01*
X117089943Y-400795685D01*
X117135698Y-400848489D01*
X117145641Y-400917648D01*
X117116615Y-400981203D01*
X117089943Y-401004315D01*
X117068874Y-401017855D01*
X116974623Y-401126626D01*
X116974622Y-401126628D01*
X116914834Y-401257543D01*
X116894353Y-401400000D01*
X116914834Y-401542456D01*
X116974622Y-401673371D01*
X116974623Y-401673373D01*
X117068872Y-401782143D01*
X117189947Y-401859953D01*
X117189950Y-401859954D01*
X117189949Y-401859954D01*
X117328036Y-401900499D01*
X117328038Y-401900500D01*
X117328039Y-401900500D01*
X117471962Y-401900500D01*
X117471962Y-401900499D01*
X117610053Y-401859953D01*
X117731128Y-401782143D01*
X117825377Y-401673373D01*
X117885165Y-401542457D01*
X117905647Y-401400000D01*
X117885165Y-401257543D01*
X117825377Y-401126627D01*
X117731128Y-401017857D01*
X117731125Y-401017855D01*
X117731125Y-401017854D01*
X117710058Y-401004316D01*
X117664302Y-400951513D01*
X117654358Y-400882354D01*
X117683382Y-400818798D01*
X117710058Y-400795684D01*
X117731125Y-400782145D01*
X117731125Y-400782144D01*
X117731128Y-400782143D01*
X117825377Y-400673373D01*
X117885165Y-400542457D01*
X117905647Y-400400000D01*
X117885165Y-400257543D01*
X117825377Y-400126627D01*
X117731128Y-400017857D01*
X117610053Y-399940047D01*
X117610051Y-399940046D01*
X117610049Y-399940045D01*
X117610050Y-399940045D01*
X117471963Y-399899500D01*
X117471961Y-399899500D01*
X117328039Y-399899500D01*
X117328036Y-399899500D01*
X117189949Y-399940045D01*
X117068873Y-400017856D01*
X116974623Y-400126626D01*
X116974622Y-400126628D01*
X116914834Y-400257543D01*
X116894353Y-400400000D01*
X110973666Y-400400000D01*
X110971963Y-400399500D01*
X110971961Y-400399500D01*
X110828039Y-400399500D01*
X110828036Y-400399500D01*
X110689949Y-400440045D01*
X110568873Y-400517856D01*
X110474623Y-400626626D01*
X110474622Y-400626628D01*
X110414834Y-400757543D01*
X110394353Y-400900000D01*
X85500000Y-400900000D01*
X85500000Y-396900000D01*
X86394353Y-396900000D01*
X86414834Y-397042456D01*
X86460504Y-397142457D01*
X86474623Y-397173373D01*
X86568872Y-397282143D01*
X86689947Y-397359953D01*
X86689950Y-397359954D01*
X86689949Y-397359954D01*
X86828036Y-397400499D01*
X86828038Y-397400500D01*
X86828039Y-397400500D01*
X86971962Y-397400500D01*
X86971962Y-397400499D01*
X87110053Y-397359953D01*
X87231128Y-397282143D01*
X87325377Y-397173373D01*
X87385165Y-397042457D01*
X87391269Y-397000000D01*
X90994353Y-397000000D01*
X91014834Y-397142456D01*
X91028953Y-397173371D01*
X91074623Y-397273373D01*
X91168872Y-397382143D01*
X91289947Y-397459953D01*
X91289950Y-397459954D01*
X91289949Y-397459954D01*
X91428036Y-397500499D01*
X91428038Y-397500500D01*
X91428039Y-397500500D01*
X91571962Y-397500500D01*
X91571962Y-397500499D01*
X91710053Y-397459953D01*
X91831128Y-397382143D01*
X91925377Y-397273373D01*
X91985165Y-397142457D01*
X92005647Y-397000000D01*
X91985165Y-396857543D01*
X91925377Y-396726627D01*
X91831128Y-396617857D01*
X91710053Y-396540047D01*
X91710051Y-396540046D01*
X91710049Y-396540045D01*
X91710050Y-396540045D01*
X91571963Y-396499500D01*
X91571961Y-396499500D01*
X91428039Y-396499500D01*
X91428036Y-396499500D01*
X91289949Y-396540045D01*
X91168873Y-396617856D01*
X91074623Y-396726626D01*
X91074622Y-396726628D01*
X91014834Y-396857543D01*
X90994353Y-397000000D01*
X87391269Y-397000000D01*
X87405647Y-396900000D01*
X87385165Y-396757543D01*
X87325377Y-396626627D01*
X87231128Y-396517857D01*
X87110053Y-396440047D01*
X87110051Y-396440046D01*
X87110049Y-396440045D01*
X87110050Y-396440045D01*
X86971963Y-396399500D01*
X86971961Y-396399500D01*
X86828039Y-396399500D01*
X86828036Y-396399500D01*
X86689949Y-396440045D01*
X86568873Y-396517856D01*
X86474623Y-396626626D01*
X86474622Y-396626628D01*
X86414834Y-396757543D01*
X86394353Y-396900000D01*
X85500000Y-396900000D01*
X85500000Y-387700000D01*
X94794353Y-387700000D01*
X94814834Y-387842456D01*
X94874622Y-387973371D01*
X94874623Y-387973373D01*
X94968872Y-388082143D01*
X95089947Y-388159953D01*
X95089950Y-388159954D01*
X95089949Y-388159954D01*
X95228036Y-388200499D01*
X95228038Y-388200500D01*
X95228039Y-388200500D01*
X95371962Y-388200500D01*
X95371962Y-388200499D01*
X95510053Y-388159953D01*
X95631128Y-388082143D01*
X95725377Y-387973373D01*
X95785165Y-387842457D01*
X95805647Y-387700000D01*
X95785165Y-387557543D01*
X95725377Y-387426627D01*
X95631128Y-387317857D01*
X95510053Y-387240047D01*
X95510051Y-387240046D01*
X95510049Y-387240045D01*
X95510050Y-387240045D01*
X95371963Y-387199500D01*
X95371961Y-387199500D01*
X95228039Y-387199500D01*
X95228036Y-387199500D01*
X95089949Y-387240045D01*
X94968873Y-387317856D01*
X94874623Y-387426626D01*
X94874622Y-387426628D01*
X94814834Y-387557543D01*
X94794353Y-387700000D01*
X85500000Y-387700000D01*
X85500000Y-380124003D01*
X96294500Y-380124003D01*
X96294500Y-398326007D01*
X96299197Y-398369686D01*
X96310397Y-398421174D01*
X96312890Y-398431372D01*
X96312891Y-398431375D01*
X96355899Y-398512083D01*
X96355901Y-398512086D01*
X96401660Y-398564895D01*
X96419242Y-398582839D01*
X96419246Y-398582843D01*
X96419247Y-398582844D01*
X96419249Y-398582845D01*
X96499059Y-398627488D01*
X96499063Y-398627490D01*
X96566102Y-398647175D01*
X96624000Y-398655500D01*
X96624004Y-398655500D01*
X120375991Y-398655500D01*
X120376000Y-398655500D01*
X120419684Y-398650803D01*
X120448875Y-398644452D01*
X120471174Y-398639602D01*
X120471190Y-398639598D01*
X120471195Y-398639597D01*
X120481373Y-398637110D01*
X120562085Y-398594100D01*
X120614889Y-398548345D01*
X120632843Y-398530754D01*
X120677490Y-398450937D01*
X120697175Y-398383898D01*
X120705500Y-398326000D01*
X120705500Y-385074000D01*
X120700803Y-385030316D01*
X120696897Y-385012364D01*
X120689602Y-384978825D01*
X120689348Y-384977789D01*
X120687110Y-384968627D01*
X120644100Y-384887915D01*
X120598345Y-384835111D01*
X120598339Y-384835104D01*
X120580757Y-384817160D01*
X120580756Y-384817159D01*
X120580754Y-384817157D01*
X120580752Y-384817156D01*
X120580750Y-384817154D01*
X120500940Y-384772511D01*
X120500935Y-384772509D01*
X120433903Y-384752826D01*
X120433899Y-384752825D01*
X120433898Y-384752825D01*
X120376000Y-384744500D01*
X118624000Y-384744500D01*
X118623992Y-384744500D01*
X118580313Y-384749197D01*
X118528825Y-384760397D01*
X118518627Y-384762890D01*
X118518624Y-384762891D01*
X118437916Y-384805899D01*
X118437913Y-384805901D01*
X118385104Y-384851660D01*
X118367160Y-384869242D01*
X118367154Y-384869249D01*
X118322511Y-384949059D01*
X118322509Y-384949064D01*
X118302826Y-385016096D01*
X118302825Y-385016101D01*
X118302825Y-385016102D01*
X118294502Y-385073992D01*
X118294500Y-385074003D01*
X118294500Y-395870500D01*
X118274815Y-395937539D01*
X118222011Y-395983294D01*
X118170500Y-395994500D01*
X99129811Y-395994500D01*
X99062772Y-395974815D01*
X99017017Y-395922011D01*
X99005811Y-395870383D01*
X99006145Y-395517857D01*
X99009948Y-391500000D01*
X99394353Y-391500000D01*
X99414834Y-391642456D01*
X99474622Y-391773371D01*
X99474623Y-391773373D01*
X99568872Y-391882143D01*
X99689947Y-391959953D01*
X99689950Y-391959954D01*
X99689949Y-391959954D01*
X99828036Y-392000499D01*
X99828038Y-392000500D01*
X99828039Y-392000500D01*
X99971962Y-392000500D01*
X99971962Y-392000499D01*
X100110053Y-391959953D01*
X100231128Y-391882143D01*
X100325377Y-391773373D01*
X100385165Y-391642457D01*
X100405647Y-391500000D01*
X100385165Y-391357543D01*
X100325377Y-391226627D01*
X100231128Y-391117857D01*
X100110053Y-391040047D01*
X100110051Y-391040046D01*
X100110049Y-391040045D01*
X100110050Y-391040045D01*
X99971963Y-390999500D01*
X99971961Y-390999500D01*
X99828039Y-390999500D01*
X99828036Y-390999500D01*
X99689949Y-391040045D01*
X99568873Y-391117856D01*
X99474623Y-391226626D01*
X99474622Y-391226628D01*
X99414834Y-391357543D01*
X99394353Y-391500000D01*
X99009948Y-391500000D01*
X99013544Y-387700000D01*
X116994353Y-387700000D01*
X117014834Y-387842456D01*
X117074622Y-387973371D01*
X117074623Y-387973373D01*
X117168872Y-388082143D01*
X117289947Y-388159953D01*
X117289950Y-388159954D01*
X117289949Y-388159954D01*
X117428036Y-388200499D01*
X117428038Y-388200500D01*
X117428039Y-388200500D01*
X117571962Y-388200500D01*
X117571962Y-388200499D01*
X117710053Y-388159953D01*
X117831128Y-388082143D01*
X117925377Y-387973373D01*
X117985165Y-387842457D01*
X118005647Y-387700000D01*
X117985165Y-387557543D01*
X117925377Y-387426627D01*
X117831128Y-387317857D01*
X117710053Y-387240047D01*
X117710051Y-387240046D01*
X117710049Y-387240045D01*
X117710050Y-387240045D01*
X117571963Y-387199500D01*
X117571961Y-387199500D01*
X117428039Y-387199500D01*
X117428036Y-387199500D01*
X117289949Y-387240045D01*
X117168873Y-387317856D01*
X117074623Y-387426626D01*
X117074622Y-387426628D01*
X117014834Y-387557543D01*
X116994353Y-387700000D01*
X99013544Y-387700000D01*
X99020714Y-380124311D01*
X99016038Y-380080528D01*
X99004832Y-380028900D01*
X99002324Y-380018627D01*
X98995120Y-380005109D01*
X98974991Y-379967334D01*
X98959314Y-379937915D01*
X98913559Y-379885111D01*
X98913553Y-379885104D01*
X98895971Y-379867160D01*
X98895970Y-379867159D01*
X98895968Y-379867157D01*
X98895966Y-379867156D01*
X98895964Y-379867154D01*
X98816154Y-379822511D01*
X98816149Y-379822509D01*
X98749117Y-379802826D01*
X98749113Y-379802825D01*
X98749112Y-379802825D01*
X98691214Y-379794500D01*
X96624000Y-379794500D01*
X96623992Y-379794500D01*
X96580313Y-379799197D01*
X96528825Y-379810397D01*
X96518627Y-379812890D01*
X96518624Y-379812891D01*
X96437916Y-379855899D01*
X96437913Y-379855901D01*
X96385104Y-379901660D01*
X96367160Y-379919242D01*
X96367154Y-379919249D01*
X96322511Y-379999059D01*
X96322509Y-379999064D01*
X96302826Y-380066096D01*
X96302825Y-380066101D01*
X96302825Y-380066102D01*
X96295384Y-380117857D01*
X96294500Y-380124003D01*
X85500000Y-380124003D01*
X85500000Y-375000000D01*
X98794353Y-375000000D01*
X98814834Y-375142456D01*
X98874622Y-375273371D01*
X98874623Y-375273373D01*
X98968872Y-375382143D01*
X99089947Y-375459953D01*
X99089950Y-375459954D01*
X99089949Y-375459954D01*
X99228036Y-375500499D01*
X99228038Y-375500500D01*
X99228039Y-375500500D01*
X99371962Y-375500500D01*
X99371962Y-375500499D01*
X99510053Y-375459953D01*
X99631128Y-375382143D01*
X99725377Y-375273373D01*
X99785165Y-375142457D01*
X99805647Y-375000000D01*
X99785165Y-374857543D01*
X99725377Y-374726627D01*
X99631128Y-374617857D01*
X99510053Y-374540047D01*
X99510051Y-374540046D01*
X99510049Y-374540045D01*
X99510050Y-374540045D01*
X99371963Y-374499500D01*
X99371961Y-374499500D01*
X99228039Y-374499500D01*
X99228036Y-374499500D01*
X99089949Y-374540045D01*
X98968873Y-374617856D01*
X98874623Y-374726626D01*
X98874622Y-374726628D01*
X98814834Y-374857543D01*
X98794353Y-375000000D01*
X85500000Y-375000000D01*
X85500000Y-374300000D01*
X97094353Y-374300000D01*
X97114834Y-374442456D01*
X97140886Y-374499500D01*
X97174623Y-374573373D01*
X97268872Y-374682143D01*
X97389947Y-374759953D01*
X97389950Y-374759954D01*
X97389949Y-374759954D01*
X97528036Y-374800499D01*
X97528038Y-374800500D01*
X97528039Y-374800500D01*
X97671962Y-374800500D01*
X97671962Y-374800499D01*
X97810053Y-374759953D01*
X97931128Y-374682143D01*
X98025377Y-374573373D01*
X98085165Y-374442457D01*
X98105647Y-374300000D01*
X98085165Y-374157543D01*
X98025377Y-374026627D01*
X97931128Y-373917857D01*
X97810053Y-373840047D01*
X97810051Y-373840046D01*
X97810049Y-373840045D01*
X97810050Y-373840045D01*
X97671963Y-373799500D01*
X97671961Y-373799500D01*
X97528039Y-373799500D01*
X97528036Y-373799500D01*
X97389949Y-373840045D01*
X97268873Y-373917856D01*
X97174623Y-374026626D01*
X97174622Y-374026628D01*
X97114834Y-374157543D01*
X97094353Y-374300000D01*
X85500000Y-374300000D01*
X85500000Y-373124000D01*
X85519685Y-373056961D01*
X85572489Y-373011206D01*
X85624000Y-373000000D01*
X100876000Y-373000000D01*
X100943039Y-373019685D01*
X100988794Y-373072489D01*
X101000000Y-373124000D01*
X101000000Y-381857948D01*
X100980315Y-381924987D01*
X100927511Y-381970742D01*
X100858353Y-381980686D01*
X100794797Y-381951661D01*
X100763206Y-381909460D01*
X100725377Y-381826628D01*
X100725376Y-381826626D01*
X100631128Y-381717857D01*
X100510053Y-381640047D01*
X100510051Y-381640046D01*
X100510049Y-381640045D01*
X100510050Y-381640045D01*
X100371963Y-381599500D01*
X100371961Y-381599500D01*
X100228039Y-381599500D01*
X100228036Y-381599500D01*
X100089949Y-381640045D01*
X99968873Y-381717856D01*
X99874623Y-381826626D01*
X99874622Y-381826628D01*
X99814834Y-381957543D01*
X99794353Y-382100000D01*
X99814834Y-382242456D01*
X99874622Y-382373371D01*
X99874623Y-382373373D01*
X99968872Y-382482143D01*
X100089947Y-382559953D01*
X100089950Y-382559954D01*
X100089949Y-382559954D01*
X100228036Y-382600499D01*
X100228038Y-382600500D01*
X100228039Y-382600500D01*
X100371962Y-382600500D01*
X100371962Y-382600499D01*
X100510053Y-382559953D01*
X100631128Y-382482143D01*
X100725377Y-382373373D01*
X100785165Y-382242457D01*
X100805647Y-382100000D01*
X100805646Y-382099999D01*
X100806909Y-382091222D01*
X100809582Y-382091606D01*
X100825332Y-382037970D01*
X100878136Y-381992215D01*
X100947294Y-381982271D01*
X100986115Y-382000000D01*
X101000000Y-382000000D01*
X111750000Y-382000000D01*
X111750000Y-381113867D01*
X111769685Y-381046828D01*
X111822489Y-381001073D01*
X111891647Y-380991129D01*
X111908931Y-380994889D01*
X111928039Y-381000500D01*
X112071962Y-381000500D01*
X112071962Y-381000499D01*
X112210053Y-380959953D01*
X112331128Y-380882143D01*
X112425377Y-380773373D01*
X112485165Y-380642457D01*
X112505647Y-380500000D01*
X112485165Y-380357543D01*
X112425377Y-380226627D01*
X112331128Y-380117857D01*
X112210053Y-380040047D01*
X112210051Y-380040046D01*
X112210049Y-380040045D01*
X112210050Y-380040045D01*
X112071963Y-379999500D01*
X112071961Y-379999500D01*
X111928039Y-379999500D01*
X111928035Y-379999500D01*
X111908934Y-380005109D01*
X111839064Y-380005109D01*
X111780287Y-379967334D01*
X111751262Y-379903778D01*
X111750000Y-379886132D01*
X111750000Y-369700000D01*
X114994353Y-369700000D01*
X115014834Y-369842456D01*
X115074622Y-369973371D01*
X115074623Y-369973373D01*
X115168872Y-370082143D01*
X115289947Y-370159953D01*
X115289950Y-370159954D01*
X115289949Y-370159954D01*
X115428036Y-370200499D01*
X115428038Y-370200500D01*
X115428039Y-370200500D01*
X115571962Y-370200500D01*
X115571962Y-370200499D01*
X115710053Y-370159953D01*
X115831128Y-370082143D01*
X115925377Y-369973373D01*
X115985165Y-369842457D01*
X116005647Y-369700000D01*
X115985165Y-369557543D01*
X115925377Y-369426627D01*
X115831128Y-369317857D01*
X115710053Y-369240047D01*
X115710051Y-369240046D01*
X115710049Y-369240045D01*
X115710050Y-369240045D01*
X115571963Y-369199500D01*
X115571961Y-369199500D01*
X115428039Y-369199500D01*
X115428036Y-369199500D01*
X115289949Y-369240045D01*
X115168873Y-369317856D01*
X115074623Y-369426626D01*
X115074622Y-369426628D01*
X115014834Y-369557543D01*
X114994353Y-369700000D01*
X111750000Y-369700000D01*
X111750000Y-361624000D01*
X111769685Y-361556961D01*
X111822489Y-361511206D01*
X111874000Y-361500000D01*
X112061425Y-361500000D01*
X112128464Y-361519685D01*
G37*
%TD.AperFunction*%
%TD*%
%TA.AperFunction,Conductor*%
%TO.N,+VREF*%
G36*
X98758253Y-380019685D02*
G01*
X98804008Y-380072489D01*
X98815214Y-380124117D01*
X98799999Y-396199999D01*
X98800000Y-396200000D01*
X106250000Y-396200000D01*
X108750000Y-396200000D01*
X118500000Y-396200000D01*
X118500000Y-385074000D01*
X118519685Y-385006961D01*
X118572489Y-384961206D01*
X118624000Y-384950000D01*
X120376000Y-384950000D01*
X120443039Y-384969685D01*
X120488794Y-385022489D01*
X120500000Y-385074000D01*
X120500000Y-398326000D01*
X120480315Y-398393039D01*
X120427511Y-398438794D01*
X120376000Y-398450000D01*
X106250000Y-398450000D01*
X96624000Y-398450000D01*
X96556961Y-398430315D01*
X96511206Y-398377511D01*
X96500000Y-398326000D01*
X96500000Y-380124000D01*
X96519685Y-380056961D01*
X96572489Y-380011206D01*
X96624000Y-380000000D01*
X98691214Y-380000000D01*
X98758253Y-380019685D01*
G37*
%TD.AperFunction*%
%TD*%
%TA.AperFunction,Conductor*%
%TO.N,VBUS*%
G36*
X108543039Y-307719685D02*
G01*
X108588794Y-307772489D01*
X108600000Y-307824000D01*
X108600000Y-315276000D01*
X108580315Y-315343039D01*
X108527511Y-315388794D01*
X108476000Y-315400000D01*
X106200000Y-315400000D01*
X106200000Y-327376000D01*
X106180315Y-327443039D01*
X106127511Y-327488794D01*
X106076000Y-327500000D01*
X93112164Y-327500000D01*
X93045125Y-327480315D01*
X92999370Y-327427511D01*
X92989426Y-327358353D01*
X93018451Y-327294797D01*
X93030961Y-327282287D01*
X93031119Y-327282148D01*
X93031128Y-327282143D01*
X93125377Y-327173373D01*
X93185165Y-327042457D01*
X93205647Y-326900000D01*
X93185165Y-326757543D01*
X93125377Y-326626627D01*
X93031128Y-326517857D01*
X92910053Y-326440047D01*
X92910051Y-326440046D01*
X92910049Y-326440045D01*
X92910050Y-326440045D01*
X92771963Y-326399500D01*
X92771961Y-326399500D01*
X92628039Y-326399500D01*
X92628036Y-326399500D01*
X92489949Y-326440045D01*
X92368873Y-326517856D01*
X92274623Y-326626626D01*
X92274622Y-326626628D01*
X92214834Y-326757543D01*
X92194353Y-326900000D01*
X92214834Y-327042456D01*
X92274622Y-327173371D01*
X92274623Y-327173373D01*
X92368872Y-327282143D01*
X92368876Y-327282145D01*
X92369039Y-327282287D01*
X92369158Y-327282472D01*
X92374680Y-327288845D01*
X92373763Y-327289638D01*
X92406813Y-327341065D01*
X92406813Y-327410935D01*
X92369039Y-327469713D01*
X92305483Y-327498738D01*
X92287836Y-327500000D01*
X88924000Y-327500000D01*
X88856961Y-327480315D01*
X88811206Y-327427511D01*
X88800000Y-327376000D01*
X88800000Y-323000000D01*
X92594353Y-323000000D01*
X92614834Y-323142456D01*
X92674622Y-323273371D01*
X92674623Y-323273373D01*
X92768872Y-323382143D01*
X92889947Y-323459953D01*
X92889950Y-323459954D01*
X92889949Y-323459954D01*
X93028036Y-323500499D01*
X93028038Y-323500500D01*
X93028039Y-323500500D01*
X93171962Y-323500500D01*
X93171962Y-323500499D01*
X93310053Y-323459953D01*
X93431128Y-323382143D01*
X93525377Y-323273373D01*
X93585165Y-323142457D01*
X93605647Y-323000000D01*
X93585165Y-322857543D01*
X93525377Y-322726627D01*
X93431128Y-322617857D01*
X93310053Y-322540047D01*
X93310051Y-322540046D01*
X93310049Y-322540045D01*
X93310050Y-322540045D01*
X93171963Y-322499500D01*
X93171961Y-322499500D01*
X93028039Y-322499500D01*
X93028036Y-322499500D01*
X92889949Y-322540045D01*
X92768873Y-322617856D01*
X92674623Y-322726626D01*
X92674622Y-322726628D01*
X92614834Y-322857543D01*
X92594353Y-323000000D01*
X88800000Y-323000000D01*
X88800000Y-314252248D01*
X101969353Y-314252248D01*
X101989834Y-314394704D01*
X102049622Y-314525619D01*
X102049623Y-314525621D01*
X102143872Y-314634391D01*
X102264947Y-314712201D01*
X102264950Y-314712202D01*
X102264949Y-314712202D01*
X102403036Y-314752747D01*
X102403038Y-314752748D01*
X102403039Y-314752748D01*
X102546962Y-314752748D01*
X102546962Y-314752747D01*
X102685053Y-314712201D01*
X102806128Y-314634391D01*
X102806285Y-314634209D01*
X102806486Y-314634080D01*
X102812828Y-314628585D01*
X102813617Y-314629496D01*
X102865059Y-314596434D01*
X102934929Y-314596430D01*
X102986384Y-314629494D01*
X102987172Y-314628585D01*
X102993492Y-314634061D01*
X102993705Y-314634198D01*
X102993872Y-314634391D01*
X102993873Y-314634392D01*
X103027534Y-314656024D01*
X103114947Y-314712201D01*
X103114950Y-314712202D01*
X103114949Y-314712202D01*
X103253036Y-314752747D01*
X103253038Y-314752748D01*
X103253039Y-314752748D01*
X103396962Y-314752748D01*
X103396962Y-314752747D01*
X103535053Y-314712201D01*
X103656128Y-314634391D01*
X103750377Y-314525621D01*
X103810165Y-314394705D01*
X103830647Y-314252248D01*
X103810165Y-314109791D01*
X103750377Y-313978875D01*
X103656128Y-313870105D01*
X103535053Y-313792295D01*
X103535051Y-313792294D01*
X103535049Y-313792293D01*
X103535050Y-313792293D01*
X103396963Y-313751748D01*
X103396961Y-313751748D01*
X103253039Y-313751748D01*
X103253036Y-313751748D01*
X103114949Y-313792293D01*
X102993872Y-313870105D01*
X102993711Y-313870291D01*
X102993504Y-313870423D01*
X102987172Y-313875911D01*
X102986382Y-313875000D01*
X102934932Y-313908064D01*
X102865063Y-313908062D01*
X102813617Y-313875000D01*
X102812828Y-313875911D01*
X102806495Y-313870423D01*
X102806289Y-313870291D01*
X102806128Y-313870105D01*
X102685053Y-313792295D01*
X102685051Y-313792294D01*
X102685049Y-313792293D01*
X102685050Y-313792293D01*
X102546963Y-313751748D01*
X102546961Y-313751748D01*
X102403039Y-313751748D01*
X102403036Y-313751748D01*
X102264949Y-313792293D01*
X102143873Y-313870104D01*
X102143872Y-313870104D01*
X102143872Y-313870105D01*
X102138841Y-313875911D01*
X102049623Y-313978874D01*
X102049622Y-313978876D01*
X101989834Y-314109791D01*
X101969353Y-314252248D01*
X88800000Y-314252248D01*
X88800000Y-310435817D01*
X99984500Y-310435817D01*
X99984500Y-310574182D01*
X100020312Y-310707835D01*
X100020313Y-310707838D01*
X100089492Y-310827661D01*
X100089494Y-310827664D01*
X100089495Y-310827665D01*
X100187335Y-310925505D01*
X100307164Y-310994688D01*
X100440817Y-311030500D01*
X100440819Y-311030500D01*
X100579181Y-311030500D01*
X100579183Y-311030500D01*
X100712836Y-310994688D01*
X100832665Y-310925505D01*
X100930505Y-310827665D01*
X100999688Y-310707836D01*
X101035500Y-310574183D01*
X101035500Y-310435817D01*
X105764500Y-310435817D01*
X105764500Y-310574182D01*
X105800312Y-310707835D01*
X105800313Y-310707838D01*
X105869492Y-310827661D01*
X105869494Y-310827664D01*
X105869495Y-310827665D01*
X105967335Y-310925505D01*
X106087164Y-310994688D01*
X106220817Y-311030500D01*
X106220819Y-311030500D01*
X106359181Y-311030500D01*
X106359183Y-311030500D01*
X106492836Y-310994688D01*
X106612665Y-310925505D01*
X106710505Y-310827665D01*
X106779688Y-310707836D01*
X106815500Y-310574183D01*
X106815500Y-310435817D01*
X106779688Y-310302164D01*
X106710505Y-310182335D01*
X106612665Y-310084495D01*
X106612664Y-310084494D01*
X106612661Y-310084492D01*
X106492838Y-310015313D01*
X106492837Y-310015312D01*
X106492836Y-310015312D01*
X106359183Y-309979500D01*
X106220817Y-309979500D01*
X106087164Y-310015312D01*
X106087161Y-310015313D01*
X105967338Y-310084492D01*
X105967333Y-310084496D01*
X105869496Y-310182333D01*
X105869492Y-310182338D01*
X105800313Y-310302161D01*
X105800312Y-310302164D01*
X105764500Y-310435817D01*
X101035500Y-310435817D01*
X100999688Y-310302164D01*
X100930505Y-310182335D01*
X100832665Y-310084495D01*
X100832664Y-310084494D01*
X100832661Y-310084492D01*
X100712838Y-310015313D01*
X100712837Y-310015312D01*
X100712836Y-310015312D01*
X100579183Y-309979500D01*
X100440817Y-309979500D01*
X100307164Y-310015312D01*
X100307161Y-310015313D01*
X100187338Y-310084492D01*
X100187333Y-310084496D01*
X100089496Y-310182333D01*
X100089492Y-310182338D01*
X100020313Y-310302161D01*
X100020312Y-310302164D01*
X99984500Y-310435817D01*
X88800000Y-310435817D01*
X88800000Y-307824000D01*
X88819685Y-307756961D01*
X88872489Y-307711206D01*
X88924000Y-307700000D01*
X108476000Y-307700000D01*
X108543039Y-307719685D01*
G37*
%TD.AperFunction*%
%TD*%
D18*
X73400000Y-304100000D02*
X133400000Y-304100000D01*
X133400000Y-404100000D01*
X73400000Y-404100000D01*
X73400000Y-304100000D01*
M02*
