%TF.GenerationSoftware,KiCad,Pcbnew,8.0.5*%
%TF.CreationDate,2024-10-21T17:45:40+01:00*%
%TF.ProjectId,Basic_DSP_V0_1,42617369-635f-4445-9350-5f56305f312e,rev?*%
%TF.SameCoordinates,Original*%
%TF.FileFunction,Soldermask,Bot*%
%TF.FilePolarity,Negative*%
%FSLAX46Y46*%
G04 Gerber Fmt 4.6, Leading zero omitted, Abs format (unit mm)*
G04 Created by KiCad (PCBNEW 8.0.5) date 2024-10-21 17:45:40*
%MOMM*%
%LPD*%
G01*
G04 APERTURE LIST*
%ADD10C,5.700000*%
%ADD11R,1.100000X1.000000*%
%ADD12C,1.000000*%
%ADD13C,0.650000*%
%ADD14R,1.000000X1.000000*%
%ADD15C,2.374900*%
%ADD16C,0.990600*%
%ADD17R,1.700000X1.700000*%
%ADD18O,1.700000X1.700000*%
%TA.AperFunction,Profile*%
%ADD19C,0.500000*%
%TD*%
G04 APERTURE END LIST*
D10*
%TO.C,H3*%
X128400000Y-399100000D03*
%TD*%
%TO.C,H4*%
X78400000Y-399100000D03*
%TD*%
D11*
%TO.C,J2*%
X78300000Y-365750000D03*
D12*
X78300000Y-367000000D03*
X78300000Y-368250000D03*
%TD*%
D10*
%TO.C,H1*%
X78400000Y-309100000D03*
%TD*%
D11*
%TO.C,J8*%
X128300000Y-359875000D03*
D12*
X128300000Y-358625000D03*
X128300000Y-357375000D03*
%TD*%
D11*
%TO.C,J7*%
X128300000Y-351250000D03*
D12*
X128300000Y-350000000D03*
X128300000Y-348750000D03*
%TD*%
%TO.C,J11*%
X78275000Y-388125000D03*
X78275000Y-389375000D03*
X78275000Y-390625000D03*
X78275000Y-391875000D03*
%TD*%
D13*
%TO.C,J4*%
X106290000Y-310505000D03*
X100510000Y-310505000D03*
%TD*%
D14*
%TO.C,J15*%
X78300000Y-358000000D03*
D12*
X78300000Y-359250000D03*
%TD*%
D15*
%TO.C,J12*%
X117340000Y-318275000D03*
D16*
X117340000Y-315735000D03*
D15*
X117340000Y-313195000D03*
X114165000Y-318275000D03*
X114165000Y-313195000D03*
D16*
X112260000Y-316751000D03*
X112260000Y-314719000D03*
%TD*%
D11*
%TO.C,J1*%
X78300000Y-316750000D03*
D12*
X78300000Y-318000000D03*
X78300000Y-319250000D03*
%TD*%
D11*
%TO.C,J3*%
X78300000Y-373750000D03*
D12*
X78300000Y-375000000D03*
X78300000Y-376250000D03*
%TD*%
D14*
%TO.C,J14*%
X78300000Y-349375000D03*
D12*
X78300000Y-350625000D03*
%TD*%
%TO.C,J6*%
X128525000Y-391875000D03*
X128525000Y-390625000D03*
X128525000Y-389375000D03*
X128525000Y-388125000D03*
%TD*%
D10*
%TO.C,H2*%
X128400000Y-309100000D03*
%TD*%
D17*
%TO.C,J16*%
X127710000Y-341875000D03*
D18*
X130250000Y-341875000D03*
X127710000Y-339335000D03*
X130250000Y-339335000D03*
X127710000Y-336795000D03*
X130250000Y-336795000D03*
X127710000Y-334255000D03*
X130250000Y-334255000D03*
X127710000Y-331715000D03*
X130250000Y-331715000D03*
X127710000Y-329175000D03*
X130250000Y-329175000D03*
X127710000Y-326635000D03*
X130250000Y-326635000D03*
X127710000Y-324095000D03*
X130250000Y-324095000D03*
%TD*%
D11*
%TO.C,J10*%
X128300000Y-376250000D03*
D12*
X128300000Y-375000000D03*
X128300000Y-373750000D03*
%TD*%
D11*
%TO.C,J9*%
X128300000Y-368250000D03*
D12*
X128300000Y-367000000D03*
X128300000Y-365750000D03*
%TD*%
D19*
X73400000Y-304100000D02*
X133400000Y-304100000D01*
X133400000Y-404100000D01*
X73400000Y-404100000D01*
X73400000Y-304100000D01*
M02*
